<?xml version="1.0" standalone="no"?>
<!DOCTYPE svg PUBLIC "-//W3C//DTD SVG 1.1//EN" "http://www.w3.org/Graphics/SVG/1.1/DTD/svg11.dtd" >
<svg xmlns="http://www.w3.org/2000/svg" xmlns:xlink="http://www.w3.org/1999/xlink" version="1.1">
<metadata>
Created by FontForge 20170731 at Sun May 27 00:17:35 2018
 By Aleksey,,,
Copyright (c) 2018 by Mans Greback. All rights reserved.
</metadata>
<defs>
<font id="Sonika-ThinItalic" horiz-adv-x="678" >
  <font-face 
    font-family="Sonika"
    font-weight="250"
    font-style="italic"
    font-stretch="normal"
    units-per-em="1000"
    panose-1="0 0 0 0 0 0 0 0 0 0"
    ascent="750"
    descent="-250"
    x-height="488"
    cap-height="713"
    bbox="-196.662 -309 1357 1073"
    underline-thickness="50"
    underline-position="-150"
    unicode-range="U+000D-FB02"
  />
<missing-glyph horiz-adv-x="333" 
 />
    <glyph glyph-name="fi" unicode="fi" horiz-adv-x="489" 
d="M442 450h-232l-79 -450h-47l79 450h-72l7 38h72l9 51q9 53 27.5 90t43.5 60t55.5 32t64.5 6l-4 -37q-22 4 -44 -2t-40.5 -24t-33 -47t-21.5 -69l-10 -60h279l-86 -488h-47zM453 634q4 19 18.5 31.5t31.5 12.5q18 0 28.5 -12.5t6.5 -31.5q-3 -18 -17.5 -30.5t-32.5 -12.5
q-17 0 -27.5 12.5t-7.5 30.5z" />
    <glyph glyph-name="fl" unicode="fl" horiz-adv-x="425" 
d="M98 488h72l9 51q9 53 26.5 89.5t42 58.5t54.5 30.5t63 5.5l-4 -37q-22 4 -43 -1.5t-39 -22.5t-31.5 -45.5t-20.5 -68.5l-10 -60h142l-7 -38h-142l-79 -450h-47l79 450h-72zM453 744h47l-131 -744h-47z" />
    <glyph glyph-name=".notdef" horiz-adv-x="333" 
 />
    <glyph glyph-name=".null" horiz-adv-x="0" 
 />
    <glyph glyph-name="nonmarkingreturn" unicode="&#xd;" horiz-adv-x="333" 
 />
    <glyph glyph-name="NULL" horiz-adv-x="0" 
 />
    <glyph glyph-name="NULL" horiz-adv-x="0" 
 />
    <glyph glyph-name="space" unicode=" " horiz-adv-x="333" 
 />
    <glyph glyph-name="exclam" unicode="!" horiz-adv-x="229" 
d="M169 230h-35l73 463h52zM167 46q-3 -17 -18.5 -31.5t-34.5 -14.5q-18 0 -28 14.5t-7 31.5t17.5 31t33.5 14t29.5 -14t7.5 -31z" />
    <glyph glyph-name="quotedbl" unicode="&#x22;" horiz-adv-x="391" 
d="M189 693h45l-58 -298h-35zM400 693h45l-58 -298h-35z" />
    <glyph glyph-name="numbersign" unicode="#" horiz-adv-x="694" 
d="M455 160h-219q-11 -31 -21 -59t-21 -60h-34l43 119h-106l13 37h107q22 59 44.5 123.5t43.5 121.5h-110l13 37h112l48 133h34l-48 -133h218l48 133h34l-48 -133h102l-12 -37h-105q-21 -59 -44 -123.5t-44 -121.5h107l-11 -37h-110q-11 -31 -21.5 -59t-21.5 -60h-34z
M251 197h218q22 59 45 123.5t43 121.5h-218z" />
    <glyph glyph-name="dollar" unicode="$" horiz-adv-x="649" 
d="M291 1q-92 6 -139.5 40t-59.5 80l39 13q13 -40 55 -65.5t115 -31.5q23 78 46.5 159t45.5 158q-37 9 -71.5 20.5t-61 29.5t-40.5 45.5t-10 69.5v1q4 38 25.5 70t58 55.5t86.5 36t111 11.5l25 85h26l-27 -88q45 -5 79.5 -20.5t47.5 -40.5l-29 -24q-28 36 -107 48l-79 -266
q39 -10 76.5 -22.5t65 -33.5t41.5 -53.5t5 -82.5q-7 -38 -29 -74t-59.5 -63t-90.5 -43t-121 -15l-25 -86h-25zM578 195q6 37 -4.5 62t-33.5 42t-55.5 28t-68.5 20l-90 -310q53 -1 97 11t76.5 33.5t52.5 51t26 62.5zM251 514q-2 -28 9.5 -47.5t33 -33t50.5 -23t61 -17.5
q19 64 37.5 131t37.5 130q-50 1 -91 -8.5t-71 -28t-47 -44.5t-20 -59z" />
    <glyph glyph-name="percent" unicode="%" horiz-adv-x="881" 
d="M822 693h54l-701 -693h-55zM449 500q5 28 3 56.5t-13.5 51t-34.5 36.5t-59 14q-34 0 -60 -14t-45 -36.5t-30.5 -51t-16.5 -56.5q-5 -29 -3.5 -57t12.5 -50.5t32 -36.5t55 -14q36 0 64 14t47.5 36.5t31.5 50.5t17 57zM487 500q-8 -44 -27 -79.5t-46 -61t-60.5 -39
t-70.5 -13.5q-42 0 -70 15.5t-43 42t-18.5 61.5t3.5 74q6 36 22 70.5t40.5 62t58 44t75.5 16.5q37 0 65.5 -13.5t46.5 -38.5t24.5 -61t-0.5 -80zM809 193q5 28 3 56.5t-14 51t-34.5 36.5t-59.5 14q-33 0 -59 -14t-45 -36.5t-30.5 -51t-16.5 -56.5q-5 -29 -3.5 -57
t12.5 -50.5t32.5 -36.5t54.5 -14q37 0 64.5 14t47 36.5t31.5 50.5t17 57zM847 193q-8 -44 -27 -80t-46 -61t-60.5 -38.5t-70.5 -13.5q-42 0 -70 15.5t-43 42t-18 61.5t4 74q6 36 21.5 70.5t39.5 61.5t57.5 43.5t75.5 16.5q37 0 65.5 -13.5t47 -38.5t25 -60.5t-0.5 -79.5z
" />
    <glyph glyph-name="ampersand" unicode="&#x26;" horiz-adv-x="770" 
d="M710 368q-11 -69 -41 -130t-75 -111q29 -26 56 -49t55 -41l-22 -32q-27 18 -56 41.5t-60 52.5q-50 -46 -113 -72.5t-135 -26.5q-69 0 -117 23t-73.5 59.5t-28.5 82t18 89.5q24 46 75.5 85t132.5 60q-15 34 -25.5 67.5t-5.5 62.5q3 36 17 66t37.5 51.5t55 34t67.5 12.5
q40 0 67.5 -14.5t42 -38t15 -53.5t-11.5 -60q-19 -49 -71.5 -91t-138.5 -59q35 -57 86.5 -115t109.5 -112q42 45 73 100t44 118h22zM327 38q58 1 112.5 23t102.5 61q-62 60 -114.5 125t-86.5 124q-75 -20 -120.5 -56t-65.5 -77q-15 -36 -11 -72t26.5 -64.5t62 -46
t94.5 -17.5zM340 578q-29 -73 21 -172q55 11 93.5 32.5t62 46t34 48.5t9.5 41q0 34 -23.5 57t-70.5 23q-46 0 -77.5 -20.5t-48.5 -55.5z" />
    <glyph glyph-name="quotesingle" unicode="'" horiz-adv-x="180" 
d="M189 693h45l-58 -298h-35z" />
    <glyph glyph-name="parenleft" unicode="(" horiz-adv-x="325" 
d="M178 346q-12 -65 -13 -126.5t7.5 -113.5t25.5 -92.5t43 -62.5l-27 -17q-29 25 -50.5 66.5t-33.5 95t-13 117.5t11 133q12 70 36 133.5t55 117t67 95t73 66.5l22 -17q-34 -26 -66 -66t-58.5 -91.5t-47 -112t-31.5 -125.5z" />
    <glyph glyph-name="parenright" unicode=")" horiz-adv-x="325" 
d="M270 346q11 66 12 127.5t-7.5 113.5t-26 92t-43.5 63l27 16q29 -25 50.5 -66t33.5 -95t13.5 -117.5t-10.5 -133.5q-12 -69 -36 -133t-55 -117.5t-67.5 -95t-73.5 -66.5l-22 17q34 26 66 66.5t59 92t47.5 111.5t32.5 125z" />
    <glyph glyph-name="asterisk" unicode="*" horiz-adv-x="613" 
d="M203 659l181 -133l37 231h36l-45 -229l224 131l15 -30l-235 -126l191 -126l-26 -30l-178 130l-35 -228h-37l46 231l-229 -132l-11 29l233 126q-23 15 -47.5 32t-49.5 33.5t-48.5 32t-43.5 28.5z" />
    <glyph glyph-name="plus" unicode="+" horiz-adv-x="641" 
d="M406 363h231l-8 -40h-231l-42 -241h-37l42 241h-238l8 40h238l41 234h37z" />
    <glyph glyph-name="comma" unicode="," horiz-adv-x="252" 
d="M163 158h45l-123 -249h-31z" />
    <glyph glyph-name="hyphen" unicode="-" horiz-adv-x="566" 
d="M113 263l8 45h432l-8 -45h-432z" />
    <glyph glyph-name="period" unicode="." horiz-adv-x="222" 
d="M163 46q-3 -17 -18 -31.5t-35 -14.5q-18 0 -28 14.5t-7 31.5t18 31t33 14q20 0 30 -14t7 -31z" />
    <glyph glyph-name="slash" unicode="/" horiz-adv-x="664" 
d="M657 693h54l-608 -836h-54z" />
    <glyph glyph-name="zero" unicode="0" horiz-adv-x="703" 
d="M644 346q10 61 4 117t-29 98t-62 67t-93 25q-52 0 -98.5 -24t-84 -65.5t-64 -97.5t-37.5 -120q-12 -64 -5.5 -120t29.5 -97t61.5 -65t90.5 -24q54 0 101.5 25t85.5 67t64 97.5t37 116.5zM694 346q-14 -80 -48 -144t-81 -109t-103 -69t-114 -24q-63 0 -110 27t-75.5 73.5
t-37 110t4.5 135.5q13 73 44 136t76 110t101 74t119 27q58 0 105.5 -25t78 -70.5t42 -109.5t-1.5 -142z" />
    <glyph glyph-name="one" unicode="1" horiz-adv-x="314" 
d="M198 0l90 515h-131l6 34q37 0 63 3.5t43.5 14.5t29 31t20.5 53l13 42h37l-122 -693h-49z" />
    <glyph glyph-name="two" unicode="2" horiz-adv-x="641" 
d="M150 441q-1 19 2 35.5t10 37.5q14 38 40 71t61.5 57t79 37.5t91.5 13.5q61 0 103.5 -17t68 -45t34.5 -64.5t3 -75.5q-6 -43 -34 -88t-70 -89.5t-94.5 -86t-106.5 -77.5t-106 -64.5t-94 -46.5h441l-6 -39h-506l8 46q69 31 139.5 72t133.5 84.5t113 86t76 75.5
q34 44 49 87.5t12 82.5q-8 51 -49 84.5t-121 33.5q-72 0 -129 -34.5t-85 -90.5q-10 -17 -14.5 -40.5t-2.5 -45.5h-47z" />
    <glyph glyph-name="three" unicode="3" horiz-adv-x="653" 
d="M201 511q6 57 34.5 92.5t66 55.5t77.5 27t68 7q55 0 93.5 -12t61 -33t30 -49.5t1.5 -60.5q-4 -24 -16.5 -48.5t-34 -46t-52.5 -38.5t-72 -27q92 -9 134.5 -53.5t30.5 -113.5q-7 -38 -29.5 -76t-61.5 -68t-94 -48.5t-127 -18.5q-56 0 -97 15.5t-67.5 41t-38 58.5t-8.5 69
q3 25 9 45h45q-5 -14 -6 -29t-1 -32q5 -57 49 -93t122 -36q57 0 102.5 14t77.5 38t51.5 56t25.5 68q4 25 -3.5 51t-31.5 46.5t-67.5 33.5t-110.5 13h-55l6 36h42q63 0 108 15.5t74 38.5t42.5 50t14.5 50q-2 33 -16.5 54t-35.5 33t-45.5 17t-46.5 5q-49 0 -87 -11.5
t-64.5 -31t-40 -46.5t-13.5 -58h-44v0z" />
    <glyph glyph-name="four" unicode="4" horiz-adv-x="644" 
d="M611 693l-88 -495h89l-6 -35h-89l-28 -163h-44l28 163h-381l6 33l463 497h50zM480 198l91 469l-415 -469h324z" />
    <glyph glyph-name="five" unicode="5" horiz-adv-x="652" 
d="M581 247q14 75 -13 120.5t-78 60.5q-27 7 -60.5 5t-70.5 -13.5t-76 -33t-76 -51.5h-51l115 358h378l-7 -37h-342l-83 -274q52 34 100 53.5t93 26.5q54 7 99 -4t75 -38.5t43 -70t3 -97.5q-10 -56 -38 -102.5t-68.5 -79.5t-91.5 -51.5t-107 -18.5q-53 0 -97.5 12.5
t-76 36.5t-46 58.5t-6.5 78.5h47q-6 -33 8 -60t40.5 -46t63 -29.5t76.5 -10.5q44 0 85.5 15.5t74.5 43.5t56 65.5t31 82.5z" />
    <glyph glyph-name="six" unicode="6" horiz-adv-x="642" 
d="M568 245q13 72 -18.5 116.5t-99.5 52.5q-51 5 -121 -15.5t-155 -71.5q-15 -79 -8 -134t30 -89.5t58.5 -50t78.5 -15.5q40 0 79 16.5t71.5 45t54.5 66t30 79.5zM329 0q-54 0 -98.5 20t-73 61t-38 103.5t5.5 147.5q14 78 47.5 144t81.5 114.5t107 75.5t124 27
q57 0 92.5 -12.5t59.5 -30.5l-18 -32q-20 19 -53.5 30.5t-78.5 9.5q-58 -1 -108 -23t-90.5 -62t-69.5 -95t-44 -121q100 59 184.5 79.5t147.5 7.5q65 -17 94.5 -68t15.5 -131q-9 -50 -36 -94t-66 -78t-87 -53.5t-99 -19.5z" />
    <glyph glyph-name="seven" unicode="7" horiz-adv-x="614" 
d="M660 644q-68 -50 -125.5 -109t-104.5 -135.5t-82 -174.5t-57 -225h-49q22 127 60 228t88.5 180t111.5 138.5t130 103.5h-451l8 43h480z" />
    <glyph glyph-name="eight" unicode="8" horiz-adv-x="655" 
d="M100 197q6 33 23 63t43.5 55t62 44t79.5 29q-66 19 -90.5 57.5t-16.5 82.5q6 33 25 62.5t50.5 52.5t75 36.5t99.5 13.5q54 0 92.5 -13.5t62 -36.5t32 -52.5t2.5 -62.5q-9 -48 -47 -85.5t-107 -54.5q80 -21 114.5 -73t22.5 -118q-7 -38 -31 -73.5t-62.5 -63t-89.5 -44
t-111 -16.5q-63 0 -109.5 16.5t-75 44t-40 63t-4.5 73.5zM335 39q52 0 94 15t73 38.5t50 52.5t24 57q6 36 -4 67t-34 54t-60.5 36t-83.5 13q-48 0 -89.5 -13t-74 -36t-53.5 -54t-27 -67q-5 -28 2.5 -57t29.5 -52.5t59.5 -38.5t93.5 -15zM444 656q-48 0 -84 -11t-60 -29
t-38 -42t-18 -50q-10 -54 32 -86.5t124 -32.5q81 0 133.5 32.5t62.5 86.5q4 26 -2 50t-24.5 42t-49.5 29t-76 11z" />
    <glyph glyph-name="nine" unicode="9" horiz-adv-x="642" 
d="M195 447q-12 -72 18.5 -116t98.5 -52q52 -5 122 15.5t155 71.5q15 79 7.5 134t-30 89.5t-58.5 50t-78 15.5q-41 0 -80 -16.5t-71 -45t-54.5 -66.5t-29.5 -80zM435 693q54 0 98 -20t72 -61.5t37.5 -104t-5.5 -147.5q-14 -78 -47.5 -144t-81 -114t-106.5 -75t-124 -27
q-57 0 -92.5 12.5t-59.5 30.5l18 32q20 -19 53.5 -30.5t80.5 -9.5q57 0 106.5 22.5t90 62t69.5 95t44 121.5q-100 -59 -184.5 -79.5t-147.5 -8.5q-65 17 -95 68.5t-16 130.5q9 50 36 94.5t66 78.5t87.5 53.5t100.5 19.5z" />
    <glyph glyph-name="colon" unicode=":" horiz-adv-x="222" 
d="M163 46q-3 -17 -18 -31.5t-35 -14.5q-18 0 -28 14.5t-7 31.5t18 31t33 14q20 0 30 -14t7 -31zM234 451q-3 -17 -18 -31t-35 -14q-18 0 -28 14t-7 31q3 18 18 31.5t33 13.5q20 0 30 -13.5t7 -31.5z" />
    <glyph glyph-name="semicolon" unicode=";" horiz-adv-x="254" 
d="M163 158h45l-123 -249h-31zM265 451q-3 -17 -18 -31t-35 -14q-18 0 -28 14t-7 31q3 18 18 31.5t33 13.5q20 0 30 -13.5t7 -31.5z" />
    <glyph glyph-name="less" unicode="&#x3c;" horiz-adv-x="468" 
d="M491 550l-300 -210l227 -205l-25 -27l-259 231l340 231z" />
    <glyph glyph-name="equal" unicode="=" horiz-adv-x="641" 
d="M131 411l6 35h522l-6 -35h-522zM98 226l7 35h522l-7 -35h-522z" />
    <glyph glyph-name="greater" unicode="&#x3e;" horiz-adv-x="468" 
d="M97 129l300 210l-227 204l27 27l257 -230l-339 -232z" />
    <glyph glyph-name="question" unicode="?" horiz-adv-x="601" 
d="M159 508q2 51 31.5 86.5t70 57.5t84.5 31.5t76 9.5q54 0 95 -16.5t67 -43.5t34.5 -63t-1.5 -75q-11 -41 -31.5 -67.5t-46.5 -45.5t-54.5 -32.5t-53.5 -26.5q-42 -22 -73 -48t-33 -67h-32q2 42 22 69t48.5 46t62.5 34t65 33t54.5 43t32.5 65q7 31 1.5 60t-25.5 50.5
t-55.5 34.5t-87.5 13q-55 0 -96 -15t-68 -37t-40 -48t-11 -48h-36zM323 42q-3 -16 -18 -29t-34 -13q-18 0 -29.5 13t-8.5 29q2 15 17.5 28.5t34.5 13.5t29.5 -13.5t8.5 -28.5z" />
    <glyph glyph-name="at" unicode="@" horiz-adv-x="984" 
d="M406 475q10 16 28 33t43 30t55.5 21.5t65.5 8.5q88 0 129 -44t27 -127l-27 -153q-3 -15 -2.5 -30.5t7 -29t21 -22t39.5 -8.5q24 0 46.5 14t42.5 40t35 64.5t24 87.5q15 86 -1 155.5t-58 119t-108 76.5t-151 27q-84 0 -160 -28.5t-136 -80t-101 -124t-56 -159.5
q-17 -94 -2 -166.5t57 -122.5t107 -76t149 -26q31 0 56 2t48 7t46.5 14.5t50.5 23.5l14 -23q-35 -23 -93 -39t-128 -16q-100 0 -172.5 32t-116.5 88t-58.5 133.5t1.5 168.5q15 89 57.5 166t107 134t149.5 89.5t185 32.5q97 0 170.5 -29.5t119.5 -82.5t63 -127.5t1 -164.5
q-11 -58 -30.5 -102.5t-45.5 -75t-56.5 -46t-63.5 -15.5q-49 0 -74.5 25.5t-24.5 67.5q-32 -45 -81 -69t-109 -24q-37 0 -67.5 10.5t-51.5 28.5t-30.5 43t-4.5 55q9 54 58.5 90.5t148.5 36.5q22 0 42.5 -1t41.5 -1t42.5 2.5t45.5 10.5q12 69 -21 104.5t-106 35.5
q-21 0 -44.5 -5t-47 -14.5t-44.5 -24t-36 -32.5zM718 382q-29 -13 -66 -16t-95 -3q-46 0 -78.5 -7.5t-54 -21t-33 -32t-15.5 -40.5q-9 -49 28 -78t109 -29q45 0 78.5 13t57 34t37 47t18.5 52z" />
    <glyph glyph-name="A" unicode="A" horiz-adv-x="793" 
d="M488 713h67l169 -713h-54l-41 169h-413l-97 -169h-49zM238 207h383q-15 64 -28 118.5t-25.5 108t-26 110.5t-29.5 128z" />
    <glyph glyph-name="B" unicode="B" horiz-adv-x="652" 
d="M651 531q-5 -30 -19.5 -57.5t-37 -49.5t-52 -36.5t-63.5 -17.5q80 -6 118.5 -52.5t24.5 -127.5q-7 -41 -27.5 -75.5t-51.5 -60t-72 -40t-90 -14.5h-318l125 713h277q58 0 97 -13.5t61 -37.5t28.5 -57.5t-0.5 -73.5zM371 38q42 0 76.5 12t60 32.5t42 49t22.5 61.5
q12 70 -25 113t-124 43h-250l-55 -311h253zM179 385h242q32 0 62 9t54 26.5t41 43.5t23 60q27 151 -151 151h-219z" />
    <glyph glyph-name="C" unicode="C" horiz-adv-x="720" 
d="M671 162q-16 -35 -43.5 -67.5t-65 -58t-85 -41t-103.5 -15.5q-73 0 -126.5 27t-85.5 76t-42 116t4 147q14 82 49 153t86 123.5t115.5 82.5t138.5 30q61 0 106 -17.5t74.5 -45t43.5 -62t13 -67.5h-51q-2 30 -15.5 58t-38 49t-59.5 34t-80 13q-64 0 -119.5 -28.5t-99 -76.5
t-73 -111.5t-41.5 -134.5q-12 -70 -5.5 -130t32.5 -104.5t71 -69.5t110 -25q42 0 79 11.5t67.5 31t54 46t40.5 56.5h49z" />
    <glyph glyph-name="D" unicode="D" horiz-adv-x="690" 
d="M439 713q74 0 127.5 -24.5t86 -70.5t42 -112.5t-5.5 -149.5t-48.5 -149t-82 -112t-109.5 -70.5t-130 -24.5h-256l125 713h251zM325 38q58 0 109 21t92.5 61.5t70.5 99.5t43 136q15 82 7 142t-35.5 99.5t-73 58.5t-105.5 19h-202l-113 -637h207z" />
    <glyph glyph-name="E" unicode="E" horiz-adv-x="623" 
d="M560 0h-497l125 713h487l-6 -38h-438l-50 -281h388l-7 -38h-388l-56 -318h448z" />
    <glyph glyph-name="F" unicode="F" horiz-adv-x="592" 
d="M543 307h-377l-54 -307h-49l125 713h466l-6 -38h-417l-59 -331h377z" />
    <glyph glyph-name="G" unicode="G" horiz-adv-x="719" 
d="M650 0h-35l21 124q-19 -29 -46.5 -55t-62.5 -45.5t-77.5 -31.5t-91.5 -12q-63 0 -113 24.5t-82 71.5t-43 115t4 155q15 89 51.5 161t88 122.5t114.5 77.5t131 27q53 0 96 -14t74 -38.5t49 -59t20 -75.5h-49q-5 35 -21.5 63t-43 47t-61 29t-74.5 10q-55 0 -107.5 -24
t-96 -69t-76 -110t-46.5 -147q-13 -74 -5.5 -135t33.5 -104t69.5 -66.5t102.5 -23.5q50 0 95 17t80.5 45.5t59 65.5t30.5 76l16 86h-227l6 37h277z" />
    <glyph glyph-name="H" unicode="H" 
d="M614 0h-49l57 328h-453l-57 -328h-49l125 713h49l-61 -348h453l61 348h49z" />
    <glyph glyph-name="I" unicode="I" horiz-adv-x="174" 
d="M112 0h-49l125 713h49z" />
    <glyph glyph-name="J" unicode="J" horiz-adv-x="542" 
d="M604 713l-86 -487q-20 -118 -96 -182t-190 -64q-24 0 -49.5 3t-48 8t-40.5 11.5t-28 14.5l14 37q17 -16 58.5 -26.5t89.5 -10.5q100 0 162 57t79 152l86 487h49z" />
    <glyph glyph-name="K" unicode="K" horiz-adv-x="706" 
d="M237 713l-73 -418l499 418h65l-406 -334l304 -379h-64l-281 344l-127 -104l-42 -240h-49l125 713h49z" />
    <glyph glyph-name="L" unicode="L" horiz-adv-x="616" 
d="M554 0h-491l125 713h49l-119 -675h442z" />
    <glyph glyph-name="M" unicode="M" horiz-adv-x="825" 
d="M445 148l379 565h64l-125 -713h-45l117 667l-380 -576h-44l-186 574l-117 -665h-45l125 713h66z" />
    <glyph glyph-name="N" unicode="N" 
d="M188 713h58l334 -631l111 631h48l-125 -713h-50l-340 641l-113 -641h-48z" />
    <glyph glyph-name="O" unicode="O" horiz-adv-x="768" 
d="M513 734q76 0 130.5 -30t86.5 -81.5t41.5 -120t-4.5 -146.5q-14 -77 -47.5 -145.5t-83.5 -119.5t-115 -81t-141 -30t-130.5 30t-86.5 81t-42 119.5t4 145.5q14 78 47.5 146.5t84 120t115.5 81.5t141 30zM386 17q60 0 114.5 25t98 70t74.5 107t44 137t4.5 137.5
t-36.5 107.5t-73.5 70t-105.5 25t-114.5 -25t-98 -70t-75 -107.5t-44.5 -137.5t-4 -137t37 -107t73.5 -70t105.5 -25z" />
    <glyph glyph-name="P" unicode="P" horiz-adv-x="646" 
d="M474 713q57 0 97.5 -17t65.5 -46t33 -67.5t1 -82.5q-8 -44 -29 -83t-55 -68t-81 -45.5t-107 -16.5h-237l-50 -287h-49l125 713h286zM231 675l-62 -351h230q46 0 84 12.5t66.5 36t47 56t25.5 71.5q6 38 -1.5 70t-28 55.5t-53.5 36.5t-78 13h-230z" />
    <glyph glyph-name="Q" unicode="Q" horiz-adv-x="770" 
d="M513 734q76 0 130.5 -30t86.5 -81.5t41.5 -120t-4.5 -146.5q-20 -111 -77.5 -200t-147.5 -137l26 -57h-53l-15 38q-29 -9 -59 -14.5t-61 -5.5q-76 0 -130.5 30t-86.5 81t-42 119.5t4 145.5q14 78 47.5 146.5t84 120t115.5 81.5t141 30zM386 17q52 0 101 17l-59 160h36
l62 -139q72 42 122.5 119.5t68.5 181.5q13 75 4.5 137.5t-36.5 107.5t-73.5 70t-105.5 25t-114.5 -25t-98 -70t-75 -107.5t-44.5 -137.5t-4 -137t37 -107t73.5 -70t105.5 -25z" />
    <glyph glyph-name="R" unicode="R" horiz-adv-x="655" 
d="M468 713q123 0 172.5 -54t33.5 -144q-7 -41 -26 -76.5t-49.5 -62t-73 -43.5t-96.5 -21l153 -312h-54l-146 312h-215l-55 -312h-49l125 713h280zM231 675l-58 -324h226q51 0 90.5 12t67.5 34t45 51.5t23 64.5q6 34 0 64t-26 51.5t-55 34t-87 12.5h-226z" />
    <glyph glyph-name="S" unicode="S" horiz-adv-x="648" 
d="M237 542q-7 -37 8 -62t43 -42.5t65.5 -30l76.5 -25.5t76 -28t64.5 -37t40.5 -54.5t5 -78.5q-7 -39 -30.5 -75.5t-61.5 -65t-90 -46t-115 -17.5q-66 0 -111 17t-72 44t-37.5 59.5t-6.5 62.5h46q0 -32 13.5 -58.5t37.5 -46t58.5 -30.5t77.5 -11q52 0 95 15.5t74 39.5
t49.5 53.5t23.5 58.5q7 40 -7.5 67t-42 46t-64.5 33t-76.5 26.5t-76.5 27t-64.5 35.5t-41.5 50t-6 72q7 38 29.5 73t58 61.5t82.5 42.5t104 16q54 0 93 -13t63.5 -34.5t35 -51t9.5 -62.5h-45q-4 54 -43.5 88.5t-119.5 34.5q-44 0 -81.5 -13t-66 -34.5t-47 -49t-23.5 -57.5z
" />
    <glyph glyph-name="T" unicode="T" horiz-adv-x="702" 
d="M758 675h-263l-119 -675h-50l119 675h-263l6 38h576z" />
    <glyph glyph-name="U" unicode="U" 
d="M661 258q-24 -136 -109.5 -207t-215.5 -71q-131 0 -191.5 70.5t-36.5 207.5l80 455h49l-80 -455q-20 -116 28 -178.5t157 -62.5q106 0 176.5 61.5t91.5 179.5l80 455h51z" />
    <glyph glyph-name="V" unicode="V" horiz-adv-x="754" 
d="M404 0h-62l-148 713h54l130 -675l378 675h54z" />
    <glyph glyph-name="W" unicode="W" horiz-adv-x="1021" 
d="M192 713h54l46 -657l325 657h47l91 -654l271 654h54l-305 -713h-58l-85 643l-319 -643h-56z" />
    <glyph glyph-name="X" unicode="X" horiz-adv-x="752" 
d="M430 330q-73 -81 -149 -165.5t-146 -164.5h-60l331 372l-186 341h55l167 -300q66 75 135.5 152t132.5 148h61l-306 -342q23 -42 49.5 -90.5t53.5 -97t53.5 -96t49.5 -87.5h-61z" />
    <glyph glyph-name="Y" unicode="Y" horiz-adv-x="733" 
d="M341 0l50 284l-193 429h61l165 -385l300 385h61l-346 -430l-49 -283h-49z" />
    <glyph glyph-name="Z" unicode="Z" 
d="M614 0h-551l5 31l599 644h-455l6 38h511l-5 -30l-596 -645h492z" />
    <glyph glyph-name="bracketleft" unicode="[" horiz-adv-x="351" 
d="M55 -64l145 821h216l-6 -35h-168l-133 -751h168l-6 -35h-216z" />
    <glyph glyph-name="backslash" unicode="\" horiz-adv-x="664" 
d="M563 -143h-54l-312 836h54z" />
    <glyph glyph-name="bracketright" unicode="]" horiz-adv-x="351" 
d="M416 757l-145 -821h-216l6 35h169l133 751h-169l6 35h216z" />
    <glyph glyph-name="asciicircum" unicode="^" horiz-adv-x="518" 
d="M374 784h48l120 -192h-42l-109 160q-40 -38 -84 -81t-81 -79h-41z" />
    <glyph glyph-name="underscore" unicode="_" horiz-adv-x="649" 
d="M52 -85l7 40h514l-7 -40h-514z" />
    <glyph glyph-name="grave" unicode="`" horiz-adv-x="428" 
d="M258 767l157 -200l-23 -24l-173 189z" />
    <glyph glyph-name="a" unicode="a" horiz-adv-x="649" 
d="M600 61q-42 -38 -105 -59.5t-147 -21.5q-59 0 -108.5 20.5t-82.5 56.5t-47.5 86t-3.5 110q10 55 41 102t75.5 81.5t98.5 53.5t110 19q28 0 55 -5t55 -15.5t58 -27.5t65 -41zM153 253q-9 -48 2.5 -89.5t38.5 -71.5t68.5 -47t93.5 -17q53 0 102.5 12t97.5 32l58 328
q-37 26 -84 43t-107 17q-44 0 -89 -16t-82.5 -43.5t-64 -65.5t-34.5 -82z" />
    <glyph glyph-name="b" unicode="b" horiz-adv-x="642" 
d="M624 253q-10 -56 -39 -105.5t-73.5 -86.5t-101.5 -59t-123 -22q-84 0 -135 21.5t-80 59.5l121 683h47l-53 -297q49 29 101.5 45.5t110.5 16.5q56 0 101.5 -19t76.5 -53.5t44 -81.5t3 -102zM578 253q8 44 -3.5 82t-37.5 65.5t-63.5 43.5t-82.5 16q-60 0 -113 -17t-99 -43
l-58 -328q39 -20 79.5 -32t94.5 -12q58 0 106.5 18.5t85 50t60 72t31.5 84.5z" />
    <glyph glyph-name="c" unicode="c" horiz-adv-x="612" 
d="M152 244q-9 -51 -0.5 -91t31.5 -68t59 -42.5t82 -14.5q57 0 116.5 15.5t127.5 63.5l-8 -46q-55 -44 -114 -62.5t-135 -18.5q-56 0 -99.5 19.5t-70.5 54t-37 83t1 107.5q10 58 37 107t66.5 84t89.5 54.5t106 19.5q76 0 128.5 -19t92.5 -62l-8 -47q-51 48 -105 63.5
t-111 15.5q-46 0 -87.5 -15t-74.5 -43t-55.5 -68t-31.5 -90z" />
    <glyph glyph-name="d" unicode="d" horiz-adv-x="653" 
d="M600 61q-42 -38 -105 -59.5t-147 -21.5q-59 0 -108.5 20.5t-82.5 56.5t-47.5 86t-3.5 110q10 55 41 102t75.5 81.5t98.5 53.5t110 19q57 0 105 -16.5t86 -45.5l53 297h46zM153 253q-9 -48 2.5 -89.5t38.5 -71.5t68.5 -47t93.5 -17q53 0 102.5 12t97.5 32l58 328
q-37 26 -84 43t-107 17q-44 0 -89 -16t-82.5 -43.5t-64 -65.5t-34.5 -82z" />
    <glyph glyph-name="e" unicode="e" horiz-adv-x="650" 
d="M145 190q1 -38 16.5 -68t42.5 -51t63 -32t78 -11q57 0 121.5 20.5t133.5 68.5l-8 -46q-56 -44 -120.5 -67.5t-140.5 -23.5q-57 0 -103.5 19t-77.5 53.5t-43.5 83.5t-1.5 108q10 58 39 107t71.5 84t96 54.5t112.5 19.5t103 -15.5t71.5 -43.5t38.5 -66.5t3 -83.5zM422 460
q-50 0 -97 -16t-84.5 -46t-62.5 -72.5t-31 -94.5l445 97q3 27 -5 51t-29 42t-54.5 28.5t-81.5 10.5z" />
    <glyph glyph-name="f" unicode="f" horiz-adv-x="280" 
d="M98 488h72l9 51q9 53 26.5 89.5t42 58.5t54.5 30.5t63 5.5l-4 -37q-22 4 -43 -1.5t-39 -22.5t-31.5 -45.5t-20.5 -68.5l-10 -60h142l-7 -38h-142l-79 -450h-47l79 450h-72z" />
    <glyph glyph-name="g" unicode="g" horiz-adv-x="642" 
d="M544 60q-49 -29 -102 -44.5t-110 -15.5q-56 0 -102 19t-77 52.5t-44 80t-3 101.5t39 102t72 81.5t95.5 53.5t108.5 19q75 0 133 -28.5t97 -74.5l-71 -406q-9 -53 -35 -93t-63.5 -67t-83.5 -41t-95 -14q-76 0 -134 25t-90 61l9 55q37 -48 95.5 -70t127.5 -22
q39 0 75.5 10.5t67 32t52 54.5t29.5 79zM153 253q-8 -44 3 -81.5t36.5 -64.5t63.5 -42.5t84 -15.5q60 0 113.5 17t99.5 43l51 291q-37 26 -84 43t-107 17q-46 0 -89.5 -16t-78.5 -43.5t-59.5 -65.5t-32.5 -82z" />
    <glyph glyph-name="h" unicode="h" horiz-adv-x="622" 
d="M193 744h47l-53 -300q22 14 51.5 26t61.5 20.5t64.5 13.5t61.5 5q51 0 89 -17t62 -47.5t32 -74t-1 -96.5l-48 -274h-46l48 274q15 85 -24 135.5t-120 50.5q-30 0 -62.5 -5t-64.5 -13.5t-61 -20t-51 -24.5l-70 -397h-47z" />
    <glyph glyph-name="i" unicode="i" horiz-adv-x="209" 
d="M169 488h47l-86 -488h-47zM173 634q4 19 18.5 31.5t31.5 12.5q18 0 28.5 -12.5t6.5 -31.5q-3 -18 -17.5 -30.5t-32.5 -12.5q-17 0 -27.5 12.5t-7.5 30.5z" />
    <glyph glyph-name="j" unicode="j" horiz-adv-x="215" 
d="M-63 -218q23 -4 44.5 1t39 21.5t30.5 45t20 70.5l101 568h46l-99 -560q-19 -105 -66.5 -147.5t-117.5 -34.5zM179 634q4 19 18.5 31.5t31.5 12.5q18 0 28 -12.5t6 -31.5q-3 -18 -17 -30.5t-32 -12.5q-17 0 -27.5 12.5t-7.5 30.5z" />
    <glyph glyph-name="k" unicode="k" horiz-adv-x="622" 
d="M361 216q-47 -11 -103 -21.5t-119 -22.5l-30 -172h-47l131 744h47l-94 -532q117 22 196.5 42t129.5 46.5t76 64t37 95.5l5 28h46l-5 -28q-9 -49 -25 -85t-42.5 -63t-63.5 -46.5t-87 -34.5l135 -231h-63z" />
    <glyph glyph-name="l" unicode="l" horiz-adv-x="171" 
d="M193 744h47l-131 -744h-47z" />
    <glyph glyph-name="m" unicode="m" horiz-adv-x="793" 
d="M743 335q11 62 -15.5 93.5t-85.5 31.5q-19 0 -40 -4t-41.5 -10.5t-38.5 -16t-30 -20.5l-72 -409h-47l60 345q11 63 -16 89t-86 26q-19 0 -40.5 -4t-42 -11t-38.5 -16.5t-29 -19.5l-72 -409h-47l73 418q20 21 45.5 37.5t53.5 28.5t55 18.5t50 6.5q50 0 84 -17t50 -50
q20 15 43 27.5t46.5 21t46 13.5t41.5 5q78 0 116 -46.5t24 -127.5l-59 -335h-47z" />
    <glyph glyph-name="n" unicode="n" horiz-adv-x="612" 
d="M552 274q7 42 1 76.5t-24.5 58.5t-48.5 37.5t-69 13.5q-29 0 -60.5 -4.5t-62.5 -12.5t-59 -19t-50 -24l-70 -400h-47l71 406q28 23 62 42t71.5 32.5t76 21t76.5 7.5q50 0 87.5 -17t61 -47.5t31.5 -74t-1 -96.5l-48 -274h-46z" />
    <glyph glyph-name="o" unicode="o" horiz-adv-x="642" 
d="M104 243q10 58 38.5 106.5t69 84t91 55.5t106.5 20q57 0 101 -20t72.5 -55.5t39 -84t0.5 -106.5q-10 -57 -38 -105.5t-68.5 -83.5t-91.5 -54.5t-108 -19.5q-56 0 -100 19.5t-72 54.5t-39 83.5t-1 105.5zM151 243q-8 -47 0.5 -86.5t31.5 -68t58.5 -44.5t82.5 -16t89.5 16
t75.5 44.5t56 68t31 86.5q9 48 0.5 88t-32 68.5t-60 44.5t-83.5 16t-88.5 -16t-74.5 -44.5t-55.5 -68.5t-31.5 -88z" />
    <glyph glyph-name="p" unicode="p" horiz-adv-x="642" 
d="M133 406q56 46 123.5 74.5t142.5 28.5q65 0 112 -21t74.5 -57t37 -84.5t-0.5 -103.5q-10 -56 -36 -104t-66.5 -83t-94.5 -55.5t-119 -20.5q-57 0 -105 16t-85 44l-53 -296h-47zM576 243q8 44 1 83.5t-30 69t-62 47t-94 17.5q-60 0 -113 -17t-99 -43l-55 -312
q37 -26 83.5 -43t106.5 -17q55 0 100.5 17t78.5 46.5t54 68.5t29 83z" />
    <glyph glyph-name="q" unicode="q" horiz-adv-x="649" 
d="M541 -256h-47l53 296q-48 -27 -102.5 -43.5t-109.5 -16.5q-66 0 -114 20.5t-77 55.5t-39.5 83t-0.5 104q10 55 37 103.5t69 84.5t97 57t121 21q75 0 132.5 -28.5t97.5 -74.5zM151 243q-8 -44 0.5 -83t32.5 -68.5t63.5 -46.5t95.5 -17q59 0 112.5 17t99.5 43l55 312
q-37 26 -84 43t-106 17q-56 0 -102 -17.5t-80.5 -47t-56.5 -69t-30 -83.5z" />
    <glyph glyph-name="r" unicode="r" horiz-adv-x="320" 
d="M380 460q-54 0 -104.5 -17t-96.5 -43l-70 -400h-47l71 406q56 46 121 74.5t134 28.5z" />
    <glyph glyph-name="s" unicode="s" horiz-adv-x="622" 
d="M538 138q6 33 -9.5 52.5t-44 31t-67 17t-78.5 10.5t-78.5 11t-67 18.5t-43 34.5t-8.5 57q6 34 28 60.5t56 43.5t76 26t89 9q42 0 79 -6t66 -15t50 -20t32 -20l-7 -44q-21 9 -44 19t-50.5 18.5t-60.5 13.5t-73 5t-74.5 -6.5t-60 -18t-41.5 -26.5t-19 -33q-5 -27 11 -42.5
t45.5 -24t68 -12t79 -8.5t78.5 -13t66 -24t42 -43.5t6 -70.5q-6 -36 -29.5 -65t-59.5 -50t-82 -32t-97 -11q-70 0 -135 21.5t-107 67.5l9 52q60 -52 119 -72.5t122 -20.5q40 0 77 8t66 22.5t47.5 34.5t23.5 45z" />
    <glyph glyph-name="t" unicode="t" horiz-adv-x="395" 
d="M148 488h72l30 173h47l-30 -173h142l-7 -38h-142l-49 -277q-10 -54 0 -85t40 -45q34 -13 87 -5l-6 -38q-23 -5 -44 -4.5t-42 3.5q-24 5 -42.5 17t-30 32t-15 48t3.5 66l51 288h-72z" />
    <glyph glyph-name="u" unicode="u" horiz-adv-x="622" 
d="M146 215q-16 -92 26.5 -139.5t133.5 -47.5q59 0 114.5 10.5t104.5 28.5l75 421h46l-76 -427q-21 -17 -51.5 -32t-66 -26t-75 -17t-79.5 -6q-54 0 -95.5 15.5t-68 45.5t-36 74t0.5 100l49 273h47z" />
    <glyph glyph-name="v" unicode="v" horiz-adv-x="600" 
d="M274 0q-91 44 -129 150.5t-10 266.5l13 71h47l-13 -71q-12 -66 -9.5 -127.5t18 -112t44.5 -87.5t71 -53q48 16 90 53t76 87.5t57.5 112t35.5 127.5l13 71h46l-13 -71q-29 -161 -104 -267.5t-180 -149.5h-53zM271 0h3q1 0 1 -1z" />
    <glyph glyph-name="w" unicode="w" horiz-adv-x="793" 
d="M135 153q-11 -62 13 -93.5t88 -31.5q19 0 40.5 4t41.5 11t38 16.5t31 20.5l72 408h47l-72 -408q8 -12 22.5 -21.5t32 -16t37.5 -10.5t39 -4q64 0 99 31.5t46 93.5l60 335h47l-60 -335q-14 -81 -66.5 -127t-133.5 -46q-38 0 -80 18.5t-72 47.5q-42 -29 -90.5 -47.5
t-86.5 -18.5q-81 0 -117.5 46t-22.5 127l60 335h47z" />
    <glyph glyph-name="x" unicode="x" horiz-adv-x="600" 
d="M499 41q12 70 -30 117t-127 82q-96 -35 -155 -82t-71 -117l-7 -41h-47l7 41q7 43 25 74.5t45 55.5t63.5 43.5t80.5 37.5q-41 11 -71.5 26t-49 38t-24.5 55t2 76l8 41h47l-8 -41q-6 -35 3.5 -66.5t31 -55.5t54 -38t72.5 -14t77.5 14t67.5 38t50.5 55.5t26.5 66.5l8 41h46
l-8 -41q-8 -44 -26 -75t-46 -53.5t-63.5 -38t-77.5 -28.5q39 -18 69 -36.5t49 -42.5t25.5 -55.5t-1.5 -76.5l-7 -41h-46l7 41v0z" />
    <glyph glyph-name="y" unicode="y" horiz-adv-x="609" 
d="M509 55q-45 -23 -100 -39t-117 -16q-111 0 -160 61t-29 174l45 253h47l-45 -253q-17 -92 21 -139t129 -47q65 0 115.5 11.5t101.5 37.5l69 390h46l-86 -488q-9 -53 -35 -93t-63.5 -67t-83.5 -41t-95 -14q-76 0 -134 25t-90 61l7 40q85 -77 225 -77q39 0 75.5 10.5
t67 31.5t52 53.5t29.5 76.5z" />
    <glyph glyph-name="z" unicode="z" horiz-adv-x="610" 
d="M164 488h457l-8 -41q-8 -47 -28.5 -79t-52 -55t-74 -41t-95.5 -38q-58 -21 -101.5 -40.5t-74.5 -41t-49 -46.5t-25 -57h443l-8 -49h-486l7 41q8 48 29 81t55.5 59t83.5 47t113 45q46 17 83.5 33t65.5 34.5t45.5 42.5t25.5 57h-415z" />
    <glyph glyph-name="braceleft" unicode="{" horiz-adv-x="433" 
d="M131 364q73 0 109 22.5t51 60.5q12 29 13 60q1 12 1.5 24t-0.5 24q1 15 0.5 30t0.5 32q3 28 11 53.5t29 44.5t57.5 30.5t95.5 11.5l-7 -38q-41 1 -68.5 -6.5t-44.5 -21.5t-25.5 -34t-12.5 -43q-7 -36 -5.5 -75t-4.5 -71q-3 -20 -10 -38t-20.5 -33.5t-34 -28.5t-50.5 -22
q53 -17 66 -49.5t6 -70.5q-3 -17 -8.5 -34.5t-11.5 -36.5l-12 -38t-9 -37q-4 -23 -2.5 -43t13.5 -34t36.5 -21.5t66.5 -6.5l-7 -38q-59 0 -91.5 11.5t-46.5 30.5t-13.5 44.5t8.5 53.5q5 17 10.5 31.5t10.5 30.5q5 11 8.5 23.5t6.5 24.5q5 15 7 29.5t2 30.5q-2 37 -30 60
t-101 23z" />
    <glyph glyph-name="bar" unicode="|" horiz-adv-x="179" 
d="M198 743h44l-166 -936h-44z" />
    <glyph glyph-name="braceright" unicode="}" horiz-adv-x="433" 
d="M424 330q-37 0 -64 -6t-46 -17t-31.5 -26.5t-19.5 -33.5q-12 -30 -13 -60q-1 -12 -1 -24.5v-23.5q-1 -16 -0.5 -30.5t-0.5 -31.5q-2 -28 -10.5 -53.5t-29.5 -44.5t-57.5 -30.5t-95.5 -11.5l7 38q42 -1 69.5 6.5t44.5 21.5t26 34t13 44q6 36 4.5 74.5t4.5 71.5q3 19 10 37
t20 33t33 27.5t50 21.5q-26 9 -42 22t-23.5 28.5t-8 33.5t2.5 37q4 22 12.5 47l17 50t14 49t2.5 44q-5 30 -31.5 47t-87.5 15l7 38q59 0 91.5 -11.5t46.5 -30.5t13.5 -44.5t-8.5 -53.5q-5 -17 -10.5 -32t-10.5 -30l-8 -24t-7 -24q-5 -16 -7 -30.5t-2 -29.5q1 -19 8 -34
t22.5 -26t40 -17t61.5 -6z" />
    <glyph glyph-name="asciitilde" unicode="~" horiz-adv-x="507" 
d="M503 355q2 -14 2.5 -28t-3.5 -37q-9 -46 -38.5 -74t-67.5 -28q-36 0 -57.5 20.5t-39 45.5t-36.5 45.5t-50 20.5q-46 0 -65 -40q-10 -19 -12.5 -42t3.5 -50h-27q-6 34 2 68q10 47 38.5 73t66.5 26q24 0 41 -10t31 -24.5t25.5 -31.5t24 -31.5t27.5 -24.5t35 -10q32 0 51 22
q14 20 20 49t1 61h28v0z" />
    <glyph glyph-name="uni00A0" unicode="&#xa0;" horiz-adv-x="333" 
 />
    <glyph glyph-name="exclamdown" unicode="&#xa1;" horiz-adv-x="229" 
d="M163 361h35l-73 -463h-51zM165 544q4 18 19.5 32t33.5 14q19 0 29 -14t6 -32q-2 -17 -16.5 -30.5t-34.5 -13.5q-18 0 -28.5 13.5t-8.5 30.5z" />
    <glyph glyph-name="cent" unicode="&#xa2;" horiz-adv-x="586" 
d="M534 112q-35 -28 -80 -44.5t-101 -16.5q-17 0 -34 2t-31 5l-59 -144h-23l60 151q-42 13 -72 39.5t-48 63.5t-22.5 82t4.5 96q11 63 40 117t72.5 93.5t99 62.5t118.5 23q10 0 23 -1t21 -2q15 35 28 69t29 70h23l-59 -143q31 -8 54 -22.5t40 -32.5l-27 -25q-9 11 -31 24
t-51 20q-51 -125 -102 -251.5t-102 -250.5q14 -3 30 -5t33 -2q48 0 85.5 12.5t64.5 34.5zM171 346q-15 -85 14 -151t97 -93l200 501q-57 5 -109.5 -14.5t-94 -55.5t-70 -84.5t-37.5 -102.5z" />
    <glyph glyph-name="sterling" unicode="&#xa3;" horiz-adv-x="676" 
d="M619 516q8 35 -2.5 61t-31.5 43.5t-49.5 26t-55.5 8.5q-73 0 -127.5 -44t-77.5 -126q-17 -61 -13 -132v-45h182l-5 -26h-177q-3 -70 -17 -126q-14 -48 -40.5 -78.5t-70.5 -40.5h482l-6 -37h-543l5 34q60 8 94.5 47t48.5 122q3 15 5 37.5t3 41.5h-76l5 26h56l14 58
q-2 63 12 117q13 50 37.5 89t57.5 66t73 41t85 14q44 0 79.5 -14t58 -38t31 -56.5t-0.5 -68.5h-36v0z" />
    <glyph glyph-name="currency" unicode="&#xa4;" horiz-adv-x="664" 
d="M598 346q-9 -49 -26.5 -85t-40.5 -62l80 -95l-28 -30l-80 101q-32 -26 -70.5 -38.5t-79.5 -12.5q-85 0 -126 50l-114 -101l-23 31l118 99q-14 28 -17.5 63t4.5 80q7 42 22.5 77t36.5 63l-79 95l32 24l73 -93q30 26 68.5 41.5t83.5 15.5q43 0 78.5 -15t58.5 -44l108 95
l18 -23l-110 -99q12 -26 16.5 -59.5t-3.5 -77.5zM562 346q7 41 1.5 75t-22.5 58.5t-46.5 38t-69.5 13.5q-75 0 -127 -48.5t-67 -136.5q-16 -87 16 -135.5t113 -48.5q87 0 137 51.5t65 132.5z" />
    <glyph glyph-name="yen" unicode="&#xa5;" horiz-adv-x="719" 
d="M394 74l-13 -74h-42l13 74h-158l4 26h158l18 100h-158l4 26h91l69 12l6 34q-49 109 -94 210t-93 211h52l161 -398l300 398h53l-339 -433l-1 -9l7 -25h139l-4 -26h-151l-18 -100h151l-4 -26h-151z" />
    <glyph glyph-name="brokenbar" unicode="&#xa6;" horiz-adv-x="177" 
d="M144 204l-70 -397h-42l70 397h42zM128 346l70 397h42l-70 -397h-42z" />
    <glyph glyph-name="section" unicode="&#xa7;" horiz-adv-x="593" 
d="M524 180q10 -26 4 -61q-5 -27 -23.5 -52.5t-52.5 -44.5t-83 -29t-114 -5q-58 5 -103.5 25t-59.5 52l31 18q14 -25 51 -40t92 -20q57 -3 97.5 4t67 21t40 34t16.5 42q5 33 -6.5 53.5t-34.5 33t-54.5 19.5t-65 12.5t-66.5 11.5t-60 17t-44.5 29.5t-20.5 48.5q-3 29 12 58.5
t36 54.5q-5 14 -6.5 29.5t1.5 34.5q5 27 23.5 52.5t52 44.5t82.5 28.5t114 5.5q29 -2 56 -8.5t48.5 -16t37.5 -23t23 -29.5l-31 -17q-14 26 -51 41t-91 19q-57 4 -98 -3t-67.5 -21t-40.5 -34t-17 -42q-6 -42 17.5 -64t63 -33.5t88 -17t91 -16t72 -29.5t31.5 -57
q2 -22 -12 -57.5t-46 -68.5zM206 443q-36 -51 -33.5 -80.5t29.5 -46.5t71.5 -26t91 -18t88.5 -23t65 -41q12 17 16 26t7 23q12 37 -2 58t-45 33t-72.5 18.5t-82.5 15t-77 22t-56 39.5z" />
    <glyph glyph-name="dieresis" unicode="&#xa8;" horiz-adv-x="527" 
d="M274 656q-3 -17 -18 -31.5t-35 -14.5q-18 0 -28 14.5t-7 31.5t18 31t33 14q20 0 30 -14t7 -31zM535 656q-3 -17 -18 -31.5t-35 -14.5q-18 0 -28 14.5t-7 31.5t18 31t33 14q20 0 30 -14t7 -31z" />
    <glyph glyph-name="copyright" unicode="&#xa9;" horiz-adv-x="971" 
d="M936 346q14 81 1 153.5t-53 127t-107 86t-161 31.5q-90 0 -168 -31.5t-138 -86t-99.5 -127t-53.5 -153.5q-15 -81 -0.5 -153t55 -126.5t107.5 -86t157 -31.5q94 0 172 31.5t137 86t97.5 126.5t53.5 153zM965 346q-17 -96 -62 -174.5t-111 -134.5t-148.5 -86.5
t-173.5 -30.5q-97 0 -168.5 33.5t-115 91.5t-59 135.5t0.5 165.5q15 88 58 165.5t107.5 135.5t147.5 91.5t180 33.5q91 0 163 -30.5t117.5 -86t63 -134.5t0.5 -175zM685 168q-34 -30 -77.5 -47t-99.5 -17q-44 0 -81.5 18t-63 50t-36.5 76.5t-2 97.5t36 97.5t64 76.5t80.5 50
t87.5 18q55 0 94 -17t61 -47l-27 -22q-20 22 -50.5 34.5t-78.5 12.5q-34 0 -70.5 -14.5t-68 -41.5t-54.5 -64.5t-31 -82.5t2 -82t32 -64t53.5 -41.5t65.5 -14.5q48 0 83 12.5t61 35.5z" />
    <glyph glyph-name="ordfeminine" unicode="&#xaa;" horiz-adv-x="612" 
d="M599 282q-56 -46 -123.5 -74t-142.5 -28q-50 0 -91.5 10.5t-70.5 31.5t-42.5 52.5t-5.5 73.5q7 43 30 74.5t55.5 52t73 31t82.5 11.5q54 2 112 -12.5t109 -44.5l3 17q8 48 1 82.5t-26 57t-49 33t-68 10.5q-69 0 -134.5 -21t-122.5 -63l10 56q21 14 50 27.5t62 24.5
t69.5 18t74.5 7q100 0 150 -54.5t32 -160.5zM170 348q-6 -32 5.5 -55t35.5 -37.5t58 -21t73 -6.5q60 0 113 17t99 43l23 131q-51 28 -102 41.5t-99 14.5q-41 0 -76 -8t-62 -24.5t-45 -40.5t-23 -54z" />
    <glyph glyph-name="guillemotleft" unicode="&#xab;" horiz-adv-x="616" 
d="M491 550l-300 -210l227 -205l-25 -27l-259 231l340 231zM655 550l-300 -210l227 -205l-25 -27l-259 231l340 231z" />
    <glyph glyph-name="logicalnot" unicode="&#xac;" horiz-adv-x="641" 
d="M587 82h-36l42 241h-470l8 40h506z" />
    <glyph glyph-name="uni00AD" unicode="&#xad;" horiz-adv-x="566" 
d="M113 263l8 45h432l-8 -45h-432z" />
    <glyph glyph-name="registered" unicode="&#xae;" horiz-adv-x="971" 
d="M965 346q-17 -96 -62 -174.5t-111 -134.5t-148.5 -86.5t-173.5 -30.5q-97 0 -168.5 33.5t-115 91.5t-59 135.5t0.5 165.5q15 88 58 165.5t107.5 135.5t147.5 91.5t180 33.5q91 0 163 -30.5t117.5 -86t63 -134.5t0.5 -175zM936 346q14 81 1 153.5t-53 127t-107 86
t-161 31.5q-90 0 -168 -31.5t-138 -86t-99.5 -127t-53.5 -153.5q-15 -81 -0.5 -153t55 -126.5t107.5 -86t157 -31.5q94 0 172 31.5t137 86t97.5 126.5t53.5 153zM566 292h-165l-30 -171h-39l80 453h235q44 0 73.5 -12t46.5 -32t21.5 -46t-0.5 -54q-4 -25 -17.5 -49.5
t-36 -44t-55 -32.5t-75.5 -15l119 -168h-45zM445 542l-39 -222h185q39 0 67 9.5t47 25t29.5 34.5t13.5 38q4 24 1.5 45t-15 36.5t-37.5 24.5t-67 9h-185z" />
    <glyph glyph-name="macron" unicode="&#xaf;" horiz-adv-x="503" 
d="M175 615l6 35h369l-6 -35h-369z" />
    <glyph glyph-name="degree" unicode="&#xb0;" horiz-adv-x="409" 
d="M353 846q28 0 51 -11t38.5 -30t22 -45t1.5 -55t-20.5 -54.5t-38 -44.5t-49.5 -30t-55 -11t-51 11t-38.5 30t-21.5 44.5t-1 54.5t20.5 55t37.5 45t49 30t55 11zM309 598q22 0 43 8.5t38 23.5t29 34.5t16 40.5q4 22 -1.5 42t-17.5 35t-29.5 23.5t-39.5 8.5q-21 0 -42 -8.5
t-38 -23.5t-29 -35t-16 -42q-4 -21 1 -40.5t17 -34.5t30 -23.5t39 -8.5z" />
    <glyph glyph-name="plusminus" unicode="&#xb1;" horiz-adv-x="641" 
d="M423 465h231l-7 -40h-231l-42 -241h-37l42 241h-238l7 40h238l42 234h37zM69 12l7 40h506l-7 -40h-506z" />
    <glyph glyph-name="twosuperior" unicode="&#xb2;" horiz-adv-x="521" 
d="M153 517q2 16 8 30.5t14 28.5q28 51 82 84t124 33q36 0 64.5 -10.5t48.5 -29t30 -44t9 -54.5q-2 -26 -12 -52.5t-33 -55.5h-1q-25 -33 -67 -64t-89 -57.5t-95 -47t-85 -32.5h346l-6 -31h-387l7 35q49 18 99.5 41t96 48.5t82.5 52.5t59 53v1q32 37 43 71.5t5 63.5
q-11 37 -44 59t-81 22q-39 0 -71 -12.5t-54.5 -33t-36 -46.5t-14.5 -53h-42v0z" />
    <glyph glyph-name="threesuperior" unicode="&#xb3;" horiz-adv-x="552" 
d="M216 588q4 17 19 35.5t40 34t59 25.5t77 10q44 0 73 -10t46 -26t22.5 -36t2.5 -39q-7 -38 -41 -68t-95 -44q66 -5 103 -32t28 -82q-4 -24 -18 -49t-41.5 -45.5t-69.5 -33.5t-102 -13q-51 0 -89.5 11t-63.5 30t-34.5 44.5t-2.5 54.5h32q-6 -22 3 -42t31 -35.5t55 -24.5
t74 -9q91 0 135.5 33t53.5 81q3 19 -1 37.5t-22.5 32.5t-54 23t-93.5 9h-46l3 22h41q36 0 68.5 7.5t58.5 20t43 29t21 34.5q5 27 -11 46.5t-44 30t-63.5 12t-68.5 -6t-59.5 -24.5t-35.5 -43h-33z" />
    <glyph glyph-name="acute" unicode="&#xb4;" horiz-adv-x="428" 
d="M483 762l-271 -207l-14 22l260 220z" />
    <glyph glyph-name="mu" unicode="&#xb5;" horiz-adv-x="622" 
d="M148 488h47l-49 -273q-16 -92 26.5 -139.5t133.5 -47.5q59 0 114.5 10.5t104.5 28.5l75 421h46l-76 -427q-21 -17 -51.5 -32t-66 -26t-75 -17t-79.5 -6q-64 0 -110.5 21.5t-69.5 63.5l-46 -258h-45z" />
    <glyph glyph-name="paragraph" unicode="&#xb6;" horiz-adv-x="668" 
d="M287 535q-22 -2 -41 5t-32 21t-19 35t-1 47q4 24 15.5 42.5t28 31.5t36 19.5t39.5 6.5h382l-7 -39h-100l-159 -897h-43l159 897h-183l-159 -897h-45z" />
    <glyph glyph-name="periodcentered" unicode="&#xb7;" horiz-adv-x="222" 
d="M214 339q-3 -17 -18 -31.5t-35 -14.5q-18 0 -28 14.5t-7 31.5t18 31t33 14q20 0 30 -14t7 -31z" />
    <glyph glyph-name="cedilla" unicode="&#xb8;" horiz-adv-x="393" 
d="M155 -52q43 4 75 -2t52.5 -20.5t29 -35t4.5 -44.5q-8 -44 -50.5 -77t-103.5 -38q-62 -3 -139 25l7 26q21 -6 36.5 -9.5t29.5 -5.5t28 -3t34 -1q30 0 54.5 12t40.5 29.5t22.5 38.5t0.5 38.5t-25 29.5t-53 12h-20t-18 -0.5t-19 -1.5t-23 -3l5 27l51 96h29z" />
    <glyph glyph-name="onesuperior" unicode="&#xb9;" horiz-adv-x="289" 
d="M223 215l56 313h-119l5 32q34 0 57.5 4t39 17t26 38t18.5 67l2 7h36l-85 -478h-36z" />
    <glyph glyph-name="ordmasculine" unicode="&#xba;" horiz-adv-x="585" 
d="M560 454q7 40 -1 77t-28 64.5t-51.5 44t-71.5 16.5t-77 -15.5t-66.5 -42.5t-50.5 -64t-28 -80q-8 -43 -0.5 -80t28 -64.5t52 -43t71.5 -15.5t77 16.5t67 44t50.5 64.5t28.5 78zM598 454q-11 -59 -38.5 -104t-65 -75t-80.5 -45t-84 -15q-47 0 -84.5 18t-62.5 50t-35 76
t-1 95t33.5 94.5t60.5 76t80.5 50.5t93.5 18q41 0 78.5 -16.5t64 -47t38.5 -75t2 -100.5z" />
    <glyph glyph-name="guillemotright" unicode="&#xbb;" horiz-adv-x="576" 
d="M97 129l300 210l-227 204l27 27l257 -230l-339 -232zM257 129l300 210l-227 204l27 27l257 -230l-339 -232z" />
    <glyph glyph-name="onequarter" unicode="&#xbc;" horiz-adv-x="981" 
d="M913 478l-63 -354h78l-5 -28h-78l-16 -96h-31l16 96h-314l5 25l364 357h44zM819 124l71 347q-86 -88 -172.5 -175t-168.5 -172h270zM911 693h40l-708 -693h-40zM259 215h-36l56 313h-119l5 32q36 0 60 4t39.5 18t25.5 40.5t18 70.5h36z" />
    <glyph glyph-name="onehalf" unicode="&#xbd;" horiz-adv-x="1011" 
d="M605 303q2 15 8 29.5t14 28.5q28 51 82 84t124 33q36 0 64.5 -10.5t48.5 -29t30.5 -43.5t9.5 -54q-2 -26 -12.5 -53t-32.5 -55h-1q-26 -33 -68 -64.5t-89.5 -57.5t-95.5 -47t-85 -33h347l-5 -31h-387l6 35q49 18 99.5 41.5t96 49t82.5 52.5t59 53q32 38 43.5 72.5
t4.5 62.5q-11 38 -45 60t-80 22q-39 0 -71 -12.5t-54.5 -33t-36 -46.5t-14.5 -53h-42zM829 693h41l-708 -693h-41zM259 215h-36l56 313h-119l5 32q36 0 60 4t39.5 18t25.5 40.5t18 70.5h36z" />
    <glyph glyph-name="threequarters" unicode="&#xbe;" horiz-adv-x="1047" 
d="M981 478l-63 -354h78l-5 -28h-78l-16 -96h-31l16 96h-314l5 25l364 357h44zM214 577q4 21 19 41.5t40.5 37t60 27t77.5 10.5q44 0 73 -10t46 -26t22.5 -36t2.5 -39q-7 -38 -41 -68t-95 -44q66 -5 103 -32t28 -82q-4 -24 -18 -49t-41.5 -45.5t-69.5 -33.5t-102 -13
q-51 0 -89.5 11t-63.5 30t-34.5 44.5t-2.5 54.5h32q-6 -22 3 -42t31 -35.5t55 -24.5t74 -9q91 0 135.5 33t53.5 81q3 19 -1 37.5t-22.5 32.5t-54 23t-93.5 9h-46l3 22h41q78 0 126 28t55 67t-22 65.5t-104 26.5q-43 0 -70.5 -8.5t-44 -21.5t-24 -29.5t-10.5 -32.5h-32z
M1000 693h41l-708 -693h-41zM887 124q9 41 18 85.5t18 89.5t18 89t17 83q-85 -88 -172 -175t-168 -172h269z" />
    <glyph glyph-name="questiondown" unicode="&#xbf;" horiz-adv-x="601" 
d="M548 83q-4 -29 -21 -58q-15 -26 -39 -49.5t-56 -40.5t-71.5 -27t-85.5 -10q-56 0 -98 15.5t-68.5 42t-35.5 62t2 76.5q8 41 28.5 68t47 45.5t56.5 32t58 27.5q43 21 74 47.5t33 67.5h31q-2 -42 -21 -68.5t-47.5 -45.5t-62 -34t-64.5 -33t-54.5 -43.5t-32.5 -65.5
q-8 -33 1 -62t31 -50t55.5 -33.5t76.5 -12.5q55 0 96 15t68 37t40 48t12 49h47zM373 549q3 16 18 28.5t34 12.5t29.5 -12.5t7.5 -28.5q-2 -16 -17 -29t-35 -13q-19 0 -29 13t-8 29z" />
    <glyph glyph-name="Agrave" unicode="&#xc0;" horiz-adv-x="793" 
d="M488 713h67l169 -713h-54l-41 169h-413l-97 -169h-49zM238 207h383q-15 64 -28 118.5t-25.5 108t-26 110.5t-29.5 128zM491 995l158 -200l-24 -24l-173 189z" />
    <glyph glyph-name="Aacute" unicode="&#xc1;" horiz-adv-x="793" 
d="M488 713h67l169 -713h-54l-41 169h-413l-97 -169h-49zM238 207h383q-15 64 -28 118.5t-25.5 108t-26 110.5t-29.5 128zM697 990l-270 -207l-15 22l260 220z" />
    <glyph glyph-name="Acircumflex" unicode="&#xc2;" horiz-adv-x="793" 
d="M488 713h67l169 -713h-54l-41 169h-413l-97 -169h-49zM238 207h383q-15 64 -28 118.5t-25.5 108t-26 110.5t-29.5 128zM551 1012h48l120 -192h-42l-109 160q-40 -38 -83.5 -81t-81.5 -79h-41z" />
    <glyph glyph-name="Atilde" unicode="&#xc3;" horiz-adv-x="793" 
d="M488 713h67l169 -713h-54l-41 169h-413l-97 -169h-49zM238 207h383q-15 64 -28 118.5t-25.5 108t-26 110.5t-29.5 128zM747 968q2 -16 2.5 -28.5t-3.5 -35.5q-9 -46 -38.5 -74.5t-67.5 -28.5q-36 0 -57.5 20.5t-39 45.5t-36.5 45.5t-50 20.5q-32 0 -51.5 -19.5
t-23.5 -54.5q-2 -16 -1.5 -30t2.5 -28h-27q-3 19 -2.5 35.5t4.5 33.5q10 46 38.5 72t66.5 26q24 0 41 -10t31 -24.5t25.5 -31.5t24 -31.5t27.5 -24.5t35 -10q25 0 42.5 17t25.5 45q5 17 6 35t-2 35h28z" />
    <glyph glyph-name="Adieresis" unicode="&#xc4;" horiz-adv-x="793" 
d="M488 713h67l169 -713h-54l-41 169h-413l-97 -169h-49zM238 207h383q-15 64 -28 118.5t-25.5 108t-26 110.5t-29.5 128zM464 884q-3 -17 -18 -31.5t-35 -14.5q-18 0 -28 14.5t-7 31.5t18 31t33 14q20 0 30 -14t7 -31zM725 884q-3 -17 -18 -31.5t-35 -14.5q-18 0 -28 14.5
t-7 31.5t18 31t33 14q20 0 30 -14t7 -31z" />
    <glyph glyph-name="Aring" unicode="&#xc5;" horiz-adv-x="793" 
d="M567 980q28 0 51 -11t38.5 -30t22 -45t1.5 -55q-4 -24 -15.5 -45.5t-28 -39.5t-37 -31t-42.5 -19l167 -704h-54l-41 169h-413l-97 -169h-49l413 704q-42 12 -64 49t-14 86q5 29 20.5 55t37.5 45t49 30t55 11zM238 207h383q-15 64 -28 118.5t-25.5 108t-26 110.5
t-29.5 128zM524 732q22 0 42.5 8.5t38 23.5t29 34.5t15.5 40.5q4 22 -1 42t-17 35t-29.5 23.5t-39.5 8.5q-21 0 -42 -8.5t-38.5 -23.5t-29.5 -35t-16 -42q-4 -21 1.5 -40.5t17.5 -34.5t30 -23.5t39 -8.5z" />
    <glyph glyph-name="AE" unicode="&#xc6;" horiz-adv-x="1096" 
d="M1033 0h-497l29 169h-410q-38 -41 -82 -86t-79 -83h-60l703 713h511l-6 -38h-438l-50 -281h388l-7 -38h-388l-56 -318h448zM572 207l82 466l-462 -466h380z" />
    <glyph glyph-name="Ccedilla" unicode="&#xc7;" horiz-adv-x="720" 
d="M671 162q-16 -35 -43.5 -67.5t-65 -58t-85 -41t-102.5 -15.5l-35 -70q43 4 75 -2t52.5 -20.5t29 -35t4.5 -44.5q-4 -22 -17.5 -41.5t-34 -35.5t-47 -26t-56.5 -12q-63 -3 -138 25l6 26q22 -6 37.5 -9.5t29 -5.5t27.5 -3t34 -1q30 0 54.5 12t40.5 29.5t22.5 38.5t0.5 38.5
t-25 29.5t-53 12h-20t-18 -0.5t-19 -1.5t-23 -3l5 27l39 74q-66 5 -114 34.5t-76.5 77.5t-37 112.5t5.5 140.5q14 82 49 153t86 123.5t115.5 82.5t138.5 30q61 0 106 -17.5t74.5 -45t43.5 -62t13 -67.5h-51q-2 30 -15.5 58t-38 49t-59.5 34t-80 13q-64 0 -119.5 -28.5
t-99 -76.5t-73 -111.5t-41.5 -134.5q-12 -70 -5.5 -130t32.5 -104.5t71 -69.5t110 -25q42 0 79 11.5t67.5 31t54 46t40.5 56.5h49z" />
    <glyph glyph-name="Egrave" unicode="&#xc8;" horiz-adv-x="623" 
d="M560 0h-497l125 713h487l-6 -38h-438l-50 -281h388l-7 -38h-388l-56 -318h448zM407 995l158 -200l-24 -24l-173 189z" />
    <glyph glyph-name="Eacute" unicode="&#xc9;" horiz-adv-x="623" 
d="M560 0h-497l125 713h487l-6 -38h-438l-50 -281h388l-7 -38h-388l-56 -318h448zM611 990l-270 -207l-15 22l260 220z" />
    <glyph glyph-name="Ecircumflex" unicode="&#xca;" horiz-adv-x="623" 
d="M560 0h-497l125 713h487l-6 -38h-438l-50 -281h388l-7 -38h-388l-56 -318h448zM466 1012h48l120 -192h-42l-109 160q-40 -38 -83.5 -81t-81.5 -79h-41z" />
    <glyph glyph-name="Edieresis" unicode="&#xcb;" horiz-adv-x="623" 
d="M560 0h-497l125 713h487l-6 -38h-438l-50 -281h388l-7 -38h-388l-56 -318h448zM380 884q-3 -17 -18 -31.5t-35 -14.5q-18 0 -28 14.5t-7 31.5t18 31t33 14q20 0 30 -14t7 -31zM641 884q-3 -17 -18 -31.5t-35 -14.5q-18 0 -28 14.5t-7 31.5t18 31t33 14q20 0 30 -14t7 -31
z" />
    <glyph glyph-name="Igrave" unicode="&#xcc;" horiz-adv-x="174" 
d="M112 0h-49l125 713h49zM183 995l158 -200l-24 -24l-173 189z" />
    <glyph glyph-name="Iacute" unicode="&#xcd;" horiz-adv-x="174" 
d="M112 0h-49l125 713h49zM387 990l-270 -207l-15 22l260 220z" />
    <glyph glyph-name="Icircumflex" unicode="&#xce;" horiz-adv-x="174" 
d="M112 0h-49l125 713h49zM242 1012h48l120 -192h-42l-109 160q-40 -38 -83.5 -81t-81.5 -79h-41z" />
    <glyph glyph-name="Idieresis" unicode="&#xcf;" horiz-adv-x="174" 
d="M112 0h-49l125 713h49zM156 884q-3 -17 -18 -31.5t-35 -14.5q-18 0 -28 14.5t-7 31.5t18 31t33 14q20 0 30 -14t7 -31zM417 884q-3 -17 -18 -31.5t-35 -14.5q-18 0 -28 14.5t-7 31.5t18 31t33 14q20 0 30 -14t7 -31z" />
    <glyph glyph-name="Eth" unicode="&#xd0;" horiz-adv-x="690" 
d="M439 713q74 0 127.5 -24.5t86 -70.5t42 -112.5t-5.5 -149.5t-48.5 -149t-82 -112t-109.5 -70.5t-130 -24.5h-256l54 309h-81l8 46h81l63 358h251zM166 309l-48 -271h207q58 0 109 21t92.5 61.5t70.5 99.5t43 136q15 82 7 142t-35.5 99.5t-73 58.5t-105.5 19h-202
l-57 -320h206l-8 -46h-206z" />
    <glyph glyph-name="Ntilde" unicode="&#xd1;" 
d="M188 713h58l334 -631l111 631h48l-125 -713h-50l-340 641l-113 -641h-48zM690 968q2 -16 2.5 -28.5t-3.5 -35.5q-9 -46 -38.5 -74.5t-67.5 -28.5q-36 0 -57.5 20.5t-39 45.5t-36.5 45.5t-50 20.5q-32 0 -51.5 -19.5t-23.5 -54.5q-2 -16 -1.5 -30t2.5 -28h-27
q-3 19 -2.5 35.5t4.5 33.5q10 46 38.5 72t66.5 26q24 0 41 -10t31 -24.5t25.5 -31.5t24 -31.5t27.5 -24.5t35 -10q25 0 42.5 17t25.5 45q5 17 6 35t-2 35h28z" />
    <glyph glyph-name="Ograve" unicode="&#xd2;" horiz-adv-x="768" 
d="M513 734q76 0 130.5 -30t86.5 -81.5t41.5 -120t-4.5 -146.5q-14 -77 -47.5 -145.5t-83.5 -119.5t-115 -81t-141 -30t-130.5 30t-86.5 81t-42 119.5t4 145.5q14 78 47.5 146.5t84 120t115.5 81.5t141 30zM386 17q60 0 114.5 25t98 70t74.5 107t44 137t4.5 137.5
t-36.5 107.5t-73.5 70t-105.5 25t-114.5 -25t-98 -70t-75 -107.5t-44.5 -137.5t-4 -137t37 -107t73.5 -70t105.5 -25zM479 995l158 -200l-24 -24l-173 189z" />
    <glyph glyph-name="Oacute" unicode="&#xd3;" horiz-adv-x="768" 
d="M513 734q76 0 130.5 -30t86.5 -81.5t41.5 -120t-4.5 -146.5q-14 -77 -47.5 -145.5t-83.5 -119.5t-115 -81t-141 -30t-130.5 30t-86.5 81t-42 119.5t4 145.5q14 78 47.5 146.5t84 120t115.5 81.5t141 30zM386 17q60 0 114.5 25t98 70t74.5 107t44 137t4.5 137.5
t-36.5 107.5t-73.5 70t-105.5 25t-114.5 -25t-98 -70t-75 -107.5t-44.5 -137.5t-4 -137t37 -107t73.5 -70t105.5 -25zM684 990l-270 -207l-15 22l260 220z" />
    <glyph glyph-name="Ocircumflex" unicode="&#xd4;" horiz-adv-x="768" 
d="M513 734q76 0 130.5 -30t86.5 -81.5t41.5 -120t-4.5 -146.5q-14 -77 -47.5 -145.5t-83.5 -119.5t-115 -81t-141 -30t-130.5 30t-86.5 81t-42 119.5t4 145.5q14 78 47.5 146.5t84 120t115.5 81.5t141 30zM386 17q60 0 114.5 25t98 70t74.5 107t44 137t4.5 137.5
t-36.5 107.5t-73.5 70t-105.5 25t-114.5 -25t-98 -70t-75 -107.5t-44.5 -137.5t-4 -137t37 -107t73.5 -70t105.5 -25zM538 1012h48l120 -192h-42l-109 160q-40 -38 -83.5 -81t-81.5 -79h-41z" />
    <glyph glyph-name="Otilde" unicode="&#xd5;" horiz-adv-x="768" 
d="M513 734q76 0 130.5 -30t86.5 -81.5t41.5 -120t-4.5 -146.5q-14 -77 -47.5 -145.5t-83.5 -119.5t-115 -81t-141 -30t-130.5 30t-86.5 81t-42 119.5t4 145.5q14 78 47.5 146.5t84 120t115.5 81.5t141 30zM386 17q60 0 114.5 25t98 70t74.5 107t44 137t4.5 137.5
t-36.5 107.5t-73.5 70t-105.5 25t-114.5 -25t-98 -70t-75 -107.5t-44.5 -137.5t-4 -137t37 -107t73.5 -70t105.5 -25zM736 968q2 -16 2.5 -28.5t-3.5 -35.5q-9 -46 -38.5 -74.5t-67.5 -28.5q-36 0 -57.5 20.5t-39 45.5t-36.5 45.5t-50 20.5q-32 0 -51.5 -19.5t-23.5 -54.5
q-2 -16 -1.5 -30t2.5 -28h-27q-3 19 -2.5 35.5t4.5 33.5q10 46 38.5 72t66.5 26q24 0 41 -10t31 -24.5t25.5 -31.5t24 -31.5t27.5 -24.5t35 -10q25 0 42.5 17t25.5 45q5 17 6 35t-2 35h28z" />
    <glyph glyph-name="Odieresis" unicode="&#xd6;" horiz-adv-x="768" 
d="M513 734q76 0 130.5 -30t86.5 -81.5t41.5 -120t-4.5 -146.5q-14 -77 -47.5 -145.5t-83.5 -119.5t-115 -81t-141 -30t-130.5 30t-86.5 81t-42 119.5t4 145.5q14 78 47.5 146.5t84 120t115.5 81.5t141 30zM386 17q60 0 114.5 25t98 70t74.5 107t44 137t4.5 137.5
t-36.5 107.5t-73.5 70t-105.5 25t-114.5 -25t-98 -70t-75 -107.5t-44.5 -137.5t-4 -137t37 -107t73.5 -70t105.5 -25zM453 884q-3 -17 -18 -31.5t-35 -14.5q-18 0 -28 14.5t-7 31.5t18 31t33 14q20 0 30 -14t7 -31zM714 884q-3 -17 -18 -31.5t-35 -14.5q-18 0 -28 14.5
t-7 31.5t18 31t33 14q20 0 30 -14t7 -31z" />
    <glyph glyph-name="multiply" unicode="&#xd7;" horiz-adv-x="595" 
d="M382 340l166 -200l-36 -31l-160 203l-236 -202l-21 31l234 201l-161 204l27 24l164 -201l233 201l25 -27z" />
    <glyph glyph-name="Oslash" unicode="&#xd8;" horiz-adv-x="768" 
d="M203 42q-56 51 -75.5 133.5t-2.5 180.5q14 78 47.5 146.5t84 120t115.5 81.5t141 30q48 0 87.5 -12t70.5 -35l66 90h54l-88 -120q48 -53 64.5 -131t-0.5 -170q-14 -77 -47.5 -145.5t-83.5 -119.5t-115 -81t-141 -30q-43 0 -78.5 9.5t-64.5 26.5l-54 -75h-54zM174 356
q-16 -89 -0.5 -159.5t57.5 -115.5l412 568q-56 47 -137 47q-60 0 -114.5 -25t-98 -70t-75 -107.5t-44.5 -137.5zM386 17q60 0 114.5 25t98 70t74.5 107t44 137q14 82 3 149t-46 112l-410 -565q50 -35 122 -35z" />
    <glyph glyph-name="Ugrave" unicode="&#xd9;" 
d="M661 258q-24 -136 -109.5 -207t-215.5 -71q-131 0 -191.5 70.5t-36.5 207.5l80 455h49l-80 -455q-20 -116 28 -178.5t157 -62.5q106 0 176.5 61.5t91.5 179.5l80 455h51zM434 995l158 -200l-24 -24l-173 189z" />
    <glyph glyph-name="Uacute" unicode="&#xda;" 
d="M661 258q-24 -136 -109.5 -207t-215.5 -71q-131 0 -191.5 70.5t-36.5 207.5l80 455h49l-80 -455q-20 -116 28 -178.5t157 -62.5q106 0 176.5 61.5t91.5 179.5l80 455h51zM638 990l-270 -207l-15 22l260 220z" />
    <glyph glyph-name="Ucircumflex" unicode="&#xdb;" 
d="M661 258q-24 -136 -109.5 -207t-215.5 -71q-131 0 -191.5 70.5t-36.5 207.5l80 455h49l-80 -455q-20 -116 28 -178.5t157 -62.5q106 0 176.5 61.5t91.5 179.5l80 455h51zM493 1012h48l120 -192h-42l-109 160q-40 -38 -83.5 -81t-81.5 -79h-41z" />
    <glyph glyph-name="Udieresis" unicode="&#xdc;" 
d="M661 258q-24 -136 -109.5 -207t-215.5 -71q-131 0 -191.5 70.5t-36.5 207.5l80 455h49l-80 -455q-20 -116 28 -178.5t157 -62.5q106 0 176.5 61.5t91.5 179.5l80 455h51zM407 884q-3 -17 -18 -31.5t-35 -14.5q-18 0 -28 14.5t-7 31.5t18 31t33 14q20 0 30 -14t7 -31z
M668 884q-3 -17 -18 -31.5t-35 -14.5q-18 0 -28 14.5t-7 31.5t18 31t33 14q20 0 30 -14t7 -31z" />
    <glyph glyph-name="Yacute" unicode="&#xdd;" horiz-adv-x="733" 
d="M341 0l50 284l-193 429h61l165 -385l300 385h61l-346 -430l-49 -283h-49zM667 990l-270 -207l-15 22l260 220z" />
    <glyph glyph-name="Thorn" unicode="&#xde;" horiz-adv-x="646" 
d="M237 713l-24 -137h237q57 0 97.5 -17t65.5 -46t33 -67.5t1 -82.5q-8 -44 -29 -83t-55 -68t-81 -46t-107 -17h-237l-26 -149h-49l125 713h49zM206 538l-62 -351h229q45 0 83 12.5t67.5 36t48.5 56t26 71.5q6 38 -2 70t-29 55.5t-54.5 36.5t-77.5 13h-229z" />
    <glyph glyph-name="germandbls" unicode="&#xdf;" horiz-adv-x="693" 
d="M282 360q76 -2 133 13t96.5 38.5t61.5 52.5t27 56q5 30 -2.5 55t-27 44t-51.5 29.5t-76 10.5h-1q-100 -4 -168.5 -59.5t-86.5 -161.5l-77 -438h-47l76 434q22 125 102.5 190.5t206.5 68.5q60 0 101 -14t65.5 -37t33 -54t2.5 -65q-9 -50 -46.5 -93.5t-106.5 -72.5
q97 -14 137.5 -61t26.5 -121q-7 -40 -30 -75.5t-60 -62t-88 -42t-114 -15.5q-23 0 -45 3t-42 8.5t-36 12t-25 13.5l6 33q8 -8 23.5 -14.5t35.5 -11.5t43 -8t46 -3q51 0 92.5 14t71.5 36.5t48.5 51.5t23.5 59q13 74 -35 116.5t-160 45.5q-33 -7 -68 -11t-73 -5z" />
    <glyph glyph-name="agrave" unicode="&#xe0;" horiz-adv-x="612" 
d="M564 82q-56 -46 -123.5 -74t-142.5 -28q-50 0 -91.5 10.5t-70.5 31.5t-42.5 52.5t-5.5 73.5q7 43 30 74.5t55.5 52t72.5 31t82 11.5q55 2 112.5 -12.5t108.5 -44.5l3 17q9 48 2 82.5t-26 57t-49 33t-68 10.5q-69 0 -134.5 -21t-122.5 -63l10 56q21 14 49.5 27.5
t61.5 24.5t69.5 18t74.5 7q50 0 88 -14t62 -41t32.5 -67t-0.5 -93zM135 148q-6 -32 5.5 -55t35 -37.5t57.5 -21t73 -6.5q60 0 113.5 17t99.5 43l23 131q-51 28 -102 41.5t-99 14.5q-41 0 -76 -8t-62 -24.5t-45 -40.5t-23 -54zM361 767l157 -200l-23 -24l-173 189z" />
    <glyph glyph-name="aacute" unicode="&#xe1;" horiz-adv-x="612" 
d="M564 82q-56 -46 -123.5 -74t-142.5 -28q-50 0 -91.5 10.5t-70.5 31.5t-42.5 52.5t-5.5 73.5q7 43 30 74.5t55.5 52t72.5 31t82 11.5q55 2 112.5 -12.5t108.5 -44.5l3 17q9 48 2 82.5t-26 57t-49 33t-68 10.5q-69 0 -134.5 -21t-122.5 -63l10 56q21 14 49.5 27.5
t61.5 24.5t69.5 18t74.5 7q50 0 88 -14t62 -41t32.5 -67t-0.5 -93zM135 148q-6 -32 5.5 -55t35 -37.5t57.5 -21t73 -6.5q60 0 113.5 17t99.5 43l23 131q-51 28 -102 41.5t-99 14.5q-41 0 -76 -8t-62 -24.5t-45 -40.5t-23 -54zM566 762l-271 -207l-14 22l260 220z" />
    <glyph glyph-name="acircumflex" unicode="&#xe2;" horiz-adv-x="612" 
d="M564 82q-56 -46 -123.5 -74t-142.5 -28q-50 0 -91.5 10.5t-70.5 31.5t-42.5 52.5t-5.5 73.5q7 43 30 74.5t55.5 52t72.5 31t82 11.5q55 2 112.5 -12.5t108.5 -44.5l3 17q9 48 2 82.5t-26 57t-49 33t-68 10.5q-69 0 -134.5 -21t-122.5 -63l10 56q21 14 49.5 27.5
t61.5 24.5t69.5 18t74.5 7q50 0 88 -14t62 -41t32.5 -67t-0.5 -93zM135 148q-6 -32 5.5 -55t35 -37.5t57.5 -21t73 -6.5q60 0 113.5 17t99.5 43l23 131q-51 28 -102 41.5t-99 14.5q-41 0 -76 -8t-62 -24.5t-45 -40.5t-23 -54zM421 784h48l120 -192h-42l-109 160
q-40 -38 -84 -81t-81 -79h-41z" />
    <glyph glyph-name="atilde" unicode="&#xe3;" horiz-adv-x="612" 
d="M564 82q-56 -46 -123.5 -74t-142.5 -28q-50 0 -91.5 10.5t-70.5 31.5t-42.5 52.5t-5.5 73.5q7 43 30 74.5t55.5 52t72.5 31t82 11.5q55 2 112.5 -12.5t108.5 -44.5l3 17q9 48 2 82.5t-26 57t-49 33t-68 10.5q-69 0 -134.5 -21t-122.5 -63l10 56q21 14 49.5 27.5
t61.5 24.5t69.5 18t74.5 7q50 0 88 -14t62 -41t32.5 -67t-0.5 -93zM135 148q-6 -32 5.5 -55t35 -37.5t57.5 -21t73 -6.5q60 0 113.5 17t99.5 43l23 131q-51 28 -102 41.5t-99 14.5q-41 0 -76 -8t-62 -24.5t-45 -40.5t-23 -54zM617 740q2 -16 2.5 -28.5t-3.5 -35.5
q-9 -46 -38.5 -74.5t-67.5 -28.5q-36 0 -57.5 20.5t-39 45.5t-36.5 45.5t-50 20.5q-32 0 -51.5 -19.5t-23.5 -54.5q-2 -16 -1.5 -30t2.5 -28h-27q-3 19 -2.5 35.5t4.5 33.5q9 46 38 72t67 26q24 0 41 -10t31 -24.5t25.5 -31.5t24 -31.5t27.5 -24.5t35 -10q25 0 42.5 17
t25.5 45q5 17 6 35t-2 35h28z" />
    <glyph glyph-name="adieresis" unicode="&#xe4;" horiz-adv-x="612" 
d="M564 82q-56 -46 -123.5 -74t-142.5 -28q-50 0 -91.5 10.5t-70.5 31.5t-42.5 52.5t-5.5 73.5q7 43 30 74.5t55.5 52t72.5 31t82 11.5q55 2 112.5 -12.5t108.5 -44.5l3 17q9 48 2 82.5t-26 57t-49 33t-68 10.5q-69 0 -134.5 -21t-122.5 -63l10 56q21 14 49.5 27.5
t61.5 24.5t69.5 18t74.5 7q50 0 88 -14t62 -41t32.5 -67t-0.5 -93zM135 148q-6 -32 5.5 -55t35 -37.5t57.5 -21t73 -6.5q60 0 113.5 17t99.5 43l23 131q-51 28 -102 41.5t-99 14.5q-41 0 -76 -8t-62 -24.5t-45 -40.5t-23 -54zM344 656q-3 -17 -18 -31.5t-35 -14.5
q-18 0 -28 14.5t-7 31.5t18 31t33 14q20 0 30 -14t7 -31zM605 656q-3 -17 -18 -31.5t-35 -14.5q-18 0 -28 14.5t-7 31.5t18 31t33 14q20 0 30 -14t7 -31z" />
    <glyph glyph-name="aring" unicode="&#xe5;" horiz-adv-x="612" 
d="M564 82q-56 -46 -123.5 -74t-142.5 -28q-50 0 -91.5 10.5t-70.5 31.5t-42.5 52.5t-5.5 73.5q7 43 30 74.5t55.5 52t72.5 31t82 11.5q55 2 112.5 -12.5t108.5 -44.5l3 17q9 48 2 82.5t-26 57t-49 33t-68 10.5q-69 0 -134.5 -21t-122.5 -63l10 56q21 14 49.5 27.5
t61.5 24.5t69.5 18t74.5 7q50 0 88 -14t62 -41t32.5 -67t-0.5 -93zM135 148q-6 -32 5.5 -55t35 -37.5t57.5 -21t73 -6.5q60 0 113.5 17t99.5 43l23 131q-51 28 -102 41.5t-99 14.5q-41 0 -76 -8t-62 -24.5t-45 -40.5t-23 -54zM461 832q28 0 51 -11t38.5 -30t22 -45t1.5 -55
t-20.5 -54.5t-37.5 -44.5t-49 -30t-55 -11t-51 11t-38.5 30t-22 44.5t-1.5 54.5t20.5 55t37.5 45t49 30t55 11zM417 584q22 0 43 8.5t38 23.5t29 34.5t16 40.5q4 22 -1 42t-17 35t-29.5 23.5t-39.5 8.5q-21 0 -42 -8.5t-38.5 -23.5t-29.5 -35t-16 -42q-4 -21 1 -40.5
t17 -34.5t30 -23.5t39 -8.5z" />
    <glyph glyph-name="ae" unicode="&#xe6;" horiz-adv-x="1091" 
d="M593 190q1 -38 16.5 -68t42.5 -51t63 -32t78 -11q57 0 121.5 20.5t133.5 68.5l-8 -46q-56 -44 -120.5 -67.5t-140.5 -23.5q-75 0 -130.5 31.5t-81.5 88.5l-3 -18q-56 -46 -123.5 -74t-142.5 -28q-50 0 -91.5 10.5t-70.5 31.5t-42.5 52.5t-5.5 73.5q7 43 30 74.5t55.5 52
t72.5 31t82 11.5q55 2 112.5 -12.5t108.5 -44.5l3 17q9 48 2 82.5t-26 57t-49 33t-68 10.5q-69 0 -134.5 -21t-122.5 -63l10 56q21 14 49.5 27.5t61.5 24.5t69.5 18t74.5 7q80 0 129 -34.5t57 -103.5q45 64 114.5 101t152.5 37q59 0 103 -15.5t71.5 -43.5t38.5 -66.5
t3 -83.5zM135 148q-6 -32 5.5 -55t35 -37.5t57.5 -21t73 -6.5q60 0 113.5 17t99.5 43l23 131q-51 28 -102 41.5t-99 14.5q-41 0 -76 -8t-62 -24.5t-45 -40.5t-23 -54zM870 460q-50 0 -97 -16t-84.5 -46t-62.5 -72.5t-31 -94.5l445 97q3 27 -5 51t-29 42t-54.5 28.5
t-81.5 10.5z" />
    <glyph glyph-name="ccedilla" unicode="&#xe7;" horiz-adv-x="612" 
d="M152 244q-9 -51 -0.5 -91t31.5 -68t59 -42.5t82 -14.5q57 0 116.5 15.5t127.5 63.5l-8 -46q-54 -42 -110 -60.5t-128 -20.5l-34 -67q43 4 75 -2t52.5 -20.5t29 -35t4.5 -44.5q-8 -44 -50.5 -77t-103.5 -38q-62 -3 -139 25l7 26q21 -6 36.5 -9.5t29.5 -5.5t28 -3t34 -1
q30 0 54.5 12t40.5 29.5t22.5 38.5t0.5 38.5t-25 29.5t-53 12h-20t-18 -0.5t-19 -1.5t-23 -3l5 27l37 71q-52 3 -91.5 23.5t-64.5 55t-33.5 81.5t1.5 103q10 58 37 107t66.5 84t89.5 54.5t106 19.5q76 0 128.5 -19t92.5 -62l-8 -47q-51 48 -105 63.5t-111 15.5
q-46 0 -87.5 -15t-74.5 -43t-55.5 -68t-31.5 -90z" />
    <glyph glyph-name="egrave" unicode="&#xe8;" horiz-adv-x="650" 
d="M145 190q1 -38 16.5 -68t42.5 -51t63 -32t78 -11q57 0 121.5 20.5t133.5 68.5l-8 -46q-56 -44 -120.5 -67.5t-140.5 -23.5q-57 0 -103.5 19t-77.5 53.5t-43.5 83.5t-1.5 108q10 58 39 107t71.5 84t96 54.5t112.5 19.5t103 -15.5t71.5 -43.5t38.5 -66.5t3 -83.5zM422 460
q-50 0 -97 -16t-84.5 -46t-62.5 -72.5t-31 -94.5l445 97q3 27 -5 51t-29 42t-54.5 28.5t-81.5 10.5zM380 767l157 -200l-23 -24l-173 189z" />
    <glyph glyph-name="eacute" unicode="&#xe9;" horiz-adv-x="650" 
d="M145 190q1 -38 16.5 -68t42.5 -51t63 -32t78 -11q57 0 121.5 20.5t133.5 68.5l-8 -46q-56 -44 -120.5 -67.5t-140.5 -23.5q-57 0 -103.5 19t-77.5 53.5t-43.5 83.5t-1.5 108q10 58 39 107t71.5 84t96 54.5t112.5 19.5t103 -15.5t71.5 -43.5t38.5 -66.5t3 -83.5zM422 460
q-50 0 -97 -16t-84.5 -46t-62.5 -72.5t-31 -94.5l445 97q3 27 -5 51t-29 42t-54.5 28.5t-81.5 10.5zM584 762l-271 -207l-14 22l260 220z" />
    <glyph glyph-name="ecircumflex" unicode="&#xea;" horiz-adv-x="650" 
d="M145 190q1 -38 16.5 -68t42.5 -51t63 -32t78 -11q57 0 121.5 20.5t133.5 68.5l-8 -46q-56 -44 -120.5 -67.5t-140.5 -23.5q-57 0 -103.5 19t-77.5 53.5t-43.5 83.5t-1.5 108q10 58 39 107t71.5 84t96 54.5t112.5 19.5t103 -15.5t71.5 -43.5t38.5 -66.5t3 -83.5zM422 460
q-50 0 -97 -16t-84.5 -46t-62.5 -72.5t-31 -94.5l445 97q3 27 -5 51t-29 42t-54.5 28.5t-81.5 10.5zM462 784h48l120 -192h-42l-109 160q-40 -38 -84 -81t-81 -79h-41z" />
    <glyph glyph-name="edieresis" unicode="&#xeb;" horiz-adv-x="650" 
d="M145 190q1 -38 16.5 -68t42.5 -51t63 -32t78 -11q57 0 121.5 20.5t133.5 68.5l-8 -46q-56 -44 -120.5 -67.5t-140.5 -23.5q-57 0 -103.5 19t-77.5 53.5t-43.5 83.5t-1.5 108q10 58 39 107t71.5 84t96 54.5t112.5 19.5t103 -15.5t71.5 -43.5t38.5 -66.5t3 -83.5zM422 460
q-50 0 -97 -16t-84.5 -46t-62.5 -72.5t-31 -94.5l445 97q3 27 -5 51t-29 42t-54.5 28.5t-81.5 10.5zM366 656q-3 -17 -18 -31.5t-35 -14.5q-18 0 -28 14.5t-7 31.5t18 31t33 14q20 0 30 -14t7 -31zM627 656q-3 -17 -18 -31.5t-35 -14.5q-18 0 -28 14.5t-7 31.5t18 31t33 14
q20 0 30 -14t7 -31z" />
    <glyph glyph-name="igrave" unicode="&#xec;" horiz-adv-x="209" 
d="M169 488h47l-86 -488h-47zM160 767l157 -200l-23 -24l-173 189z" />
    <glyph glyph-name="iacute" unicode="&#xed;" horiz-adv-x="209" 
d="M169 488h47l-86 -488h-47zM364 762l-271 -207l-14 22l260 220z" />
    <glyph glyph-name="icircumflex" unicode="&#xee;" horiz-adv-x="209" 
d="M169 488h47l-86 -488h-47zM219 784h48l120 -192h-42l-109 160q-40 -38 -84 -81t-81 -79h-41z" />
    <glyph glyph-name="idieresis" unicode="&#xef;" horiz-adv-x="209" 
d="M169 488h47l-86 -488h-47zM134 656q-3 -17 -18 -31.5t-35 -14.5q-18 0 -28 14.5t-7 31.5t18 31t33 14q20 0 30 -14t7 -31zM395 656q-3 -17 -18 -31.5t-35 -14.5q-18 0 -28 14.5t-7 31.5t18 31t33 14q20 0 30 -14t7 -31z" />
    <glyph glyph-name="eth" unicode="&#xf0;" horiz-adv-x="666" 
d="M650 265q-10 -59 -37.5 -110.5t-69 -90.5t-96 -61.5t-118.5 -22.5q-124 0 -184 74t-36 211q11 61 39 110.5t69 83.5t92 52.5t108 18.5q46 0 81.5 -7.5t60 -20.5t40 -29t22.5 -34q-4 63 -45.5 126.5t-127.5 105.5l-80 -82l-22 11l78 83q-81 33 -182 36l7 37q55 -3 103 -14
t96 -29l97 98l23 -12l-97 -97q65 -29 106 -75t61 -103.5t22 -123.5t-10 -135zM335 17q53 0 98 20t79.5 53.5t57.5 78.5t32 96t0.5 93t-32 73t-61.5 48t-89 17q-52 0 -96.5 -16.5t-78.5 -46.5t-57 -72.5t-32 -95.5q-9 -50 -3.5 -95t26.5 -79t59.5 -54t96.5 -20z" />
    <glyph glyph-name="ntilde" unicode="&#xf1;" horiz-adv-x="612" 
d="M552 274q7 42 1 76.5t-24.5 58.5t-48.5 37.5t-69 13.5q-29 0 -60.5 -4.5t-62.5 -12.5t-59 -19t-50 -24l-70 -400h-47l71 406q28 23 62 42t71.5 32.5t76 21t76.5 7.5q50 0 87.5 -17t61 -47.5t31.5 -74t-1 -96.5l-48 -274h-46zM617 740q2 -16 2.5 -28.5t-3.5 -35.5
q-9 -46 -38.5 -74.5t-67.5 -28.5q-36 0 -57.5 20.5t-39 45.5t-36.5 45.5t-50 20.5q-32 0 -51.5 -19.5t-23.5 -54.5q-2 -16 -1.5 -30t2.5 -28h-27q-3 19 -2.5 35.5t4.5 33.5q9 46 38 72t67 26q24 0 41 -10t31 -24.5t25.5 -31.5t24 -31.5t27.5 -24.5t35 -10q25 0 42.5 17
t25.5 45q5 17 6 35t-2 35h28z" />
    <glyph glyph-name="ograve" unicode="&#xf2;" horiz-adv-x="642" 
d="M104 243q10 58 38.5 106.5t69 84t91 55.5t106.5 20q57 0 101 -20t72.5 -55.5t39 -84t0.5 -106.5q-10 -57 -38 -105.5t-68.5 -83.5t-91.5 -54.5t-108 -19.5q-56 0 -100 19.5t-72 54.5t-39 83.5t-1 105.5zM151 243q-8 -47 0.5 -86.5t31.5 -68t58.5 -44.5t82.5 -16t89.5 16
t75.5 44.5t56 68t31 86.5q9 48 0.5 88t-32 68.5t-60 44.5t-83.5 16t-88.5 -16t-74.5 -44.5t-55.5 -68.5t-31.5 -88zM376 767l157 -200l-23 -24l-173 189z" />
    <glyph glyph-name="oacute" unicode="&#xf3;" horiz-adv-x="642" 
d="M104 243q10 58 38.5 106.5t69 84t91 55.5t106.5 20q57 0 101 -20t72.5 -55.5t39 -84t0.5 -106.5q-10 -57 -38 -105.5t-68.5 -83.5t-91.5 -54.5t-108 -19.5q-56 0 -100 19.5t-72 54.5t-39 83.5t-1 105.5zM151 243q-8 -47 0.5 -86.5t31.5 -68t58.5 -44.5t82.5 -16t89.5 16
t75.5 44.5t56 68t31 86.5q9 48 0.5 88t-32 68.5t-60 44.5t-83.5 16t-88.5 -16t-74.5 -44.5t-55.5 -68.5t-31.5 -88zM581 762l-271 -207l-14 22l260 220z" />
    <glyph glyph-name="ocircumflex" unicode="&#xf4;" horiz-adv-x="642" 
d="M104 243q10 58 38.5 106.5t69 84t91 55.5t106.5 20q57 0 101 -20t72.5 -55.5t39 -84t0.5 -106.5q-10 -57 -38 -105.5t-68.5 -83.5t-91.5 -54.5t-108 -19.5q-56 0 -100 19.5t-72 54.5t-39 83.5t-1 105.5zM151 243q-8 -47 0.5 -86.5t31.5 -68t58.5 -44.5t82.5 -16t89.5 16
t75.5 44.5t56 68t31 86.5q9 48 0.5 88t-32 68.5t-60 44.5t-83.5 16t-88.5 -16t-74.5 -44.5t-55.5 -68.5t-31.5 -88zM436 784h48l120 -192h-42l-109 160q-40 -38 -84 -81t-81 -79h-41z" />
    <glyph glyph-name="otilde" unicode="&#xf5;" horiz-adv-x="642" 
d="M104 243q10 58 38.5 106.5t69 84t91 55.5t106.5 20q57 0 101 -20t72.5 -55.5t39 -84t0.5 -106.5q-10 -57 -38 -105.5t-68.5 -83.5t-91.5 -54.5t-108 -19.5q-56 0 -100 19.5t-72 54.5t-39 83.5t-1 105.5zM151 243q-8 -47 0.5 -86.5t31.5 -68t58.5 -44.5t82.5 -16t89.5 16
t75.5 44.5t56 68t31 86.5q9 48 0.5 88t-32 68.5t-60 44.5t-83.5 16t-88.5 -16t-74.5 -44.5t-55.5 -68.5t-31.5 -88zM632 740q2 -16 2.5 -28.5t-3.5 -35.5q-9 -46 -38.5 -74.5t-67.5 -28.5q-36 0 -57.5 20.5t-39 45.5t-36.5 45.5t-50 20.5q-32 0 -51.5 -19.5t-23.5 -54.5
q-2 -16 -1.5 -30t2.5 -28h-27q-3 19 -2.5 35.5t4.5 33.5q9 46 38 72t67 26q24 0 41 -10t31 -24.5t25.5 -31.5t24 -31.5t27.5 -24.5t35 -10q25 0 42.5 17t25.5 45q5 17 6 35t-2 35h28z" />
    <glyph glyph-name="odieresis" unicode="&#xf6;" horiz-adv-x="642" 
d="M104 243q10 58 38.5 106.5t69 84t91 55.5t106.5 20q57 0 101 -20t72.5 -55.5t39 -84t0.5 -106.5q-10 -57 -38 -105.5t-68.5 -83.5t-91.5 -54.5t-108 -19.5q-56 0 -100 19.5t-72 54.5t-39 83.5t-1 105.5zM151 243q-8 -47 0.5 -86.5t31.5 -68t58.5 -44.5t82.5 -16t89.5 16
t75.5 44.5t56 68t31 86.5q9 48 0.5 88t-32 68.5t-60 44.5t-83.5 16t-88.5 -16t-74.5 -44.5t-55.5 -68.5t-31.5 -88zM349 656q-3 -17 -18 -31.5t-35 -14.5q-18 0 -28 14.5t-7 31.5t18 31t33 14q20 0 30 -14t7 -31zM610 656q-3 -17 -18 -31.5t-35 -14.5q-18 0 -28 14.5
t-7 31.5t18 31t33 14q20 0 30 -14t7 -31z" />
    <glyph glyph-name="divide" unicode="&#xf7;" horiz-adv-x="628" 
d="M120 324l7 40h506l-7 -40h-506zM384 142q-4 -17 -19 -31.5t-34 -14.5t-28.5 14.5t-5.5 31.5q3 17 17 31t33 14t29.5 -14t7.5 -31zM455 548q-3 -17 -18 -31.5t-34 -14.5t-28.5 14.5t-6.5 31.5t17.5 30.5t33.5 13.5t29 -13.5t7 -30.5z" />
    <glyph glyph-name="oslash" unicode="&#xf8;" horiz-adv-x="642" 
d="M104 243q10 58 38.5 106.5t69 84t91 55.5t106.5 20q36 0 67.5 -8.5t56.5 -24.5l77 91h54l-98 -116q38 -36 53 -89t3 -119q-10 -57 -38 -105.5t-68.5 -83.5t-91.5 -54.5t-108 -19.5q-70 0 -123 31l-62 -74h-54l84 99q-38 35 -53 88t-4 119zM151 243q-9 -54 2.5 -96.5
t40.5 -71.5l305 361q-20 11 -44.5 17.5t-53.5 6.5q-47 0 -88.5 -16t-74.5 -44.5t-55.5 -68.5t-31.5 -88zM576 243q10 54 -2 96.5t-41 71.5l-306 -361q42 -22 97 -22q47 0 89.5 16t75.5 44.5t56 68t31 86.5z" />
    <glyph glyph-name="ugrave" unicode="&#xf9;" horiz-adv-x="622" 
d="M146 215q-16 -92 26.5 -139.5t133.5 -47.5q59 0 114.5 10.5t104.5 28.5l75 421h46l-76 -427q-21 -17 -51.5 -32t-66 -26t-75 -17t-79.5 -6q-54 0 -95.5 15.5t-68 45.5t-36 74t0.5 100l49 273h47zM366 767l157 -200l-23 -24l-173 189z" />
    <glyph glyph-name="uacute" unicode="&#xfa;" horiz-adv-x="622" 
d="M146 215q-16 -92 26.5 -139.5t133.5 -47.5q59 0 114.5 10.5t104.5 28.5l75 421h46l-76 -427q-21 -17 -51.5 -32t-66 -26t-75 -17t-79.5 -6q-54 0 -95.5 15.5t-68 45.5t-36 74t0.5 100l49 273h47zM571 762l-271 -207l-14 22l260 220z" />
    <glyph glyph-name="ucircumflex" unicode="&#xfb;" horiz-adv-x="622" 
d="M146 215q-16 -92 26.5 -139.5t133.5 -47.5q59 0 114.5 10.5t104.5 28.5l75 421h46l-76 -427q-21 -17 -51.5 -32t-66 -26t-75 -17t-79.5 -6q-54 0 -95.5 15.5t-68 45.5t-36 74t0.5 100l49 273h47zM426 784h48l120 -192h-42l-109 160q-40 -38 -84 -81t-81 -79h-41z" />
    <glyph glyph-name="udieresis" unicode="&#xfc;" horiz-adv-x="622" 
d="M146 215q-16 -92 26.5 -139.5t133.5 -47.5q59 0 114.5 10.5t104.5 28.5l75 421h46l-76 -427q-21 -17 -51.5 -32t-66 -26t-75 -17t-79.5 -6q-54 0 -95.5 15.5t-68 45.5t-36 74t0.5 100l49 273h47zM339 656q-3 -17 -18 -31.5t-35 -14.5q-18 0 -28 14.5t-7 31.5t18 31t33 14
q20 0 30 -14t7 -31zM600 656q-3 -17 -18 -31.5t-35 -14.5q-18 0 -28 14.5t-7 31.5t18 31t33 14q20 0 30 -14t7 -31z" />
    <glyph glyph-name="yacute" unicode="&#xfd;" horiz-adv-x="609" 
d="M509 55q-45 -23 -100 -39t-117 -16q-111 0 -160 61t-29 174l45 253h47l-45 -253q-17 -92 21 -139t129 -47q65 0 115.5 11.5t101.5 37.5l69 390h46l-86 -488q-9 -53 -35 -93t-63.5 -67t-83.5 -41t-95 -14q-76 0 -134 25t-90 61l7 40q85 -77 225 -77q39 0 75.5 10.5
t67 31.5t52 53.5t29.5 76.5zM565 762l-271 -207l-14 22l260 220z" />
    <glyph glyph-name="thorn" unicode="&#xfe;" horiz-adv-x="626" 
d="M193 744h47l-53 -297q49 29 101.5 45.5t110.5 16.5q65 0 112 -21t74.5 -57t37 -84.5t-0.5 -103.5q-10 -56 -36 -104t-66.5 -83t-94.5 -55.5t-119 -20.5q-57 0 -105 16t-85 44l-53 -296h-47zM576 243q8 44 1 83.5t-30 69t-62 47t-94 17.5q-60 0 -113 -17t-99 -43l-55 -312
q37 -26 83.5 -43t106.5 -17q55 0 100.5 17t78.5 46.5t54 68.5t29 83z" />
    <glyph glyph-name="ydieresis" unicode="&#xff;" horiz-adv-x="609" 
d="M509 55q-45 -23 -100 -39t-117 -16q-111 0 -160 61t-29 174l45 253h47l-45 -253q-17 -92 21 -139t129 -47q65 0 115.5 11.5t101.5 37.5l69 390h46l-86 -488q-9 -53 -35 -93t-63.5 -67t-83.5 -41t-95 -14q-76 0 -134 25t-90 61l7 40q85 -77 225 -77q39 0 75.5 10.5
t67 31.5t52 53.5t29.5 76.5zM332 656q-3 -17 -18 -31.5t-35 -14.5q-18 0 -28 14.5t-7 31.5t18 31t33 14q20 0 30 -14t7 -31zM593 656q-3 -17 -18 -31.5t-35 -14.5q-18 0 -28 14.5t-7 31.5t18 31t33 14q20 0 30 -14t7 -31z" />
    <glyph glyph-name="Amacron" unicode="&#x100;" horiz-adv-x="793" 
d="M488 713h67l169 -713h-54l-41 169h-413l-97 -169h-49zM238 207h383q-15 64 -28 118.5t-25.5 108t-26 110.5t-29.5 128zM359 843l6 35h369l-6 -35h-369z" />
    <glyph glyph-name="amacron" unicode="&#x101;" horiz-adv-x="612" 
d="M564 82q-56 -46 -123.5 -74t-142.5 -28q-50 0 -91.5 10.5t-70.5 31.5t-42.5 52.5t-5.5 73.5q7 43 30 74.5t55.5 52t72.5 31t82 11.5q55 2 112.5 -12.5t108.5 -44.5l3 17q9 48 2 82.5t-26 57t-49 33t-68 10.5q-69 0 -134.5 -21t-122.5 -63l10 56q21 14 49.5 27.5
t61.5 24.5t69.5 18t74.5 7q50 0 88 -14t62 -41t32.5 -67t-0.5 -93zM135 148q-6 -32 5.5 -55t35 -37.5t57.5 -21t73 -6.5q60 0 113.5 17t99.5 43l23 131q-51 28 -102 41.5t-99 14.5q-41 0 -76 -8t-62 -24.5t-45 -40.5t-23 -54zM229 615l6 35h369l-6 -35h-369z" />
    <glyph glyph-name="Abreve" unicode="&#x102;" horiz-adv-x="793" 
d="M488 713h67l169 -713h-54l-41 169h-413l-97 -169h-49zM238 207h383q-15 64 -28 118.5t-25.5 108t-26 110.5t-29.5 128zM770 991q0 -17 -2 -35.5t-8 -38.5q-19 -54 -74.5 -83.5t-151.5 -29.5q-91 0 -136 30.5t-43 84.5q1 17 5 35t13 37h41q-16 -31 -14 -69q7 -80 141 -80
q71 0 113 19.5t61 58.5q7 18 10.5 36.5t2.5 34.5h42z" />
    <glyph glyph-name="abreve" unicode="&#x103;" horiz-adv-x="612" 
d="M564 82q-56 -46 -123.5 -74t-142.5 -28q-50 0 -91.5 10.5t-70.5 31.5t-42.5 52.5t-5.5 73.5q7 43 30 74.5t55.5 52t72.5 31t82 11.5q55 2 112.5 -12.5t108.5 -44.5l3 17q9 48 2 82.5t-26 57t-49 33t-68 10.5q-69 0 -134.5 -21t-122.5 -63l10 56q21 14 49.5 27.5
t61.5 24.5t69.5 18t74.5 7q50 0 88 -14t62 -41t32.5 -67t-0.5 -93zM135 148q-6 -32 5.5 -55t35 -37.5t57.5 -21t73 -6.5q60 0 113.5 17t99.5 43l23 131q-51 28 -102 41.5t-99 14.5q-41 0 -76 -8t-62 -24.5t-45 -40.5t-23 -54zM650 763q0 -17 -2 -35.5t-8 -38.5
q-20 -54 -75 -83.5t-151 -29.5q-91 0 -136.5 30.5t-43.5 84.5q2 36 19 72h41q-16 -31 -14 -69q6 -80 141 -80q71 0 112.5 19.5t61.5 58.5q7 18 10 36.5t3 34.5h42z" />
    <glyph glyph-name="Aogonek" unicode="&#x104;" horiz-adv-x="793" 
d="M462 -187q-5 -22 2.5 -40t23.5 -31q32 -17 84 -16.5t115 21.5l-5 -29q-42 -14 -81.5 -19t-72.5 -3q-60 5 -90.5 33.5t-22.5 76.5q8 39 37 64t68 45.5t83 39.5t82 45h-15l-41 169h-413l-97 -169h-49l418 713h67l169 -713h-1q-29 -29 -71 -49.5t-82.5 -40.5t-71 -42.5
t-36.5 -54.5zM238 207h383q-15 64 -28 118.5t-25.5 108t-26 110.5t-29.5 128z" />
    <glyph glyph-name="aogonek" unicode="&#x105;" horiz-adv-x="612" 
d="M239 -143q-4 -22 3.5 -40t23.5 -31q32 -17 84 -16.5t115 21.5l-5 -29q-43 -14 -82 -19t-72 -3q-60 5 -90.5 33.5t-22.5 76.5q5 25 19.5 44.5t35.5 35t47 28.5t53 26q-23 -4 -50 -4q-50 0 -91.5 10.5t-70.5 31.5t-42.5 52.5t-5.5 73.5q7 43 30 74.5t55.5 52t72.5 31
t82 11.5q55 2 112.5 -12.5t108.5 -44.5l3 17q9 48 2 82.5t-26 57t-49 33t-68 10.5q-69 0 -134.5 -21t-122.5 -63l10 56q21 14 49.5 27.5t61.5 24.5t69.5 18t74.5 7q50 0 88 -14t62 -41t32.5 -67t-0.5 -93l-37 -212q-41 -34 -85 -57q-31 -23 -70.5 -41.5t-75.5 -36.5
t-62.5 -39.5t-31.5 -50.5zM135 148q-6 -32 5.5 -55t35 -37.5t57.5 -21t73 -6.5q60 0 113.5 17t99.5 43l23 131q-51 28 -102 41.5t-99 14.5q-41 0 -76 -8t-62 -24.5t-45 -40.5t-23 -54z" />
    <glyph glyph-name="Cacute" unicode="&#x106;" horiz-adv-x="720" 
d="M671 162q-16 -35 -43.5 -67.5t-65 -58t-85 -41t-103.5 -15.5q-73 0 -126.5 27t-85.5 76t-42 116t4 147q14 82 49 153t86 123.5t115.5 82.5t138.5 30q61 0 106 -17.5t74.5 -45t43.5 -62t13 -67.5h-51q-2 30 -15.5 58t-38 49t-59.5 34t-80 13q-64 0 -119.5 -28.5t-99 -76.5
t-73 -111.5t-41.5 -134.5q-12 -70 -5.5 -130t32.5 -104.5t71 -69.5t110 -25q42 0 79 11.5t67.5 31t54 46t40.5 56.5h49zM720 990l-270 -207l-15 22l260 220z" />
    <glyph glyph-name="cacute" unicode="&#x107;" horiz-adv-x="612" 
d="M152 244q-9 -51 -0.5 -91t31.5 -68t59 -42.5t82 -14.5q57 0 116.5 15.5t127.5 63.5l-8 -46q-55 -44 -114 -62.5t-135 -18.5q-56 0 -99.5 19.5t-70.5 54t-37 83t1 107.5q10 58 37 107t66.5 84t89.5 54.5t106 19.5q76 0 128.5 -19t92.5 -62l-8 -47q-51 48 -105 63.5
t-111 15.5q-46 0 -87.5 -15t-74.5 -43t-55.5 -68t-31.5 -90zM592 762l-271 -207l-14 22l260 220z" />
    <glyph glyph-name="Ccircumflex" unicode="&#x108;" horiz-adv-x="720" 
d="M671 162q-16 -35 -43.5 -67.5t-65 -58t-85 -41t-103.5 -15.5q-73 0 -126.5 27t-85.5 76t-42 116t4 147q14 82 49 153t86 123.5t115.5 82.5t138.5 30q61 0 106 -17.5t74.5 -45t43.5 -62t13 -67.5h-51q-2 30 -15.5 58t-38 49t-59.5 34t-80 13q-64 0 -119.5 -28.5t-99 -76.5
t-73 -111.5t-41.5 -134.5q-12 -70 -5.5 -130t32.5 -104.5t71 -69.5t110 -25q42 0 79 11.5t67.5 31t54 46t40.5 56.5h49zM533 977h48l120 -192h-42l-109 160q-40 -38 -84 -81t-81 -79h-41z" />
    <glyph glyph-name="ccircumflex" unicode="&#x109;" horiz-adv-x="612" 
d="M152 244q-9 -51 -0.5 -91t31.5 -68t59 -42.5t82 -14.5q57 0 116.5 15.5t127.5 63.5l-8 -46q-55 -44 -114 -62.5t-135 -18.5q-56 0 -99.5 19.5t-70.5 54t-37 83t1 107.5q10 58 37 107t66.5 84t89.5 54.5t106 19.5q76 0 128.5 -19t92.5 -62l-8 -47q-51 48 -105 63.5
t-111 15.5q-46 0 -87.5 -15t-74.5 -43t-55.5 -68t-31.5 -90zM450 784h48l120 -192h-42l-109 160q-40 -38 -84 -81t-81 -79h-41z" />
    <glyph glyph-name="Cdotaccent" unicode="&#x10a;" horiz-adv-x="720" 
d="M671 162q-16 -35 -43.5 -67.5t-65 -58t-85 -41t-103.5 -15.5q-73 0 -126.5 27t-85.5 76t-42 116t4 147q14 82 49 153t86 123.5t115.5 82.5t138.5 30q61 0 106 -17.5t74.5 -45t43.5 -62t13 -67.5h-51q-2 30 -15.5 58t-38 49t-59.5 34t-80 13q-64 0 -119.5 -28.5t-99 -76.5
t-73 -111.5t-41.5 -134.5q-12 -70 -5.5 -130t32.5 -104.5t71 -69.5t110 -25q42 0 79 11.5t67.5 31t54 46t40.5 56.5h49zM575 857q-3 -17 -18 -31.5t-35 -14.5q-18 0 -28 14.5t-7 31.5t18 31t33 14q20 0 30 -14t7 -31z" />
    <glyph glyph-name="cdotaccent" unicode="&#x10b;" horiz-adv-x="612" 
d="M152 244q-9 -51 -0.5 -91t31.5 -68t59 -42.5t82 -14.5q57 0 116.5 15.5t127.5 63.5l-8 -46q-55 -44 -114 -62.5t-135 -18.5q-56 0 -99.5 19.5t-70.5 54t-37 83t1 107.5q10 58 37 107t66.5 84t89.5 54.5t106 19.5q76 0 128.5 -19t92.5 -62l-8 -47q-51 48 -105 63.5
t-111 15.5q-46 0 -87.5 -15t-74.5 -43t-55.5 -68t-31.5 -90zM492 677q-3 -17 -18 -31.5t-35 -14.5q-18 0 -28 14.5t-7 31.5t18 31t33 14q20 0 30 -14t7 -31z" />
    <glyph glyph-name="Ccaron" unicode="&#x10c;" horiz-adv-x="720" 
d="M671 162q-16 -35 -43.5 -67.5t-65 -58t-85 -41t-103.5 -15.5q-73 0 -126.5 27t-85.5 76t-42 116t4 147q14 82 49 153t86 123.5t115.5 82.5t138.5 30q61 0 106 -17.5t74.5 -45t43.5 -62t13 -67.5h-51q-2 30 -15.5 58t-38 49t-59.5 34t-80 13q-64 0 -119.5 -28.5t-99 -76.5
t-73 -111.5t-41.5 -134.5q-12 -70 -5.5 -130t32.5 -104.5t71 -69.5t110 -25q42 0 79 11.5t67.5 31t54 46t40.5 56.5h49zM563 795h-49l-120 192h42l108 -160q41 38 84.5 81.5t81.5 78.5h42z" />
    <glyph glyph-name="ccaron" unicode="&#x10d;" horiz-adv-x="612" 
d="M152 244q-9 -51 -0.5 -91t31.5 -68t59 -42.5t82 -14.5q57 0 116.5 15.5t127.5 63.5l-8 -46q-55 -44 -114 -62.5t-135 -18.5q-56 0 -99.5 19.5t-70.5 54t-37 83t1 107.5q10 58 37 107t66.5 84t89.5 54.5t106 19.5q76 0 128.5 -19t92.5 -62l-8 -47q-51 48 -105 63.5
t-111 15.5q-46 0 -87.5 -15t-74.5 -43t-55.5 -68t-31.5 -90zM444 567h-49l-120 192h42l109 -160q41 38 84.5 81.5t80.5 78.5h42z" />
    <glyph glyph-name="Dcaron" unicode="&#x10e;" horiz-adv-x="690" 
d="M439 713q74 0 127.5 -24.5t86 -70.5t42 -112.5t-5.5 -149.5t-48.5 -149t-82 -112t-109.5 -70.5t-130 -24.5h-256l125 713h251zM325 38q58 0 109 21t92.5 61.5t70.5 99.5t43 136q15 82 7 142t-35.5 99.5t-73 58.5t-105.5 19h-202l-113 -637h207zM508 795h-49l-120 192h42
l108 -160q41 38 84.5 81.5t81.5 78.5h42z" />
    <glyph glyph-name="dcaron" unicode="&#x10f;" horiz-adv-x="918" 
d="M600 61q-42 -38 -105 -59.5t-147 -21.5q-59 0 -108.5 20.5t-82.5 56.5t-47.5 86t-3.5 110q10 55 41 102t75.5 81.5t98.5 53.5t110 19q57 0 105 -16.5t86 -45.5l53 297h46zM153 253q-9 -48 2.5 -89.5t38.5 -71.5t68.5 -47t93.5 -17q53 0 102.5 12t97.5 32l58 328
q-37 26 -84 43t-107 17q-44 0 -89 -16t-82.5 -43.5t-64 -65.5t-34.5 -82zM921 696h47l-138 -298h-36z" />
    <glyph glyph-name="Dcroat" unicode="&#x110;" horiz-adv-x="690" 
d="M439 713q74 0 127.5 -24.5t86 -70.5t42 -112.5t-5.5 -149.5t-48.5 -149t-82 -112t-109.5 -70.5t-130 -24.5h-256l67 383h-75l6 35h75l52 295h251zM179 383l-61 -345h207q58 0 109 21t92.5 61.5t70.5 99.5t43 136q15 82 7 142t-35.5 99.5t-73 58.5t-105.5 19h-202
l-46 -257h245l-6 -35h-245z" />
    <glyph glyph-name="dcroat" unicode="&#x111;" horiz-adv-x="653" 
d="M700 629l-100 -568q-42 -38 -105 -59.5t-147 -21.5q-59 0 -108.5 20.5t-82.5 56.5t-47.5 86t-3.5 110q10 55 41 102t75.5 81.5t98.5 53.5t110 19q57 0 105 -16.5t86 -45.5l32 182h-309l8 45h309l13 70h46l-13 -70h77l-8 -45h-77zM153 253q-9 -48 2.5 -89.5t38.5 -71.5
t68.5 -47t93.5 -17q53 0 102.5 12t97.5 32l58 328q-37 26 -84 43t-107 17q-44 0 -89 -16t-82.5 -43.5t-64 -65.5t-34.5 -82z" />
    <glyph glyph-name="Emacron" unicode="&#x112;" horiz-adv-x="623" 
d="M560 0h-497l125 713h487l-6 -38h-438l-50 -281h388l-7 -38h-388l-56 -318h448zM275 843l6 35h369l-6 -35h-369z" />
    <glyph glyph-name="emacron" unicode="&#x113;" horiz-adv-x="650" 
d="M145 190q1 -38 16.5 -68t42.5 -51t63 -32t78 -11q57 0 121.5 20.5t133.5 68.5l-8 -46q-56 -44 -120.5 -67.5t-140.5 -23.5q-57 0 -103.5 19t-77.5 53.5t-43.5 83.5t-1.5 108q10 58 39 107t71.5 84t96 54.5t112.5 19.5t103 -15.5t71.5 -43.5t38.5 -66.5t3 -83.5zM422 460
q-50 0 -97 -16t-84.5 -46t-62.5 -72.5t-31 -94.5l445 97q3 27 -5 51t-29 42t-54.5 28.5t-81.5 10.5zM248 615l6 35h369l-6 -35h-369z" />
    <glyph glyph-name="Edotaccent" unicode="&#x116;" horiz-adv-x="623" 
d="M560 0h-497l125 713h487l-6 -38h-438l-50 -281h388l-7 -38h-388l-56 -318h448zM509 869q-3 -17 -18 -31.5t-35 -14.5q-18 0 -28 14.5t-7 31.5t18 31t33 14q20 0 30 -14t7 -31z" />
    <glyph glyph-name="edotaccent" unicode="&#x117;" horiz-adv-x="650" 
d="M145 190q1 -38 16.5 -68t42.5 -51t63 -32t78 -11q57 0 121.5 20.5t133.5 68.5l-8 -46q-56 -44 -120.5 -67.5t-140.5 -23.5q-57 0 -103.5 19t-77.5 53.5t-43.5 83.5t-1.5 108q10 58 39 107t71.5 84t96 54.5t112.5 19.5t103 -15.5t71.5 -43.5t38.5 -66.5t3 -83.5zM422 460
q-50 0 -97 -16t-84.5 -46t-62.5 -72.5t-31 -94.5l445 97q3 27 -5 51t-29 42t-54.5 28.5t-81.5 10.5zM486 666q-3 -17 -18 -31.5t-35 -14.5q-18 0 -28 14.5t-7 31.5t18 31t33 14q20 0 30 -14t7 -31z" />
    <glyph glyph-name="Eogonek" unicode="&#x118;" horiz-adv-x="623" 
d="M138 -167q-4 -22 3.5 -40t23.5 -31q32 -17 83.5 -16.5t114.5 21.5l-5 -29q-42 -14 -81 -19t-73 -3q-60 5 -90 33.5t-22 76.5q7 34 31 58t58 43t73 35.5t76 37.5h-267l125 713h487l-6 -38h-438l-50 -281h388l-7 -38h-388l-56 -318h448l-6 -38h-184q-31 -23 -70 -41
t-74.5 -36.5t-62 -39.5t-31.5 -50z" />
    <glyph glyph-name="eogonek" unicode="&#x119;" horiz-adv-x="650" 
d="M310 -125q-4 -22 3.5 -40t23.5 -31q32 -17 84 -16.5t115 21.5l-5 -29q-42 -14 -81.5 -19t-72.5 -3q-60 5 -90.5 33.5t-22.5 76.5q8 41 40 67t76 48q-24 -3 -49 -3q-57 0 -103.5 19t-77.5 53.5t-43.5 83.5t-1.5 108q10 58 39 107t71.5 84t96 54.5t112.5 19.5t103 -15.5
t71.5 -43.5t38.5 -66.5t3 -83.5l-495 -110q1 -38 16.5 -68t42.5 -51t63 -32t78 -11q57 0 121.5 20.5t133.5 68.5l-8 -46q-30 -23 -58 -39q-31 -20 -68 -37t-70 -34.5t-57 -38t-29 -47.5zM422 460q-50 0 -97 -16t-84.5 -46t-62.5 -72.5t-31 -94.5l445 97q3 27 -5 51t-29 42
t-54.5 28.5t-81.5 10.5z" />
    <glyph glyph-name="Ecaron" unicode="&#x11a;" horiz-adv-x="623" 
d="M560 0h-497l125 713h487l-6 -38h-438l-50 -281h388l-7 -38h-388l-56 -318h448zM475 795h-49l-120 192h42l108 -160q41 38 84.5 81.5t81.5 78.5h42z" />
    <glyph glyph-name="ecaron" unicode="&#x11b;" horiz-adv-x="650" 
d="M145 190q1 -38 16.5 -68t42.5 -51t63 -32t78 -11q57 0 121.5 20.5t133.5 68.5l-8 -46q-56 -44 -120.5 -67.5t-140.5 -23.5q-57 0 -103.5 19t-77.5 53.5t-43.5 83.5t-1.5 108q10 58 39 107t71.5 84t96 54.5t112.5 19.5t103 -15.5t71.5 -43.5t38.5 -66.5t3 -83.5zM422 460
q-50 0 -97 -16t-84.5 -46t-62.5 -72.5t-31 -94.5l445 97q3 27 -5 51t-29 42t-54.5 28.5t-81.5 10.5zM447 567h-49l-120 192h42l109 -160q41 38 84.5 81.5t80.5 78.5h42z" />
    <glyph glyph-name="Gcircumflex" unicode="&#x11c;" horiz-adv-x="719" 
d="M650 0h-35l21 124q-19 -29 -46.5 -55t-62.5 -45.5t-77.5 -31.5t-91.5 -12q-63 0 -113 24.5t-82 71.5t-43 115t4 155q15 89 51.5 161t88 122.5t114.5 77.5t131 27q53 0 96 -14t74 -38.5t49 -59t20 -75.5h-49q-5 35 -21.5 63t-43 47t-61 29t-74.5 10q-55 0 -107.5 -24
t-96 -69t-76 -110t-46.5 -147q-13 -74 -5.5 -135t33.5 -104t69.5 -66.5t102.5 -23.5q50 0 95 17t80.5 45.5t59 65.5t30.5 76l16 86h-227l6 37h277zM533 1006h48l120 -192h-42l-109 160q-40 -38 -84 -81t-81 -79h-41z" />
    <glyph glyph-name="gcircumflex" unicode="&#x11d;" horiz-adv-x="642" 
d="M544 60q-49 -29 -102 -44.5t-110 -15.5q-56 0 -102 19t-77 52.5t-44 80t-3 101.5t39 102t72 81.5t95.5 53.5t108.5 19q75 0 133 -28.5t97 -74.5l-71 -406q-9 -53 -35 -93t-63.5 -67t-83.5 -41t-95 -14q-76 0 -134 25t-90 61l9 55q37 -48 95.5 -70t127.5 -22
q39 0 75.5 10.5t67 32t52 54.5t29.5 79zM153 253q-8 -44 3 -81.5t36.5 -64.5t63.5 -42.5t84 -15.5q60 0 113.5 17t99.5 43l51 291q-37 26 -84 43t-107 17q-46 0 -89.5 -16t-78.5 -43.5t-59.5 -65.5t-32.5 -82zM451 782h48l121 -192h-42l-109 160q-40 -38 -84 -81t-81 -79
h-41z" />
    <glyph glyph-name="Gbreve" unicode="&#x11e;" horiz-adv-x="719" 
d="M650 0h-35l21 124q-19 -29 -46.5 -55t-62.5 -45.5t-77.5 -31.5t-91.5 -12q-63 0 -113 24.5t-82 71.5t-43 115t4 155q15 89 51.5 161t88 122.5t114.5 77.5t131 27q53 0 96 -14t74 -38.5t49 -59t20 -75.5h-49q-5 35 -21.5 63t-43 47t-61 29t-74.5 10q-55 0 -107.5 -24
t-96 -69t-76 -110t-46.5 -147q-13 -74 -5.5 -135t33.5 -104t69.5 -66.5t102.5 -23.5q50 0 95 17t80.5 45.5t59 65.5t30.5 76l16 86h-227l6 37h277zM733 991q0 -17 -2 -35.5t-8 -38.5q-19 -54 -74.5 -83.5t-151.5 -29.5q-91 0 -136 30.5t-43 84.5q1 17 5 35t13 37h41
q-16 -31 -14 -69q7 -80 141 -80q71 0 113 19.5t61 58.5q7 18 10.5 36.5t2.5 34.5h42z" />
    <glyph glyph-name="gbreve" unicode="&#x11f;" horiz-adv-x="642" 
d="M544 60q-49 -29 -102 -44.5t-110 -15.5q-56 0 -102 19t-77 52.5t-44 80t-3 101.5t39 102t72 81.5t95.5 53.5t108.5 19q75 0 133 -28.5t97 -74.5l-71 -406q-9 -53 -35 -93t-63.5 -67t-83.5 -41t-95 -14q-76 0 -134 25t-90 61l9 55q37 -48 95.5 -70t127.5 -22
q39 0 75.5 10.5t67 32t52 54.5t29.5 79zM153 253q-8 -44 3 -81.5t36.5 -64.5t63.5 -42.5t84 -15.5q60 0 113.5 17t99.5 43l51 291q-37 26 -84 43t-107 17q-46 0 -89.5 -16t-78.5 -43.5t-59.5 -65.5t-32.5 -82zM655 763q0 -17 -2 -35.5t-8 -38.5q-20 -54 -75 -83.5
t-151 -29.5q-91 0 -136.5 30.5t-43.5 84.5q2 36 19 72h41q-16 -31 -14 -69q6 -80 141 -80q71 0 112.5 19.5t61.5 58.5q7 18 10 36.5t3 34.5h42z" />
    <glyph glyph-name="Gdotaccent" unicode="&#x120;" horiz-adv-x="719" 
d="M650 0h-35l21 124q-19 -29 -46.5 -55t-62.5 -45.5t-77.5 -31.5t-91.5 -12q-63 0 -113 24.5t-82 71.5t-43 115t4 155q15 89 51.5 161t88 122.5t114.5 77.5t131 27q53 0 96 -14t74 -38.5t49 -59t20 -75.5h-49q-5 35 -21.5 63t-43 47t-61 29t-74.5 10q-55 0 -107.5 -24
t-96 -69t-76 -110t-46.5 -147q-13 -74 -5.5 -135t33.5 -104t69.5 -66.5t102.5 -23.5q50 0 95 17t80.5 45.5t59 65.5t30.5 76l16 86h-227l6 37h277zM584 862q-3 -17 -18 -31.5t-35 -14.5q-18 0 -28 14.5t-7 31.5q4 17 18.5 31t32.5 14q20 0 30.5 -14t6.5 -31z" />
    <glyph glyph-name="gdotaccent" unicode="&#x121;" horiz-adv-x="642" 
d="M544 60q-49 -29 -102 -44.5t-110 -15.5q-56 0 -102 19t-77 52.5t-44 80t-3 101.5t39 102t72 81.5t95.5 53.5t108.5 19q75 0 133 -28.5t97 -74.5l-71 -406q-9 -53 -35 -93t-63.5 -67t-83.5 -41t-95 -14q-76 0 -134 25t-90 61l9 55q37 -48 95.5 -70t127.5 -22
q39 0 75.5 10.5t67 32t52 54.5t29.5 79zM153 253q-8 -44 3 -81.5t36.5 -64.5t63.5 -42.5t84 -15.5q60 0 113.5 17t99.5 43l51 291q-37 26 -84 43t-107 17q-46 0 -89.5 -16t-78.5 -43.5t-59.5 -65.5t-32.5 -82zM505 670q-3 -17 -18 -31.5t-35 -14.5q-18 0 -28 14.5t-7 31.5
t18 31t33 14q20 0 30 -14t7 -31z" />
    <glyph glyph-name="uni0122" unicode="&#x122;" horiz-adv-x="719" 
d="M650 0h-35l21 124q-19 -29 -46.5 -55t-62.5 -45.5t-77.5 -31.5t-91.5 -12q-63 0 -113 24.5t-82 71.5t-43 115t4 155q15 89 51.5 161t88 122.5t114.5 77.5t131 27q53 0 96 -14t74 -38.5t49 -59t20 -75.5h-49q-5 35 -21.5 63t-43 47t-61 29t-74.5 10q-55 0 -107.5 -24
t-96 -69t-76 -110t-46.5 -147q-13 -74 -5.5 -135t33.5 -104t69.5 -66.5t102.5 -23.5q50 0 95 17t80.5 45.5t59 65.5t30.5 76l16 86h-227l6 37h277zM334 -60h45l-123 -249h-31z" />
    <glyph glyph-name="uni0123" unicode="&#x123;" horiz-adv-x="642" 
d="M544 60q-49 -29 -102 -44.5t-110 -15.5q-56 0 -102 19t-77 52.5t-44 80t-3 101.5t39 102t72 81.5t95.5 53.5t108.5 19q75 0 133 -28.5t97 -74.5l-71 -406q-9 -53 -35 -93t-63.5 -67t-83.5 -41t-95 -14q-76 0 -134 25t-90 61l9 55q37 -48 95.5 -70t127.5 -22
q39 0 75.5 10.5t67 32t52 54.5t29.5 79zM153 253q-8 -44 3 -81.5t36.5 -64.5t63.5 -42.5t84 -15.5q60 0 113.5 17t99.5 43l51 291q-37 26 -84 43t-107 17q-46 0 -89.5 -16t-78.5 -43.5t-59.5 -65.5t-32.5 -82zM448 587h-45l123 249h31z" />
    <glyph glyph-name="Hcircumflex" unicode="&#x124;" 
d="M614 0h-49l57 328h-453l-57 -328h-49l125 713h49l-61 -348h453l61 348h49zM493 1012h48l120 -192h-42l-109 160q-40 -38 -83.5 -81t-81.5 -79h-41z" />
    <glyph glyph-name="hcircumflex" unicode="&#x125;" horiz-adv-x="622" 
d="M193 744h47l-53 -300q22 14 51.5 26t61.5 20.5t64.5 13.5t61.5 5q51 0 89 -17t62 -47.5t32 -74t-1 -96.5l-48 -274h-46l48 274q15 85 -24 135.5t-120 50.5q-30 0 -62.5 -5t-64.5 -13.5t-61 -20t-51 -24.5l-70 -397h-47zM402 971h48l120 -192h-42l-109 160
q-40 -38 -84 -81t-81 -79h-41z" />
    <glyph glyph-name="Hbar" unicode="&#x126;" 
d="M614 0h-49l57 328h-453l-57 -328h-49l125 713h49l-30 -173h453l30 173h49zM629 365l25 140h-453l-25 -140h453z" />
    <glyph glyph-name="hbar" unicode="&#x127;" horiz-adv-x="622" 
d="M220 635l-33 -191q22 14 51.5 26t61.5 20.5t64.5 13.5t61.5 5q51 0 89 -17t62 -47.5t32 -74t-1 -96.5l-48 -274h-46l48 274q15 85 -24 135.5t-120 50.5q-30 0 -62.5 -5t-64.5 -13.5t-61 -20t-51 -24.5l-70 -397h-47l111 635h-64l7 35h64l13 74h47l-13 -74h258l-7 -35
h-258z" />
    <glyph glyph-name="Itilde" unicode="&#x128;" horiz-adv-x="174" 
d="M112 0h-49l125 713h49zM439 968q2 -16 2.5 -28.5t-3.5 -35.5q-9 -46 -38.5 -74.5t-67.5 -28.5q-36 0 -57.5 20.5t-39 45.5t-36.5 45.5t-50 20.5q-32 0 -51.5 -19.5t-23.5 -54.5q-2 -16 -1.5 -30t2.5 -28h-27q-3 19 -2.5 35.5t4.5 33.5q10 46 38.5 72t66.5 26q24 0 41 -10
t31 -24.5t25.5 -31.5t24 -31.5t27.5 -24.5t35 -10q25 0 42.5 17t25.5 45q5 17 6 35t-2 35h28z" />
    <glyph glyph-name="itilde" unicode="&#x129;" horiz-adv-x="209" 
d="M169 488h47l-86 -488h-47zM417 740q2 -16 2.5 -28.5t-3.5 -35.5q-9 -46 -38.5 -74.5t-67.5 -28.5q-36 0 -57.5 20.5t-39 45.5t-36.5 45.5t-50 20.5q-32 0 -51.5 -19.5t-23.5 -54.5q-2 -16 -1.5 -30t2.5 -28h-27q-3 19 -2.5 35.5t4.5 33.5q9 46 38 72t67 26q24 0 41 -10
t31 -24.5t25.5 -31.5t24 -31.5t27.5 -24.5t35 -10q25 0 42.5 17t25.5 45q5 17 6 35t-2 35h28z" />
    <glyph glyph-name="Imacron" unicode="&#x12a;" horiz-adv-x="174" 
d="M112 0h-49l125 713h49zM51 843l6 35h369l-6 -35h-369z" />
    <glyph glyph-name="imacron" unicode="&#x12b;" horiz-adv-x="209" 
d="M169 488h47l-86 -488h-47zM28 615l6 35h369l-6 -35h-369z" />
    <glyph glyph-name="Iogonek" unicode="&#x12e;" horiz-adv-x="174" 
d="M-148 -187q-5 -22 2.5 -40t23.5 -31q32 -17 84 -16.5t114 21.5l-5 -29q-42 -14 -81 -19t-72 -3q-60 5 -90.5 33.5t-22.5 76.5q8 39 37 64t68 45.5t83 39.5t81 45h-11l125 713h49l-125 -713q-29 -29 -71 -49.5t-82 -40.5t-70.5 -42.5t-36.5 -54.5z" />
    <glyph glyph-name="iogonek" unicode="&#x12f;" horiz-adv-x="209" 
d="M169 488h47l-86 -488h-1q-29 -29 -71 -49.5t-82 -40.5t-70.5 -42.5t-36.5 -54.5q-5 -22 2.5 -40t23.5 -31q32 -17 83.5 -16.5t114.5 21.5l-5 -29q-42 -14 -81 -19t-72 -3q-60 5 -90.5 33.5t-22.5 76.5q8 39 37 64t68 45.5t82.5 39.5t81.5 45h-8zM173 634q4 19 18.5 31.5
t31.5 12.5q18 0 28.5 -12.5t6.5 -31.5q-3 -18 -17.5 -30.5t-32.5 -12.5q-17 0 -27.5 12.5t-7.5 30.5z" />
    <glyph glyph-name="Idotaccent" unicode="&#x130;" horiz-adv-x="174" 
d="M112 0h-49l125 713h49zM286 877q-3 -17 -18 -31.5t-35 -14.5q-18 0 -28 14.5t-7 31.5t18 31t33 14q20 0 30 -14t7 -31z" />
    <glyph glyph-name="dotlessi" unicode="&#x131;" horiz-adv-x="209" 
d="M169 488h47l-86 -488h-47z" />
    <glyph glyph-name="Jcircumflex" unicode="&#x134;" horiz-adv-x="542" 
d="M604 713l-86 -487q-20 -118 -96 -182t-190 -64q-24 0 -49.5 3t-48 8t-40.5 11.5t-28 14.5l14 37q17 -16 58.5 -26.5t89.5 -10.5q100 0 162 57t79 152l86 487h49zM490 1004h48l120 -192h-42l-109 160q-40 -38 -84 -81t-81 -79h-41z" />
    <glyph glyph-name="jcircumflex" unicode="&#x135;" horiz-adv-x="215" 
d="M-63 -218q23 -4 44.5 1t39 21.5t30.5 45t20 70.5l101 568h46l-99 -560q-19 -105 -66.5 -147.5t-117.5 -34.5zM222 784h48l120 -192h-42l-109 160q-40 -38 -84 -81t-81 -79h-41z" />
    <glyph glyph-name="uni0136" unicode="&#x136;" horiz-adv-x="706" 
d="M237 713l-73 -418l499 418h65l-406 -334l304 -379h-64l-281 344l-127 -104l-42 -240h-49l125 713h49zM324 -32h45l-123 -249h-31z" />
    <glyph glyph-name="uni0137" unicode="&#x137;" horiz-adv-x="622" 
d="M361 216q-47 -11 -103 -21.5t-119 -22.5l-30 -172h-47l131 744h47l-94 -532q117 22 196.5 42t129.5 46.5t76 64t37 95.5l5 28h46l-5 -28q-9 -49 -25 -85t-42.5 -63t-63.5 -46.5t-87 -34.5l135 -231h-63zM260 -32h45l-123 -249h-31z" />
    <glyph glyph-name="kgreenlandic" unicode="&#x138;" horiz-adv-x="622" 
d="M361 216q-47 -11 -103 -21.5t-119 -22.5l-30 -172h-47l86 488h47l-49 -276q117 22 196.5 42t129.5 46.5t76 64t37 95.5l5 28h46l-5 -28q-9 -49 -25 -85t-42.5 -63t-63.5 -46.5t-87 -34.5l135 -231h-63z" />
    <glyph glyph-name="Lacute" unicode="&#x139;" horiz-adv-x="616" 
d="M554 0h-491l125 713h49l-119 -675h442zM608 990l-270 -207l-15 22l260 220z" />
    <glyph glyph-name="lacute" unicode="&#x13a;" horiz-adv-x="171" 
d="M193 744h47l-131 -744h-47zM411 939l-270 -207l-15 22l260 220z" />
    <glyph glyph-name="uni013B" unicode="&#x13b;" horiz-adv-x="616" 
d="M554 0h-491l125 713h49l-119 -675h442zM324 -32h45l-123 -249h-31z" />
    <glyph glyph-name="uni013C" unicode="&#x13c;" horiz-adv-x="171" 
d="M193 744h47l-131 -744h-47zM64 -32h45l-122 -249h-31z" />
    <glyph glyph-name="Lcaron" unicode="&#x13d;" horiz-adv-x="616" 
d="M554 0h-491l125 713h49l-119 -675h442zM565 753h47l-138 -298h-36z" />
    <glyph glyph-name="lcaron" unicode="&#x13e;" horiz-adv-x="436" 
d="M193 744h47l-131 -744h-47zM439 696h47l-138 -298h-36z" />
    <glyph glyph-name="Lslash" unicode="&#x141;" horiz-adv-x="616" 
d="M554 0h-491l55 317l-95 -42l8 45l95 42l62 351h49l-58 -328l242 107l-8 -45l-242 -107l-53 -302h442z" />
    <glyph glyph-name="lslash" unicode="&#x142;" horiz-adv-x="171" 
d="M164 579l-134 -46l8 45l134 46l21 120h47l-18 -103l147 51l-8 -45l-147 -51l-105 -596h-47z" />
    <glyph glyph-name="Nacute" unicode="&#x143;" 
d="M188 713h58l334 -631l111 631h48l-125 -713h-50l-340 641l-113 -641h-48zM638 990l-270 -207l-15 22l260 220z" />
    <glyph glyph-name="nacute" unicode="&#x144;" horiz-adv-x="612" 
d="M552 274q7 42 1 76.5t-24.5 58.5t-48.5 37.5t-69 13.5q-29 0 -60.5 -4.5t-62.5 -12.5t-59 -19t-50 -24l-70 -400h-47l71 406q28 23 62 42t71.5 32.5t76 21t76.5 7.5q50 0 87.5 -17t61 -47.5t31.5 -74t-1 -96.5l-48 -274h-46zM566 762l-271 -207l-14 22l260 220z" />
    <glyph glyph-name="uni0145" unicode="&#x145;" 
d="M188 713h58l334 -631l111 631h48l-125 -713h-50l-340 641l-113 -641h-48zM324 -32h45l-123 -249h-31z" />
    <glyph glyph-name="uni0146" unicode="&#x146;" horiz-adv-x="612" 
d="M552 274q7 42 1 76.5t-24.5 58.5t-48.5 37.5t-69 13.5q-29 0 -60.5 -4.5t-62.5 -12.5t-59 -19t-50 -24l-70 -400h-47l71 406q28 23 62 42t71.5 32.5t76 21t76.5 7.5q50 0 87.5 -17t61 -47.5t31.5 -74t-1 -96.5l-48 -274h-46zM260 -32h45l-123 -249h-31z" />
    <glyph glyph-name="Ncaron" unicode="&#x147;" 
d="M188 713h58l334 -631l111 631h48l-125 -713h-50l-340 641l-113 -641h-48zM502 795h-49l-120 192h42l108 -160q41 38 84.5 81.5t81.5 78.5h42z" />
    <glyph glyph-name="ncaron" unicode="&#x148;" horiz-adv-x="612" 
d="M552 274q7 42 1 76.5t-24.5 58.5t-48.5 37.5t-69 13.5q-29 0 -60.5 -4.5t-62.5 -12.5t-59 -19t-50 -24l-70 -400h-47l71 406q28 23 62 42t71.5 32.5t76 21t76.5 7.5q50 0 87.5 -17t61 -47.5t31.5 -74t-1 -96.5l-48 -274h-46zM429 567h-49l-120 192h42l109 -160
q41 38 84.5 81.5t80.5 78.5h42z" />
    <glyph glyph-name="Eng" unicode="&#x14a;" 
d="M188 713h58l334 -631l111 631h48l-125 -713q-10 -57 -35 -101t-61.5 -74.5t-84 -46.5t-103.5 -16q-25 0 -50.5 3t-48 8.5t-40 12t-27.5 14.5l13 37q17 -16 58.5 -26.5t90.5 -10.5q47 0 87 14t71 40.5t52 63.5t29 82l-341 641l-113 -641h-48z" />
    <glyph glyph-name="eng" unicode="&#x14b;" horiz-adv-x="612" 
d="M364 -162q23 -4 44.5 1t39 21.5t31 45t20.5 70.5l53 298q7 42 1 76.5t-24.5 58.5t-48.5 37.5t-69 13.5q-29 0 -60.5 -4.5t-62.5 -12.5t-59 -19t-50 -24l-70 -400h-47l71 406q28 23 62 42t71.5 32.5t76 21t76.5 7.5q50 0 87.5 -17t61 -47.5t31.5 -74t-1 -96.5l-51 -290
q-19 -105 -67 -147.5t-118 -34.5z" />
    <glyph glyph-name="Omacron" unicode="&#x14c;" horiz-adv-x="768" 
d="M513 734q76 0 130.5 -30t86.5 -81.5t41.5 -120t-4.5 -146.5q-14 -77 -47.5 -145.5t-83.5 -119.5t-115 -81t-141 -30t-130.5 30t-86.5 81t-42 119.5t4 145.5q14 78 47.5 146.5t84 120t115.5 81.5t141 30zM386 17q60 0 114.5 25t98 70t74.5 107t44 137t4.5 137.5
t-36.5 107.5t-73.5 70t-105.5 25t-114.5 -25t-98 -70t-75 -107.5t-44.5 -137.5t-4 -137t37 -107t73.5 -70t105.5 -25zM347 843l6 35h369l-6 -35h-369z" />
    <glyph glyph-name="omacron" unicode="&#x14d;" horiz-adv-x="642" 
d="M104 243q10 58 38.5 106.5t69 84t91 55.5t106.5 20q57 0 101 -20t72.5 -55.5t39 -84t0.5 -106.5q-10 -57 -38 -105.5t-68.5 -83.5t-91.5 -54.5t-108 -19.5q-56 0 -100 19.5t-72 54.5t-39 83.5t-1 105.5zM151 243q-8 -47 0.5 -86.5t31.5 -68t58.5 -44.5t82.5 -16t89.5 16
t75.5 44.5t56 68t31 86.5q9 48 0.5 88t-32 68.5t-60 44.5t-83.5 16t-88.5 -16t-74.5 -44.5t-55.5 -68.5t-31.5 -88zM244 615l6 35h369l-6 -35h-369z" />
    <glyph glyph-name="Ohungarumlaut" unicode="&#x150;" horiz-adv-x="768" 
d="M513 734q76 0 130.5 -30t86.5 -81.5t41.5 -120t-4.5 -146.5q-14 -77 -47.5 -145.5t-83.5 -119.5t-115 -81t-141 -30t-130.5 30t-86.5 81t-42 119.5t4 145.5q14 78 47.5 146.5t84 120t115.5 81.5t141 30zM386 17q60 0 114.5 25t98 70t74.5 107t44 137t4.5 137.5
t-36.5 107.5t-73.5 70t-105.5 25t-114.5 -25t-98 -70t-75 -107.5t-44.5 -137.5t-4 -137t37 -107t73.5 -70t105.5 -25zM633 1038l-271 -207l-14 22l260 220zM888 1038l-271 -207l-13 22l259 220z" />
    <glyph glyph-name="ohungarumlaut" unicode="&#x151;" horiz-adv-x="642" 
d="M104 243q10 58 38.5 106.5t69 84t91 55.5t106.5 20q57 0 101 -20t72.5 -55.5t39 -84t0.5 -106.5q-10 -57 -38 -105.5t-68.5 -83.5t-91.5 -54.5t-108 -19.5q-56 0 -100 19.5t-72 54.5t-39 83.5t-1 105.5zM151 243q-8 -47 0.5 -86.5t31.5 -68t58.5 -44.5t82.5 -16t89.5 16
t75.5 44.5t56 68t31 86.5q9 48 0.5 88t-32 68.5t-60 44.5t-83.5 16t-88.5 -16t-74.5 -44.5t-55.5 -68.5t-31.5 -88zM513 810l-270 -207l-14 22l259 220zM768 810l-270 -207l-13 22l258 220z" />
    <glyph glyph-name="OE" unicode="&#x152;" horiz-adv-x="1206" 
d="M1156 0h-497l26 150q-53 -77 -130.5 -123.5t-174.5 -46.5q-76 0 -130.5 30t-86.5 81t-42 119.5t4 145.5q14 78 47.5 146.5t84 120t115.5 81.5t141 30q97 0 158 -47t87 -125l26 151h487l-6 -38h-438l-50 -281h388l-7 -38h-388l-56 -318h448zM386 17q60 0 114.5 25t98 70
t74.5 107t44 137t4.5 137.5t-36.5 107.5t-73.5 70t-105.5 25t-114.5 -25t-98 -70t-75 -107.5t-44.5 -137.5t-4 -137t37 -107t73.5 -70t105.5 -25z" />
    <glyph glyph-name="oe" unicode="&#x153;" horiz-adv-x="1120" 
d="M619 190q1 -38 16.5 -68t42.5 -51t63 -32t78 -11q57 0 121.5 20.5t133.5 68.5l-8 -46q-56 -44 -120.5 -67.5t-140.5 -23.5q-86 0 -145.5 40.5t-78.5 112.5q-42 -70 -111.5 -111.5t-153.5 -41.5q-56 0 -100 19.5t-72 54.5t-39 83.5t-1 105.5q10 58 38.5 106.5t69 84
t91 55.5t106.5 20q84 0 139 -42t72 -112q44 71 117 112.5t161 41.5q59 0 103 -15.5t71.5 -43.5t38.5 -66.5t3 -83.5zM151 243q-8 -47 0.5 -86.5t31.5 -68t58.5 -44.5t82.5 -16t89.5 16t75.5 44.5t56 68t31 86.5q9 48 0.5 88t-32 68.5t-60 44.5t-83.5 16t-88.5 -16
t-74.5 -44.5t-55.5 -68.5t-31.5 -88zM896 460q-50 0 -97 -16t-84.5 -46t-62.5 -72.5t-31 -94.5l445 97q3 27 -5 51t-29 42t-54.5 28.5t-81.5 10.5z" />
    <glyph glyph-name="Racute" unicode="&#x154;" horiz-adv-x="655" 
d="M468 713q123 0 172.5 -54t33.5 -144q-7 -41 -26 -76.5t-49.5 -62t-73 -43.5t-96.5 -21l153 -312h-54l-146 312h-215l-55 -312h-49l125 713h280zM231 675l-58 -324h226q51 0 90.5 12t67.5 34t45 51.5t23 64.5q6 34 0 64t-26 51.5t-55 34t-87 12.5h-226zM627 990l-270 -207
l-15 22l260 220z" />
    <glyph glyph-name="racute" unicode="&#x155;" horiz-adv-x="320" 
d="M380 460q-54 0 -104.5 -17t-96.5 -43l-70 -400h-47l71 406q56 46 121 74.5t134 28.5zM454 762l-271 -207l-14 22l260 220z" />
    <glyph glyph-name="uni0156" unicode="&#x156;" horiz-adv-x="655" 
d="M468 713q123 0 172.5 -54t33.5 -144q-7 -41 -26 -76.5t-49.5 -62t-73 -43.5t-96.5 -21l153 -312h-54l-146 312h-215l-55 -312h-49l125 713h280zM231 675l-58 -324h226q51 0 90.5 12t67.5 34t45 51.5t23 64.5q6 34 0 64t-26 51.5t-55 34t-87 12.5h-226zM324 -32h45
l-123 -249h-31z" />
    <glyph glyph-name="uni0157" unicode="&#x157;" horiz-adv-x="320" 
d="M380 460q-54 0 -104.5 -17t-96.5 -43l-70 -400h-47l71 406q56 46 121 74.5t134 28.5zM90 -32h45l-123 -249h-30z" />
    <glyph glyph-name="Rcaron" unicode="&#x158;" horiz-adv-x="655" 
d="M468 713q123 0 172.5 -54t33.5 -144q-7 -41 -26 -76.5t-49.5 -62t-73 -43.5t-96.5 -21l153 -312h-54l-146 312h-215l-55 -312h-49l125 713h280zM231 675l-58 -324h226q51 0 90.5 12t67.5 34t45 51.5t23 64.5q6 34 0 64t-26 51.5t-55 34t-87 12.5h-226zM491 795h-49
l-120 192h42l108 -160q41 38 84.5 81.5t81.5 78.5h42z" />
    <glyph glyph-name="rcaron" unicode="&#x159;" horiz-adv-x="320" 
d="M380 460q-54 0 -104.5 -17t-96.5 -43l-70 -400h-47l71 406q56 46 121 74.5t134 28.5zM284 567h-49l-120 192h42l109 -160q41 38 84.5 81.5t80.5 78.5h42z" />
    <glyph glyph-name="Sacute" unicode="&#x15a;" horiz-adv-x="648" 
d="M237 542q-7 -37 8 -62t43 -42.5t65.5 -30l76.5 -25.5t76 -28t64.5 -37t40.5 -54.5t5 -78.5q-7 -39 -30.5 -75.5t-61.5 -65t-90 -46t-115 -17.5q-66 0 -111 17t-72 44t-37.5 59.5t-6.5 62.5h46q0 -32 13.5 -58.5t37.5 -46t58.5 -30.5t77.5 -11q52 0 95 15.5t74 39.5
t49.5 53.5t23.5 58.5q7 40 -7.5 67t-42 46t-64.5 33t-76.5 26.5t-76.5 27t-64.5 35.5t-41.5 50t-6 72q7 38 29.5 73t58 61.5t82.5 42.5t104 16q54 0 93 -13t63.5 -34.5t35 -51t9.5 -62.5h-45q-4 54 -43.5 88.5t-119.5 34.5q-44 0 -81.5 -13t-66 -34.5t-47 -49t-23.5 -57.5z
M623 990l-270 -207l-15 22l260 220z" />
    <glyph glyph-name="sacute" unicode="&#x15b;" horiz-adv-x="622" 
d="M538 138q6 33 -9.5 52.5t-44 31t-67 17t-78.5 10.5t-78.5 11t-67 18.5t-43 34.5t-8.5 57q6 34 28 60.5t56 43.5t76 26t89 9q42 0 79 -6t66 -15t50 -20t32 -20l-7 -44q-21 9 -44 19t-50.5 18.5t-60.5 13.5t-73 5t-74.5 -6.5t-60 -18t-41.5 -26.5t-19 -33q-5 -27 11 -42.5
t45.5 -24t68 -12t79 -8.5t78.5 -13t66 -24t42 -43.5t6 -70.5q-6 -36 -29.5 -65t-59.5 -50t-82 -32t-97 -11q-70 0 -135 21.5t-107 67.5l9 52q60 -52 119 -72.5t122 -20.5q40 0 77 8t66 22.5t47.5 34.5t23.5 45zM571 762l-271 -207l-14 22l260 220z" />
    <glyph glyph-name="Scircumflex" unicode="&#x15c;" horiz-adv-x="648" 
d="M237 542q-7 -37 8 -62t43 -42.5t65.5 -30l76.5 -25.5t76 -28t64.5 -37t40.5 -54.5t5 -78.5q-7 -39 -30.5 -75.5t-61.5 -65t-90 -46t-115 -17.5q-66 0 -111 17t-72 44t-37.5 59.5t-6.5 62.5h46q0 -32 13.5 -58.5t37.5 -46t58.5 -30.5t77.5 -11q52 0 95 15.5t74 39.5
t49.5 53.5t23.5 58.5q7 40 -7.5 67t-42 46t-64.5 33t-76.5 26.5t-76.5 27t-64.5 35.5t-41.5 50t-6 72q7 38 29.5 73t58 61.5t82.5 42.5t104 16q54 0 93 -13t63.5 -34.5t35 -51t9.5 -62.5h-45q-4 54 -43.5 88.5t-119.5 34.5q-44 0 -81.5 -13t-66 -34.5t-47 -49t-23.5 -57.5z
M482 969h48l121 -192h-42l-109 160q-40 -38 -84 -81t-81 -79h-41z" />
    <glyph glyph-name="scircumflex" unicode="&#x15d;" horiz-adv-x="622" 
d="M538 138q6 33 -9.5 52.5t-44 31t-67 17t-78.5 10.5t-78.5 11t-67 18.5t-43 34.5t-8.5 57q6 34 28 60.5t56 43.5t76 26t89 9q42 0 79 -6t66 -15t50 -20t32 -20l-7 -44q-21 9 -44 19t-50.5 18.5t-60.5 13.5t-73 5t-74.5 -6.5t-60 -18t-41.5 -26.5t-19 -33q-5 -27 11 -42.5
t45.5 -24t68 -12t79 -8.5t78.5 -13t66 -24t42 -43.5t6 -70.5q-6 -36 -29.5 -65t-59.5 -50t-82 -32t-97 -11q-70 0 -135 21.5t-107 67.5l9 52q60 -52 119 -72.5t122 -20.5q40 0 77 8t66 22.5t47.5 34.5t23.5 45zM426 784h48l120 -192h-42l-109 160q-40 -38 -84 -81t-81 -79
h-41z" />
    <glyph glyph-name="Scedilla" unicode="&#x15e;" horiz-adv-x="648" 
d="M237 542q-7 -37 8 -62t43 -42.5t65.5 -30l76.5 -25.5t76 -28t64.5 -37t40.5 -54.5t5 -78.5q-7 -39 -30.5 -75.5t-61.5 -65t-90 -46t-115 -17.5h-8l-35 -70q43 4 75 -2t52.5 -20.5t29 -35t4.5 -44.5q-4 -22 -17.5 -41.5t-34 -35.5t-47 -26t-56.5 -12q-63 -3 -138 25l6 26
q22 -6 37.5 -9.5t29 -5.5t27.5 -3t34 -1q30 0 54.5 12t40.5 29.5t22.5 38.5t0.5 38.5t-25 29.5t-53 12h-20t-18 -0.5t-19 -1.5t-23 -3l5 27l39 75q-55 5 -93 23.5t-61 44t-31.5 55.5t-4.5 58h46q0 -32 13.5 -58.5t37.5 -46t58.5 -30.5t77.5 -11q52 0 95 15.5t74 39.5
t49.5 53.5t23.5 58.5q7 40 -7.5 67t-42 46t-64.5 33t-76.5 26.5t-76.5 27t-64.5 35.5t-41.5 50t-6 72q7 38 29.5 73t58 61.5t82.5 42.5t104 16q54 0 93 -13t63.5 -34.5t35 -51t9.5 -62.5h-45q-4 54 -43.5 88.5t-119.5 34.5q-44 0 -81.5 -13t-66 -34.5t-47 -49t-23.5 -57.5z
" />
    <glyph glyph-name="scedilla" unicode="&#x15f;" horiz-adv-x="622" 
d="M538 138q6 33 -9.5 52.5t-44 31t-67 17t-78.5 10.5t-78.5 11t-67 18.5t-43 34.5t-8.5 57q6 34 28 60.5t56 43.5t76 26t89 9q42 0 79 -6t66 -15t50 -20t32 -20l-7 -44q-21 9 -44 19t-50.5 18.5t-60.5 13.5t-73 5t-74.5 -6.5t-60 -18t-41.5 -26.5t-19 -33q-5 -27 11 -42.5
t45.5 -24t68 -12t79 -8.5t78.5 -13t66 -24t42 -43.5t6 -70.5q-6 -36 -29.5 -65t-59.5 -49.5t-81.5 -32t-96.5 -11.5l-31 -62q43 4 75 -2t52.5 -20.5t29 -35t4.5 -44.5q-8 -44 -50.5 -77t-103.5 -38q-62 -3 -139 25l7 26q21 -6 36.5 -9.5t29 -5.5t27.5 -3t34 -1q30 0 54.5 12
t41 29.5t22.5 38.5t0.5 38.5t-24.5 29.5t-53 12h-20t-18 -0.5t-19 -1.5t-23 -3l5 27l34 66q-63 4 -120 25t-94 63l9 52q60 -52 119 -72.5t122 -20.5q40 0 77 8t66 22.5t47.5 34.5t23.5 45z" />
    <glyph glyph-name="Scaron" unicode="&#x160;" horiz-adv-x="648" 
d="M237 542q-7 -37 8 -62t43 -42.5t65.5 -30l76.5 -25.5t76 -28t64.5 -37t40.5 -54.5t5 -78.5q-7 -39 -30.5 -75.5t-61.5 -65t-90 -46t-115 -17.5q-66 0 -111 17t-72 44t-37.5 59.5t-6.5 62.5h46q0 -32 13.5 -58.5t37.5 -46t58.5 -30.5t77.5 -11q52 0 95 15.5t74 39.5
t49.5 53.5t23.5 58.5q7 40 -7.5 67t-42 46t-64.5 33t-76.5 26.5t-76.5 27t-64.5 35.5t-41.5 50t-6 72q7 38 29.5 73t58 61.5t82.5 42.5t104 16q54 0 93 -13t63.5 -34.5t35 -51t9.5 -62.5h-45q-4 54 -43.5 88.5t-119.5 34.5q-44 0 -81.5 -13t-66 -34.5t-47 -49t-23.5 -57.5z
M497 795h-49l-120 192h42l108 -160q41 38 84.5 81.5t81.5 78.5h42z" />
    <glyph glyph-name="scaron" unicode="&#x161;" horiz-adv-x="622" 
d="M538 138q6 33 -9.5 52.5t-44 31t-67 17t-78.5 10.5t-78.5 11t-67 18.5t-43 34.5t-8.5 57q6 34 28 60.5t56 43.5t76 26t89 9q42 0 79 -6t66 -15t50 -20t32 -20l-7 -44q-21 9 -44 19t-50.5 18.5t-60.5 13.5t-73 5t-74.5 -6.5t-60 -18t-41.5 -26.5t-19 -33q-5 -27 11 -42.5
t45.5 -24t68 -12t79 -8.5t78.5 -13t66 -24t42 -43.5t6 -70.5q-6 -36 -29.5 -65t-59.5 -50t-82 -32t-97 -11q-70 0 -135 21.5t-107 67.5l9 52q60 -52 119 -72.5t122 -20.5q40 0 77 8t66 22.5t47.5 34.5t23.5 45zM434 567h-49l-120 192h42l109 -160q41 38 84.5 81.5t80.5 78.5
h42z" />
    <glyph glyph-name="uni0162" unicode="&#x162;" horiz-adv-x="702" 
d="M758 675h-263l-119 -675h-50l119 675h-263l6 38h576zM324 -32h45l-123 -249h-31z" />
    <glyph glyph-name="uni0163" unicode="&#x163;" horiz-adv-x="395" 
d="M148 488h72l30 173h47l-30 -173h142l-7 -38h-142l-49 -277q-10 -54 0 -85t40 -45q34 -13 87 -5l-6 -38q-23 -5 -44 -4.5t-42 3.5q-24 5 -42.5 17t-30 32t-15 48t3.5 66l51 288h-72zM208 -32h45l-123 -249h-31z" />
    <glyph glyph-name="Tcaron" unicode="&#x164;" horiz-adv-x="702" 
d="M758 675h-263l-119 -675h-50l119 675h-263l6 38h576zM514 795h-49l-120 192h42l108 -160q41 38 84.5 81.5t81.5 78.5h42z" />
    <glyph glyph-name="tcaron" unicode="&#x165;" horiz-adv-x="659" 
d="M148 488h72l30 173h47l-30 -173h142l-7 -38h-142l-49 -277q-10 -54 0 -85t40 -45q34 -13 87 -5l-6 -38q-23 -5 -44 -4.5t-42 3.5q-24 5 -42.5 17t-30 32t-15 48t3.5 66l51 288h-72zM663 696h47l-138 -298h-36z" />
    <glyph glyph-name="Tbar" unicode="&#x166;" horiz-adv-x="702" 
d="M441 372l-65 -372h-50l65 372h-160l6 35h160l48 268h-263l6 38h576l-6 -38h-263l-48 -268h159l-6 -35h-159z" />
    <glyph glyph-name="tbar" unicode="&#x167;" horiz-adv-x="395" 
d="M280 567l-13 -79h142l-7 -38h-142l-49 -277q-10 -54 0 -85t40 -45q34 -13 87 -5l-6 -38q-23 -5 -44 -4.5t-42 3.5q-24 5 -42.5 17t-30 32t-15 48t3.5 66l51 288h-72l7 38h72l13 79h-96l7 35h96l10 59h47l-10 -59h152l-7 -35h-152z" />
    <glyph glyph-name="Utilde" unicode="&#x168;" 
d="M661 258q-24 -136 -109.5 -207t-215.5 -71q-131 0 -191.5 70.5t-36.5 207.5l80 455h49l-80 -455q-20 -116 28 -178.5t157 -62.5q106 0 176.5 61.5t91.5 179.5l80 455h51zM690 968q2 -16 2.5 -28.5t-3.5 -35.5q-9 -46 -38.5 -74.5t-67.5 -28.5q-36 0 -57.5 20.5t-39 45.5
t-36.5 45.5t-50 20.5q-32 0 -51.5 -19.5t-23.5 -54.5q-2 -16 -1.5 -30t2.5 -28h-27q-3 19 -2.5 35.5t4.5 33.5q10 46 38.5 72t66.5 26q24 0 41 -10t31 -24.5t25.5 -31.5t24 -31.5t27.5 -24.5t35 -10q25 0 42.5 17t25.5 45q5 17 6 35t-2 35h28z" />
    <glyph glyph-name="utilde" unicode="&#x169;" horiz-adv-x="622" 
d="M146 215q-16 -92 26.5 -139.5t133.5 -47.5q59 0 114.5 10.5t104.5 28.5l75 421h46l-76 -427q-21 -17 -51.5 -32t-66 -26t-75 -17t-79.5 -6q-54 0 -95.5 15.5t-68 45.5t-36 74t0.5 100l49 273h47zM622 740q2 -16 2.5 -28.5t-3.5 -35.5q-9 -46 -38.5 -74.5t-67.5 -28.5
q-36 0 -57.5 20.5t-39 45.5t-36.5 45.5t-50 20.5q-32 0 -51.5 -19.5t-23.5 -54.5q-2 -16 -1.5 -30t2.5 -28h-27q-3 19 -2.5 35.5t4.5 33.5q9 46 38 72t67 26q24 0 41 -10t31 -24.5t25.5 -31.5t24 -31.5t27.5 -24.5t35 -10q25 0 42.5 17t25.5 45q5 17 6 35t-2 35h28z" />
    <glyph glyph-name="Umacron" unicode="&#x16a;" 
d="M661 258q-24 -136 -109.5 -207t-215.5 -71q-131 0 -191.5 70.5t-36.5 207.5l80 455h49l-80 -455q-20 -116 28 -178.5t157 -62.5q106 0 176.5 61.5t91.5 179.5l80 455h51zM302 843l6 35h369l-6 -35h-369z" />
    <glyph glyph-name="umacron" unicode="&#x16b;" horiz-adv-x="622" 
d="M146 215q-16 -92 26.5 -139.5t133.5 -47.5q59 0 114.5 10.5t104.5 28.5l75 421h46l-76 -427q-21 -17 -51.5 -32t-66 -26t-75 -17t-79.5 -6q-54 0 -95.5 15.5t-68 45.5t-36 74t0.5 100l49 273h47zM234 615l6 35h369l-6 -35h-369z" />
    <glyph glyph-name="Ubreve" unicode="&#x16c;" 
d="M661 258q-24 -136 -109.5 -207t-215.5 -71q-131 0 -191.5 70.5t-36.5 207.5l80 455h49l-80 -455q-20 -116 28 -178.5t157 -62.5q106 0 176.5 61.5t91.5 179.5l80 455h51zM713 991q0 -17 -2 -35.5t-8 -38.5q-19 -54 -74.5 -83.5t-151.5 -29.5q-91 0 -136 30.5t-43 84.5
q1 17 5 35t13 37h41q-16 -31 -14 -69q7 -80 141 -80q71 0 113 19.5t61 58.5q7 18 10.5 36.5t2.5 34.5h42z" />
    <glyph glyph-name="ubreve" unicode="&#x16d;" horiz-adv-x="622" 
d="M146 215q-16 -92 26.5 -139.5t133.5 -47.5q59 0 114.5 10.5t104.5 28.5l75 421h46l-76 -427q-21 -17 -51.5 -32t-66 -26t-75 -17t-79.5 -6q-54 0 -95.5 15.5t-68 45.5t-36 74t0.5 100l49 273h47zM645 763q0 -17 -2 -35.5t-8 -38.5q-20 -54 -75 -83.5t-151 -29.5
q-91 0 -136.5 30.5t-43.5 84.5q2 36 19 72h41q-16 -31 -14 -69q6 -80 141 -80q71 0 112.5 19.5t61.5 58.5q7 18 10 36.5t3 34.5h42z" />
    <glyph glyph-name="Uring" unicode="&#x16e;" 
d="M661 258q-24 -136 -109.5 -207t-215.5 -71q-131 0 -191.5 70.5t-36.5 207.5l80 455h49l-80 -455q-20 -116 28 -178.5t157 -62.5q106 0 176.5 61.5t91.5 179.5l80 455h51zM515 1007q28 0 51 -11t38.5 -30t22 -45t1.5 -55t-20.5 -54.5t-37.5 -44.5t-49 -30t-55 -11t-51 11
t-38.5 30t-22 44.5t-1.5 54.5t20.5 55t37.5 45t49 30t55 11zM471 759q22 0 43 8.5t38 23.5t29 34.5t16 40.5q4 22 -1 42t-17 35t-30 23.5t-40 8.5q-21 0 -42 -8.5t-38 -23.5t-29 -35t-16 -42q-4 -21 1 -40.5t17 -34.5t30 -23.5t39 -8.5z" />
    <glyph glyph-name="uring" unicode="&#x16f;" horiz-adv-x="622" 
d="M146 215q-16 -92 26.5 -139.5t133.5 -47.5q59 0 114.5 10.5t104.5 28.5l75 421h46l-76 -427q-21 -17 -51.5 -32t-66 -26t-75 -17t-79.5 -6q-54 0 -95.5 15.5t-68 45.5t-36 74t0.5 100l49 273h47zM459 846q28 0 51 -11t38.5 -30t22 -45t1.5 -55t-20.5 -54.5t-38 -44.5
t-49.5 -30t-55 -11t-51 11t-38.5 30t-21.5 44.5t-1 54.5t20.5 55t37.5 45t49 30t55 11zM415 598q22 0 43 8.5t38 23.5t29 34.5t16 40.5q4 22 -1.5 42t-17.5 35t-29.5 23.5t-39.5 8.5q-21 0 -42 -8.5t-38 -23.5t-29 -35t-16 -42q-4 -21 1 -40.5t17 -34.5t30 -23.5t39 -8.5z
" />
    <glyph glyph-name="Uhungarumlaut" unicode="&#x170;" 
d="M661 258q-24 -136 -109.5 -207t-215.5 -71q-131 0 -191.5 70.5t-36.5 207.5l80 455h49l-80 -455q-20 -116 28 -178.5t157 -62.5q106 0 176.5 61.5t91.5 179.5l80 455h51zM609 1038l-271 -207l-14 22l260 220zM864 1038l-271 -207l-13 22l259 220z" />
    <glyph glyph-name="uhungarumlaut" unicode="&#x171;" horiz-adv-x="622" 
d="M146 215q-16 -92 26.5 -139.5t133.5 -47.5q59 0 114.5 10.5t104.5 28.5l75 421h46l-76 -427q-21 -17 -51.5 -32t-66 -26t-75 -17t-79.5 -6q-54 0 -95.5 15.5t-68 45.5t-36 74t0.5 100l49 273h47zM487 810l-270 -207l-14 22l259 220zM742 810l-270 -207l-13 22l258 220z
" />
    <glyph glyph-name="Uogonek" unicode="&#x172;" 
d="M237 -163q-4 -22 3 -40t23 -31q32 -17 84 -16.5t115 21.5l-5 -29q-42 -14 -81 -19t-73 -3q-60 5 -90.5 33.5t-21.5 76.5q6 30 25 51.5t46.5 39t60 32t65.5 30.5q-26 -3 -52 -3q-131 0 -191.5 70.5t-36.5 207.5l80 455h49l-80 -455q-20 -116 28 -178.5t157 -62.5
q106 0 176.5 61.5t91.5 179.5l80 455h51l-80 -455q-17 -95 -63.5 -157.5t-118.5 -93.5q-30 -24 -70 -42t-76.5 -37t-63.5 -40t-32 -51z" />
    <glyph glyph-name="uogonek" unicode="&#x173;" horiz-adv-x="622" 
d="M309 -126q-4 -22 3.5 -40t23.5 -31q32 -17 84 -16.5t115 21.5l-5 -29q-43 -14 -82 -19t-72 -3q-60 5 -90.5 33.5t-22.5 76.5q4 22 16.5 40t30 32.5t39.5 26.5t46 24q-23 -5 -47.5 -7.5t-49.5 -2.5q-54 0 -95.5 15.5t-68 45.5t-36 74t0.5 100l49 273h47l-49 -273
q-16 -92 26.5 -139.5t133.5 -47.5q59 0 114.5 10.5t104.5 28.5l75 421h46l-76 -427q-28 -29 -70.5 -49.5t-83 -40.5t-71 -42.5t-36.5 -54.5z" />
    <glyph glyph-name="Wcircumflex" unicode="&#x174;" horiz-adv-x="1021" 
d="M192 713h54l46 -657l325 657h47l91 -654l271 654h54l-305 -713h-58l-85 643l-319 -643h-56zM665 1012h48l120 -192h-42l-109 160q-40 -38 -83.5 -81t-81.5 -79h-41z" />
    <glyph glyph-name="wcircumflex" unicode="&#x175;" horiz-adv-x="793" 
d="M135 153q-11 -62 13 -93.5t88 -31.5q19 0 40.5 4t41.5 11t38 16.5t31 20.5l72 408h47l-72 -408q8 -12 22.5 -21.5t32 -16t37.5 -10.5t39 -4q64 0 99 31.5t46 93.5l60 335h47l-60 -335q-14 -81 -66.5 -127t-133.5 -46q-38 0 -80 18.5t-72 47.5q-42 -29 -90.5 -47.5
t-86.5 -18.5q-81 0 -117.5 46t-22.5 127l60 335h47zM511 784h48l120 -192h-42l-109 160q-40 -38 -84 -81t-81 -79h-41z" />
    <glyph glyph-name="Ycircumflex" unicode="&#x176;" horiz-adv-x="733" 
d="M341 0l50 284l-193 429h61l165 -385l300 385h61l-346 -430l-49 -283h-49zM521 1012h48l120 -192h-42l-109 160q-40 -38 -83.5 -81t-81.5 -79h-41z" />
    <glyph glyph-name="ycircumflex" unicode="&#x177;" horiz-adv-x="609" 
d="M509 55q-45 -23 -100 -39t-117 -16q-111 0 -160 61t-29 174l45 253h47l-45 -253q-17 -92 21 -139t129 -47q65 0 115.5 11.5t101.5 37.5l69 390h46l-86 -488q-9 -53 -35 -93t-63.5 -67t-83.5 -41t-95 -14q-76 0 -134 25t-90 61l7 40q85 -77 225 -77q39 0 75.5 10.5
t67 31.5t52 53.5t29.5 76.5zM419 784h48l120 -192h-42l-109 160q-40 -38 -84 -81t-81 -79h-41z" />
    <glyph glyph-name="Ydieresis" unicode="&#x178;" horiz-adv-x="733" 
d="M341 0l50 284l-193 429h61l165 -385l300 385h61l-346 -430l-49 -283h-49zM434 884q-3 -17 -18 -31.5t-35 -14.5q-18 0 -28 14.5t-7 31.5t18 31t33 14q20 0 30 -14t7 -31zM695 884q-3 -17 -18 -31.5t-35 -14.5q-18 0 -28 14.5t-7 31.5t18 31t33 14q20 0 30 -14t7 -31z" />
    <glyph glyph-name="Zacute" unicode="&#x179;" 
d="M614 0h-551l5 31l599 644h-455l6 38h511l-5 -30l-596 -645h492zM638 990l-270 -207l-15 22l260 220z" />
    <glyph glyph-name="zacute" unicode="&#x17a;" horiz-adv-x="610" 
d="M164 488h457l-8 -41q-8 -47 -28.5 -79t-52 -55t-74 -41t-95.5 -38q-58 -21 -101.5 -40.5t-74.5 -41t-49 -46.5t-25 -57h443l-8 -49h-486l7 41q8 48 29 81t55.5 59t83.5 47t113 45q46 17 83.5 33t65.5 34.5t45.5 42.5t25.5 57h-415zM565 762l-271 -207l-14 22l260 220z
" />
    <glyph glyph-name="Zdotaccent" unicode="&#x17b;" 
d="M614 0h-551l5 31l599 644h-455l6 38h511l-5 -30l-596 -645h492zM538 884q-3 -17 -18 -31.5t-35 -14.5q-18 0 -28 14.5t-7 31.5t18 31t33 14q20 0 30 -14t7 -31z" />
    <glyph glyph-name="zdotaccent" unicode="&#x17c;" horiz-adv-x="610" 
d="M164 488h457l-8 -41q-8 -47 -28.5 -79t-52 -55t-74 -41t-95.5 -38q-58 -21 -101.5 -40.5t-74.5 -41t-49 -46.5t-25 -57h443l-8 -49h-486l7 41q8 48 29 81t55.5 59t83.5 47t113 45q46 17 83.5 33t65.5 34.5t45.5 42.5t25.5 57h-415zM473 711q-3 -17 -18 -31.5t-35 -14.5
q-18 0 -28 14.5t-7 31.5t18 31t33 14q20 0 30 -14t7 -31z" />
    <glyph glyph-name="Zcaron" unicode="&#x17d;" 
d="M614 0h-551l5 31l599 644h-455l6 38h511l-5 -30l-596 -645h492zM494 753h-49l-120 192h42l109 -160q41 38 84.5 81.5t80.5 78.5h42z" />
    <glyph glyph-name="zcaron" unicode="&#x17e;" horiz-adv-x="610" 
d="M164 488h457l-8 -41q-8 -47 -28.5 -79t-52 -55t-74 -41t-95.5 -38q-58 -21 -101.5 -40.5t-74.5 -41t-49 -46.5t-25 -57h443l-8 -49h-486l7 41q8 48 29 81t55.5 59t83.5 47t113 45q46 17 83.5 33t65.5 34.5t45.5 42.5t25.5 57h-415zM428 567h-49l-120 192h42l109 -160
q41 38 84.5 81.5t80.5 78.5h42z" />
    <glyph glyph-name="florin" unicode="&#x192;" horiz-adv-x="445" 
d="M86 -190q53 0 83.5 36t47.5 97q14 51 21 113.5t10 131.5l9 157h-130l7 36h127q1 15 2 29t3 28q8 66 23 124t42 101.5t68.5 68.5t102.5 25l-7 -39q-38 0 -65.5 -15t-48 -41.5t-33.5 -63t-22 -80.5q-7 -32 -10.5 -66.5t-6.5 -70.5h136l-7 -36h-133q-6 -77 -10 -158
t-15 -153q-9 -55 -23 -103t-37.5 -83.5t-58 -56t-82.5 -20.5z" />
    <glyph glyph-name="circumflex" unicode="&#x2c6;" horiz-adv-x="518" 
d="M374 784h48l120 -192h-42l-109 160q-40 -38 -84 -81t-81 -79h-41z" />
    <glyph glyph-name="caron" unicode="&#x2c7;" horiz-adv-x="518" 
d="M382 567h-49l-120 192h42l109 -160q41 38 84.5 81.5t80.5 78.5h42z" />
    <glyph glyph-name="breve" unicode="&#x2d8;" horiz-adv-x="544" 
d="M606 763q0 -17 -2 -35.5t-8 -38.5q-20 -54 -75 -83.5t-151 -29.5q-91 0 -136.5 30.5t-43.5 84.5q2 36 19 72h41q-16 -31 -14 -69q6 -80 141 -80q71 0 112.5 19.5t61.5 58.5q7 18 10 36.5t3 34.5h42v0z" />
    <glyph glyph-name="dotaccent" unicode="&#x2d9;" horiz-adv-x="222" 
d="M280 711q-3 -17 -18 -31.5t-35 -14.5q-18 0 -28 14.5t-7 31.5t18 31t33 14q20 0 30 -14t7 -31z" />
    <glyph glyph-name="ring" unicode="&#x2da;" horiz-adv-x="409" 
d="M353 846q28 0 51 -11t38.5 -30t22 -45t1.5 -55t-20.5 -54.5t-38 -44.5t-49.5 -30t-55 -11t-51 11t-38.5 30t-21.5 44.5t-1 54.5t20.5 55t37.5 45t49 30t55 11zM309 598q22 0 43 8.5t38 23.5t29 34.5t16 40.5q4 22 -1.5 42t-17.5 35t-29.5 23.5t-39.5 8.5q-21 0 -42 -8.5
t-38 -23.5t-29 -35t-16 -42q-4 -21 1 -40.5t17 -34.5t30 -23.5t39 -8.5z" />
    <glyph glyph-name="ogonek" unicode="&#x2db;" horiz-adv-x="420" 
d="M83 -162q-4 -22 3 -40t23 -31q33 -17 84.5 -16.5t114.5 21.5l-5 -29q-42 -14 -81 -19t-73 -3q-60 5 -90 33.5t-22 76.5q8 40 39.5 66t73 47t87 41.5t83.5 49.5l24 -10q-28 -29 -70.5 -49.5t-83 -40.5t-71 -42.5t-36.5 -54.5z" />
    <glyph glyph-name="tilde" unicode="&#x2dc;" horiz-adv-x="519" 
d="M571 740q2 -16 2.5 -28.5t-3.5 -35.5q-9 -46 -38.5 -74.5t-67.5 -28.5q-36 0 -57.5 20.5t-39 45.5t-36.5 45.5t-50 20.5q-32 0 -51.5 -19.5t-23.5 -54.5q-2 -16 -1.5 -30t2.5 -28h-27q-3 19 -2.5 35.5t4.5 33.5q9 46 38 72t67 26q24 0 41 -10t31 -24.5t25.5 -31.5
t24 -31.5t27.5 -24.5t35 -10q25 0 42.5 17t25.5 45q5 17 6 35t-2 35h28v0z" />
    <glyph glyph-name="hungarumlaut" unicode="&#x2dd;" horiz-adv-x="653" 
d="M491 810l-270 -207l-14 22l259 220zM746 810l-270 -207l-13 22l258 220z" />
    <glyph glyph-name="uni1E02" unicode="&#x1e02;" horiz-adv-x="652" 
d="M651 531q-5 -30 -19.5 -57.5t-37 -49.5t-52 -36.5t-63.5 -17.5q80 -6 118.5 -52.5t24.5 -127.5q-7 -41 -27.5 -75.5t-51.5 -60t-72 -40t-90 -14.5h-318l125 713h277q58 0 97 -13.5t61 -37.5t28.5 -57.5t-0.5 -73.5zM371 38q42 0 76.5 12t60 32.5t42 49t22.5 61.5
q12 70 -25 113t-124 43h-250l-55 -311h253zM179 385h242q32 0 62 9t54 26.5t41 43.5t23 60q27 151 -151 151h-219zM500 877q-3 -17 -18 -31.5t-35 -14.5q-18 0 -28 14.5t-7 31.5t18 31t33 14q20 0 30 -14t7 -31z" />
    <glyph glyph-name="uni1E03" unicode="&#x1e03;" horiz-adv-x="642" 
d="M624 253q-10 -56 -39 -105.5t-73.5 -86.5t-101.5 -59t-123 -22q-84 0 -135 21.5t-80 59.5l121 683h47l-53 -297q49 29 101.5 45.5t110.5 16.5q56 0 101.5 -19t76.5 -53.5t44 -81.5t3 -102zM578 253q8 44 -3.5 82t-37.5 65.5t-63.5 43.5t-82.5 16q-60 0 -113 -17t-99 -43
l-58 -328q39 -20 79.5 -32t94.5 -12q58 0 106.5 18.5t85 50t60 72t31.5 84.5zM489 711q-3 -17 -18 -31.5t-35 -14.5q-18 0 -28 14.5t-7 31.5t18 31t33 14q20 0 30 -14t7 -31z" />
    <glyph glyph-name="uni1E0A" unicode="&#x1e0a;" horiz-adv-x="690" 
d="M439 713q74 0 127.5 -24.5t86 -70.5t42 -112.5t-5.5 -149.5t-48.5 -149t-82 -112t-109.5 -70.5t-130 -24.5h-256l125 713h251zM325 38q58 0 109 21t92.5 61.5t70.5 99.5t43 136q15 82 7 142t-35.5 99.5t-73 58.5t-105.5 19h-202l-113 -637h207zM533 875q-3 -17 -18 -31.5
t-35 -14.5q-18 0 -28 14.5t-7 31.5t18 31t33 14q20 0 30 -14t7 -31z" />
    <glyph glyph-name="uni1E0B" unicode="&#x1e0b;" horiz-adv-x="653" 
d="M600 61q-42 -38 -105 -59.5t-147 -21.5q-59 0 -108.5 20.5t-82.5 56.5t-47.5 86t-3.5 110q10 55 41 102t75.5 81.5t98.5 53.5t110 19q57 0 105 -16.5t86 -45.5l53 297h46zM153 253q-9 -48 2.5 -89.5t38.5 -71.5t68.5 -47t93.5 -17q53 0 102.5 12t97.5 32l58 328
q-37 26 -84 43t-107 17q-44 0 -89 -16t-82.5 -43.5t-64 -65.5t-34.5 -82zM495 711q-3 -17 -18 -31.5t-35 -14.5q-18 0 -28 14.5t-7 31.5t18 31t33 14q20 0 30 -14t7 -31z" />
    <glyph glyph-name="uni1E1E" unicode="&#x1e1e;" horiz-adv-x="592" 
d="M543 307h-377l-54 -307h-49l125 713h466l-6 -38h-417l-59 -331h377zM488 869q-3 -17 -18 -31.5t-35 -14.5q-18 0 -28 14.5t-7 31.5t18 31t33 14q20 0 30 -14t7 -31z" />
    <glyph glyph-name="uni1E1F" unicode="&#x1e1f;" horiz-adv-x="280" 
d="M98 488h72l9 51q9 53 26.5 89.5t42 58.5t54.5 30.5t63 5.5l-4 -37q-22 4 -43 -1.5t-39 -22.5t-31.5 -45.5t-20.5 -68.5l-10 -60h142l-7 -38h-142l-79 -450h-47l79 450h-72zM346 825q-3 -17 -18 -31.5t-35 -14.5q-18 0 -28 14.5t-7 31.5t18 31t33 14q20 0 30 -14t7 -31z
" />
    <glyph glyph-name="uni1E40" unicode="&#x1e40;" horiz-adv-x="825" 
d="M445 148l379 565h64l-125 -713h-45l117 667l-380 -576h-44l-186 574l-117 -665h-45l125 713h66zM602 833q-3 -17 -18 -31.5t-35 -14.5q-18 0 -28 14.5t-7 31.5t18 31t33 14q20 0 30 -14t7 -31z" />
    <glyph glyph-name="uni1E41" unicode="&#x1e41;" horiz-adv-x="793" 
d="M743 335q11 62 -15.5 93.5t-85.5 31.5q-19 0 -40 -4t-41.5 -10.5t-38.5 -16t-30 -20.5l-72 -409h-47l60 345q11 63 -16 89t-86 26q-19 0 -40.5 -4t-42 -11t-38.5 -16.5t-29 -19.5l-72 -409h-47l73 418q20 21 45.5 37.5t53.5 28.5t55 18.5t50 6.5q50 0 84 -17t50 -50
q20 15 43 27.5t46.5 21t46 13.5t41.5 5q78 0 116 -46.5t24 -127.5l-59 -335h-47zM559 675q-4 -17 -19 -31.5t-35 -14.5q-18 0 -28 14.5t-6 31.5q3 17 17.5 31t32.5 14q20 0 30.5 -14t7.5 -31z" />
    <glyph glyph-name="uni1E56" unicode="&#x1e56;" horiz-adv-x="646" 
d="M474 713q57 0 97.5 -17t65.5 -46t33 -67.5t1 -82.5q-8 -44 -29 -83t-55 -68t-81 -45.5t-107 -16.5h-237l-50 -287h-49l125 713h286zM231 675l-62 -351h230q46 0 84 12.5t66.5 36t47 56t25.5 71.5q6 38 -1.5 70t-28 55.5t-53.5 36.5t-78 13h-230zM519 869
q-3 -17 -18 -31.5t-35 -14.5q-18 0 -28 14.5t-7 31.5t18 31t33 14q20 0 30 -14t7 -31z" />
    <glyph glyph-name="uni1E57" unicode="&#x1e57;" horiz-adv-x="642" 
d="M133 406q56 46 123.5 74.5t142.5 28.5q65 0 112 -21t74.5 -57t37 -84.5t-0.5 -103.5q-10 -56 -36 -104t-66.5 -83t-94.5 -55.5t-119 -20.5q-57 0 -105 16t-85 44l-53 -296h-47zM576 243q8 44 1 83.5t-30 69t-62 47t-94 17.5q-60 0 -113 -17t-99 -43l-55 -312
q37 -26 83.5 -43t106.5 -17q55 0 100.5 17t78.5 46.5t54 68.5t29 83zM485 687q-3 -17 -18 -31.5t-35 -14.5q-18 0 -28 14.5t-7 31.5t18 31t33 14q20 0 30 -14t7 -31z" />
    <glyph glyph-name="uni1E60" unicode="&#x1e60;" horiz-adv-x="648" 
d="M237 542q-7 -37 8 -62t43 -42.5t65.5 -30l76.5 -25.5t76 -28t64.5 -37t40.5 -54.5t5 -78.5q-7 -39 -30.5 -75.5t-61.5 -65t-90 -46t-115 -17.5q-66 0 -111 17t-72 44t-37.5 59.5t-6.5 62.5h46q0 -32 13.5 -58.5t37.5 -46t58.5 -30.5t77.5 -11q52 0 95 15.5t74 39.5
t49.5 53.5t23.5 58.5q7 40 -7.5 67t-42 46t-64.5 33t-76.5 26.5t-76.5 27t-64.5 35.5t-41.5 50t-6 72q7 38 29.5 73t58 61.5t82.5 42.5t104 16q54 0 93 -13t63.5 -34.5t35 -51t9.5 -62.5h-45q-4 54 -43.5 88.5t-119.5 34.5q-44 0 -81.5 -13t-66 -34.5t-47 -49t-23.5 -57.5z
M524 889q-3 -17 -18 -31.5t-35 -14.5q-18 0 -28 14.5t-7 31.5t18 31t33 14q20 0 30 -14t7 -31z" />
    <glyph glyph-name="uni1E61" unicode="&#x1e61;" horiz-adv-x="622" 
d="M538 138q6 33 -9.5 52.5t-44 31t-67 17t-78.5 10.5t-78.5 11t-67 18.5t-43 34.5t-8.5 57q6 34 28 60.5t56 43.5t76 26t89 9q42 0 79 -6t66 -15t50 -20t32 -20l-7 -44q-21 9 -44 19t-50.5 18.5t-60.5 13.5t-73 5t-74.5 -6.5t-60 -18t-41.5 -26.5t-19 -33q-5 -27 11 -42.5
t45.5 -24t68 -12t79 -8.5t78.5 -13t66 -24t42 -43.5t6 -70.5q-6 -36 -29.5 -65t-59.5 -50t-82 -32t-97 -11q-70 0 -135 21.5t-107 67.5l9 52q60 -52 119 -72.5t122 -20.5q40 0 77 8t66 22.5t47.5 34.5t23.5 45zM472 665q-3 -17 -18 -31.5t-35 -14.5q-18 0 -28 14.5t-7 31.5
t18 31t33 14q20 0 30 -14t7 -31z" />
    <glyph glyph-name="uni1E6A" unicode="&#x1e6a;" horiz-adv-x="702" 
d="M758 675h-263l-119 -675h-50l119 675h-263l6 38h576zM550 883q-3 -17 -18 -31.5t-35 -14.5q-18 0 -28 14.5t-7 31.5t18 31t33 14q20 0 30 -14t7 -31z" />
    <glyph glyph-name="uni1E6B" unicode="&#x1e6b;" horiz-adv-x="395" 
d="M148 488h72l30 173h47l-30 -173h142l-7 -38h-142l-49 -277q-10 -54 0 -85t40 -45q34 -13 87 -5l-6 -38q-23 -5 -44 -4.5t-42 3.5q-24 5 -42.5 17t-30 32t-15 48t3.5 66l51 288h-72zM330 759q-3 -17 -18 -31.5t-35 -14.5q-18 0 -28 14.5t-7 31.5t18 31t33 14q20 0 30 -14
t7 -31z" />
    <glyph glyph-name="Wgrave" unicode="&#x1e80;" horiz-adv-x="1021" 
d="M192 713h54l46 -657l325 657h47l91 -654l271 654h54l-305 -713h-58l-85 643l-319 -643h-56zM606 995l158 -200l-24 -24l-173 189z" />
    <glyph glyph-name="wgrave" unicode="&#x1e81;" horiz-adv-x="793" 
d="M135 153q-11 -62 13 -93.5t88 -31.5q19 0 40.5 4t41.5 11t38 16.5t31 20.5l72 408h47l-72 -408q8 -12 22.5 -21.5t32 -16t37.5 -10.5t39 -4q64 0 99 31.5t46 93.5l60 335h47l-60 -335q-14 -81 -66.5 -127t-133.5 -46q-38 0 -80 18.5t-72 47.5q-42 -29 -90.5 -47.5
t-86.5 -18.5q-81 0 -117.5 46t-22.5 127l60 335h47zM451 767l157 -200l-23 -24l-173 189z" />
    <glyph glyph-name="Wacute" unicode="&#x1e82;" horiz-adv-x="1021" 
d="M192 713h54l46 -657l325 657h47l91 -654l271 654h54l-305 -713h-58l-85 643l-319 -643h-56zM810 990l-270 -207l-15 22l260 220z" />
    <glyph glyph-name="wacute" unicode="&#x1e83;" horiz-adv-x="793" 
d="M135 153q-11 -62 13 -93.5t88 -31.5q19 0 40.5 4t41.5 11t38 16.5t31 20.5l72 408h47l-72 -408q8 -12 22.5 -21.5t32 -16t37.5 -10.5t39 -4q64 0 99 31.5t46 93.5l60 335h47l-60 -335q-14 -81 -66.5 -127t-133.5 -46q-38 0 -80 18.5t-72 47.5q-42 -29 -90.5 -47.5
t-86.5 -18.5q-81 0 -117.5 46t-22.5 127l60 335h47zM657 762l-271 -207l-14 22l260 220z" />
    <glyph glyph-name="Wdieresis" unicode="&#x1e84;" horiz-adv-x="1021" 
d="M192 713h54l46 -657l325 657h47l91 -654l271 654h54l-305 -713h-58l-85 643l-319 -643h-56zM840 884q-3 -17 -18 -31.5t-35 -14.5q-18 0 -28 14.5t-7 31.5t18 31t33 14q20 0 30 -14t7 -31zM579 884q-3 -17 -18 -31.5t-35 -14.5q-18 0 -28 14.5t-7 31.5t18 31t33 14
q20 0 30 -14t7 -31z" />
    <glyph glyph-name="wdieresis" unicode="&#x1e85;" horiz-adv-x="793" 
d="M135 153q-11 -62 13 -93.5t88 -31.5q19 0 40.5 4t41.5 11t38 16.5t31 20.5l72 408h47l-72 -408q8 -12 22.5 -21.5t32 -16t37.5 -10.5t39 -4q64 0 99 31.5t46 93.5l60 335h47l-60 -335q-14 -81 -66.5 -127t-133.5 -46q-38 0 -80 18.5t-72 47.5q-42 -29 -90.5 -47.5
t-86.5 -18.5q-81 0 -117.5 46t-22.5 127l60 335h47zM424 656q-3 -17 -18 -31.5t-35 -14.5q-18 0 -28 14.5t-7 31.5t18 31t33 14q20 0 30 -14t7 -31zM685 656q-3 -17 -18 -31.5t-35 -14.5q-18 0 -28 14.5t-7 31.5t18 31t33 14q20 0 30 -14t7 -31z" />
    <glyph glyph-name="Ygrave" unicode="&#x1ef2;" horiz-adv-x="733" 
d="M341 0l50 284l-193 429h61l165 -385l300 385h61l-346 -430l-49 -283h-49zM461 995l158 -200l-24 -24l-173 189z" />
    <glyph glyph-name="ygrave" unicode="&#x1ef3;" horiz-adv-x="609" 
d="M509 55q-45 -23 -100 -39t-117 -16q-111 0 -160 61t-29 174l45 253h47l-45 -253q-17 -92 21 -139t129 -47q65 0 115.5 11.5t101.5 37.5l69 390h46l-86 -488q-9 -53 -35 -93t-63.5 -67t-83.5 -41t-95 -14q-76 0 -134 25t-90 61l7 40q85 -77 225 -77q39 0 75.5 10.5
t67 31.5t52 53.5t29.5 76.5zM359 767l157 -200l-23 -24l-173 189z" />
    <glyph glyph-name="endash" unicode="&#x2013;" horiz-adv-x="784" 
d="M108 263l8 45h660l-8 -45h-660z" />
    <glyph glyph-name="emdash" unicode="&#x2014;" horiz-adv-x="1013" 
d="M108 263l8 45h888l-8 -45h-888z" />
    <glyph glyph-name="quoteleft" unicode="&#x2018;" horiz-adv-x="265" 
d="M179 398h-48l140 298h36z" />
    <glyph glyph-name="quoteright" unicode="&#x2019;" horiz-adv-x="265" 
d="M268 696h47l-138 -298h-36z" />
    <glyph glyph-name="quotesinglbase" unicode="&#x201a;" horiz-adv-x="265" 
d="M178 185h47l-138 -298h-36z" />
    <glyph glyph-name="quotedblleft" unicode="&#x201c;" horiz-adv-x="463" 
d="M189 398h-48l140 298h36zM387 398h-48l139 298h36z" />
    <glyph glyph-name="quotedblright" unicode="&#x201d;" horiz-adv-x="463" 
d="M268 696h47l-138 -298h-36zM464 696h49l-140 -298h-36z" />
    <glyph glyph-name="quotedblbase" unicode="&#x201e;" horiz-adv-x="470" 
d="M173 185h48l-140 -298h-35zM387 185h49l-140 -298h-35z" />
    <glyph glyph-name="dagger" unicode="&#x2020;" horiz-adv-x="573" 
d="M390 510l-124 -703h-36l124 703h-198l7 39h198l35 194h36l-35 -194h205l-7 -39h-205z" />
    <glyph glyph-name="daggerdbl" unicode="&#x2021;" horiz-adv-x="573" 
d="M303 15l-37 -208h-36l37 208h-198l7 39h198l80 456h-198l7 39h198l35 194h36l-35 -194h205l-7 -39h-205l-80 -456h205l-7 -39h-205z" />
    <glyph glyph-name="bullet" unicode="&#x2022;" horiz-adv-x="337" 
d="M332 360q-8 -48 -42 -76.5t-78 -28.5q-40 0 -65 28.5t-17 76.5q4 25 16 44t28 32t35.5 19.5t39.5 6.5q45 0 68.5 -26t14.5 -76z" />
    <glyph glyph-name="ellipsis" unicode="&#x2026;" horiz-adv-x="684" 
d="M635 46q-3 -17 -18.5 -31.5t-34.5 -14.5q-18 0 -28 14.5t-7 31.5t18 31t33 14q19 0 29.5 -14t7.5 -31zM160 46q-3 -17 -18 -31.5t-35 -14.5q-18 0 -28 14.5t-7 31.5t18 31t33 14q20 0 30 -14t7 -31zM396 46q-3 -17 -18 -31.5t-34 -14.5t-29 14.5t-7 31.5t18 31t34 14
t29 -14t7 -31z" />
    <glyph glyph-name="perthousand" unicode="&#x2030;" horiz-adv-x="1151" 
d="M1140 193q-8 -44 -26.5 -80t-45.5 -61t-60 -38.5t-70 -13.5q-56 0 -88 26.5t-43 65.5q-30 -44 -72.5 -68t-92.5 -24q-41 0 -68.5 15.5t-42 42t-18 61t3.5 73.5q6 36 21.5 70.5t39.5 61t57 43t74 16.5q50 0 84.5 -24t48.5 -68q26 41 66.5 67.5t96.5 26.5q37 0 65.5 -13.5
t46.5 -38.5t24 -60.5t-1 -79.5zM481 501q-8 -44 -26.5 -79t-45 -60.5t-59.5 -39t-69 -13.5q-41 0 -68 15.5t-42 42t-18.5 61.5t3.5 73q6 36 22 70.5t40 61.5t57 43.5t74 16.5q36 0 64 -13.5t45.5 -38.5t23.5 -60.5t-1 -79.5zM450 501q5 30 3.5 59t-13.5 52t-35.5 37.5
t-60.5 14.5q-35 0 -62 -14.5t-46.5 -37.5t-32 -52t-17.5 -59q-5 -29 -3 -58.5t13 -52.5t33 -37.5t57 -14.5q37 0 65.5 14.5t48.5 37.5t32.5 52.5t17.5 58.5zM809 193q1 7 2 13t3 14q2 26 -2 50.5t-17 43t-35 30t-56 11.5q-35 0 -62 -14.5t-46.5 -38t-32 -52.5t-17.5 -58
q-5 -30 -3 -59t13.5 -52.5t33 -38t56.5 -14.5q34 0 60 11.5t45.5 30t32.5 43t20 51.5q1 8 2 14.5t3 14.5zM1103 193q5 28 3 56.5t-13.5 51t-34.5 36.5t-59 14q-34 0 -60 -14t-45 -36.5t-30.5 -51t-16.5 -56.5q-5 -29 -3.5 -57t13 -50.5t32.5 -36.5t55 -14q36 0 63.5 14
t47 36.5t31.5 50.5t17 57zM827 693h44l-705 -693h-44z" />
    <glyph glyph-name="guilsinglleft" unicode="&#x2039;" horiz-adv-x="468" 
d="M491 550l-300 -210l227 -205l-25 -27l-259 231l340 231z" />
    <glyph glyph-name="guilsinglright" unicode="&#x203a;" horiz-adv-x="468" 
d="M97 129l300 210l-227 204l27 27l257 -230l-339 -232z" />
    <glyph glyph-name="fraction" unicode="&#x2044;" horiz-adv-x="664" 
d="M657 693h54l-608 -836h-54z" />
    <glyph glyph-name="Euro" unicode="&#x20ac;" horiz-adv-x="650" 
d="M588 61q-32 -28 -75.5 -44.5t-99.5 -16.5q-57 0 -101 21t-74 59t-44 90.5t-11 114.5h-66l3 20h52l16 42l-3 34h-51l3 21h66q19 62 52 115.5t76 92.5t95 61t109 22q56 0 93.5 -16.5t60.5 -44.5l-25 -25q-20 23 -52 35t-79 12q-49 0 -93.5 -18.5t-81 -51.5t-65 -79.5
t-45.5 -102.5h244l-3 -21h-234l-18 -37q1 -11 2 -20.5t3 -18.5h233l-3 -20h-243q-2 -54 10 -99.5t37 -78t62.5 -50.5t85.5 -18t84.5 13t62.5 34zM238 352l-1 2q0 -2 1 -2z" />
    <glyph glyph-name="trademark" unicode="&#x2122;" horiz-adv-x="1293" 
d="M1228 222l84 477l-304 -370h-22l-169 368l-83 -475h-37l92 521h51l170 -363l297 363h50l-92 -521h-37zM443 703l-84 -481h-43l84 481h-210l8 40h470l-8 -40h-217z" />
    <glyph glyph-name="minus" unicode="&#x2212;" horiz-adv-x="641" 
d="M123 323l8 40h506l-8 -40h-506z" />
    </font>
</defs>
</svg>
