<?xml version="1.0" standalone="no"?>
<!DOCTYPE svg PUBLIC "-//W3C//DTD SVG 1.1//EN" "http://www.w3.org/Graphics/SVG/1.1/DTD/svg11.dtd" >
<svg xmlns="http://www.w3.org/2000/svg" xmlns:xlink="http://www.w3.org/1999/xlink" version="1.1">
<metadata>
Created by FontForge 20170731 at Sun May 27 00:17:34 2018
 By Aleksey,,,
Copyright (c) 2018 by Mans Greback. All rights reserved.
</metadata>
<defs>
<font id="Sonika-RegularItalic" horiz-adv-x="671" >
  <font-face 
    font-family="Sonika"
    font-weight="400"
    font-style="italic"
    font-stretch="normal"
    units-per-em="1000"
    panose-1="0 0 0 0 0 0 0 0 0 0"
    ascent="750"
    descent="-250"
    x-height="514"
    cap-height="728"
    bbox="-242.923 -339 1375 1075"
    underline-thickness="50"
    underline-position="-150"
    unicode-range="U+000D-FB02"
  />
<missing-glyph horiz-adv-x="330" 
 />
    <glyph glyph-name="fi" unicode="fi" horiz-adv-x="484" 
d="M408 428h-177l-75 -428h-99l75 428h-72l15 86h72l4 24q10 57 31 96t51 61.5t68 30.5t83 3l-9 -87q-45 8 -78.5 -13t-44.5 -83l-6 -32h276l-90 -514h-99zM422 629q5 28 28 47t52 19t45.5 -19t11.5 -47q-5 -29 -28 -48t-52 -19t-45.5 19t-11.5 48z" />
    <glyph glyph-name="fl" unicode="fl" horiz-adv-x="478" 
d="M75 514h72l4 24q10 57 32 97t53 63.5t70 32t84 3.5l-9 -87q-45 8 -81.5 -15.5t-47.5 -85.5l-6 -32h141l-15 -86h-141l-75 -428h-99l75 428h-72zM470 757h99l-133 -757h-99z" />
    <glyph glyph-name=".notdef" horiz-adv-x="330" 
 />
    <glyph glyph-name=".null" horiz-adv-x="0" 
 />
    <glyph glyph-name="nonmarkingreturn" unicode="&#xd;" horiz-adv-x="330" 
 />
    <glyph glyph-name="NULL" horiz-adv-x="0" 
 />
    <glyph glyph-name="NULL" horiz-adv-x="0" 
 />
    <glyph glyph-name="space" unicode=" " horiz-adv-x="330" 
 />
    <glyph glyph-name="exclam" unicode="!" horiz-adv-x="227" 
d="M191 218h-86l77 491h106zM195 68q-2 -13 -9.5 -25t-18.5 -21.5t-25 -15.5t-29 -6q-29 0 -46 21t-12 47q3 13 10 25.5t18 22t24.5 15t28.5 5.5q30 0 47 -21t12 -47z" />
    <glyph glyph-name="quotedbl" unicode="&#x22;" horiz-adv-x="387" 
d="M164 709h99l-66 -334h-86zM373 709h99l-66 -334h-86z" />
    <glyph glyph-name="numbersign" unicode="#" horiz-adv-x="687" 
d="M417 151h-161q-11 -28 -22.5 -57t-20.5 -55h-88l42 112h-104l29 86h107q18 49 34 90.5t35 92.5h-110l30 86h112l47 126h88l-47 -126h162l47 126h87l-47 -126h102l-28 -86h-105l-69 -183h107l-30 -86h-109q-10 -28 -21.5 -57t-20.5 -55h-88zM287 237h162q18 49 33.5 90.5
t35.5 92.5h-162z" />
    <glyph glyph-name="dollar" unicode="$" horiz-adv-x="642" 
d="M259 3q-87 11 -134.5 53.5t-63.5 98.5l92 28q11 -37 44 -61.5t86 -32.5q19 65 37.5 126t38.5 127q-36 10 -69.5 22.5t-59 32t-39 48.5t-9.5 72l-1 -1q3 39 25 73.5t58.5 60.5t87.5 41.5t113 16.5l26 83h78l-26 -90q42 -8 76 -29t53 -53l-73 -53q-31 38 -82 49l-60 -203
q39 -10 76 -23.5t63.5 -36t39.5 -57t4 -85.5q-7 -39 -29.5 -76t-60.5 -66t-91.5 -47.5t-121.5 -20.5l-24 -82h-79zM549 210q4 25 -4 43.5t-24.5 31.5t-39.5 22t-49 17l-70 -238q80 5 129 40.5t58 83.5zM276 516q-1 -19 7 -32.5t22.5 -23t34.5 -17t44 -14.5q14 50 27.5 95.5
t28.5 97.5q-73 -2 -116.5 -31.5t-47.5 -74.5z" />
    <glyph glyph-name="percent" unicode="%" horiz-adv-x="872" 
d="M510 500q-8 -43 -25.5 -77.5t-43.5 -60.5l365 347h124l-744 -709h-125l367 350q-31 -28 -69.5 -42.5t-80.5 -14.5q-49 0 -81.5 16.5t-50.5 45t-22.5 66t3.5 79.5q7 39 24.5 76.5t46 67t67 47.5t87.5 18q42 0 75 -15t54 -42t29 -65.5t0 -86.5zM869 208q-8 -48 -29.5 -86.5
t-52.5 -65.5t-69 -41.5t-80 -14.5q-49 0 -81.5 17t-50.5 45.5t-22.5 66t2.5 79.5q7 39 25 76.5t46 66.5t66.5 47t87.5 18q42 0 75 -14.5t54.5 -41.5t29.5 -65.5t-1 -86.5zM419 500q4 22 2 44.5t-11 40.5t-27 29.5t-46 11.5q-26 0 -46.5 -11.5t-35.5 -29.5t-24 -40.5
t-13 -44.5q-4 -23 -2.5 -45.5t10 -40t25 -28.5t42.5 -11q28 0 50 11t37.5 28.5t25 40t13.5 45.5zM777 208q4 22 2.5 44.5t-10.5 40.5t-27 29t-46 11q-26 0 -46.5 -11t-35 -29t-24 -40.5t-13.5 -44.5q-4 -23 -2.5 -45.5t10 -40.5t25 -29t42.5 -11q28 0 50 11t37.5 29
t24.5 40.5t13 45.5z" />
    <glyph glyph-name="ampersand" unicode="&#x26;" horiz-adv-x="763" 
d="M736 400q-12 -75 -40 -138t-67 -111q28 -22 55.5 -42.5t55.5 -39.5l-55 -75q-33 23 -64.5 45.5t-58.5 46.5q-104 -86 -247 -86q-68 0 -117.5 20.5t-79 54t-38.5 75.5t3 86q16 56 66 104.5t137 76.5q-13 32 -18 63t0 60q5 37 22 68t44 53.5t62 35t75 12.5q43 0 73 -13.5
t48 -36.5t23 -52.5t-3 -61.5q-14 -52 -62 -101t-133 -74q29 -42 68 -83.5t84 -82.5q32 38 56 87t37 109h74zM332 85q45 1 87 15.5t81 41.5q-54 51 -99 104t-77 102q-67 -19 -101 -50.5t-45 -66.5q-8 -27 -1.5 -53.5t26.5 -47t52.5 -33t76.5 -12.5zM358 555
q-7 -23 -3.5 -55.5t20.5 -61.5q38 8 66 22.5t47 31.5t28.5 35t10.5 33q2 26 -15.5 44t-55.5 18t-63 -18t-35 -49z" />
    <glyph glyph-name="quotesingle" unicode="'" horiz-adv-x="178" 
d="M164 709h99l-66 -334h-86z" />
    <glyph glyph-name="parenleft" unicode="(" horiz-adv-x="322" 
d="M204 354q-11 -59 -10 -116t12.5 -106.5t32 -89.5t49.5 -64l-78 -47q-33 27 -59 70.5t-41 99t-18 120t9 133.5t38 133.5t61 120t76 99t84 71.5l60 -46q-38 -27 -72.5 -67.5t-63 -89.5t-49.5 -105t-31 -116z" />
    <glyph glyph-name="parenright" unicode=")" horiz-adv-x="322" 
d="M242 354q10 59 9 116.5t-12 107t-32 89t-50 63.5l79 48q33 -27 58.5 -71t40.5 -99t18 -120t-9 -134t-38 -133.5t-61 -119.5t-76 -98.5t-83 -71.5l-60 46q38 27 72.5 67t63 89t49 105.5t31.5 115.5z" />
    <glyph glyph-name="asterisk" unicode="*" horiz-adv-x="608" 
d="M196 686l166 -116l31 200h90l-38 -197l199 113l38 -70l-216 -113l177 -111l-63 -70l-160 112l-31 -197h-90l39 198l-206 -114l-29 71l212 111q-20 13 -43 28t-46 29.5t-44.5 28.5t-39.5 26z" />
    <glyph glyph-name="plus" unicode="+" horiz-adv-x="634" 
d="M435 395h229l-15 -88h-229l-41 -229h-90l41 229h-237l15 88h237l39 222h90z" />
    <glyph glyph-name="comma" unicode="," horiz-adv-x="250" 
d="M149 200h101l-146 -287h-85z" />
    <glyph glyph-name="hyphen" unicode="-" horiz-adv-x="561" 
d="M83 250l16 93h482l-16 -93h-482z" />
    <glyph glyph-name="period" unicode="." horiz-adv-x="220" 
d="M191 68q-2 -13 -9.5 -25t-18.5 -21.5t-25 -15.5t-29 -6q-29 0 -46.5 21t-12.5 47q3 13 10.5 25.5t18.5 22t24.5 15t28.5 5.5q30 0 47 -21t12 -47z" />
    <glyph glyph-name="slash" unicode="/" horiz-adv-x="659" 
d="M639 709h115l-634 -845h-115z" />
    <glyph glyph-name="zero" unicode="0" horiz-adv-x="696" 
d="M613 354q9 53 3.5 101.5t-26 85t-54.5 58.5t-82 22q-45 0 -86 -21t-73.5 -57t-55.5 -84.5t-33 -104.5t-4 -104.5t26 -84.5t53.5 -57t78.5 -21q47 0 89 21.5t75.5 58.5t56.5 85.5t32 101.5zM715 354q-15 -83 -51 -148.5t-86 -111t-110.5 -70t-123.5 -24.5q-68 0 -119 27.5
t-82.5 75t-42 112t2.5 139.5t46.5 139.5t81.5 112.5t109 75.5t129 27.5q63 0 114.5 -25.5t85.5 -72t47 -112t-1 -145.5z" />
    <glyph glyph-name="one" unicode="1" horiz-adv-x="311" 
d="M169 0l86 490h-130l14 82q38 0 63.5 3.5t43 12t27.5 23t18 37.5l17 61h88l-125 -709h-102z" />
    <glyph glyph-name="two" unicode="2" horiz-adv-x="634" 
d="M126 428q-2 10 -1.5 27t5.5 37q11 45 38.5 85t67.5 69t90.5 46t107.5 17q67 0 114.5 -18.5t75.5 -49.5t38 -70.5t3 -82.5q-9 -56 -52.5 -112.5t-104.5 -109.5t-131.5 -99.5t-134.5 -80.5h368l-15 -86h-556l14 84q70 30 141 69t134 80.5t111.5 81t73.5 69.5t37.5 60.5
t13.5 58.5q4 50 -31.5 83.5t-112.5 33.5q-35 0 -65.5 -9.5t-55 -26.5t-41.5 -40t-24 -49q-6 -19 -8 -34.5t-2 -32.5h-98z" />
    <glyph glyph-name="three" unicode="3" horiz-adv-x="646" 
d="M172 504q1 43 22 80.5t57.5 65t86.5 43.5t109 16q61 0 104 -13.5t68 -37t33.5 -55t2.5 -67.5q-8 -42 -38 -80.5t-89 -64.5q69 -19 98.5 -61.5t18.5 -104.5q-7 -41 -31 -81t-66 -72t-102 -52t-138 -20q-65 0 -111.5 18t-75 47.5t-39.5 67.5t-5 78q5 25 16 56h99
q-8 -19 -11 -33.5t-5 -25.5q-4 -54 34.5 -88t113.5 -34q50 0 89 11.5t67 31t45 45.5t22 55q3 20 -4 40t-29 36t-60.5 26t-97.5 10h-81l15 85h68q42 0 74 8t54.5 20.5t36.5 28t20 29.5q13 25 10.5 46t-17.5 36t-42 23.5t-61 8.5q-40 0 -70.5 -10t-51.5 -27t-32 -39t-11 -46
h-96v0z" />
    <glyph glyph-name="four" unicode="4" horiz-adv-x="639" 
d="M636 709l-84 -471h87l-14 -84h-87l-27 -154h-97l27 154h-377l11 65l471 490h90zM456 238q17 86 33.5 168t34.5 175l-312 -343h244z" />
    <glyph glyph-name="five" unicode="5" horiz-adv-x="645" 
d="M552 260q6 34 1 61t-19 46t-35.5 29.5t-48.5 13.5q-51 5 -108.5 -13t-117.5 -62h-91l116 374h425l-15 -85h-342l-56 -184q47 24 92.5 35.5t87.5 13.5q53 3 96.5 -11t72 -43t40.5 -72t2 -98q-11 -59 -40.5 -108t-73.5 -84t-99.5 -54t-116.5 -19q-57 0 -106 15t-82.5 44
t-49 71.5t-5.5 96.5h100q-6 -32 5.5 -58t34 -44t53.5 -28t66 -10q39 0 74.5 13t64.5 36t49 54.5t26 69.5z" />
    <glyph glyph-name="six" unicode="6" horiz-adv-x="635" 
d="M538 258q11 60 -18.5 96.5t-91.5 38.5q-44 2 -102.5 -15t-127.5 -56q-11 -65 -3.5 -110t27 -73t49.5 -41t66 -13q35 0 68.5 14t61 37.5t46.5 55t25 66.5zM325 0q-59 0 -107.5 20.5t-80 62.5t-43 106t3.5 151q14 80 50 147.5t87.5 117t115.5 77t134 27.5q60 0 103 -16
t76 -41l-46 -79q-28 25 -64 39.5t-77 13.5q-44 -1 -84 -16.5t-73 -44t-59 -67.5t-42 -87q74 38 137.5 53.5t114.5 10.5q46 -3 81.5 -19.5t58 -44.5t30.5 -66.5t0 -86.5q-9 -52 -38.5 -99t-72 -82t-95.5 -56t-110 -21z" />
    <glyph glyph-name="seven" unicode="7" horiz-adv-x="609" 
d="M679 626q-67 -47 -124 -103.5t-103 -131t-80.5 -170.5t-56.5 -221h-102q21 117 54 212t76.5 170.5t95.5 133.5t111 102h-403l17 91h530z" />
    <glyph glyph-name="eight" unicode="8" horiz-adv-x="650" 
d="M76 213q11 60 53 108.5t115 74.5q-44 23 -61 58t-11 73q6 36 27.5 69t56.5 58t84 40t110 15t104 -15t69 -40t35 -58t3 -69q-7 -42 -35.5 -76t-79.5 -55q60 -27 86.5 -76t15.5 -107q-7 -41 -34 -79.5t-69 -68t-98 -47.5t-122 -18q-69 0 -119 18t-81.5 47.5t-43.5 68
t-5 79.5zM340 86q45 0 81 12t63 31t43 42t20 46q5 29 -4.5 54t-30.5 43.5t-53 29t-72 10.5q-41 0 -77 -10.5t-64 -29t-45.5 -43.5t-22.5 -54q-4 -23 3 -46t26.5 -42t52 -31t80.5 -12zM435 624q-40 0 -70 -8.5t-50 -22t-31.5 -32t-14.5 -37.5q-7 -40 28 -65t104 -25t112.5 25
t50.5 65q3 19 -2.5 37.5t-21 32t-41.5 22t-64 8.5z" />
    <glyph glyph-name="nine" unicode="9" horiz-adv-x="635" 
d="M221 451q-11 -61 19 -97.5t91 -38.5q44 -2 102.5 15t127.5 56q10 64 3 109.5t-27 73.5t-50 41t-66 13q-35 0 -68.5 -14t-60.5 -37.5t-46 -54.5t-25 -66zM435 709q59 0 107.5 -20.5t79.5 -63t42 -106.5t-4 -151q-14 -80 -49.5 -147.5t-86.5 -116.5t-115 -76.5t-134 -27.5
q-60 0 -103.5 16t-77.5 40l47 80q27 -26 64 -40.5t77 -13.5q44 1 84 17t73 44t59 67t42 87q-73 -38 -136.5 -53t-115.5 -10q-46 3 -81.5 19.5t-58 44.5t-30.5 66.5t0 86.5q9 52 38.5 98.5t72.5 82t96 56.5t110 21z" />
    <glyph glyph-name="colon" unicode=":" horiz-adv-x="220" 
d="M191 68q-2 -13 -9.5 -25t-18.5 -21.5t-25 -15.5t-29 -6q-29 0 -46.5 21t-12.5 47q3 13 10.5 25.5t18.5 22t24.5 15t28.5 5.5q30 0 47 -21t12 -47zM260 455q-5 -26 -29 -47.5t-54 -21.5q-15 0 -26.5 6t-19.5 15.5t-11 22t-1 25.5t9.5 25t19 21.5t25 15t28.5 5.5
q30 0 47 -20.5t12 -46.5z" />
    <glyph glyph-name="semicolon" unicode=";" horiz-adv-x="252" 
d="M149 200h101l-146 -287h-85zM290 455q-5 -26 -28.5 -47.5t-53.5 -21.5q-15 0 -26.5 6t-19.5 15.5t-11 22t-1 25.5t9.5 25t19 21.5t25 15t28.5 5.5q30 0 46.5 -20.5t11.5 -46.5z" />
    <glyph glyph-name="less" unicode="&#x3c;" horiz-adv-x="463" 
d="M527 545l-292 -196l222 -192l-67 -63l-300 254l388 253z" />
    <glyph glyph-name="equal" unicode="=" horiz-adv-x="634" 
d="M119 399l14 83h536l-14 -83h-536zM85 207l15 83h536l-15 -83h-536z" />
    <glyph glyph-name="greater" unicode="&#x3e;" horiz-adv-x="463" 
d="M55 149l292 197l-223 192l67 63l301 -254l-389 -253z" />
    <glyph glyph-name="question" unicode="?" horiz-adv-x="596" 
d="M128 483q-2 44 20.5 84.5t62.5 72t94 50.5t116 19q59 0 104 -17t74 -45.5t40 -66t3 -78.5q-8 -38 -26.5 -66.5t-44 -50t-55.5 -38t-61 -29.5q-21 -9 -39.5 -19t-33 -24t-23.5 -32.5t-10 -44.5h-86q2 52 22 86t49 56.5t63 37.5t65 31t54 37t30 54q5 25 -1.5 48t-25 39.5
t-48 26.5t-69.5 10q-45 0 -79.5 -14t-57 -35.5t-33.5 -46t-9 -45.5h-95zM350 65q-5 -25 -28 -45t-54 -20q-29 0 -46.5 20t-12.5 45q5 24 28 44t53 20q31 0 48 -20t12 -44z" />
    <glyph glyph-name="at" unicode="@" horiz-adv-x="975" 
d="M378 497q14 18 35 34.5t48.5 29.5t61.5 21t74 8q100 0 147 -48.5t30 -139.5l-25 -145q-2 -10 -1.5 -20.5t5 -19.5t13.5 -15t26 -6q35 0 68 44.5t47 127.5q13 76 -2 138t-54.5 105.5t-100.5 67t-140 23.5q-78 0 -147.5 -25.5t-124.5 -71t-92.5 -109.5t-50.5 -142
q-15 -83 -0.5 -148t53.5 -109t99 -67t137 -23q29 0 53 2t47.5 7.5t48.5 15.5t57 26l42 -57q-49 -31 -118.5 -52t-143.5 -21q-105 0 -182 32t-124 89t-63 135t0 170q16 90 60 168t112 135.5t157 90.5t194 33q103 0 180.5 -30t126.5 -84t67 -129.5t2 -166.5q-11 -61 -33 -108
t-52 -79.5t-65.5 -49t-73.5 -16.5q-46 0 -72.5 18.5t-36.5 50.5q-33 -33 -78 -50t-98 -17q-43 0 -78 11t-59 31.5t-34.5 48.5t-4.5 62q5 31 21.5 58t45.5 47t70.5 31t97.5 11q32 0 69.5 -1t69.5 6q2 45 -27.5 66.5t-86.5 21.5q-94 0 -146 -61zM679 355q-24 -7 -56 -8.5
t-75 -1.5q-76 0 -109 -20t-38 -52q-6 -34 24.5 -54.5t90.5 -20.5q37 0 64.5 10t46.5 26.5t30 36t14 39.5z" />
    <glyph glyph-name="A" unicode="A" horiz-adv-x="786" 
d="M470 728h101l187 -728h-113l-40 160h-374q-11 -19 -23.5 -39.5t-25 -41.5t-25 -41t-22.5 -38h-108zM283 247h300q-12 48 -22.5 89t-20.5 81t-21 83.5t-24 96.5z" />
    <glyph glyph-name="B" unicode="B" horiz-adv-x="645" 
d="M673 530q-9 -49 -41 -89.5t-82 -59.5q56 -18 81.5 -62.5t13.5 -113.5q-8 -44 -30.5 -81.5t-57 -65t-80.5 -43t-100 -15.5h-341l128 728h300q65 0 108.5 -14.5t68.5 -40.5t32.5 -62.5t-0.5 -80.5zM376 85q70 0 114 35t53 88q10 55 -22.5 89t-104.5 34h-220l-44 -246h224z
M211 416h213q54 0 95 28t50 80q21 119 -128 119h-190z" />
    <glyph glyph-name="C" unicode="C" horiz-adv-x="713" 
d="M707 204q-20 -43 -52.5 -83.5t-75.5 -71.5t-95.5 -50t-113.5 -19q-78 0 -135.5 28t-92.5 77.5t-46.5 118.5t2.5 150q15 83 52 155t91 125.5t123 84t148 30.5q66 0 114.5 -21.5t81 -55t48 -75t14.5 -81.5h-103q-2 28 -14 55t-33.5 47t-52.5 32.5t-70 12.5
q-57 0 -106.5 -25t-88.5 -67t-65 -98t-37 -119q-11 -61 -5 -113.5t29.5 -91.5t63.5 -61t98 -22q37 0 70 10.5t61 29.5t50.5 44t38.5 54h101z" />
    <glyph glyph-name="D" unicode="D" horiz-adv-x="683" 
d="M439 728q79 0 137 -25t93 -72t46 -114.5t-4 -152.5t-50.5 -152.5t-87.5 -114.5t-117.5 -72t-140.5 -25h-279l128 728h275zM330 85q51 0 96.5 18.5t82.5 54t63 87.5t38 119q12 71 4.5 123.5t-32 87t-65 51.5t-93.5 17h-173l-99 -558h178z" />
    <glyph glyph-name="E" unicode="E" horiz-adv-x="618" 
d="M582 0h-546l128 728h536l-15 -85h-434l-39 -218h384l-15 -87h-384l-45 -253h444z" />
    <glyph glyph-name="F" unicode="F" horiz-adv-x="587" 
d="M562 293h-373l-51 -293h-102l128 728h515l-15 -85h-413l-47 -266h373z" />
    <glyph glyph-name="G" unicode="G" horiz-adv-x="712" 
d="M670 0h-87l13 76q-41 -40 -102 -68t-139 -28q-69 0 -123.5 25.5t-89.5 73.5t-47.5 117.5t3.5 157.5q16 90 54.5 163t93 124.5t121.5 79t140 27.5q58 0 105 -17t81 -47t54 -72t23 -92h-103q-4 33 -19 59.5t-38.5 45t-54 28t-66.5 9.5q-48 0 -94.5 -21.5t-85.5 -61
t-67.5 -96.5t-41.5 -129q-12 -65 -5 -118.5t30 -91t61.5 -58t91.5 -20.5q44 0 83.5 14t70 37.5t51 54t26.5 63.5l10 58h-225l15 84h327z" />
    <glyph glyph-name="H" unicode="H" 
d="M636 0h-103l55 312h-395l-55 -312h-102l128 728h102l-58 -331h395l58 331h103z" />
    <glyph glyph-name="I" unicode="I" horiz-adv-x="173" 
d="M138 0h-102l128 728h102z" />
    <glyph glyph-name="J" unicode="J" horiz-adv-x="537" 
d="M629 728l-86 -488q-22 -125 -104.5 -192.5t-209.5 -67.5q-26 0 -54 4t-54 11t-47.5 16t-34.5 19l35 91q27 -24 72 -39.5t88 -15.5q87 0 140 47.5t67 126.5l86 488h102z" />
    <glyph glyph-name="K" unicode="K" horiz-adv-x="699" 
d="M266 728l-64 -363l448 363h143l-435 -344l326 -384h-138l-272 317l-94 -75l-42 -242h-102l128 728h102z" />
    <glyph glyph-name="L" unicode="L" horiz-adv-x="611" 
d="M576 0h-540l128 728h102l-114 -643h438z" />
    <glyph glyph-name="M" unicode="M" horiz-adv-x="818" 
d="M453 220l351 508h107l-128 -728h-97l97 552l-316 -466h-78l-159 466l-97 -552h-97l128 728h108z" />
    <glyph glyph-name="N" unicode="N" 
d="M164 728h98l303 -548l97 548h102l-128 -728h-90l-311 557l-98 -557h-101z" />
    <glyph glyph-name="O" unicode="O" horiz-adv-x="761" 
d="M511 748q82 0 140.5 -30.5t94 -83t46.5 -122t-3 -148.5t-49.5 -148.5t-89 -122t-123 -83t-151.5 -30.5q-81 0 -139.5 30.5t-93.5 83t-46 122.5t3 148q14 79 49.5 148.5t88.5 122t122.5 83t150.5 30.5zM391 66q54 0 102.5 22t87.5 61.5t66.5 94t39.5 120.5t3.5 120.5
t-34 94t-66 61.5t-94.5 22t-102 -22t-87 -61.5t-66 -94t-39 -120.5t-3.5 -120.5t33.5 -94t65.5 -61.5t93.5 -22z" />
    <glyph glyph-name="P" unicode="P" horiz-adv-x="641" 
d="M473 728q63 0 108 -18t73 -49t37.5 -72.5t1.5 -88.5t-31.5 -88.5t-61 -72t-89.5 -48.5t-118 -18h-207l-48 -273h-102l128 728h309zM251 643l-50 -285h201q78 0 127.5 39t60.5 103q11 62 -25 102.5t-113 40.5h-201z" />
    <glyph glyph-name="Q" unicode="Q" horiz-adv-x="763" 
d="M511 748q82 0 140.5 -30.5t94 -83t46.5 -122t-3 -148.5q-9 -51 -28 -99.5t-46.5 -90.5t-62.5 -77.5t-76 -60.5l34 -72h-116l-11 31q-26 -7 -52 -11t-55 -4q-81 0 -139.5 30.5t-93.5 83t-46 122.5t3 148q14 79 49.5 148.5t88.5 122t122.5 83t150.5 30.5zM391 66
q14 0 29.5 1.5t29.5 6.5q-8 19 -16.5 40.5l-17 43t-16.5 41.5l-14 35h96l56 -121q55 38 94.5 103t54.5 148q12 66 3.5 120.5t-34 94t-66 61.5t-94.5 22t-102 -22t-87 -61.5t-66 -94t-39 -120.5t-3.5 -120.5t33.5 -94t65.5 -61.5t93.5 -22z" />
    <glyph glyph-name="R" unicode="R" horiz-adv-x="650" 
d="M468 728q67 0 114.5 -15t75.5 -43t37.5 -67.5t0.5 -88.5q-14 -79 -70.5 -136t-156.5 -75l158 -303h-118l-148 296h-171l-52 -296h-102l128 728h304zM251 643l-46 -260h196q88 0 135 36.5t57 93.5q5 27 -0.5 51t-22.5 41.5t-47.5 27.5t-75.5 10h-196z" />
    <glyph glyph-name="S" unicode="S" horiz-adv-x="641" 
d="M263 541q-5 -30 10 -50t43.5 -34.5t66 -26t76 -24t75 -28.5t63.5 -39.5t39.5 -57t4.5 -81.5q-8 -42 -33.5 -81.5t-67 -70t-98.5 -49.5t-126 -19q-72 0 -121 21t-78.5 54t-40 72.5t-5.5 77.5h95q1 -61 45 -100t120 -39q45 0 81.5 12.5t63 32t42.5 43t20 46.5q6 32 -9 54
t-43 38t-65 28.5t-76 25.5t-75.5 28t-63 37.5t-40 53.5t-5.5 75q7 41 31.5 79t63 66.5t90.5 45.5t115 17q60 0 103 -16t70 -44t39 -64.5t11 -78.5h-96q-5 51 -39.5 84t-102.5 33q-37 0 -69 -10t-56 -27t-39 -39t-19 -45z" />
    <glyph glyph-name="T" unicode="T" horiz-adv-x="695" 
d="M772 643h-261l-113 -643h-102l113 643h-260l15 85h623z" />
    <glyph glyph-name="U" unicode="U" 
d="M683 271q-25 -143 -117 -217t-234 -74t-208 74t-41 217l81 457h102l-81 -457q-17 -99 25.5 -152t136.5 -53t155 52t78 153l81 457h103z" />
    <glyph glyph-name="V" unicode="V" horiz-adv-x="747" 
d="M418 0h-98l-163 728h112l124 -596l341 596h112z" />
    <glyph glyph-name="W" unicode="W" horiz-adv-x="1012" 
d="M159 728h110l43 -560l283 560h86l83 -553q59 138 119 279t117 274h109l-321 -728h-98l-81 553l-279 -553h-96z" />
    <glyph glyph-name="X" unicode="X" horiz-adv-x="745" 
d="M420 296q-67 -73 -137.5 -148.5t-136.5 -147.5h-125l350 378l-202 350h120l158 -268q60 66 124 135t124 133h124l-324 -350q25 -43 54 -92t58 -98.5t57.5 -98t53.5 -89.5h-127z" />
    <glyph glyph-name="Y" unicode="Y" horiz-adv-x="726" 
d="M311 0l50 288l-209 440h123l156 -342l276 342h123l-367 -441l-50 -287h-102z" />
    <glyph glyph-name="Z" unicode="Z" 
d="M636 0h-600l10 62l556 581h-423l15 85h560l-11 -63l-554 -580h461z" />
    <glyph glyph-name="bracketleft" unicode="[" horiz-adv-x="347" 
d="M28 -62l146 832h268l-15 -84h-167l-117 -664h167l-14 -84h-268z" />
    <glyph glyph-name="backslash" unicode="\" horiz-adv-x="659" 
d="M605 -136h-115l-336 845h115z" />
    <glyph glyph-name="bracketright" unicode="]" horiz-adv-x="347" 
d="M442 770l-146 -832h-268l14 84h168l117 664h-168l15 84h268z" />
    <glyph glyph-name="asciicircum" unicode="^" horiz-adv-x="513" 
d="M360 795h73l156 -232h-110l-100 139q-35 -34 -75 -71t-72 -68h-110z" />
    <glyph glyph-name="underscore" unicode="_" horiz-adv-x="642" 
d="M24 -81l16 88h564l-16 -88h-564z" />
    <glyph glyph-name="grave" unicode="`" horiz-adv-x="423" 
d="M261 798l187 -226l-61 -60l-208 215z" />
    <glyph glyph-name="a" unicode="a" horiz-adv-x="650" 
d="M624 72q-50 -44 -120 -68t-160 -24q-64 0 -117 21t-89 59t-52 90.5t-5 115.5q10 58 44 107t82 85t107 56t119 20q68 0 129 -20t127 -65zM180 266q-7 -41 3.5 -76t34.5 -60t61 -39t82 -14q46 0 87.5 8t82.5 23l49 283q-32 21 -73 33.5t-91 12.5q-39 0 -78 -13t-72 -36
t-56 -54t-30 -68z" />
    <glyph glyph-name="b" unicode="b" horiz-adv-x="637" 
d="M648 266q-10 -58 -41.5 -110t-79.5 -91t-110 -62t-133 -23q-90 0 -146.5 24t-90.5 68l121 685h99l-47 -265q42 20 87.5 31t93.5 11q60 0 110.5 -20t84 -56t48 -85t4.5 -107zM548 266q7 37 -3.5 68t-33 54t-55.5 36t-72 13q-49 0 -95.5 -12.5t-86.5 -33.5l-49 -283
q34 -15 68 -23t80 -8q51 0 93.5 15.5t74.5 42t52.5 60.5t26.5 71z" />
    <glyph glyph-name="c" unicode="c" horiz-adv-x="607" 
d="M179 257q-8 -42 0 -75.5t28 -57t51.5 -35.5t71.5 -12q26 0 55 4t62 15.5t71.5 31t84.5 50.5l-19 -106q-66 -49 -131 -70.5t-145 -21.5q-62 0 -109.5 20.5t-77.5 57t-41 87.5t0 112t40 112t72 87.5t97.5 57t116.5 20.5q80 0 137.5 -21.5t105.5 -70.5l-18 -106
q-35 31 -66.5 50.5t-61 30.5t-56.5 15.5t-53 4.5q-40 0 -76 -12.5t-64.5 -36t-48 -56.5t-26.5 -75z" />
    <glyph glyph-name="d" unicode="d" horiz-adv-x="646" 
d="M624 72q-50 -44 -120 -68t-160 -24q-64 0 -117 21t-89 59t-52 90.5t-5 115.5q10 58 44 107t82 85t107 56t119 20q48 0 89 -11t76 -31l47 265h100zM180 266q-7 -41 3.5 -76t34.5 -60t61 -39t82 -14q46 0 87.5 8t82.5 23l49 283q-32 21 -73 33.5t-91 12.5q-39 0 -78 -13
t-72 -36t-56 -54t-30 -68z" />
    <glyph glyph-name="e" unicode="e" horiz-adv-x="643" 
d="M178 187q10 -54 58 -82t114 -28q53 0 123 24.5t162 86.5l-19 -106q-66 -49 -137 -75.5t-151 -26.5q-63 0 -113.5 20t-84 56.5t-47.5 87.5t-3 113q11 61 42.5 112t77.5 87.5t104 57t122 20.5q65 0 113 -18t77.5 -50.5t40.5 -77t2 -97.5zM414 437q-39 0 -76 -11t-68 -32
t-53.5 -51t-32.5 -67l373 79q-5 33 -39.5 57.5t-103.5 24.5z" />
    <glyph glyph-name="f" unicode="f" horiz-adv-x="277" 
d="M75 514h72l4 24q10 57 32 97t53 63.5t70 32t84 3.5l-9 -87q-45 8 -81.5 -15.5t-47.5 -85.5l-6 -32h141l-15 -86h-141l-75 -428h-99l75 428h-72z" />
    <glyph glyph-name="g" unicode="g" horiz-adv-x="637" 
d="M509 41q-42 -20 -87 -30.5t-93 -10.5q-62 0 -112 20t-84 55t-48 84t-4 107t42 107t78 85t103 56t119 20q81 0 144.5 -30.5t108.5 -80.5l-70 -398q-10 -57 -38.5 -99.5t-69 -71.5t-91.5 -43.5t-106 -14.5q-80 0 -145 22.5t-103 63.5l18 104q57 -53 119 -73.5t127 -20.5
q33 0 64.5 7.5t57 22.5t43 37.5t22.5 52.5zM180 266q-6 -37 4 -68t32.5 -53.5t55.5 -35.5t73 -13q50 0 96 13t86 34l43 248q-32 21 -73 33.5t-91 12.5q-40 0 -77.5 -13t-68.5 -36t-52 -54t-28 -68z" />
    <glyph glyph-name="h" unicode="h" horiz-adv-x="617" 
d="M168 757h99l-47 -269q45 20 101.5 33t105.5 13q56 0 99 -18t69.5 -50.5t36.5 -78.5t0 -102l-50 -285h-100l50 285q12 69 -20.5 110.5t-101.5 41.5q-51 0 -108.5 -14t-99.5 -36l-68 -387h-99z" />
    <glyph glyph-name="i" unicode="i" horiz-adv-x="207" 
d="M146 514h99l-90 -514h-99zM145 629q5 28 28 47t52 19t45.5 -19t11.5 -47q-5 -29 -28 -48t-52 -19t-45.5 19t-11.5 48z" />
    <glyph glyph-name="j" unicode="j" horiz-adv-x="213" 
d="M-79 -153q47 -8 82.5 15t46.5 87l99 565h99l-98 -557q-20 -115 -82.5 -161t-155.5 -36zM150 629q5 28 28.5 47t52.5 19t45.5 -19t11.5 -47q-5 -29 -28 -48t-52 -19t-46 19t-12 48z" />
    <glyph glyph-name="k" unicode="k" horiz-adv-x="617" 
d="M344 202q-39 -9 -82 -17.5t-99 -17.5l-29 -167h-99l133 757h99l-88 -501q101 19 169 36t110.5 39.5t64.5 53t30 77.5l9 52h100l-9 -52q-9 -48 -23.5 -83.5t-38 -62.5t-57 -47t-80.5 -36l143 -233h-130z" />
    <glyph glyph-name="l" unicode="l" horiz-adv-x="169" 
d="M168 757h99l-133 -757h-99z" />
    <glyph glyph-name="m" unicode="m" horiz-adv-x="786" 
d="M712 344q8 46 -13 69.5t-66 23.5q-30 0 -64 -9t-57 -26l-70 -402h-99l62 353q8 46 -13.5 65t-67.5 19q-30 0 -64.5 -9.5t-55.5 -25.5l-70 -402h-99l75 431q23 23 52.5 42t61 32.5t62 21t55.5 7.5q98 0 139 -56q42 25 88 40.5t82 15.5q44 0 77.5 -13t54.5 -38t29 -60
t0 -79l-60 -344h-99z" />
    <glyph glyph-name="n" unicode="n" horiz-adv-x="607" 
d="M522 285q12 69 -20 110.5t-98 41.5q-51 0 -105.5 -12.5t-96.5 -34.5l-68 -390h-99l74 423q31 25 69 45.5t78.5 35t82.5 22.5t82 8q55 0 97 -18t68.5 -50.5t36 -78.5t-0.5 -102l-50 -285h-100z" />
    <glyph glyph-name="o" unicode="o" horiz-adv-x="637" 
d="M80 256q10 60 40 111t74.5 88t99.5 58t117 21t110.5 -21t80 -58t43.5 -88t2 -111q-11 -60 -41.5 -110.5t-74.5 -87.5t-100 -57.5t-118 -20.5t-110 20.5t-79 57.5t-43 87.5t-1 110.5zM179 256q-7 -39 0.5 -72t27.5 -57t51.5 -37t71.5 -13q41 0 77.5 13t65 37t48 57
t26.5 72q7 40 -1 73t-28 57t-51.5 37.5t-72.5 13.5q-40 0 -76 -13.5t-64.5 -37.5t-48 -57t-26.5 -73z" />
    <glyph glyph-name="p" unicode="p" horiz-adv-x="637" 
d="M109 423q63 50 137 80.5t155 30.5q71 0 122.5 -21.5t82 -59t41 -88.5t0.5 -109q-11 -58 -39 -108.5t-72 -87.5t-103 -58.5t-130 -21.5q-48 0 -89.5 11t-76.5 31l-46 -265h-98zM547 256q6 37 -0.5 70t-26.5 57.5t-54 39t-82 14.5q-49 0 -95.5 -12.5t-86.5 -33.5l-47 -268
q32 -21 74 -33.5t91 -12.5q48 0 87 14t68 38.5t47 57t25 69.5z" />
    <glyph glyph-name="q" unicode="q" horiz-adv-x="642" 
d="M564 -243h-99l46 265q-43 -21 -87 -31.5t-93 -10.5q-71 0 -123 21.5t-84 58.5t-43.5 87.5t-0.5 108.5q10 58 39 109t74 88.5t105 59t131 21.5q81 0 144 -30.5t108 -80.5zM179 256q-7 -37 0.5 -69.5t29 -57t56.5 -38.5t83 -14q50 0 95.5 12.5t85.5 33.5l47 268
q-32 21 -73 33.5t-91 12.5q-48 0 -88.5 -14.5t-70.5 -39t-49 -57.5t-25 -70z" />
    <glyph glyph-name="r" unicode="r" horiz-adv-x="317" 
d="M399 437q-57 0 -107 -12.5t-90 -33.5l-68 -391h-99l74 423q63 50 141 80.5t166 30.5z" />
    <glyph glyph-name="s" unicode="s" horiz-adv-x="617" 
d="M509 156q4 25 -12 39t-45 22t-67 12.5t-78 10t-77.5 13t-65 22.5t-42 39.5t-7.5 62.5q7 39 32 68t62.5 49t85 30t98.5 10q42 0 80 -6t70.5 -15.5t58 -21.5t42.5 -23l-18 -100q-50 34 -115.5 51.5t-134.5 17.5q-68 0 -112.5 -16t-48.5 -39q-3 -18 14 -28t46.5 -15.5
t68 -8.5t78 -8.5t77 -15.5t64.5 -28.5t40.5 -47.5t5.5 -74q-7 -40 -33 -72.5t-66 -55.5t-90.5 -35.5t-106.5 -12.5q-36 0 -73.5 5t-72.5 15.5t-66 26t-56 35.5l20 109q66 -54 135.5 -74t129.5 -20q34 0 65 5.5t55.5 16t40 25t18.5 32.5z" />
    <glyph glyph-name="t" unicode="t" horiz-adv-x="391" 
d="M125 514h71l29 165h100l-29 -165h141l-15 -86h-141l-42 -239q-16 -94 54 -103q11 -2 32 -1t46 4l-15 -87q-25 -3 -46.5 -5t-39.5 0q-35 2 -63 13t-46.5 33t-25 55.5t1.5 80.5l44 249h-71z" />
    <glyph glyph-name="u" unicode="u" horiz-adv-x="617" 
d="M174 229q-14 -75 23.5 -113.5t114.5 -38.5q51 0 98.5 7t89.5 21l72 409h100l-78 -442q-26 -20 -60 -36.5t-73 -29t-81.5 -19.5t-84.5 -7q-60 0 -105.5 16.5t-74.5 48.5t-40 78t0 106l50 285h99z" />
    <glyph glyph-name="v" unicode="v" horiz-adv-x="595" 
d="M262 1q-48 22 -83.5 60.5t-55.5 91.5t-24 120.5t10 147.5l16 93h99l-16 -93q-10 -58 -8.5 -111.5t14.5 -98t37.5 -77t60.5 -48.5q41 16 77 48.5t65 77t49.5 98t30.5 111.5l16 93h100l-16 -93q-29 -161 -109.5 -268.5t-195.5 -152.5h-61z" />
    <glyph glyph-name="w" unicode="w" horiz-adv-x="786" 
d="M164 171q-8 -47 10.5 -70.5t68.5 -23.5q30 0 63 9t56 26l71 402h99l-71 -402q17 -16 47.5 -25.5t60.5 -9.5q96 0 113 94l60 343h99l-60 -343q-16 -89 -75.5 -140t-153.5 -51q-38 0 -79.5 15.5t-73.5 41.5q-42 -26 -89 -41.5t-84 -15.5q-94 0 -135.5 51t-25.5 140l60 343
h99z" />
    <glyph glyph-name="x" unicode="x" horiz-adv-x="595" 
d="M471 64q10 55 -27 94t-108 68q-82 -29 -131.5 -67.5t-59.5 -94.5l-11 -64h-99l11 64q7 39 21 68t36 52t50.5 41.5t63.5 35.5q-61 25 -89 68.5t-14 121.5l11 63h99l-11 -63q-5 -29 3.5 -54.5t27 -45t46 -31t61.5 -11.5t65.5 11.5t57 31t43 45t22.5 54.5l11 63h100l-11 -63
q-7 -40 -22 -69.5t-37.5 -51.5t-51.5 -38t-64 -29q29 -17 52 -35.5t37.5 -42t19.5 -53t-2 -68.5l-11 -64h-100l11 64v0z" />
    <glyph glyph-name="y" unicode="y" horiz-adv-x="602" 
d="M474 37q-41 -17 -87 -27t-98 -10q-122 0 -177 64t-34 184l47 266h99l-47 -266q-13 -75 19.5 -113.5t108.5 -38.5q55 0 99.5 9t86.5 29l67 380h100l-86 -489q-10 -57 -38.5 -99.5t-69 -71.5t-91.5 -43.5t-106 -14.5q-80 0 -145 22.5t-103 63.5l17 99q59 -49 121 -69
t126 -20q33 0 64.5 7.5t57 23t43 39t22.5 55.5z" />
    <glyph glyph-name="z" unicode="z" horiz-adv-x="605" 
d="M140 514h507l-11 -63q-9 -52 -30.5 -86.5t-55.5 -59t-80 -43t-103 -38.5q-88 -31 -139 -59t-71 -69h429l-16 -96h-535l11 64q9 51 31 86.5t58.5 62.5t88 49t119.5 46q69 24 114.5 48t65.5 62h-400z" />
    <glyph glyph-name="braceleft" unicode="{" horiz-adv-x="429" 
d="M108 396q42 0 70.5 5.5t47.5 15.5t28.5 24t14.5 30q4 14 4.5 30.5t1.5 34.5q1 4 1 8v9q0 20 0.5 38t2.5 35q4 30 16.5 56t39.5 45.5t72.5 31t116.5 11.5l-15 -87q-41 1 -67.5 -4t-43 -15t-24.5 -24t-11 -30q-5 -29 -3.5 -66.5t-5.5 -75.5q-6 -33 -24.5 -63.5t-59.5 -50.5
q34 -20 42 -50t2 -63q-7 -38 -21.5 -75t-19.5 -66q-3 -17 0 -31t16 -23.5t38 -15t66 -3.5l-15 -88q-71 0 -112.5 11.5t-62 31t-23.5 45.5t3 56q4 17 10 35.5t13 38.5q4 9 5 17l10 34t6 30q1 16 -3.5 30t-19.5 24.5t-41.5 16t-68.5 5.5z" />
    <glyph glyph-name="bar" unicode="|" horiz-adv-x="177" 
d="M172 756h98l-166 -940h-98z" />
    <glyph glyph-name="braceright" unicode="}" horiz-adv-x="429" 
d="M444 314q-42 0 -70.5 -5.5t-47.5 -16t-29 -24.5t-14 -30q-3 -13 -4 -30l-2 -34l-1 -17q2 -39 -3 -74q-4 -30 -16.5 -56t-39.5 -45.5t-72.5 -31t-116.5 -11.5l15 88q41 -2 68 3.5t43.5 15t24 23.5t10.5 30q5 29 3.5 66t5.5 76q6 33 24 63t60 50q-34 20 -42 50.5t-2 64.5
q4 21 11 42.5t13.5 42t12 39t5.5 33.5q1 13 -4 24t-18.5 18.5t-37.5 11.5t-61 3l15 87q71 0 112.5 -11.5t62 -31t23.5 -45.5t-3 -56q-7 -32 -23 -73l-5 -17q-5 -18 -9.5 -34.5t-6.5 -30.5q-2 -16 3 -30t20 -24t41.5 -15.5t68.5 -5.5z" />
    <glyph glyph-name="asciitilde" unicode="~" horiz-adv-x="502" 
d="M527 387q4 -18 3.5 -39.5t-4.5 -44.5q-10 -56 -47 -90t-88 -34q-39 0 -63.5 19.5t-43 43t-35.5 43t-41 19.5q-30 0 -39 -29q-9 -28 6 -96h-87q-7 48 -1 86q11 57 48 89.5t88 32.5q39 0 64 -19.5t44.5 -43.5t36 -43.5t39.5 -19.5q19 0 30 29q13 30 4 97h86v0z" />
    <glyph glyph-name="uni00A0" unicode="&#xa0;" horiz-adv-x="330" 
 />
    <glyph glyph-name="exclamdown" unicode="&#xa1;" horiz-adv-x="227" 
d="M142 393h86l-77 -491h-106zM138 543q2 13 9.5 25t19 22t25 16t28.5 6q30 0 46.5 -21.5t11.5 -47.5t-28 -47t-54 -21q-29 0 -46 21t-12 47z" />
    <glyph glyph-name="cent" unicode="&#xa2;" horiz-adv-x="581" 
d="M569 130q-49 -38 -103.5 -60t-115.5 -22q-24 0 -46 3l-56 -133h-77l64 152q-39 16 -68.5 44.5t-46.5 65t-22.5 81t3.5 93.5q11 64 42.5 120t78.5 97.5t107 65t129 23.5h10.5t12.5 -1l55 132h77l-61 -147q28 -10 52 -26.5t45 -38.5l-67 -61q-15 14 -31.5 26t-32.5 18
l-178 -424q15 -3 31 -3q42 0 80.5 15t70.5 41zM198 354q-11 -64 8.5 -115.5t65.5 -78.5l173 413q-41 3 -81.5 -13.5t-74.5 -46.5t-58.5 -71.5t-32.5 -87.5z" />
    <glyph glyph-name="sterling" unicode="&#xa3;" 
d="M579 491q9 26 6 50t-17 42t-38.5 29t-58.5 11q-66 0 -112.5 -41.5t-63.5 -116.5q-5 -23 -7 -49t0 -55v-18h185l-13 -75h-173q-2 -19 -4 -36.5t-6 -33.5q-9 -39 -24.5 -67.5t-43.5 -46.5h435l-14 -84h-591l13 79q59 8 92 39.5t45 97.5q2 15 2.5 24t2.5 28h-77l13 75h65v16
q0 -1 1 -1q-3 61 7 109q12 58 38 103t63.5 76t84 47t98.5 16q60 0 100.5 -17t63 -46.5t27.5 -69t-7 -85.5h-92v0z" />
    <glyph glyph-name="currency" unicode="&#xa4;" horiz-adv-x="659" 
d="M621 354q-8 -42 -23 -76t-35 -59q20 -23 43.5 -49t38.5 -46l-70 -66l-82 99q-33 -21 -69 -30.5t-75 -9.5q-77 0 -125 39l-113 -97l-57 65l122 99q-22 54 -8 131q13 74 51 128q-20 23 -44.5 49.5t-41.5 46.5l80 58l73 -90q31 21 67.5 33t79.5 12q42 0 76 -11.5t59 -35.5
l108 92l49 -58l-112 -98q9 -25 12 -56.5t-4 -69.5zM531 354q12 67 -17 108.5t-97 41.5q-63 0 -105.5 -39.5t-54.5 -110.5q-13 -71 13.5 -110.5t93.5 -39.5q72 0 113.5 41.5t53.5 108.5z" />
    <glyph glyph-name="yen" unicode="&#xa5;" horiz-adv-x="712" 
d="M413 56l-9 -56h-96l9 56h-156l14 75h156l10 59h-156l13 76h151l3 -15l4 25q-50 104 -102.5 217t-100.5 216h115l150 -353l277 353h114l-358 -443h149l-13 -76h-150l-10 -59h150l-14 -75h-150z" />
    <glyph glyph-name="brokenbar" unicode="&#xa6;" horiz-adv-x="175" 
d="M178 244l-76 -428h-96l76 428h96zM96 328l76 428h96l-76 -428h-96z" />
    <glyph glyph-name="section" unicode="&#xa7;" horiz-adv-x="588" 
d="M558 207q9 -25 5 -59q-3 -30 -22.5 -59t-55.5 -52.5t-90 -37.5t-127 -12q-32 1 -62.5 7.5t-57 18.5t-47.5 29t-33 40l74 48q20 -26 56.5 -41t84.5 -17q94 -3 137 20.5t48 54.5q2 24 -12 38.5t-38.5 23.5t-56 13.5t-65 9t-66.5 11t-59.5 18.5t-44.5 32t-21 52
q-3 26 8.5 55.5t31.5 52.5q-8 23 -5 61q4 30 23 59.5t55.5 53t90.5 37t127 11.5q32 -1 62.5 -7.5t57 -18.5t47.5 -29.5t34 -39.5l-76 -44q-18 26 -54 40.5t-86 16.5q-47 1 -81 -4.5t-56.5 -16t-34 -25t-14.5 -29.5q-3 -32 22 -47.5t63.5 -23t85 -12.5t88 -15t71.5 -31
t36 -60q1 -16 -7 -51t-36 -71zM209 402q-16 -30 -7.5 -47t32 -27t59 -15t73 -10.5t73.5 -14.5t61 -26q4 7 5.5 10.5t2.5 8.5q6 25 -7 38.5t-38.5 21t-59.5 11.5t-69.5 9.5t-68.5 14.5t-56 26z" />
    <glyph glyph-name="dieresis" unicode="&#xa8;" horiz-adv-x="522" 
d="M299 656q-2 -13 -9.5 -25.5t-19 -22t-25.5 -15.5t-29 -6q-29 0 -45.5 21.5t-11.5 47.5q2 13 9.5 25t18.5 21.5t24.5 15.5t28.5 6q31 0 47.5 -21t11.5 -47zM557 656q-2 -13 -9.5 -25.5t-18.5 -22t-25 -15.5t-29 -6q-30 0 -46.5 21.5t-11.5 47.5q2 13 9.5 25t18.5 21.5
t25 15.5t29 6q30 0 46.5 -21t11.5 -47z" />
    <glyph glyph-name="copyright" unicode="&#xa9;" horiz-adv-x="962" 
d="M903 354q13 72 0 136.5t-50.5 113t-99.5 76.5t-148 28q-84 0 -155.5 -28t-126.5 -76.5t-91 -113t-49 -136.5t0.5 -136t52 -112.5t100 -76.5t145.5 -28q86 0 158 28t126.5 76.5t89.5 112.5t48 136zM984 354q-17 -97 -64 -176t-115.5 -135.5t-155 -87.5t-182.5 -31
q-102 0 -178 34t-123 92.5t-64 136.5t-1 167t60.5 167.5t112 137t155.5 92.5t190 34q96 0 171.5 -31t124 -87.5t67.5 -136t2 -176.5zM720 185q-48 -40 -102.5 -63t-115.5 -23q-48 0 -89.5 19t-70.5 52.5t-42 80.5t-3 103t39.5 103t70.5 81t89 53t96 19q62 0 108.5 -23
t78.5 -65l-69 -54q-24 26 -54.5 40t-71.5 14q-29 0 -60.5 -12t-58.5 -34.5t-46.5 -53.5t-26.5 -68t2 -68t28 -53t46 -34t56 -12q41 0 77 14.5t68 40.5z" />
    <glyph glyph-name="ordfeminine" unicode="&#xaa;" horiz-adv-x="607" 
d="M623 291q-63 -50 -137.5 -80.5t-155.5 -30.5q-55 0 -101 11.5t-77.5 34.5t-46 57.5t-6.5 81.5q9 48 34.5 83.5t63 58t83.5 34t94 11.5q55 1 102.5 -9.5t85.5 -30.5l2 14q10 53 -22.5 82t-102.5 29q-65 0 -131.5 -17.5t-139.5 -61.5l18 105q56 31 123 51t147 20
q55 0 97.5 -14.5t69.5 -43.5t37.5 -72t0.5 -99zM198 365q-4 -24 6.5 -40.5t31 -27t49.5 -15.5t62 -5q50 0 96 12.5t85 33.5l17 94q-46 23 -91 33.5t-87 10.5q-33 0 -62 -6t-51.5 -18.5t-37 -30.5t-18.5 -41z" />
    <glyph glyph-name="guillemotleft" unicode="&#xab;" horiz-adv-x="706" 
d="M527 545l-292 -196l222 -192l-67 -63l-300 254l388 253zM772 545l-292 -196l222 -192l-67 -63l-300 254l388 253z" />
    <glyph glyph-name="logicalnot" unicode="&#xac;" horiz-adv-x="634" 
d="M608 78h-90l41 229h-466l15 88h556z" />
    <glyph glyph-name="uni00AD" unicode="&#xad;" horiz-adv-x="561" 
d="M83 250l16 93h482l-16 -93h-482z" />
    <glyph glyph-name="registered" unicode="&#xae;" horiz-adv-x="962" 
d="M984 354q-17 -97 -64 -176t-115.5 -135.5t-155 -87.5t-182.5 -31q-102 0 -178 34t-123 92.5t-64 136.5t-1 167t60.5 167.5t112 137t155.5 92.5t190 34q96 0 171.5 -31t124 -87.5t67.5 -136t2 -176.5zM546 278h-124l-29 -164h-92l85 482h260q51 0 85 -13.5t53 -36t25 -52
t0 -60.5q-4 -24 -16 -48t-32 -44.5t-48 -35.5t-64 -22l126 -170q51 48 83.5 109.5t44.5 130.5q13 72 0 136.5t-50.5 113t-99.5 76.5t-148 28q-84 0 -155.5 -28t-126.5 -76.5t-91 -113t-49 -136.5t0.5 -136t52 -112.5t100 -76.5t145.5 -28q90 0 163.5 30.5t129.5 82.5h-116z
M463 515l-28 -161h157q31 0 53 7t37 18t23.5 24.5t10.5 27.5q3 18 1 33t-12.5 26.5t-31 18t-53.5 6.5h-157z" />
    <glyph glyph-name="macron" unicode="&#xaf;" horiz-adv-x="498" 
d="M144 597l15 84h419l-15 -84h-419z" />
    <glyph glyph-name="degree" unicode="&#xb0;" horiz-adv-x="405" 
d="M352 855q34 0 61.5 -12.5t46 -34.5t26 -50.5t1.5 -61.5t-23.5 -62t-43.5 -50t-58 -33.5t-66 -12.5q-33 0 -60.5 12.5t-46 33.5t-26.5 50t-2 62t24 61.5t44 50.5t58 34.5t65 12.5zM310 618q16 0 31.5 6.5t28 17t21.5 24.5t12 30q5 31 -14 54.5t-51 23.5q-16 0 -31.5 -6.5
t-28 -17t-21.5 -25t-12 -29.5q-5 -32 14 -55t51 -23z" />
    <glyph glyph-name="plusminus" unicode="&#xb1;" horiz-adv-x="634" 
d="M452 492h229l-15 -88h-229l-41 -229h-90l41 229h-237l15 88h237l39 222h90zM41 12l15 87h556l-15 -87h-556z" />
    <glyph glyph-name="twosuperior" unicode="&#xb2;" horiz-adv-x="516" 
d="M148 492q-4 9 -5.5 18.5t-2.5 18.5q5 36 25 68.5t51.5 57t73.5 39.5t91 15q43 0 77 -13t57 -35.5t33 -53t6 -64.5q-4 -25 -15.5 -52t-33.5 -54l1 1q-19 -24 -46.5 -46.5t-59 -42t-64.5 -36t-63 -29.5h254l-15 -80h-438l14 75q51 18 102 40.5t97 46.5t82 48.5t57 47.5
q40 49 37 88q1 36 -27 58t-72 22q-32 0 -58 -12t-45 -31.5t-30.5 -44.5t-13.5 -50h-69v0z" />
    <glyph glyph-name="threesuperior" unicode="&#xb3;" horiz-adv-x="554" 
d="M183 558q3 28 21 55.5t47.5 48.5t70 34t89.5 13q51 0 84.5 -12t53 -30.5t25.5 -42t2 -46.5q-5 -31 -27 -56.5t-61 -42.5q46 -12 70 -40t16 -76q-5 -27 -20.5 -55t-46.5 -51t-78.5 -38t-114.5 -15q-57 0 -99.5 14.5t-69 39.5t-36 58t0.5 71h86q-6 -21 0.5 -40t24.5 -33.5
t45 -23t61 -8.5q76 0 113 24.5t43 59.5q2 13 -2 26t-20 23t-46.5 16t-79.5 6h-72l12 72h67q69 0 112 21t44 49q0 21 -16.5 34.5t-41.5 18.5t-54.5 3t-55.5 -11t-43.5 -25.5t-19.5 -39.5z" />
    <glyph glyph-name="acute" unicode="&#xb4;" horiz-adv-x="423" 
d="M519 764l-316 -232l-38 60l298 243z" />
    <glyph glyph-name="mu" unicode="&#xb5;" horiz-adv-x="617" 
d="M125 514h99l-50 -285q-14 -75 23.5 -113.5t114.5 -38.5q51 0 98.5 7t89.5 21l72 409h100l-78 -442q-26 -20 -60 -36.5t-73 -29t-81.5 -19.5t-84.5 -7q-100 0 -160 46l-37 -210h-96z" />
    <glyph glyph-name="paragraph" unicode="&#xb6;" horiz-adv-x="661" 
d="M255 512q-23 2 -41.5 11.5t-31 25.5t-17.5 38t0 49q5 29 19 51.5t34.5 37.5t45 23t49.5 8h406l-15 -86h-100l-151 -854h-96l151 854h-128l-151 -854h-97z" />
    <glyph glyph-name="periodcentered" unicode="&#xb7;" horiz-adv-x="220" 
d="M241 348q-5 -26 -29 -47.5t-54 -21.5q-15 0 -26.5 6t-19.5 15.5t-11 22t-1 25.5t9.5 25t19 21.5t25 15t28.5 5.5q30 0 47 -20.5t12 -46.5z" />
    <glyph glyph-name="cedilla" unicode="&#xb8;" horiz-adv-x="389" 
d="M200 0q37 -1 64 -11.5t43.5 -27.5t23 -38.5t2.5 -44.5q-5 -27 -19 -51t-37 -42t-54.5 -29t-71.5 -12q-29 -1 -67 4t-85 22l13 75q44 -8 73.5 -11t56.5 -3q40 0 65.5 15t31.5 33.5t-9 33.5t-56 15q-14 0 -34.5 -2.5t-49.5 -8.5l10 59l61 112h86z" />
    <glyph glyph-name="onesuperior" unicode="&#xb9;" horiz-adv-x="286" 
d="M193 204l53 297h-119l14 81q34 0 57 3t38.5 13.5t24.5 29.5t16 51l6 30h89l-90 -505h-89z" />
    <glyph glyph-name="ordmasculine" unicode="&#xba;" horiz-adv-x="580" 
d="M528 456q6 34 -0.5 64.5t-23.5 53.5t-43.5 36.5t-60.5 13.5t-65.5 -13t-57 -35.5t-43 -53t-23.5 -66.5t0.5 -66.5t23.5 -53t44 -35t61 -12.5t65.5 13.5t56.5 36.5t42.5 53.5t23.5 63.5zM620 456q-11 -62 -41.5 -109t-71.5 -79t-89 -48t-93 -16q-51 0 -93.5 19t-70.5 53
t-39.5 80t-2.5 100t36 100.5t67 80.5t89.5 53t103.5 19q45 0 87 -17t71.5 -49.5t43 -79.5t3.5 -107z" />
    <glyph glyph-name="guillemotright" unicode="&#xbb;" horiz-adv-x="704" 
d="M55 149l292 197l-223 192l67 63l301 -254l-389 -253zM305 149l292 197l-223 192l67 63l301 -254l-389 -253z" />
    <glyph glyph-name="onequarter" unicode="&#xbc;" horiz-adv-x="974" 
d="M954 505l-60 -337h78l-13 -77h-78l-16 -91h-83l16 91h-312l10 59l376 355h82zM894 709h111l-751 -709h-112zM282 204h-89l53 297h-119l14 81q36 0 60 4t39.5 17.5t25 38.5t17.5 67h89zM811 168l48 233q-58 -58 -113.5 -114t-119.5 -119h185z" />
    <glyph glyph-name="onehalf" unicode="&#xbd;" horiz-adv-x="1002" 
d="M283 209l530 500h111l-751 -709h-111l215 204h-84l53 297h-119l14 81q36 0 60 4t39.5 17.5t25 38.5t17.5 67h89zM597 287q-3 10 -4.5 19t-3.5 18q6 36 26 69t51.5 57.5t73.5 39.5t91 15q43 0 77 -13t57 -35.5t33 -53t5 -64.5q-3 -25 -14.5 -52t-33.5 -54
q-19 -24 -46.5 -46t-59 -41.5t-65 -36t-63.5 -29.5h255l-14 -80h-437l13 75q50 18 101.5 40.5t97 46.5t81.5 48.5t57 47.5q21 24 30 46t9 42q0 35 -28.5 57.5t-72.5 22.5q-32 0 -58 -12t-45 -32t-30 -45t-13 -50h-70z" />
    <glyph glyph-name="threequarters" unicode="&#xbe;" horiz-adv-x="1054" 
d="M491 245q-31 -19 -74.5 -30t-102.5 -11q-57 0 -99.5 14.5t-69 39.5t-36 58t0.5 71h86q-6 -21 0.5 -40t24.5 -33.5t45 -23t61 -8.5q76 0 113 24.5t43 59.5q2 13 -2 26t-20 23t-46.5 16t-79.5 6h-72l12 72h67q65 0 104 19t44 45q5 29 -20.5 45.5t-73.5 16.5
q-51 0 -85.5 -15.5t-40.5 -47.5h-85q4 24 22 48.5t47 44t68.5 32t88.5 12.5q51 0 84.5 -12t53 -30.5t25.5 -42t2 -46.5q-5 -31 -27 -56.5t-61 -42.5q46 -12 70 -40t16 -76q-6 -33 -27 -64l435 410h112l-752 -709h-111zM1031 505l-60 -337h77l-13 -77h-77l-16 -91h-83l16 91
h-312l10 59l376 355h82zM888 168q6 32 12 59.5t11.5 54.5t11.5 55.5t13 63.5q-59 -58 -114 -114t-119 -119h185z" />
    <glyph glyph-name="questiondown" unicode="&#xbf;" horiz-adv-x="596" 
d="M551 128q4 -9 5.5 -17.5t2.5 -17.5q-5 -35 -26.5 -69t-58.5 -61t-88 -44t-114 -17q-60 0 -105 17.5t-73.5 47.5t-39.5 68.5t-3 80.5q10 37 30.5 65t46.5 48.5t55 35.5t56 28q21 10 39.5 20t32.5 23.5t22.5 32t9.5 44.5h87q-3 -53 -22.5 -86.5t-48.5 -55.5t-62.5 -37.5
t-64 -31.5t-53.5 -36.5t-30 -53.5q-5 -26 3 -49t26.5 -40t47.5 -26.5t65 -9.5q46 0 80 14t56.5 35.5t33.5 46t10 45.5h80zM344 547q5 24 28 44.5t53 20.5q15 0 27 -5.5t20 -15t11.5 -21t1.5 -23.5t-10 -24t-19 -21t-25 -14.5t-29 -5.5q-30 0 -46.5 20t-11.5 45z" />
    <glyph glyph-name="Agrave" unicode="&#xc0;" horiz-adv-x="786" 
d="M470 728h101l187 -728h-113l-40 160h-374q-11 -19 -23.5 -39.5t-25 -41.5t-25 -41t-22.5 -38h-108zM283 247h300q-12 48 -22.5 89t-20.5 81t-21 83.5t-24 96.5zM491 1008l187 -226l-61 -60l-208 215z" />
    <glyph glyph-name="Aacute" unicode="&#xc1;" horiz-adv-x="786" 
d="M470 728h101l187 -728h-113l-40 160h-374q-11 -19 -23.5 -39.5t-25 -41.5t-25 -41t-22.5 -38h-108zM283 247h300q-12 48 -22.5 89t-20.5 81t-21 83.5t-24 96.5zM726 974l-316 -232l-38 60l298 243z" />
    <glyph glyph-name="Acircumflex" unicode="&#xc2;" horiz-adv-x="786" 
d="M470 728h101l187 -728h-113l-40 160h-374q-11 -19 -23.5 -39.5t-25 -41.5t-25 -41t-22.5 -38h-108zM283 247h300q-12 48 -22.5 89t-20.5 81t-21 83.5t-24 96.5zM533 1005h73l156 -232h-110l-100 139q-35 -34 -75 -71t-72 -68h-110z" />
    <glyph glyph-name="Atilde" unicode="&#xc3;" horiz-adv-x="786" 
d="M470 728h101l187 -728h-113l-40 160h-374q-11 -19 -23.5 -39.5t-25 -41.5t-25 -41t-22.5 -38h-108zM283 247h300q-12 48 -22.5 89t-20.5 81t-21 83.5t-24 96.5zM765 970q3 -16 3 -38.5t-4 -45.5q-10 -56 -47 -90t-88 -34q-39 0 -63.5 19.5t-43 43t-35.5 43t-41 19.5
q-37 0 -43 -42q-2 -12 1 -33t9 -50h-87q-7 48 -1 86q11 57 48 89.5t88 32.5q39 0 64 -19.5t44 -43t35.5 -43t39.5 -19.5q14 0 23 11t14 31q3 14 2.5 35.5t-4.5 47.5h86z" />
    <glyph glyph-name="Adieresis" unicode="&#xc4;" horiz-adv-x="786" 
d="M470 728h101l187 -728h-113l-40 160h-374q-11 -19 -23.5 -39.5t-25 -41.5t-25 -41t-22.5 -38h-108zM283 247h300q-12 48 -22.5 89t-20.5 81t-21 83.5t-24 96.5zM485 866q-2 -13 -9.5 -25.5t-19 -22t-25.5 -15.5t-29 -6q-29 0 -45.5 21.5t-11.5 47.5q2 13 9.5 25
t18.5 21.5t24.5 15.5t28.5 6q31 0 47.5 -21t11.5 -47zM743 866q-2 -13 -9.5 -25.5t-18.5 -22t-25 -15.5t-29 -6q-30 0 -46.5 21.5t-11.5 47.5q2 13 9.5 25t18.5 21.5t25 15.5t29 6q30 0 46.5 -21t11.5 -47z" />
    <glyph glyph-name="Aring" unicode="&#xc5;" horiz-adv-x="786" 
d="M564 980q34 0 61.5 -12.5t46 -34.5t26 -50.5t1.5 -61.5q-8 -48 -39.5 -85.5t-76.5 -56.5l175 -679h-113l-40 160h-374q-11 -19 -23.5 -39.5t-25 -41.5t-25 -41t-22.5 -38h-108l413 679q-37 19 -56 56.5t-11 85.5q6 33 24 61.5t44 50.5t58 34.5t65 12.5zM283 247h300
q-12 48 -22.5 89t-20.5 81t-21 83.5t-24 96.5zM523 743q16 0 31 6.5t28 17t21.5 24.5t11.5 30q5 31 -14 54.5t-51 23.5q-16 0 -31.5 -6.5t-28 -17t-21.5 -25t-12 -29.5q-5 -32 14.5 -55t51.5 -23z" />
    <glyph glyph-name="AE" unicode="&#xc6;" horiz-adv-x="1123" 
d="M1087 0h-546l28 160h-362q-18 -19 -39 -39.5t-42 -41.5l-41 -41t-37 -38h-117l726 728h548l-15 -85h-434l-39 -218h384l-15 -87h-384l-45 -253h444zM584 247l62 354l-351 -354h289z" />
    <glyph glyph-name="Ccedilla" unicode="&#xc7;" horiz-adv-x="713" 
d="M707 204q-19 -42 -50 -81.5t-72.5 -70t-92 -50t-108.5 -22.5l-24 -45q37 -1 64 -11.5t44 -27.5t23.5 -38.5t2.5 -44.5q-5 -27 -19 -51t-37 -42t-54.5 -29t-71.5 -12q-29 -1 -67.5 4t-86.5 22l15 75q44 -8 73 -11t56 -3q40 0 65.5 15t31.5 33.5t-9 33.5t-56 15
q-14 0 -34.5 -2.5t-49.5 -8.5l11 59l40 75q-61 12 -105 44t-70 80t-33.5 110t5.5 134q15 83 52 155t91 125.5t123 84t148 30.5q66 0 114.5 -21.5t81 -55t48 -75t14.5 -81.5h-103q-2 28 -14 55t-33.5 47t-52.5 32.5t-70 12.5q-57 0 -106.5 -25t-88.5 -67t-65 -98t-37 -119
q-11 -61 -5 -113.5t29.5 -91.5t63.5 -61t98 -22q37 0 70 10.5t61 29.5t50.5 44t38.5 54h101z" />
    <glyph glyph-name="Egrave" unicode="&#xc8;" horiz-adv-x="618" 
d="M407 1008l187 -226l-55 -54h161l-15 -85h-434l-39 -218h384l-15 -87h-384l-45 -253h444l-14 -85h-546l128 728h363l-202 209z" />
    <glyph glyph-name="Eacute" unicode="&#xc9;" horiz-adv-x="618" 
d="M582 0h-546l128 728h536l-15 -85h-434l-39 -218h384l-15 -87h-384l-45 -253h444zM641 974l-316 -232l-38 60l298 243z" />
    <glyph glyph-name="Ecircumflex" unicode="&#xca;" horiz-adv-x="618" 
d="M582 0h-546l128 728h536l-15 -85h-434l-39 -218h384l-15 -87h-384l-45 -253h444zM449 1005h73l156 -232h-110l-100 139q-35 -34 -75 -71t-72 -68h-110z" />
    <glyph glyph-name="Edieresis" unicode="&#xcb;" horiz-adv-x="618" 
d="M582 0h-546l128 728h536l-15 -85h-434l-39 -218h384l-15 -87h-384l-45 -253h444zM401 866q-2 -13 -9.5 -25.5t-19 -22t-25.5 -15.5t-29 -6q-29 0 -45.5 21.5t-11.5 47.5q2 13 9.5 25t18.5 21.5t24.5 15.5t28.5 6q31 0 47.5 -21t11.5 -47zM659 866q-2 -13 -9.5 -25.5
t-18.5 -22t-25 -15.5t-29 -6q-30 0 -46.5 21.5t-11.5 47.5q2 13 9.5 25t18.5 21.5t25 15.5t29 6q30 0 46.5 -21t11.5 -47z" />
    <glyph glyph-name="Igrave" unicode="&#xcc;" horiz-adv-x="173" 
d="M138 0h-102l128 728h102zM185 1008l187 -226l-61 -60l-208 215z" />
    <glyph glyph-name="Iacute" unicode="&#xcd;" horiz-adv-x="173" 
d="M138 0h-102l128 728h102zM420 974l-316 -232l-38 60l298 243z" />
    <glyph glyph-name="Icircumflex" unicode="&#xce;" horiz-adv-x="173" 
d="M138 0h-102l128 728h102zM227 1005h73l156 -232h-110l-100 139q-35 -34 -75 -71t-72 -68h-109z" />
    <glyph glyph-name="Idieresis" unicode="&#xcf;" horiz-adv-x="173" 
d="M138 0h-102l128 728h102zM180 866q-2 -13 -9.5 -25.5t-19 -22t-25.5 -15.5t-29 -6q-29 0 -45.5 21.5t-11.5 47.5q2 13 9.5 25t18.5 21.5t24.5 15.5t28.5 6q31 0 47.5 -21t11.5 -47zM438 866q-2 -13 -9.5 -25.5t-18.5 -22t-25 -15.5t-29 -6q-30 0 -46.5 21.5t-11.5 47.5
q2 13 9.5 25t18.5 21.5t25 15.5t29 6q30 0 46.5 -21t11.5 -47z" />
    <glyph glyph-name="Eth" unicode="&#xd0;" horiz-adv-x="683" 
d="M439 728q79 0 137 -25t93 -72t46 -114.5t-4 -152.5t-50.5 -152.5t-87.5 -114.5t-117.5 -72t-140.5 -25h-279l50 286h-72l16 93h72l62 349h275zM188 286l-36 -201h178q51 0 96.5 18.5t82.5 54t63 87.5t38 119q12 71 4.5 123.5t-32 87t-65 51.5t-93.5 17h-173l-47 -264h203
l-16 -93h-203z" />
    <glyph glyph-name="Ntilde" unicode="&#xd1;" 
d="M164 728h98l303 -548l97 548h102l-128 -728h-90l-311 557l-98 -557h-101zM708 970q3 -16 3 -38.5t-4 -45.5q-10 -56 -47 -90t-88 -34q-39 0 -63.5 19.5t-43 43t-35.5 43t-41 19.5q-37 0 -43 -42q-2 -12 1 -33t9 -50h-87q-7 48 -1 86q11 57 48 89.5t88 32.5q39 0 64 -19.5
t44 -43t35.5 -43t39.5 -19.5q14 0 23 11t14 31q3 14 2.5 35.5t-4.5 47.5h86z" />
    <glyph glyph-name="Ograve" unicode="&#xd2;" horiz-adv-x="761" 
d="M478 1008l187 -226l-50 -49q54 -18 92 -53.5t60 -84t27.5 -107.5t-5.5 -124q-14 -79 -49.5 -148.5t-89 -122t-123 -83t-151.5 -30.5q-81 0 -139.5 30.5t-93.5 83t-46 122.5t3 148q14 79 49.5 148.5t88.5 122t122.5 83t150.5 30.5q38 0 75 -8l-190 197zM391 66
q54 0 102.5 22t87.5 61.5t66.5 94t39.5 120.5t3.5 120.5t-34 94t-66 61.5t-94.5 22t-102 -22t-87 -61.5t-66 -94t-39 -120.5t-3.5 -120.5t33.5 -94t65.5 -61.5t93.5 -22z" />
    <glyph glyph-name="Oacute" unicode="&#xd3;" horiz-adv-x="761" 
d="M511 748q82 0 140.5 -30.5t94 -83t46.5 -122t-3 -148.5t-49.5 -148.5t-89 -122t-123 -83t-151.5 -30.5q-81 0 -139.5 30.5t-93.5 83t-46 122.5t3 148q14 79 49.5 148.5t88.5 122t122.5 83t150.5 30.5zM391 66q54 0 102.5 22t87.5 61.5t66.5 94t39.5 120.5t3.5 120.5
t-34 94t-66 61.5t-94.5 22t-102 -22t-87 -61.5t-66 -94t-39 -120.5t-3.5 -120.5t33.5 -94t65.5 -61.5t93.5 -22zM713 974l-316 -232l-38 60l298 243z" />
    <glyph glyph-name="Ocircumflex" unicode="&#xd4;" horiz-adv-x="761" 
d="M511 748q82 0 140.5 -30.5t94 -83t46.5 -122t-3 -148.5t-49.5 -148.5t-89 -122t-123 -83t-151.5 -30.5q-81 0 -139.5 30.5t-93.5 83t-46 122.5t3 148q14 79 49.5 148.5t88.5 122t122.5 83t150.5 30.5zM391 66q54 0 102.5 22t87.5 61.5t66.5 94t39.5 120.5t3.5 120.5
t-34 94t-66 61.5t-94.5 22t-102 -22t-87 -61.5t-66 -94t-39 -120.5t-3.5 -120.5t33.5 -94t65.5 -61.5t93.5 -22zM520 1005h73l156 -232h-110l-100 139q-35 -34 -75 -71t-72 -68h-110z" />
    <glyph glyph-name="Otilde" unicode="&#xd5;" horiz-adv-x="761" 
d="M511 748q82 0 140.5 -30.5t94 -83t46.5 -122t-3 -148.5t-49.5 -148.5t-89 -122t-123 -83t-151.5 -30.5q-81 0 -139.5 30.5t-93.5 83t-46 122.5t3 148q14 79 49.5 148.5t88.5 122t122.5 83t150.5 30.5zM391 66q54 0 102.5 22t87.5 61.5t66.5 94t39.5 120.5t3.5 120.5
t-34 94t-66 61.5t-94.5 22t-102 -22t-87 -61.5t-66 -94t-39 -120.5t-3.5 -120.5t33.5 -94t65.5 -61.5t93.5 -22zM753 970q3 -16 3 -38.5t-4 -45.5q-10 -56 -47 -90t-88 -34q-39 0 -63.5 19.5t-43 43t-35.5 43t-41 19.5q-37 0 -43 -42q-2 -12 1 -33t9 -50h-87q-7 48 -1 86
q11 57 48 89.5t88 32.5q39 0 64 -19.5t44 -43t35.5 -43t39.5 -19.5q14 0 23 11t14 31q3 14 2.5 35.5t-4.5 47.5h86z" />
    <glyph glyph-name="Odieresis" unicode="&#xd6;" horiz-adv-x="761" 
d="M511 748q82 0 140.5 -30.5t94 -83t46.5 -122t-3 -148.5t-49.5 -148.5t-89 -122t-123 -83t-151.5 -30.5q-81 0 -139.5 30.5t-93.5 83t-46 122.5t3 148q14 79 49.5 148.5t88.5 122t122.5 83t150.5 30.5zM391 66q54 0 102.5 22t87.5 61.5t66.5 94t39.5 120.5t3.5 120.5
t-34 94t-66 61.5t-94.5 22t-102 -22t-87 -61.5t-66 -94t-39 -120.5t-3.5 -120.5t33.5 -94t65.5 -61.5t93.5 -22zM473 866q-2 -13 -9.5 -25.5t-19 -22t-25.5 -15.5t-29 -6q-29 0 -45.5 21.5t-11.5 47.5q2 13 9.5 25t18.5 21.5t24.5 15.5t28.5 6q31 0 47.5 -21t11.5 -47z
M731 866q-2 -13 -9.5 -25.5t-18.5 -22t-25 -15.5t-29 -6q-30 0 -46.5 21.5t-11.5 47.5q2 13 9.5 25t18.5 21.5t25 15.5t29 6q30 0 46.5 -21t11.5 -47z" />
    <glyph glyph-name="multiply" unicode="&#xd7;" horiz-adv-x="590" 
d="M418 349l165 -191l-79 -65l-161 194l-232 -195l-49 69l228 189l-161 195l71 56l163 -190l227 190l61 -58z" />
    <glyph glyph-name="Oslash" unicode="&#xd8;" horiz-adv-x="761" 
d="M166 62q-49 54 -66 132.5t0 169.5q14 79 49.5 148.5t88.5 122t122.5 83t150.5 30.5q42 0 78.5 -8.5t67.5 -24.5l51 68h115l-95 -126q45 -54 60.5 -129.5t0.5 -163.5q-14 -79 -49.5 -148.5t-89 -122t-123 -83t-151.5 -30.5q-76 0 -135 28l-52 -70h-115zM202 364
q-12 -66 -4 -121t34 -94l366 487q-44 26 -102 26q-54 0 -102 -22t-87 -61.5t-66 -94t-39 -120.5zM391 66q54 0 102.5 22t87.5 61.5t66.5 94t39.5 120.5q21 125 -25 205l-362 -483q38 -20 91 -20z" />
    <glyph glyph-name="Ugrave" unicode="&#xd9;" 
d="M683 271q-25 -143 -117 -217t-234 -74t-208 74t-41 217l81 457h102l-81 -457q-17 -99 25.5 -152t136.5 -53t155 52t78 153l81 457h103zM434 1008l187 -226l-61 -60l-208 215z" />
    <glyph glyph-name="Uacute" unicode="&#xda;" 
d="M683 271q-25 -143 -117 -217t-234 -74t-208 74t-41 217l81 457h102l-81 -457q-17 -99 25.5 -152t136.5 -53t155 52t78 153l81 457h103zM668 974l-316 -232l-38 60l298 243z" />
    <glyph glyph-name="Ucircumflex" unicode="&#xdb;" 
d="M683 271q-25 -143 -117 -217t-234 -74t-208 74t-41 217l81 457h102l-81 -457q-17 -99 25.5 -152t136.5 -53t155 52t78 153l81 457h103zM476 1005h73l156 -232h-110l-100 139q-35 -34 -75 -71t-72 -68h-110z" />
    <glyph glyph-name="Udieresis" unicode="&#xdc;" 
d="M683 271q-25 -143 -117 -217t-234 -74t-208 74t-41 217l81 457h102l-81 -457q-17 -99 25.5 -152t136.5 -53t155 52t78 153l81 457h103zM428 866q-2 -13 -9.5 -25.5t-19 -22t-25.5 -15.5t-29 -6q-29 0 -45.5 21.5t-11.5 47.5q2 13 9.5 25t18.5 21.5t24.5 15.5t28.5 6
q31 0 47.5 -21t11.5 -47zM686 866q-2 -13 -9.5 -25.5t-18.5 -22t-25 -15.5t-29 -6q-30 0 -46.5 21.5t-11.5 47.5q2 13 9.5 25t18.5 21.5t25 15.5t29 6q30 0 46.5 -21t11.5 -47z" />
    <glyph glyph-name="Yacute" unicode="&#xdd;" horiz-adv-x="726" 
d="M311 0l50 288l-209 440h123l156 -342l276 342h123l-367 -441l-50 -287h-102zM696 974l-316 -232l-38 60l298 243z" />
    <glyph glyph-name="Thorn" unicode="&#xde;" horiz-adv-x="641" 
d="M266 728l-23 -130h207q63 0 108 -18t73 -49t37.5 -72.5t1.5 -88.5t-31.5 -88.5t-61 -72.5t-89.5 -49t-118 -18h-207l-25 -142h-102l128 728h102zM228 511l-50 -284h200q77 0 127.5 39.5t61.5 103.5q11 62 -26 101.5t-113 39.5h-200z" />
    <glyph glyph-name="germandbls" unicode="&#xdf;" horiz-adv-x="686" 
d="M259 393q75 -2 131 9.5t94.5 30.5t59 42t24.5 45q8 46 -26 76.5t-109 30.5q-87 -3 -145.5 -50t-74.5 -135l-77 -442h-100l77 438q23 130 110 199t224 72q66 0 112 -15t73 -40.5t36.5 -59.5t3.5 -71q-8 -44 -35.5 -82t-78.5 -67q78 -20 108 -67t18 -115
q-8 -44 -32.5 -82.5t-65 -67t-96 -45.5t-125.5 -17q-24 0 -49.5 4t-48 10.5t-42 15.5t-31.5 18l17 96q15 -12 35.5 -23.5t43 -20t46 -13.5t43.5 -5q44 0 80 11t62 29.5t41.5 41.5t19.5 47q11 58 -31.5 92t-139.5 37q-35 -7 -76.5 -11t-91.5 -5z" />
    <glyph glyph-name="agrave" unicode="&#xe0;" horiz-adv-x="607" 
d="M364 798l187 -226l-49 -48q72 -20 105.5 -74.5t17.5 -144.5l-37 -214q-63 -50 -137.5 -80.5t-155.5 -30.5q-55 0 -101 11.5t-77.5 34.5t-46 57.5t-6.5 81.5q8 48 34 83.5t63 58t83 34t95 11.5q55 1 102.5 -9.5t85.5 -30.5l2 14q9 53 -23 82t-102 29q-65 0 -131.5 -17.5
t-139.5 -61.5l18 105q55 31 122.5 51t147.5 20q14 0 26 -1t24 -3l-189 197zM163 165q-5 -24 5.5 -40.5t31.5 -27t50 -15.5t62 -5q50 0 95.5 12.5t85.5 33.5l17 94q-46 23 -91 33.5t-87 10.5q-33 0 -62 -6t-51.5 -18.5t-37 -30.5t-18.5 -41z" />
    <glyph glyph-name="aacute" unicode="&#xe1;" horiz-adv-x="607" 
d="M588 91q-63 -50 -137.5 -80.5t-155.5 -30.5q-55 0 -101 11.5t-77.5 34.5t-46 57.5t-6.5 81.5q8 48 34 83.5t63 58t83 34t95 11.5q55 1 102.5 -9.5t85.5 -30.5l2 14q9 53 -23 82t-102 29q-65 0 -131.5 -17.5t-139.5 -61.5l18 105q55 31 122.5 51t147.5 20q55 0 97.5 -14.5
t69.5 -43.5t37 -72t0 -99zM163 165q-5 -24 5.5 -40.5t31.5 -27t50 -15.5t62 -5q50 0 95.5 12.5t85.5 33.5l17 94q-46 23 -91 33.5t-87 10.5q-33 0 -62 -6t-51.5 -18.5t-37 -30.5t-18.5 -41zM599 764l-316 -232l-38 60l298 243z" />
    <glyph glyph-name="acircumflex" unicode="&#xe2;" horiz-adv-x="607" 
d="M588 91q-63 -50 -137.5 -80.5t-155.5 -30.5q-55 0 -101 11.5t-77.5 34.5t-46 57.5t-6.5 81.5q8 48 34 83.5t63 58t83 34t95 11.5q55 1 102.5 -9.5t85.5 -30.5l2 14q9 53 -23 82t-102 29q-65 0 -131.5 -17.5t-139.5 -61.5l18 105q55 31 122.5 51t147.5 20q55 0 97.5 -14.5
t69.5 -43.5t37 -72t0 -99zM163 165q-5 -24 5.5 -40.5t31.5 -27t50 -15.5t62 -5q50 0 95.5 12.5t85.5 33.5l17 94q-46 23 -91 33.5t-87 10.5q-33 0 -62 -6t-51.5 -18.5t-37 -30.5t-18.5 -41zM407 795h73l156 -232h-110l-100 139q-35 -34 -75 -71t-72 -68h-110z" />
    <glyph glyph-name="atilde" unicode="&#xe3;" horiz-adv-x="607" 
d="M588 91q-63 -50 -137.5 -80.5t-155.5 -30.5q-55 0 -101 11.5t-77.5 34.5t-46 57.5t-6.5 81.5q8 48 34 83.5t63 58t83 34t95 11.5q55 1 102.5 -9.5t85.5 -30.5l2 14q9 53 -23 82t-102 29q-65 0 -131.5 -17.5t-139.5 -61.5l18 105q55 31 122.5 51t147.5 20q55 0 97.5 -14.5
t69.5 -43.5t37 -72t0 -99zM163 165q-5 -24 5.5 -40.5t31.5 -27t50 -15.5t62 -5q50 0 95.5 12.5t85.5 33.5l17 94q-46 23 -91 33.5t-87 10.5q-33 0 -62 -6t-51.5 -18.5t-37 -30.5t-18.5 -41zM639 760q3 -16 3 -38.5t-4 -45.5q-10 -56 -47 -90t-88 -34q-39 0 -63.5 19.5
t-43 43t-35.5 43t-41 19.5q-37 0 -43 -42q-2 -12 1 -33t9 -50h-87q-7 48 -1 86q11 57 48 89.5t88 32.5q39 0 64 -19.5t44 -43t35.5 -43t39.5 -19.5q14 0 23 11t14 31q3 14 2.5 35.5t-4.5 47.5h86z" />
    <glyph glyph-name="adieresis" unicode="&#xe4;" horiz-adv-x="607" 
d="M588 91q-63 -50 -137.5 -80.5t-155.5 -30.5q-55 0 -101 11.5t-77.5 34.5t-46 57.5t-6.5 81.5q8 48 34 83.5t63 58t83 34t95 11.5q55 1 102.5 -9.5t85.5 -30.5l2 14q9 53 -23 82t-102 29q-65 0 -131.5 -17.5t-139.5 -61.5l18 105q55 31 122.5 51t147.5 20q55 0 97.5 -14.5
t69.5 -43.5t37 -72t0 -99zM163 165q-5 -24 5.5 -40.5t31.5 -27t50 -15.5t62 -5q50 0 95.5 12.5t85.5 33.5l17 94q-46 23 -91 33.5t-87 10.5q-33 0 -62 -6t-51.5 -18.5t-37 -30.5t-18.5 -41zM369 656q-2 -13 -9.5 -25.5t-19 -22t-25.5 -15.5t-29 -6q-29 0 -45.5 21.5
t-11.5 47.5q2 13 9.5 25t18.5 21.5t24.5 15.5t28.5 6q31 0 47.5 -21t11.5 -47zM627 656q-2 -13 -9.5 -25.5t-18.5 -22t-25 -15.5t-29 -6q-30 0 -46.5 21.5t-11.5 47.5q2 13 9.5 25t18.5 21.5t25 15.5t29 6q30 0 46.5 -21t11.5 -47z" />
    <glyph glyph-name="aring" unicode="&#xe5;" horiz-adv-x="607" 
d="M462 850q34 0 61.5 -12.5t46 -34.5t26 -50.5t1.5 -61.5q-5 -31 -21 -58t-39 -48t-51.5 -34.5t-58.5 -16.5q53 -1 94.5 -16t67.5 -44t36 -71.5t0 -97.5l-37 -214q-63 -50 -137.5 -80.5t-155.5 -30.5q-55 0 -101 11.5t-77.5 34.5t-46 57.5t-6.5 81.5q8 48 34 83.5t63 58
t83 34t95 11.5q55 1 102.5 -9.5t85.5 -30.5l2 14q9 53 -23 82t-102 29q-65 0 -131.5 -17.5t-139.5 -61.5l18 105q51 28 111.5 47.5t131.5 22.5q-30 2 -55 15.5t-42 34.5t-24 48.5t-2 59.5q6 33 24 61.5t44 50.5t58 34.5t65 12.5zM163 165q-5 -24 5.5 -40.5t31.5 -27
t50 -15.5t62 -5q50 0 95.5 12.5t85.5 33.5l17 94q-46 23 -91 33.5t-87 10.5q-33 0 -62 -6t-51.5 -18.5t-37 -30.5t-18.5 -41zM421 613q16 0 31 6.5t28 17t21.5 24.5t11.5 30q6 31 -13.5 54.5t-51.5 23.5q-16 0 -31.5 -6.5t-28 -17t-21.5 -25t-12 -29.5q-5 -32 14.5 -55
t51.5 -23z" />
    <glyph glyph-name="ae" unicode="&#xe6;" horiz-adv-x="1082" 
d="M619 187q10 -54 58 -82t114 -28q53 0 123 24.5t162 86.5l-19 -106q-66 -49 -137 -75.5t-151 -26.5q-69 0 -123 23.5t-87 66.5q-59 -42 -125.5 -66t-138.5 -24q-55 0 -101 11.5t-77.5 34.5t-46 57.5t-6.5 81.5q8 48 34 83.5t63 58t83 34t95 11.5q55 1 102.5 -9.5
t85.5 -30.5l2 14q9 53 -23 82t-102 29q-65 0 -131.5 -17.5t-139.5 -61.5l18 105q55 31 122.5 51t147.5 20q72 0 122 -25t72 -75q48 47 113 73.5t139 26.5q65 0 113 -18t77.5 -50.5t40.5 -77t2 -97.5zM163 165q-5 -24 5.5 -40.5t31.5 -27t50 -15.5t62 -5q50 0 95.5 12.5
t85.5 33.5l17 94q-46 23 -91 33.5t-87 10.5q-33 0 -62 -6t-51.5 -18.5t-37 -30.5t-18.5 -41zM855 437q-39 0 -76 -11t-68 -32t-53.5 -51t-32.5 -67l373 79q-5 33 -39.5 57.5t-103.5 24.5z" />
    <glyph glyph-name="ccedilla" unicode="&#xe7;" horiz-adv-x="607" 
d="M179 257q-8 -42 0 -75.5t28 -57t51.5 -35.5t71.5 -12q26 0 55 4t62 15.5t71.5 31t84.5 50.5l-19 -106q-57 -43 -114 -64t-123 -26l-21 -40q37 -1 64 -11.5t44 -27.5t23.5 -38.5t2.5 -44.5q-5 -27 -19 -51t-37 -42t-54.5 -29t-71.5 -12q-29 -1 -67 4t-86 22l14 75
q44 -8 73 -11t56 -3q40 0 65.5 15t32 33.5t-8.5 33.5t-56 15q-14 0 -34.5 -2.5t-49.5 -8.5l10 59l36 66q-51 7 -90 29.5t-63 58t-32 82.5t2 103q11 61 40 112t72 87.5t97.5 57t116.5 20.5q80 0 137.5 -21.5t105.5 -70.5l-18 -106q-35 31 -66.5 50.5t-61 30.5t-56.5 15.5
t-53 4.5q-40 0 -76 -12.5t-64.5 -36t-48 -56.5t-26.5 -75z" />
    <glyph glyph-name="egrave" unicode="&#xe8;" horiz-adv-x="643" 
d="M383 798l187 -226l-51 -50q82 -23 118 -84.5t22 -146.5l-481 -104q10 -54 58 -82t114 -28q53 0 123 24.5t162 86.5l-19 -106q-66 -49 -137 -75.5t-151 -26.5q-63 0 -113.5 20t-84 56.5t-47.5 87.5t-3 113q11 61 42.5 112t77.5 87.5t104 57t122 20.5q35 0 67 -6l-192 199z
M414 437q-39 0 -76 -11t-68 -32t-53.5 -51t-32.5 -67l373 79q-5 33 -39.5 57.5t-103.5 24.5z" />
    <glyph glyph-name="eacute" unicode="&#xe9;" horiz-adv-x="643" 
d="M178 187q10 -54 58 -82t114 -28q53 0 123 24.5t162 86.5l-19 -106q-66 -49 -137 -75.5t-151 -26.5q-63 0 -113.5 20t-84 56.5t-47.5 87.5t-3 113q11 61 42.5 112t77.5 87.5t104 57t122 20.5q65 0 113 -18t77.5 -50.5t40.5 -77t2 -97.5zM414 437q-39 0 -76 -11t-68 -32
t-53.5 -51t-32.5 -67l373 79q-5 33 -39.5 57.5t-103.5 24.5zM617 764l-316 -232l-38 60l298 243z" />
    <glyph glyph-name="ecircumflex" unicode="&#xea;" horiz-adv-x="643" 
d="M178 187q10 -54 58 -82t114 -28q53 0 123 24.5t162 86.5l-19 -106q-66 -49 -137 -75.5t-151 -26.5q-63 0 -113.5 20t-84 56.5t-47.5 87.5t-3 113q11 61 42.5 112t77.5 87.5t104 57t122 20.5q65 0 113 -18t77.5 -50.5t40.5 -77t2 -97.5zM414 437q-39 0 -76 -11t-68 -32
t-53.5 -51t-32.5 -67l373 79q-5 33 -39.5 57.5t-103.5 24.5zM441 795h73l156 -232h-110l-100 139q-35 -34 -75 -71t-72 -68h-110z" />
    <glyph glyph-name="edieresis" unicode="&#xeb;" horiz-adv-x="643" 
d="M178 187q10 -54 58 -82t114 -28q53 0 123 24.5t162 86.5l-19 -106q-66 -49 -137 -75.5t-151 -26.5q-63 0 -113.5 20t-84 56.5t-47.5 87.5t-3 113q11 61 42.5 112t77.5 87.5t104 57t122 20.5q65 0 113 -18t77.5 -50.5t40.5 -77t2 -97.5zM414 437q-39 0 -76 -11t-68 -32
t-53.5 -51t-32.5 -67l373 79q-5 33 -39.5 57.5t-103.5 24.5zM388 656q-2 -13 -9.5 -25.5t-19 -22t-25.5 -15.5t-29 -6q-29 0 -45.5 21.5t-11.5 47.5q2 13 9.5 25t18.5 21.5t24.5 15.5t28.5 6q31 0 47.5 -21t11.5 -47zM646 656q-2 -13 -9.5 -25.5t-18.5 -22t-25 -15.5t-29 -6
q-30 0 -46.5 21.5t-11.5 47.5q2 13 9.5 25t18.5 21.5t25 15.5t29 6q30 0 46.5 -21t11.5 -47z" />
    <glyph glyph-name="igrave" unicode="&#xec;" horiz-adv-x="207" 
d="M146 514h99l-90 -514h-99zM165 798l187 -226l-61 -60l-208 215z" />
    <glyph glyph-name="iacute" unicode="&#xed;" horiz-adv-x="207" 
d="M146 514h99l-90 -514h-99zM399 764l-316 -232l-38 60l298 243z" />
    <glyph glyph-name="icircumflex" unicode="&#xee;" horiz-adv-x="207" 
d="M146 514h99l-90 -514h-99zM207 795h73l156 -232h-110l-100 139q-35 -34 -75 -71t-72 -68h-109z" />
    <glyph glyph-name="idieresis" unicode="&#xef;" horiz-adv-x="207" 
d="M146 514h99l-90 -514h-99zM159 656q-2 -13 -9.5 -25.5t-19 -22t-25.5 -15.5t-29 -6q-29 0 -45.5 21.5t-11.5 47.5q2 13 9.5 25t18.5 21.5t24.5 15.5t28.5 6q31 0 47.5 -21t11.5 -47zM417 656q-2 -13 -9.5 -25.5t-18.5 -22t-25 -15.5t-29 -6q-30 0 -46.5 21.5t-11.5 47.5
q2 13 9.5 25t18.5 21.5t25 15.5t29 6q30 0 46.5 -21t11.5 -47z" />
    <glyph glyph-name="eth" unicode="&#xf0;" horiz-adv-x="661" 
d="M674 276q-11 -60 -40.5 -114t-74.5 -94.5t-104.5 -64t-128.5 -23.5q-68 0 -118.5 19.5t-82 57.5t-42.5 93t1 126q12 65 42 116.5t74 87.5t99.5 55t118.5 19q54 0 86.5 -12.5t52.5 -30.5q-12 34 -39 66t-72 55l-77 -75l-74 25l77 78q-35 11 -75.5 17t-85.5 8l15 82
q66 -3 116 -12.5t95 -25.5l97 98l74 -33l-100 -97q111 -57 151.5 -164t14.5 -257zM341 66q46 0 85 17t69 45.5t49.5 66.5t27.5 81q7 43 0 78.5t-27.5 61.5t-54 40.5t-77.5 14.5q-91 0 -151.5 -52t-77.5 -143q-8 -42 -3 -80.5t23.5 -67t52 -45.5t84.5 -17z" />
    <glyph glyph-name="ntilde" unicode="&#xf1;" horiz-adv-x="607" 
d="M522 285q12 69 -20 110.5t-98 41.5q-51 0 -105.5 -12.5t-96.5 -34.5l-68 -390h-99l74 423q31 25 69 45.5t78.5 35t82.5 22.5t82 8q55 0 97 -18t68.5 -50.5t36 -78.5t-0.5 -102l-50 -285h-100zM639 760q3 -16 3 -38.5t-4 -45.5q-10 -56 -47 -90t-88 -34q-39 0 -63.5 19.5
t-43 43t-35.5 43t-41 19.5q-37 0 -43 -42q-2 -12 1 -33t9 -50h-87q-7 48 -1 86q11 57 48 89.5t88 32.5q39 0 64 -19.5t44 -43t35.5 -43t39.5 -19.5q14 0 23 11t14 31q3 14 2.5 35.5t-4.5 47.5h86z" />
    <glyph glyph-name="ograve" unicode="&#xf2;" horiz-adv-x="637" 
d="M379 798l187 -226l-56 -55q39 -14 68 -39t47 -58.5t24 -75t-2 -88.5q-11 -60 -41.5 -110.5t-74.5 -87.5t-100 -57.5t-118 -20.5t-110 20.5t-79 57.5t-43 87.5t-1 110.5q10 60 40 111t74.5 88t99.5 58t117 21q45 0 84 -12l-198 205zM179 256q-7 -39 0.5 -72t27.5 -57
t51.5 -37t71.5 -13q41 0 77.5 13t65 37t48 57t26.5 72q7 40 -1 73t-28 57t-51.5 37.5t-72.5 13.5q-40 0 -76 -13.5t-64.5 -37.5t-48 -57t-26.5 -73z" />
    <glyph glyph-name="oacute" unicode="&#xf3;" horiz-adv-x="637" 
d="M80 256q10 60 40 111t74.5 88t99.5 58t117 21t110.5 -21t80 -58t43.5 -88t2 -111q-11 -60 -41.5 -110.5t-74.5 -87.5t-100 -57.5t-118 -20.5t-110 20.5t-79 57.5t-43 87.5t-1 110.5zM179 256q-7 -39 0.5 -72t27.5 -57t51.5 -37t71.5 -13q41 0 77.5 13t65 37t48 57
t26.5 72q7 40 -1 73t-28 57t-51.5 37.5t-72.5 13.5q-40 0 -76 -13.5t-64.5 -37.5t-48 -57t-26.5 -73zM614 764l-316 -232l-38 60l298 243z" />
    <glyph glyph-name="ocircumflex" unicode="&#xf4;" horiz-adv-x="637" 
d="M80 256q10 60 40 111t74.5 88t99.5 58t117 21t110.5 -21t80 -58t43.5 -88t2 -111q-11 -60 -41.5 -110.5t-74.5 -87.5t-100 -57.5t-118 -20.5t-110 20.5t-79 57.5t-43 87.5t-1 110.5zM179 256q-7 -39 0.5 -72t27.5 -57t51.5 -37t71.5 -13q41 0 77.5 13t65 37t48 57
t26.5 72q7 40 -1 73t-28 57t-51.5 37.5t-72.5 13.5q-40 0 -76 -13.5t-64.5 -37.5t-48 -57t-26.5 -73zM422 795h73l156 -232h-110l-100 139q-35 -34 -75 -71t-72 -68h-110z" />
    <glyph glyph-name="otilde" unicode="&#xf5;" horiz-adv-x="637" 
d="M80 256q10 60 40 111t74.5 88t99.5 58t117 21t110.5 -21t80 -58t43.5 -88t2 -111q-11 -60 -41.5 -110.5t-74.5 -87.5t-100 -57.5t-118 -20.5t-110 20.5t-79 57.5t-43 87.5t-1 110.5zM179 256q-7 -39 0.5 -72t27.5 -57t51.5 -37t71.5 -13q41 0 77.5 13t65 37t48 57
t26.5 72q7 40 -1 73t-28 57t-51.5 37.5t-72.5 13.5q-40 0 -76 -13.5t-64.5 -37.5t-48 -57t-26.5 -73zM654 760q3 -16 3 -38.5t-4 -45.5q-10 -56 -47 -90t-88 -34q-39 0 -63.5 19.5t-43 43t-35.5 43t-41 19.5q-37 0 -43 -42q-2 -12 1 -33t9 -50h-87q-7 48 -1 86
q11 57 48 89.5t88 32.5q39 0 64 -19.5t44 -43t35.5 -43t39.5 -19.5q14 0 23 11t14 31q3 14 2.5 35.5t-4.5 47.5h86z" />
    <glyph glyph-name="odieresis" unicode="&#xf6;" horiz-adv-x="637" 
d="M80 256q10 60 40 111t74.5 88t99.5 58t117 21t110.5 -21t80 -58t43.5 -88t2 -111q-11 -60 -41.5 -110.5t-74.5 -87.5t-100 -57.5t-118 -20.5t-110 20.5t-79 57.5t-43 87.5t-1 110.5zM179 256q-7 -39 0.5 -72t27.5 -57t51.5 -37t71.5 -13q41 0 77.5 13t65 37t48 57
t26.5 72q7 40 -1 73t-28 57t-51.5 37.5t-72.5 13.5q-40 0 -76 -13.5t-64.5 -37.5t-48 -57t-26.5 -73zM374 656q-2 -13 -9.5 -25.5t-19 -22t-25.5 -15.5t-29 -6q-29 0 -45.5 21.5t-11.5 47.5q2 13 9.5 25t18.5 21.5t24.5 15.5t28.5 6q31 0 47.5 -21t11.5 -47zM632 656
q-2 -13 -9.5 -25.5t-18.5 -22t-25 -15.5t-29 -6q-30 0 -46.5 21.5t-11.5 47.5q2 13 9.5 25t18.5 21.5t25 15.5t29 6q30 0 46.5 -21t11.5 -47z" />
    <glyph glyph-name="divide" unicode="&#xf7;" horiz-adv-x="628" 
d="M88 308l15 88h555l-15 -88h-555zM409 160q-5 -26 -28.5 -47.5t-53.5 -21.5q-15 0 -26.5 6t-19.5 15.5t-11 22t-1 25.5t9.5 25t19 21.5t25 15t28.5 5.5q30 0 46.5 -20.5t11.5 -46.5zM477 546q-2 -13 -9.5 -25.5t-18.5 -22t-25 -15.5t-29 -6q-29 0 -46 21.5t-12 47.5
q2 13 9.5 25t19 21.5t25 15.5t28.5 6q30 0 46.5 -21t11.5 -47z" />
    <glyph glyph-name="oslash" unicode="&#xf8;" horiz-adv-x="637" 
d="M80 256q10 60 40 111t74.5 88t99.5 58t117 21q69 0 125 -28l62 68h115l-111 -121q32 -37 44 -87t1 -110t-41.5 -110.5t-74.5 -87.5t-100 -57.5t-118 -20.5q-35 0 -65 6.5t-56 18.5l-55 -61h-115l103 113q-32 37 -44 87.5t-1 111.5zM179 256q-7 -35 -1.5 -65t21.5 -53
l262 287q-14 5 -31 8.5t-36 3.5q-40 0 -76 -13.5t-64.5 -37.5t-48 -57t-26.5 -73zM547 256q6 34 0.5 63.5t-19.5 52.5l-261 -285q27 -10 63 -10q41 0 77.5 13t65 37t48 57t26.5 72z" />
    <glyph glyph-name="ugrave" unicode="&#xf9;" horiz-adv-x="617" 
d="M174 229q-14 -75 23.5 -113.5t114.5 -38.5q51 0 98.5 7t89.5 21l72 409h100l-78 -442q-26 -20 -60 -36.5t-73 -29t-81.5 -19.5t-84.5 -7q-60 0 -105.5 16.5t-74.5 48.5t-40 78t0 106l50 285h99zM369 798l187 -226l-61 -60l-208 215z" />
    <glyph glyph-name="uacute" unicode="&#xfa;" horiz-adv-x="617" 
d="M174 229q-14 -75 23.5 -113.5t114.5 -38.5q51 0 98.5 7t89.5 21l72 409h100l-78 -442q-26 -20 -60 -36.5t-73 -29t-81.5 -19.5t-84.5 -7q-60 0 -105.5 16.5t-74.5 48.5t-40 78t0 106l50 285h99zM604 764l-316 -232l-38 60l298 243z" />
    <glyph glyph-name="ucircumflex" unicode="&#xfb;" horiz-adv-x="617" 
d="M174 229q-14 -75 23.5 -113.5t114.5 -38.5q51 0 98.5 7t89.5 21l72 409h100l-78 -442q-26 -20 -60 -36.5t-73 -29t-81.5 -19.5t-84.5 -7q-60 0 -105.5 16.5t-74.5 48.5t-40 78t0 106l50 285h99zM412 795h73l156 -232h-110l-100 139q-35 -34 -75 -71t-72 -68h-110z" />
    <glyph glyph-name="udieresis" unicode="&#xfc;" horiz-adv-x="617" 
d="M174 229q-14 -75 23.5 -113.5t114.5 -38.5q51 0 98.5 7t89.5 21l72 409h100l-78 -442q-26 -20 -60 -36.5t-73 -29t-81.5 -19.5t-84.5 -7q-60 0 -105.5 16.5t-74.5 48.5t-40 78t0 106l50 285h99zM364 656q-2 -13 -9.5 -25.5t-19 -22t-25.5 -15.5t-29 -6q-29 0 -45.5 21.5
t-11.5 47.5q2 13 9.5 25t18.5 21.5t24.5 15.5t28.5 6q31 0 47.5 -21t11.5 -47zM622 656q-2 -13 -9.5 -25.5t-18.5 -22t-25 -15.5t-29 -6q-30 0 -46.5 21.5t-11.5 47.5q2 13 9.5 25t18.5 21.5t25 15.5t29 6q30 0 46.5 -21t11.5 -47z" />
    <glyph glyph-name="yacute" unicode="&#xfd;" horiz-adv-x="602" 
d="M474 37q-41 -17 -87 -27t-98 -10q-122 0 -177 64t-34 184l47 266h99l-47 -266q-13 -75 19.5 -113.5t108.5 -38.5q55 0 99.5 9t86.5 29l67 380h100l-86 -489q-10 -57 -38.5 -99.5t-69 -71.5t-91.5 -43.5t-106 -14.5q-80 0 -145 22.5t-103 63.5l17 99q59 -49 121 -69
t126 -20q33 0 64.5 7.5t57 23t43 39t22.5 55.5zM597 764l-316 -232l-38 60l298 243z" />
    <glyph glyph-name="thorn" unicode="&#xfe;" horiz-adv-x="621" 
d="M168 757h99l-47 -265q42 20 87.5 31t93.5 11q71 0 122.5 -21.5t82 -59t41 -88.5t0.5 -109q-11 -58 -39 -108.5t-72 -87.5t-103 -58.5t-130 -21.5q-48 0 -89.5 11t-76.5 31l-46 -265h-98zM547 256q6 37 -0.5 70t-26.5 57.5t-54 39t-82 14.5q-49 0 -95.5 -12.5t-86.5 -33.5
l-47 -268q32 -21 74 -33.5t91 -12.5q48 0 87 14t68 38.5t47 57t25 69.5z" />
    <glyph glyph-name="ydieresis" unicode="&#xff;" horiz-adv-x="602" 
d="M474 37q-41 -17 -87 -27t-98 -10q-122 0 -177 64t-34 184l47 266h99l-47 -266q-13 -75 19.5 -113.5t108.5 -38.5q55 0 99.5 9t86.5 29l67 380h100l-86 -489q-10 -57 -38.5 -99.5t-69 -71.5t-91.5 -43.5t-106 -14.5q-80 0 -145 22.5t-103 63.5l17 99q59 -49 121 -69
t126 -20q33 0 64.5 7.5t57 23t43 39t22.5 55.5zM356 656q-2 -13 -9.5 -25.5t-19 -22t-25.5 -15.5t-29 -6q-29 0 -45.5 21.5t-11.5 47.5q2 13 9.5 25t18.5 21.5t24.5 15.5t28.5 6q31 0 47.5 -21t11.5 -47zM614 656q-2 -13 -9.5 -25.5t-18.5 -22t-25 -15.5t-29 -6
q-30 0 -46.5 21.5t-11.5 47.5q2 13 9.5 25t18.5 21.5t25 15.5t29 6q30 0 46.5 -21t11.5 -47z" />
    <glyph glyph-name="Amacron" unicode="&#x100;" horiz-adv-x="786" 
d="M470 728h101l187 -728h-113l-40 160h-374q-11 -19 -23.5 -39.5t-25 -41.5t-25 -41t-22.5 -38h-108zM283 247h300q-12 48 -22.5 89t-20.5 81t-21 83.5t-24 96.5zM324 807l15 84h419l-15 -84h-419z" />
    <glyph glyph-name="amacron" unicode="&#x101;" horiz-adv-x="607" 
d="M588 91q-63 -50 -137.5 -80.5t-155.5 -30.5q-55 0 -101 11.5t-77.5 34.5t-46 57.5t-6.5 81.5q8 48 34 83.5t63 58t83 34t95 11.5q55 1 102.5 -9.5t85.5 -30.5l2 14q9 53 -23 82t-102 29q-65 0 -131.5 -17.5t-139.5 -61.5l18 105q55 31 122.5 51t147.5 20q55 0 97.5 -14.5
t69.5 -43.5t37 -72t0 -99zM163 165q-5 -24 5.5 -40.5t31.5 -27t50 -15.5t62 -5q50 0 95.5 12.5t85.5 33.5l17 94q-46 23 -91 33.5t-87 10.5q-33 0 -62 -6t-51.5 -18.5t-37 -30.5t-18.5 -41zM198 597l15 84h419l-15 -84h-419z" />
    <glyph glyph-name="Abreve" unicode="&#x102;" horiz-adv-x="786" 
d="M470 728h101l187 -728h-113l-40 160h-374q-11 -19 -23.5 -39.5t-25 -41.5t-25 -41t-22.5 -38h-108zM283 247h300q-12 48 -22.5 89t-20.5 81t-21 83.5t-24 96.5zM782 986q5 -19 4 -40t-6 -40q-15 -71 -78.5 -109.5t-178.5 -38.5q-109 0 -159.5 38t-40.5 107q2 17 9.5 38
t18.5 45h95q-11 -25 -17 -43.5t-7 -29.5q-5 -69 116 -69q66 0 101 18t46 53q7 22 4 71h93z" />
    <glyph glyph-name="abreve" unicode="&#x103;" horiz-adv-x="607" 
d="M588 91q-63 -50 -137.5 -80.5t-155.5 -30.5q-55 0 -101 11.5t-77.5 34.5t-46 57.5t-6.5 81.5q8 48 34 83.5t63 58t83 34t95 11.5q55 1 102.5 -9.5t85.5 -30.5l2 14q9 53 -23 82t-102 29q-65 0 -131.5 -17.5t-139.5 -61.5l18 105q55 31 122.5 51t147.5 20q55 0 97.5 -14.5
t69.5 -43.5t37 -72t0 -99zM163 165q-5 -24 5.5 -40.5t31.5 -27t50 -15.5t62 -5q50 0 95.5 12.5t85.5 33.5l17 94q-46 23 -91 33.5t-87 10.5q-33 0 -62 -6t-51.5 -18.5t-37 -30.5t-18.5 -41zM665 776q5 -19 4 -40t-6 -40q-15 -71 -78.5 -109.5t-178.5 -38.5q-109 0 -160 38
t-40 107q2 17 9.5 38t18.5 45h95q-11 -25 -17 -43.5t-7 -29.5q-5 -69 116 -69q66 0 101 18t46 53q7 22 4 71h93z" />
    <glyph glyph-name="Aogonek" unicode="&#x104;" horiz-adv-x="786" 
d="M477 -190q-4 -20 12.5 -33t47.5 -18q28 -6 70.5 -1t98.5 24l-14 -80q-51 -16 -92 -23t-75 -6q-39 1 -68.5 10t-49 26t-27.5 40.5t-3 52.5q8 43 34.5 69t64 45.5t82 38t88.5 45.5h-1l-40 160h-374q-11 -19 -23.5 -39.5t-25 -41.5t-25 -41t-22.5 -38h-108l443 728h101
l187 -728h-1q-51 -47 -99.5 -74t-87.5 -45t-64 -32.5t-29 -38.5zM283 247h300q-12 48 -22.5 89t-20.5 81t-21 83.5t-24 96.5z" />
    <glyph glyph-name="aogonek" unicode="&#x105;" horiz-adv-x="607" 
d="M257 -124q-4 -20 12.5 -33t47.5 -18q27 -6 69.5 -1t99.5 24l-14 -80q-98 -31 -168 -29q-38 1 -68 10t-49.5 26t-27.5 40.5t-3 52.5q8 43 33.5 68.5t62.5 45.5q-47 4 -85 17.5t-63.5 36t-36.5 55t-3 74.5q8 48 34 83.5t63 58t83 34t95 11.5q55 1 102.5 -9.5t85.5 -30.5
l2 14q9 53 -23 82t-102 29q-65 0 -131.5 -17.5t-139.5 -61.5l18 105q55 31 122.5 51t147.5 20q55 0 97.5 -14.5t69.5 -43.5t37 -72t0 -99l-37 -214q-23 -17 -45.5 -32t-47.5 -28q-45 -35 -86.5 -55.5t-74 -35.5t-53 -29t-24.5 -35zM163 165q-5 -24 5.5 -40.5t31.5 -27
t50 -15.5t62 -5q50 0 95.5 12.5t85.5 33.5l17 94q-46 23 -91 33.5t-87 10.5q-33 0 -62 -6t-51.5 -18.5t-37 -30.5t-18.5 -41z" />
    <glyph glyph-name="Cacute" unicode="&#x106;" horiz-adv-x="713" 
d="M707 204q-20 -43 -52.5 -83.5t-75.5 -71.5t-95.5 -50t-113.5 -19q-78 0 -135.5 28t-92.5 77.5t-46.5 118.5t2.5 150q15 83 52 155t91 125.5t123 84t148 30.5q66 0 114.5 -21.5t81 -55t48 -75t14.5 -81.5h-103q-2 28 -14 55t-33.5 47t-52.5 32.5t-70 12.5
q-57 0 -106.5 -25t-88.5 -67t-65 -98t-37 -119q-11 -61 -5 -113.5t29.5 -91.5t63.5 -61t98 -22q37 0 70 10.5t61 29.5t50.5 44t38.5 54h101zM750 974l-316 -232l-38 60l298 243z" />
    <glyph glyph-name="cacute" unicode="&#x107;" horiz-adv-x="607" 
d="M179 257q-8 -42 0 -75.5t28 -57t51.5 -35.5t71.5 -12q26 0 55 4t62 15.5t71.5 31t84.5 50.5l-19 -106q-66 -49 -131 -70.5t-145 -21.5q-62 0 -109.5 20.5t-77.5 57t-41 87.5t0 112t40 112t72 87.5t97.5 57t116.5 20.5q80 0 137.5 -21.5t105.5 -70.5l-18 -106
q-35 31 -66.5 50.5t-61 30.5t-56.5 15.5t-53 4.5q-40 0 -76 -12.5t-64.5 -36t-48 -56.5t-26.5 -75zM643 764l-316 -232l-38 60l298 243z" />
    <glyph glyph-name="Ccircumflex" unicode="&#x108;" horiz-adv-x="713" 
d="M707 204q-20 -43 -52.5 -83.5t-75.5 -71.5t-95.5 -50t-113.5 -19q-78 0 -135.5 28t-92.5 77.5t-46.5 118.5t2.5 150q15 83 52 155t91 125.5t123 84t148 30.5q66 0 114.5 -21.5t81 -55t48 -75t14.5 -81.5h-103q-2 28 -14 55t-33.5 47t-52.5 32.5t-70 12.5
q-57 0 -106.5 -25t-88.5 -67t-65 -98t-37 -119q-11 -61 -5 -113.5t29.5 -91.5t63.5 -61t98 -22q37 0 70 10.5t61 29.5t50.5 44t38.5 54h101zM525 1001h73l156 -232h-110l-99 139q-35 -34 -75.5 -71t-72.5 -68h-110z" />
    <glyph glyph-name="ccircumflex" unicode="&#x109;" horiz-adv-x="607" 
d="M179 257q-8 -42 0 -75.5t28 -57t51.5 -35.5t71.5 -12q26 0 55 4t62 15.5t71.5 31t84.5 50.5l-19 -106q-66 -49 -131 -70.5t-145 -21.5q-62 0 -109.5 20.5t-77.5 57t-41 87.5t0 112t40 112t72 87.5t97.5 57t116.5 20.5q80 0 137.5 -21.5t105.5 -70.5l-18 -106
q-35 31 -66.5 50.5t-61 30.5t-56.5 15.5t-53 4.5q-40 0 -76 -12.5t-64.5 -36t-48 -56.5t-26.5 -75zM431 795h73l156 -232h-110l-100 139q-35 -34 -75 -71t-72 -68h-110z" />
    <glyph glyph-name="Cdotaccent" unicode="&#x10a;" horiz-adv-x="713" 
d="M707 204q-20 -43 -52.5 -83.5t-75.5 -71.5t-95.5 -50t-113.5 -19q-78 0 -135.5 28t-92.5 77.5t-46.5 118.5t2.5 150q15 83 52 155t91 125.5t123 84t148 30.5q66 0 114.5 -21.5t81 -55t48 -75t14.5 -81.5h-103q-2 28 -14 55t-33.5 47t-52.5 32.5t-70 12.5
q-57 0 -106.5 -25t-88.5 -67t-65 -98t-37 -119q-11 -61 -5 -113.5t29.5 -91.5t63.5 -61t98 -22q37 0 70 10.5t61 29.5t50.5 44t38.5 54h101zM595 862q-2 -13 -9.5 -25t-18.5 -21.5t-25 -15.5t-29 -6q-29 0 -46.5 21t-12.5 47q3 13 10.5 25.5t18.5 22t24.5 15t28.5 5.5
q30 0 47 -21t12 -47z" />
    <glyph glyph-name="cdotaccent" unicode="&#x10b;" horiz-adv-x="607" 
d="M179 257q-8 -42 0 -75.5t28 -57t51.5 -35.5t71.5 -12q26 0 55 4t62 15.5t71.5 31t84.5 50.5l-19 -106q-66 -49 -131 -70.5t-145 -21.5q-62 0 -109.5 20.5t-77.5 57t-41 87.5t0 112t40 112t72 87.5t97.5 57t116.5 20.5q80 0 137.5 -21.5t105.5 -70.5l-18 -106
q-35 31 -66.5 50.5t-61 30.5t-56.5 15.5t-53 4.5q-40 0 -76 -12.5t-64.5 -36t-48 -56.5t-26.5 -75zM518 689q-2 -13 -10 -25t-19 -21.5t-25 -15.5t-29 -6q-29 0 -46 21t-12 47q2 13 9.5 25.5t19 22t25 15t28.5 5.5q30 0 46.5 -21t12.5 -47z" />
    <glyph glyph-name="Ccaron" unicode="&#x10c;" horiz-adv-x="713" 
d="M707 204q-20 -43 -52.5 -83.5t-75.5 -71.5t-95.5 -50t-113.5 -19q-78 0 -135.5 28t-92.5 77.5t-46.5 118.5t2.5 150q15 83 52 155t91 125.5t123 84t148 30.5q66 0 114.5 -21.5t81 -55t48 -75t14.5 -81.5h-103q-2 28 -14 55t-33.5 47t-52.5 32.5t-70 12.5
q-57 0 -106.5 -25t-88.5 -67t-65 -98t-37 -119q-11 -61 -5 -113.5t29.5 -91.5t63.5 -61t98 -22q37 0 70 10.5t61 29.5t50.5 44t38.5 54h101zM560 758h-72l-156 233h110l99 -139q35 33 75.5 70t72.5 69h110z" />
    <glyph glyph-name="ccaron" unicode="&#x10d;" horiz-adv-x="607" 
d="M179 257q-8 -42 0 -75.5t28 -57t51.5 -35.5t71.5 -12q26 0 55 4t62 15.5t71.5 31t84.5 50.5l-19 -106q-66 -49 -131 -70.5t-145 -21.5q-62 0 -109.5 20.5t-77.5 57t-41 87.5t0 112t40 112t72 87.5t97.5 57t116.5 20.5q80 0 137.5 -21.5t105.5 -70.5l-18 -106
q-35 31 -66.5 50.5t-61 30.5t-56.5 15.5t-53 4.5q-40 0 -76 -12.5t-64.5 -36t-48 -56.5t-26.5 -75zM454 548h-72l-156 233h110l99 -139q35 33 75.5 70t72.5 69h110z" />
    <glyph glyph-name="Dcaron" unicode="&#x10e;" horiz-adv-x="683" 
d="M439 728q79 0 137 -25t93 -72t46 -114.5t-4 -152.5t-50.5 -152.5t-87.5 -114.5t-117.5 -72t-140.5 -25h-279l128 728h275zM330 85q51 0 96.5 18.5t82.5 54t63 87.5t38 119q12 71 4.5 123.5t-32 87t-65 51.5t-93.5 17h-173l-99 -558h178zM509 758h-72l-156 233h110
l99 -139q35 33 75.5 70t72.5 69h110z" />
    <glyph glyph-name="dcaron" unicode="&#x10f;" horiz-adv-x="909" 
d="M624 72q-50 -44 -120 -68t-160 -24q-64 0 -117 21t-89 59t-52 90.5t-5 115.5q10 58 44 107t82 85t107 56t119 20q48 0 89 -11t76 -31l47 265h100zM180 266q-7 -41 3.5 -76t34.5 -60t61 -39t82 -14q46 0 87.5 8t82.5 23l49 283q-32 21 -73 33.5t-91 12.5q-39 0 -78 -13
t-72 -36t-56 -54t-30 -68zM895 712h104l-162 -334h-90z" />
    <glyph glyph-name="Dcroat" unicode="&#x110;" horiz-adv-x="683" 
d="M439 728q79 0 137 -25t93 -72t46 -114.5t-4 -152.5t-50.5 -152.5t-87.5 -114.5t-117.5 -72t-140.5 -25h-279l65 372h-58l15 84h58l48 272h275zM203 372l-51 -287h178q51 0 96.5 18.5t82.5 54t63 87.5t38 119q12 71 4.5 123.5t-32 87t-65 51.5t-93.5 17h-173l-33 -187h259
l-15 -84h-259z" />
    <glyph glyph-name="dcroat" unicode="&#x111;" horiz-adv-x="646" 
d="M718 605l-94 -533q-50 -44 -120 -68t-160 -24q-64 0 -117 21t-89 59t-52 90.5t-5 115.5q10 58 44 107t82 85t107 56t119 20q48 0 89 -11t76 -31l20 113h-319l17 93h319l10 59h100l-10 -59h63l-17 -93h-63zM180 266q-7 -41 3.5 -76t34.5 -60t61 -39t82 -14q46 0 87.5 8
t82.5 23l49 283q-32 21 -73 33.5t-91 12.5q-39 0 -78 -13t-72 -36t-56 -54t-30 -68z" />
    <glyph glyph-name="Emacron" unicode="&#x112;" horiz-adv-x="618" 
d="M582 0h-546l128 728h536l-15 -85h-434l-39 -218h384l-15 -87h-384l-45 -253h444zM241 807l15 84h419l-15 -84h-419z" />
    <glyph glyph-name="emacron" unicode="&#x113;" horiz-adv-x="643" 
d="M178 187q10 -54 58 -82t114 -28q53 0 123 24.5t162 86.5l-19 -106q-66 -49 -137 -75.5t-151 -26.5q-63 0 -113.5 20t-84 56.5t-47.5 87.5t-3 113q11 61 42.5 112t77.5 87.5t104 57t122 20.5q65 0 113 -18t77.5 -50.5t40.5 -77t2 -97.5zM414 437q-39 0 -76 -11t-68 -32
t-53.5 -51t-32.5 -67l373 79q-5 33 -39.5 57.5t-103.5 24.5zM216 597l15 84h419l-15 -84h-419z" />
    <glyph glyph-name="Edotaccent" unicode="&#x116;" horiz-adv-x="618" 
d="M582 0h-546l128 728h536l-15 -85h-434l-39 -218h384l-15 -87h-384l-45 -253h444zM535 886q-2 -13 -10 -25t-19 -21.5t-25 -15.5t-29 -6q-29 0 -46 21t-12 47q2 13 9.5 25.5t19 22t25 15t28.5 5.5q30 0 46.5 -21t12.5 -47z" />
    <glyph glyph-name="edotaccent" unicode="&#x117;" horiz-adv-x="643" 
d="M178 187q10 -54 58 -82t114 -28q53 0 123 24.5t162 86.5l-19 -106q-66 -49 -137 -75.5t-151 -26.5q-63 0 -113.5 20t-84 56.5t-47.5 87.5t-3 113q11 61 42.5 112t77.5 87.5t104 57t122 20.5q65 0 113 -18t77.5 -50.5t40.5 -77t2 -97.5zM414 437q-39 0 -76 -11t-68 -32
t-53.5 -51t-32.5 -67l373 79q-5 33 -39.5 57.5t-103.5 24.5zM512 685q-2 -13 -10 -25t-19 -21.5t-25 -15.5t-29 -6q-29 0 -46 21t-12 47q2 13 9.5 25.5t19 22t25 15t28.5 5.5q30 0 46.5 -21t12.5 -47z" />
    <glyph glyph-name="Eogonek" unicode="&#x118;" horiz-adv-x="618" 
d="M152 -159q-3 -20 13.5 -33t46.5 -18q28 -6 70.5 -1t99.5 24l-15 -80q-50 -16 -91.5 -23t-75.5 -6q-38 1 -68 10t-49.5 26t-27.5 40.5t-3 52.5q7 36 27 60t48.5 42t63.5 32.5t73 32.5h-228l128 728h536l-15 -85h-434l-39 -218h384l-15 -87h-384l-45 -253h444l-14 -85h-186
q-46 -36 -88 -57t-75.5 -36.5t-55 -29.5t-25.5 -36z" />
    <glyph glyph-name="eogonek" unicode="&#x119;" horiz-adv-x="643" 
d="M301 -120q-3 -20 13 -33t47 -18q28 -6 70.5 -1t98.5 24l-14 -80q-50 -16 -91.5 -23t-75.5 -6q-38 1 -68 10t-49.5 26t-27.5 40.5t-3 52.5q7 41 31 66t58 44q-55 6 -98.5 28t-71.5 58t-39 84t-1 105q11 61 42.5 112t77.5 87.5t104 57t122 20.5q65 0 113 -18t77.5 -50.5
t40.5 -77t2 -97.5l-481 -104q10 -54 58 -82t114 -28q53 0 123 24.5t162 86.5l-19 -106q-20 -15 -41 -28t-42 -24q-44 -33 -84.5 -52.5t-72 -34t-51.5 -28.5t-24 -35zM414 437q-39 0 -76 -11t-68 -32t-53.5 -51t-32.5 -67l373 79q-5 33 -39.5 57.5t-103.5 24.5z" />
    <glyph glyph-name="Ecaron" unicode="&#x11a;" horiz-adv-x="618" 
d="M582 0h-546l128 728h536l-15 -85h-434l-39 -218h384l-15 -87h-384l-45 -253h444zM477 758h-72l-156 233h110l99 -139q35 33 75.5 70t72.5 69h110z" />
    <glyph glyph-name="ecaron" unicode="&#x11b;" horiz-adv-x="643" 
d="M178 187q10 -54 58 -82t114 -28q53 0 123 24.5t162 86.5l-19 -106q-66 -49 -137 -75.5t-151 -26.5q-63 0 -113.5 20t-84 56.5t-47.5 87.5t-3 113q11 61 42.5 112t77.5 87.5t104 57t122 20.5q65 0 113 -18t77.5 -50.5t40.5 -77t2 -97.5zM414 437q-39 0 -76 -11t-68 -32
t-53.5 -51t-32.5 -67l373 79q-5 33 -39.5 57.5t-103.5 24.5zM452 548h-72l-156 233h110l99 -139q35 33 75.5 70t72.5 69h110z" />
    <glyph glyph-name="Gcircumflex" unicode="&#x11c;" horiz-adv-x="712" 
d="M670 0h-87l13 76q-41 -40 -102 -68t-139 -28q-69 0 -123.5 25.5t-89.5 73.5t-47.5 117.5t3.5 157.5q16 90 54.5 163t93 124.5t121.5 79t140 27.5q58 0 105 -17t81 -47t54 -72t23 -92h-103q-4 33 -19 59.5t-38.5 45t-54 28t-66.5 9.5q-48 0 -94.5 -21.5t-85.5 -61
t-67.5 -96.5t-41.5 -129q-12 -65 -5 -118.5t30 -91t61.5 -58t91.5 -20.5q44 0 83.5 14t70 37.5t51 54t26.5 63.5l10 58h-225l15 84h327zM518 1012h73l156 -232h-110l-99 139q-35 -34 -75.5 -71t-72.5 -68h-110z" />
    <glyph glyph-name="gcircumflex" unicode="&#x11d;" horiz-adv-x="637" 
d="M509 41q-42 -20 -87 -30.5t-93 -10.5q-62 0 -112 20t-84 55t-48 84t-4 107t42 107t78 85t103 56t119 20q81 0 144.5 -30.5t108.5 -80.5l-70 -398q-10 -57 -38.5 -99.5t-69 -71.5t-91.5 -43.5t-106 -14.5q-80 0 -145 22.5t-103 63.5l18 104q57 -53 119 -73.5t127 -20.5
q33 0 64.5 7.5t57 22.5t43 37.5t22.5 52.5zM180 266q-6 -37 4 -68t32.5 -53.5t55.5 -35.5t73 -13q50 0 96 13t86 34l43 248q-32 21 -73 33.5t-91 12.5q-40 0 -77.5 -13t-68.5 -36t-52 -54t-28 -68zM437 797h73l156 -232h-110l-99 139q-35 -34 -75.5 -71t-72.5 -68h-110z" />
    <glyph glyph-name="Gbreve" unicode="&#x11e;" horiz-adv-x="712" 
d="M670 0h-87l13 76q-41 -40 -102 -68t-139 -28q-69 0 -123.5 25.5t-89.5 73.5t-47.5 117.5t3.5 157.5q16 90 54.5 163t93 124.5t121.5 79t140 27.5q58 0 105 -17t81 -47t54 -72t23 -92h-103q-4 33 -19 59.5t-38.5 45t-54 28t-66.5 9.5q-48 0 -94.5 -21.5t-85.5 -61
t-67.5 -96.5t-41.5 -129q-12 -65 -5 -118.5t30 -91t61.5 -58t91.5 -20.5q44 0 83.5 14t70 37.5t51 54t26.5 63.5l10 58h-225l15 84h327zM745 986q5 -19 4 -40t-6 -40q-15 -71 -78.5 -109.5t-178.5 -38.5q-109 0 -159.5 38t-40.5 107q2 17 9.5 38t18.5 45h95
q-11 -25 -17 -43.5t-7 -29.5q-5 -69 116 -69q66 0 101 18t46 53q7 22 4 71h93z" />
    <glyph glyph-name="gbreve" unicode="&#x11f;" horiz-adv-x="637" 
d="M509 41q-42 -20 -87 -30.5t-93 -10.5q-62 0 -112 20t-84 55t-48 84t-4 107t42 107t78 85t103 56t119 20q81 0 144.5 -30.5t108.5 -80.5l-70 -398q-10 -57 -38.5 -99.5t-69 -71.5t-91.5 -43.5t-106 -14.5q-80 0 -145 22.5t-103 63.5l18 104q57 -53 119 -73.5t127 -20.5
q33 0 64.5 7.5t57 22.5t43 37.5t22.5 52.5zM180 266q-6 -37 4 -68t32.5 -53.5t55.5 -35.5t73 -13q50 0 96 13t86 34l43 248q-32 21 -73 33.5t-91 12.5q-40 0 -77.5 -13t-68.5 -36t-52 -54t-28 -68zM670 776q5 -19 4 -40t-6 -40q-15 -71 -78.5 -109.5t-178.5 -38.5
q-109 0 -160 38t-40 107q2 17 9.5 38t18.5 45h95q-11 -25 -17 -43.5t-7 -29.5q-5 -69 116 -69q66 0 101 18t46 53q7 22 4 71h93z" />
    <glyph glyph-name="Gdotaccent" unicode="&#x120;" horiz-adv-x="712" 
d="M670 0h-87l13 76q-41 -40 -102 -68t-139 -28q-69 0 -123.5 25.5t-89.5 73.5t-47.5 117.5t3.5 157.5q16 90 54.5 163t93 124.5t121.5 79t140 27.5q58 0 105 -17t81 -47t54 -72t23 -92h-103q-4 33 -19 59.5t-38.5 45t-54 28t-66.5 9.5q-48 0 -94.5 -21.5t-85.5 -61
t-67.5 -96.5t-41.5 -129q-12 -65 -5 -118.5t30 -91t61.5 -58t91.5 -20.5q44 0 83.5 14t70 37.5t51 54t26.5 63.5l10 58h-225l15 84h327zM613 872q-2 -13 -10 -25t-19 -21.5t-25 -15.5t-29 -6q-29 0 -46 21t-12 47q2 13 9.5 25.5t19 22t25 15t28.5 5.5q30 0 46.5 -21
t12.5 -47z" />
    <glyph glyph-name="gdotaccent" unicode="&#x121;" horiz-adv-x="637" 
d="M509 41q-42 -20 -87 -30.5t-93 -10.5q-62 0 -112 20t-84 55t-48 84t-4 107t42 107t78 85t103 56t119 20q81 0 144.5 -30.5t108.5 -80.5l-70 -398q-10 -57 -38.5 -99.5t-69 -71.5t-91.5 -43.5t-106 -14.5q-80 0 -145 22.5t-103 63.5l18 104q57 -53 119 -73.5t127 -20.5
q33 0 64.5 7.5t57 22.5t43 37.5t22.5 52.5zM180 266q-6 -37 4 -68t32.5 -53.5t55.5 -35.5t73 -13q50 0 96 13t86 34l43 248q-32 21 -73 33.5t-91 12.5q-40 0 -77.5 -13t-68.5 -36t-52 -54t-28 -68zM528 678q-2 -13 -10 -25t-19 -21.5t-25 -15.5t-29 -6q-29 0 -46 21t-12 47
q2 13 9.5 25.5t19 22t25 15t28.5 5.5q30 0 46.5 -21t12.5 -47z" />
    <glyph glyph-name="uni0122" unicode="&#x122;" horiz-adv-x="712" 
d="M670 0h-87l13 76q-41 -40 -102 -68t-139 -28q-69 0 -123.5 25.5t-89.5 73.5t-47.5 117.5t3.5 157.5q16 90 54.5 163t93 124.5t121.5 79t140 27.5q58 0 105 -17t81 -47t54 -72t23 -92h-103q-4 33 -19 59.5t-38.5 45t-54 28t-66.5 9.5q-48 0 -94.5 -21.5t-85.5 -61
t-67.5 -96.5t-41.5 -129q-12 -65 -5 -118.5t30 -91t61.5 -58t91.5 -20.5q44 0 83.5 14t70 37.5t51 54t26.5 63.5l10 58h-225l15 84h327zM303 -52h101l-145 -287h-85z" />
    <glyph glyph-name="uni0123" unicode="&#x123;" horiz-adv-x="637" 
d="M509 41q-42 -20 -87 -30.5t-93 -10.5q-62 0 -112 20t-84 55t-48 84t-4 107t42 107t78 85t103 56t119 20q81 0 144.5 -30.5t108.5 -80.5l-70 -398q-10 -57 -38.5 -99.5t-69 -71.5t-91.5 -43.5t-106 -14.5q-80 0 -145 22.5t-103 63.5l18 104q57 -53 119 -73.5t127 -20.5
q33 0 64.5 7.5t57 22.5t43 37.5t22.5 52.5zM180 266q-6 -37 4 -68t32.5 -53.5t55.5 -35.5t73 -13q50 0 96 13t86 34l43 248q-32 21 -73 33.5t-91 12.5q-40 0 -77.5 -13t-68.5 -36t-52 -54t-28 -68zM473 574h-101l145 287h85z" />
    <glyph glyph-name="Hcircumflex" unicode="&#x124;" 
d="M636 0h-103l55 312h-395l-55 -312h-102l128 728h102l-58 -331h395l58 331h103zM476 1005h73l156 -232h-110l-100 139q-35 -34 -75 -71t-72 -68h-110z" />
    <glyph glyph-name="hcircumflex" unicode="&#x125;" horiz-adv-x="617" 
d="M168 757h99l-47 -269q45 20 101.5 33t105.5 13q56 0 99 -18t69.5 -50.5t36.5 -78.5t0 -102l-50 -285h-100l50 285q12 69 -20.5 110.5t-101.5 41.5q-51 0 -108.5 -14t-99.5 -36l-68 -387h-99zM412 1017h73l156 -232h-110l-100 139q-35 -34 -75 -71t-72 -68h-110z" />
    <glyph glyph-name="Hbar" unicode="&#x126;" 
d="M636 0h-103l55 312h-395l-55 -312h-102l128 728h102l-27 -155h395l27 155h103zM603 397l16 92h-395l-16 -92h395z" />
    <glyph glyph-name="hbar" unicode="&#x127;" horiz-adv-x="617" 
d="M242 617l-22 -129q45 20 101.5 33t105.5 13q56 0 99 -18t69.5 -50.5t36.5 -78.5t0 -102l-50 -285h-100l50 285q12 69 -20.5 110.5t-101.5 41.5q-51 0 -108.5 -14t-99.5 -36l-68 -387h-99l108 617h-47l15 84h47l10 56h99l-10 -56h273l-15 -84h-273z" />
    <glyph glyph-name="Itilde" unicode="&#x128;" horiz-adv-x="173" 
d="M138 0h-102l128 728h102zM460 970q3 -16 3 -38.5t-4 -45.5q-10 -56 -47 -90t-88 -34q-39 0 -63.5 19.5t-43 43t-35.5 43t-41 19.5q-37 0 -43 -42q-2 -12 1 -33t9 -50h-87q-7 48 -1 86q11 57 48 89.5t88 32.5q39 0 64 -19.5t44 -43t35.5 -43t39.5 -19.5q14 0 23 11t14 31
q3 14 2.5 35.5t-4.5 47.5h86z" />
    <glyph glyph-name="itilde" unicode="&#x129;" horiz-adv-x="207" 
d="M146 514h99l-90 -514h-99zM439 760q3 -16 3 -38.5t-4 -45.5q-10 -56 -47 -90t-88 -34q-39 0 -63.5 19.5t-43 43t-35.5 43t-41 19.5q-37 0 -43 -42q-2 -12 1 -33t9 -50h-87q-6 50 0 86q10 57 47 89.5t88 32.5q39 0 64 -19.5t44 -43t35.5 -43t39.5 -19.5q14 0 23 11t14 31
q3 14 2.5 35.5t-4.5 47.5h86z" />
    <glyph glyph-name="Imacron" unicode="&#x12a;" horiz-adv-x="173" 
d="M138 0h-102l128 728h102zM19 807l15 84h419l-15 -84h-419z" />
    <glyph glyph-name="imacron" unicode="&#x12b;" horiz-adv-x="207" 
d="M146 514h99l-90 -514h-99zM0 597l14 84h419l-15 -84h-418z" />
    <glyph glyph-name="Iogonek" unicode="&#x12e;" horiz-adv-x="173" 
d="M-141 -190q-4 -20 12.5 -33t47.5 -18q28 -6 70 -1t98 24l-14 -80q-51 -16 -91.5 -23t-74.5 -6q-39 1 -68.5 10t-49 26t-27.5 40.5t-3 52.5q8 44 35.5 70.5t66.5 46.5t85 39t91 48l127 722h102l-128 -728q-51 -47 -99.5 -74t-87 -45t-63.5 -32.5t-29 -38.5z" />
    <glyph glyph-name="iogonek" unicode="&#x12f;" horiz-adv-x="207" 
d="M-125 -190q-4 -20 12.5 -33t47.5 -18q28 -6 70 -1t98 24l-14 -80q-51 -16 -91.5 -23t-74.5 -6q-39 1 -68.5 10t-49 26t-27.5 40.5t-3 52.5q8 45 36.5 71.5t68 46.5t86 39.5t91.5 49.5l89 505h99l-90 -514h-1q-51 -47 -99.5 -74t-87 -45t-63.5 -32.5t-29 -38.5zM145 629
q5 28 28 47t52 19t45.5 -19t11.5 -47q-5 -29 -28 -48t-52 -19t-45.5 19t-11.5 48z" />
    <glyph glyph-name="Idotaccent" unicode="&#x130;" horiz-adv-x="173" 
d="M138 0h-102l128 728h102zM313 889q-2 -13 -10 -25t-19 -21.5t-25 -15.5t-29 -6q-29 0 -46 21t-12 47q2 13 9.5 25.5t19 22t25 15t28.5 5.5q30 0 46.5 -21t12.5 -47z" />
    <glyph glyph-name="dotlessi" unicode="&#x131;" horiz-adv-x="207" 
d="M146 514h99l-90 -514h-99z" />
    <glyph glyph-name="Jcircumflex" unicode="&#x134;" horiz-adv-x="537" 
d="M629 728l-86 -488q-22 -125 -104.5 -192.5t-209.5 -67.5q-26 0 -54 4t-54 11t-47.5 16t-34.5 19l35 91q27 -24 72 -39.5t88 -15.5q87 0 140 47.5t67 126.5l86 488h102zM497 1015h73l157 -232h-110l-100 139q-35 -34 -75 -71t-72 -68h-110z" />
    <glyph glyph-name="jcircumflex" unicode="&#x135;" horiz-adv-x="213" 
d="M-79 -153q47 -8 82.5 15t46.5 87l99 565h99l-98 -557q-20 -115 -82.5 -161t-155.5 -36zM210 795h73l156 -232h-110l-100 139q-35 -34 -75 -71t-72 -68h-109z" />
    <glyph glyph-name="uni0136" unicode="&#x136;" horiz-adv-x="699" 
d="M266 728l-64 -363l448 363h143l-435 -344l326 -384h-138l-272 317l-94 -75l-42 -242h-102l128 728h102zM292 -35h101l-145 -287h-85z" />
    <glyph glyph-name="uni0137" unicode="&#x137;" horiz-adv-x="617" 
d="M344 202q-39 -9 -82 -17.5t-99 -17.5l-29 -167h-99l133 757h99l-88 -501q101 19 169 36t110.5 39.5t64.5 53t30 77.5l9 52h100l-9 -52q-9 -48 -23.5 -83.5t-38 -62.5t-57 -47t-80.5 -36l143 -233h-130zM237 -35h101l-145 -287h-85z" />
    <glyph glyph-name="kgreenlandic" unicode="&#x138;" horiz-adv-x="617" 
d="M344 202q-39 -9 -82 -17.5t-99 -17.5l-29 -167h-99l90 514h99l-45 -258q101 19 169 36t110.5 39.5t64.5 53t30 77.5l9 52h100l-9 -52q-9 -48 -23.5 -83.5t-38 -62.5t-57 -47t-80.5 -36l143 -233h-130z" />
    <glyph glyph-name="Lacute" unicode="&#x139;" horiz-adv-x="611" 
d="M576 0h-540l128 728h102l-114 -643h438zM638 974l-316 -232l-38 60l298 243z" />
    <glyph glyph-name="lacute" unicode="&#x13a;" horiz-adv-x="169" 
d="M442 949l-262 -192h87l-133 -757h-99l131 746l-40 -29l-38 60l297 243z" />
    <glyph glyph-name="uni013B" unicode="&#x13b;" horiz-adv-x="611" 
d="M576 0h-540l128 728h102l-114 -643h438zM292 -35h101l-145 -287h-85z" />
    <glyph glyph-name="uni013C" unicode="&#x13c;" horiz-adv-x="169" 
d="M168 757h99l-133 -757h-99zM32 -35h101l-144 -287h-85z" />
    <glyph glyph-name="Lcaron" unicode="&#x13d;" horiz-adv-x="611" 
d="M576 0h-540l128 728h102l-114 -643h438zM541 758h104l-162 -334h-90z" />
    <glyph glyph-name="lcaron" unicode="&#x13e;" horiz-adv-x="432" 
d="M168 757h99l-133 -757h-99zM418 712h104l-162 -334h-90z" />
    <glyph glyph-name="Lslash" unicode="&#x141;" horiz-adv-x="611" 
d="M576 0h-540l47 272l-84 -37l15 93l86 37l64 363h102l-56 -316l245 106l-17 -93l-244 -106l-42 -234h438z" />
    <glyph glyph-name="lslash" unicode="&#x142;" horiz-adv-x="169" 
d="M132 553l-104 -33l17 93l103 33l20 111h99l-14 -78l122 39l-16 -93l-122 -39l-103 -586h-99z" />
    <glyph glyph-name="Nacute" unicode="&#x143;" 
d="M164 728h98l303 -548l97 548h102l-128 -728h-90l-311 557l-98 -557h-101zM668 974l-316 -232l-38 60l298 243z" />
    <glyph glyph-name="nacute" unicode="&#x144;" horiz-adv-x="607" 
d="M522 285q12 69 -20 110.5t-98 41.5q-51 0 -105.5 -12.5t-96.5 -34.5l-68 -390h-99l74 423q31 25 69 45.5t78.5 35t82.5 22.5t82 8q55 0 97 -18t68.5 -50.5t36 -78.5t-0.5 -102l-50 -285h-100zM599 764l-316 -232l-38 60l298 243z" />
    <glyph glyph-name="uni0145" unicode="&#x145;" 
d="M164 728h98l303 -548l97 548h102l-128 -728h-90l-311 557l-98 -557h-101zM292 -35h101l-145 -287h-85z" />
    <glyph glyph-name="uni0146" unicode="&#x146;" horiz-adv-x="607" 
d="M522 285q12 69 -20 110.5t-98 41.5q-51 0 -105.5 -12.5t-96.5 -34.5l-68 -390h-99l74 423q31 25 69 45.5t78.5 35t82.5 22.5t82 8q55 0 97 -18t68.5 -50.5t36 -78.5t-0.5 -102l-50 -285h-100zM237 -35h101l-145 -287h-85z" />
    <glyph glyph-name="Ncaron" unicode="&#x147;" 
d="M164 728h98l303 -548l97 548h102l-128 -728h-90l-311 557l-98 -557h-101zM503 758h-72l-156 233h110l99 -139q35 33 75.5 70t72.5 69h110z" />
    <glyph glyph-name="ncaron" unicode="&#x148;" horiz-adv-x="607" 
d="M522 285q12 69 -20 110.5t-98 41.5q-51 0 -105.5 -12.5t-96.5 -34.5l-68 -390h-99l74 423q31 25 69 45.5t78.5 35t82.5 22.5t82 8q55 0 97 -18t68.5 -50.5t36 -78.5t-0.5 -102l-50 -285h-100zM434 548h-72l-156 233h110l99 -139q35 33 75.5 70t72.5 69h110z" />
    <glyph glyph-name="Eng" unicode="&#x14a;" 
d="M164 728h98l303 -548l97 548h102l-128 -728q-22 -123 -105 -190t-209 -67q-26 0 -54 4t-54 11t-47.5 16t-34.5 19l35 91q13 -12 31.5 -22t40 -17.5t44.5 -11.5t44 -4q91 0 143 51.5t66 135.5l-301 541l-98 -557h-101z" />
    <glyph glyph-name="eng" unicode="&#x14b;" horiz-adv-x="607" 
d="M337 -133q47 -8 82.5 15t46.5 87l56 316q12 69 -20 110.5t-98 41.5q-51 0 -105.5 -12.5t-96.5 -34.5l-68 -390h-99l74 423q31 25 69 45.5t78.5 35t82.5 22.5t82 8q55 0 97 -18t68.5 -50.5t36 -78.5t-0.5 -102l-55 -308q-20 -115 -82.5 -161t-155.5 -36z" />
    <glyph glyph-name="Omacron" unicode="&#x14c;" horiz-adv-x="761" 
d="M511 748q82 0 140.5 -30.5t94 -83t46.5 -122t-3 -148.5t-49.5 -148.5t-89 -122t-123 -83t-151.5 -30.5q-81 0 -139.5 30.5t-93.5 83t-46 122.5t3 148q14 79 49.5 148.5t88.5 122t122.5 83t150.5 30.5zM391 66q54 0 102.5 22t87.5 61.5t66.5 94t39.5 120.5t3.5 120.5
t-34 94t-66 61.5t-94.5 22t-102 -22t-87 -61.5t-66 -94t-39 -120.5t-3.5 -120.5t33.5 -94t65.5 -61.5t93.5 -22zM312 807l15 84h419l-15 -84h-419z" />
    <glyph glyph-name="omacron" unicode="&#x14d;" horiz-adv-x="637" 
d="M80 256q10 60 40 111t74.5 88t99.5 58t117 21t110.5 -21t80 -58t43.5 -88t2 -111q-11 -60 -41.5 -110.5t-74.5 -87.5t-100 -57.5t-118 -20.5t-110 20.5t-79 57.5t-43 87.5t-1 110.5zM179 256q-7 -39 0.5 -72t27.5 -57t51.5 -37t71.5 -13q41 0 77.5 13t65 37t48 57
t26.5 72q7 40 -1 73t-28 57t-51.5 37.5t-72.5 13.5q-40 0 -76 -13.5t-64.5 -37.5t-48 -57t-26.5 -73zM213 597l15 84h419l-15 -84h-419z" />
    <glyph glyph-name="Ohungarumlaut" unicode="&#x150;" horiz-adv-x="761" 
d="M511 748q82 0 140.5 -30.5t94 -83t46.5 -122t-3 -148.5t-49.5 -148.5t-89 -122t-123 -83t-151.5 -30.5q-81 0 -139.5 30.5t-93.5 83t-46 122.5t3 148q14 79 49.5 148.5t88.5 122t122.5 83t150.5 30.5zM391 66q54 0 102.5 22t87.5 61.5t66.5 94t39.5 120.5t3.5 120.5
t-34 94t-66 61.5t-94.5 22t-102 -22t-87 -61.5t-66 -94t-39 -120.5t-3.5 -120.5t33.5 -94t65.5 -61.5t93.5 -22zM658 1004l-316 -232l-39 60l298 243zM911 1004l-316 -232l-40 60l298 243z" />
    <glyph glyph-name="ohungarumlaut" unicode="&#x151;" horiz-adv-x="637" 
d="M80 256q10 60 40 111t74.5 88t99.5 58t117 21t110.5 -21t80 -58t43.5 -88t2 -111q-11 -60 -41.5 -110.5t-74.5 -87.5t-100 -57.5t-118 -20.5t-110 20.5t-79 57.5t-43 87.5t-1 110.5zM179 256q-7 -39 0.5 -72t27.5 -57t51.5 -37t71.5 -13q41 0 77.5 13t65 37t48 57
t26.5 72q7 40 -1 73t-28 57t-51.5 37.5t-72.5 13.5q-40 0 -76 -13.5t-64.5 -37.5t-48 -57t-26.5 -73zM551 794l-316 -232l-39 60l298 243zM804 794l-316 -232l-40 60l298 243z" />
    <glyph glyph-name="OE" unicode="&#x152;" horiz-adv-x="1202" 
d="M1173 0h-546l14 85q-53 -49 -120 -77t-145 -28q-81 0 -139.5 30.5t-93.5 83t-46 122.5t3 148q14 79 49.5 148.5t88.5 122t122.5 83t150.5 30.5q78 0 135.5 -28t93.5 -77l15 85h536l-15 -85h-434l-39 -218h384l-15 -87h-384l-45 -253h444zM391 66q54 0 102.5 22t87.5 61.5
t66.5 94t39.5 120.5t3.5 120.5t-34 94t-66 61.5t-94.5 22t-102 -22t-87 -61.5t-66 -94t-39 -120.5t-3.5 -120.5t33.5 -94t65.5 -61.5t93.5 -22z" />
    <glyph glyph-name="oe" unicode="&#x153;" horiz-adv-x="1111" 
d="M650 187q10 -54 58 -82t114 -28q53 0 123 24.5t162 86.5l-19 -106q-66 -49 -137 -75.5t-151 -26.5t-139 31t-89 87q-47 -55 -114 -86.5t-145 -31.5q-62 0 -110 20.5t-79 57.5t-43 87.5t-1 110.5q10 60 40 111t74.5 88t99.5 58t117 21q78 0 133.5 -32t83.5 -87
q49 56 119 87.5t151 31.5q65 0 113 -18t77.5 -50.5t40.5 -77t2 -97.5zM179 256q-7 -39 0.5 -72t27.5 -57t51.5 -37t71.5 -13q41 0 77.5 13t65 37t48 57t26.5 72q7 40 -1 73t-28 57t-51.5 37.5t-72.5 13.5q-40 0 -76 -13.5t-64.5 -37.5t-48 -57t-26.5 -73zM886 437
q-39 0 -76 -11t-68 -32t-53.5 -51t-32.5 -67l373 79q-5 33 -39.5 57.5t-103.5 24.5z" />
    <glyph glyph-name="Racute" unicode="&#x154;" horiz-adv-x="650" 
d="M468 728q67 0 114.5 -15t75.5 -43t37.5 -67.5t0.5 -88.5q-14 -79 -70.5 -136t-156.5 -75l158 -303h-118l-148 296h-171l-52 -296h-102l128 728h304zM251 643l-46 -260h196q88 0 135 36.5t57 93.5q5 27 -0.5 51t-22.5 41.5t-47.5 27.5t-75.5 10h-196zM657 974l-316 -232
l-38 60l298 243z" />
    <glyph glyph-name="racute" unicode="&#x155;" horiz-adv-x="317" 
d="M399 437q-57 0 -107 -12.5t-90 -33.5l-68 -391h-99l74 423q63 50 141 80.5t166 30.5zM487 764l-316 -232l-38 60l298 243z" />
    <glyph glyph-name="uni0156" unicode="&#x156;" horiz-adv-x="650" 
d="M468 728q67 0 114.5 -15t75.5 -43t37.5 -67.5t0.5 -88.5q-14 -79 -70.5 -136t-156.5 -75l158 -303h-118l-148 296h-171l-52 -296h-102l128 728h304zM251 643l-46 -260h196q88 0 135 36.5t57 93.5q5 27 -0.5 51t-22.5 41.5t-47.5 27.5t-75.5 10h-196zM292 -35h101
l-145 -287h-85z" />
    <glyph glyph-name="uni0157" unicode="&#x157;" horiz-adv-x="317" 
d="M399 437q-57 0 -107 -12.5t-90 -33.5l-68 -391h-99l74 423q63 50 141 80.5t166 30.5zM67 -35h101l-145 -287h-84z" />
    <glyph glyph-name="Rcaron" unicode="&#x158;" horiz-adv-x="650" 
d="M468 728q67 0 114.5 -15t75.5 -43t37.5 -67.5t0.5 -88.5q-14 -79 -70.5 -136t-156.5 -75l158 -303h-118l-148 296h-171l-52 -296h-102l128 728h304zM251 643l-46 -260h196q88 0 135 36.5t57 93.5q5 27 -0.5 51t-22.5 41.5t-47.5 27.5t-75.5 10h-196zM493 758h-72
l-156 233h110l99 -139q35 33 75.5 70t72.5 69h110z" />
    <glyph glyph-name="rcaron" unicode="&#x159;" horiz-adv-x="317" 
d="M399 437q-57 0 -107 -12.5t-90 -33.5l-68 -391h-99l74 423q63 50 141 80.5t166 30.5zM290 548h-72l-156 233h110l99 -139q35 33 75.5 70t72.5 69h110z" />
    <glyph glyph-name="Sacute" unicode="&#x15a;" horiz-adv-x="641" 
d="M263 541q-5 -30 10 -50t43.5 -34.5t66 -26t76 -24t75 -28.5t63.5 -39.5t39.5 -57t4.5 -81.5q-8 -42 -33.5 -81.5t-67 -70t-98.5 -49.5t-126 -19q-72 0 -121 21t-78.5 54t-40 72.5t-5.5 77.5h95q1 -61 45 -100t120 -39q45 0 81.5 12.5t63 32t42.5 43t20 46.5q6 32 -9 54
t-43 38t-65 28.5t-76 25.5t-75.5 28t-63 37.5t-40 53.5t-5.5 75q7 41 31.5 79t63 66.5t90.5 45.5t115 17q60 0 103 -16t70 -44t39 -64.5t11 -78.5h-96q-5 51 -39.5 84t-102.5 33q-37 0 -69 -10t-56 -27t-39 -39t-19 -45zM653 974l-316 -232l-38 60l298 243z" />
    <glyph glyph-name="sacute" unicode="&#x15b;" horiz-adv-x="617" 
d="M509 156q4 25 -12 39t-45 22t-67 12.5t-78 10t-77.5 13t-65 22.5t-42 39.5t-7.5 62.5q7 39 32 68t62.5 49t85 30t98.5 10q42 0 80 -6t70.5 -15.5t58 -21.5t42.5 -23l-18 -100q-50 34 -115.5 51.5t-134.5 17.5q-68 0 -112.5 -16t-48.5 -39q-3 -18 14 -28t46.5 -15.5
t68 -8.5t78 -8.5t77 -15.5t64.5 -28.5t40.5 -47.5t5.5 -74q-7 -40 -33 -72.5t-66 -55.5t-90.5 -35.5t-106.5 -12.5q-36 0 -73.5 5t-72.5 15.5t-66 26t-56 35.5l20 109q66 -54 135.5 -74t129.5 -20q34 0 65 5.5t55.5 16t40 25t18.5 32.5zM604 764l-316 -232l-38 60l298 243z
" />
    <glyph glyph-name="Scircumflex" unicode="&#x15c;" horiz-adv-x="641" 
d="M263 541q-5 -30 10 -50t43.5 -34.5t66 -26t76 -24t75 -28.5t63.5 -39.5t39.5 -57t4.5 -81.5q-8 -42 -33.5 -81.5t-67 -70t-98.5 -49.5t-126 -19q-72 0 -121 21t-78.5 54t-40 72.5t-5.5 77.5h95q1 -61 45 -100t120 -39q45 0 81.5 12.5t63 32t42.5 43t20 46.5q6 32 -9 54
t-43 38t-65 28.5t-76 25.5t-75.5 28t-63 37.5t-40 53.5t-5.5 75q7 41 31.5 79t63 66.5t90.5 45.5t115 17q60 0 103 -16t70 -44t39 -64.5t11 -78.5h-96q-5 51 -39.5 84t-102.5 33q-37 0 -69 -10t-56 -27t-39 -39t-19 -45zM469 995h73l156 -232h-110l-99 139
q-35 -34 -75.5 -71t-72.5 -68h-110z" />
    <glyph glyph-name="scircumflex" unicode="&#x15d;" horiz-adv-x="617" 
d="M509 156q4 25 -12 39t-45 22t-67 12.5t-78 10t-77.5 13t-65 22.5t-42 39.5t-7.5 62.5q7 39 32 68t62.5 49t85 30t98.5 10q42 0 80 -6t70.5 -15.5t58 -21.5t42.5 -23l-18 -100q-50 34 -115.5 51.5t-134.5 17.5q-68 0 -112.5 -16t-48.5 -39q-3 -18 14 -28t46.5 -15.5
t68 -8.5t78 -8.5t77 -15.5t64.5 -28.5t40.5 -47.5t5.5 -74q-7 -40 -33 -72.5t-66 -55.5t-90.5 -35.5t-106.5 -12.5q-36 0 -73.5 5t-72.5 15.5t-66 26t-56 35.5l20 109q66 -54 135.5 -74t129.5 -20q34 0 65 5.5t55.5 16t40 25t18.5 32.5zM412 795h73l156 -232h-110l-100 139
q-35 -34 -75 -71t-72 -68h-110z" />
    <glyph glyph-name="Scedilla" unicode="&#x15e;" horiz-adv-x="641" 
d="M263 541q-5 -30 10 -50t43.5 -34.5t66 -26t76 -24t75 -28.5t63.5 -39.5t39.5 -57t4.5 -81.5q-7 -40 -31 -78t-63 -68.5t-91.5 -50t-117.5 -22.5l-24 -46q37 -1 64 -11.5t44 -27.5t23.5 -38.5t2.5 -44.5q-5 -27 -19 -51t-37 -42t-54.5 -29t-71.5 -12q-29 -1 -67.5 4
t-86.5 22l15 75q44 -8 73 -11t56 -3q40 0 65.5 15t31.5 33.5t-9 33.5t-56 15q-14 0 -34.5 -2.5t-49.5 -8.5l11 59l40 74q-54 9 -91.5 31.5t-59.5 53.5t-30 66.5t-3 68.5h95q1 -61 45 -100t120 -39q45 0 81.5 12.5t63 32t42.5 43t20 46.5q6 32 -9 54t-43 38t-65 28.5
t-76 25.5t-75.5 28t-63 37.5t-40 53.5t-5.5 75q7 41 31.5 79t63 66.5t90.5 45.5t115 17q60 0 103 -16t70 -44t39 -64.5t11 -78.5h-96q-5 51 -39.5 84t-102.5 33q-37 0 -69 -10t-56 -27t-39 -39t-19 -45z" />
    <glyph glyph-name="scedilla" unicode="&#x15f;" horiz-adv-x="617" 
d="M509 156q4 25 -12 39t-45 22t-67 12.5t-78 10t-77.5 13t-65 22.5t-42 39.5t-7.5 62.5q7 39 32 68t62.5 49t85 30t98.5 10q42 0 80 -6t70.5 -15.5t58 -21.5t42.5 -23l-18 -100q-50 34 -115.5 51.5t-134.5 17.5q-68 0 -112.5 -16t-48.5 -39q-3 -18 14 -28t46.5 -15.5
t68 -8.5t78 -8.5t77 -15.5t64.5 -28.5t40.5 -47.5t5.5 -74q-7 -38 -30.5 -69t-60 -53.5t-83 -36t-98.5 -16.5l-21 -40q37 -1 64 -11.5t44 -27.5t23.5 -38.5t2.5 -44.5q-5 -27 -19 -51t-37 -42t-54.5 -29t-71.5 -12q-29 -1 -67 4t-86 22l14 75q44 -8 73 -11t56 -3
q40 0 65.5 15t31.5 33.5t-9 33.5t-56 15q-14 0 -34.5 -2.5t-49.5 -8.5l11 59l36 67q-60 7 -114.5 26.5t-93.5 51.5l20 109q66 -54 135.5 -74t129.5 -20q34 0 65 5.5t55.5 16t40 25t18.5 32.5z" />
    <glyph glyph-name="Scaron" unicode="&#x160;" horiz-adv-x="641" 
d="M263 541q-5 -30 10 -50t43.5 -34.5t66 -26t76 -24t75 -28.5t63.5 -39.5t39.5 -57t4.5 -81.5q-8 -42 -33.5 -81.5t-67 -70t-98.5 -49.5t-126 -19q-72 0 -121 21t-78.5 54t-40 72.5t-5.5 77.5h95q1 -61 45 -100t120 -39q45 0 81.5 12.5t63 32t42.5 43t20 46.5q6 32 -9 54
t-43 38t-65 28.5t-76 25.5t-75.5 28t-63 37.5t-40 53.5t-5.5 75q7 41 31.5 79t63 66.5t90.5 45.5t115 17q60 0 103 -16t70 -44t39 -64.5t11 -78.5h-96q-5 51 -39.5 84t-102.5 33q-37 0 -69 -10t-56 -27t-39 -39t-19 -45zM498 758h-72l-156 233h110l99 -139q35 33 75.5 70
t72.5 69h110z" />
    <glyph glyph-name="scaron" unicode="&#x161;" horiz-adv-x="617" 
d="M509 156q4 25 -12 39t-45 22t-67 12.5t-78 10t-77.5 13t-65 22.5t-42 39.5t-7.5 62.5q7 39 32 68t62.5 49t85 30t98.5 10q42 0 80 -6t70.5 -15.5t58 -21.5t42.5 -23l-18 -100q-50 34 -115.5 51.5t-134.5 17.5q-68 0 -112.5 -16t-48.5 -39q-3 -18 14 -28t46.5 -15.5
t68 -8.5t78 -8.5t77 -15.5t64.5 -28.5t40.5 -47.5t5.5 -74q-7 -40 -33 -72.5t-66 -55.5t-90.5 -35.5t-106.5 -12.5q-36 0 -73.5 5t-72.5 15.5t-66 26t-56 35.5l20 109q66 -54 135.5 -74t129.5 -20q34 0 65 5.5t55.5 16t40 25t18.5 32.5zM439 548h-72l-156 233h110l99 -139
q35 33 75.5 70t72.5 69h110z" />
    <glyph glyph-name="uni0162" unicode="&#x162;" horiz-adv-x="695" 
d="M772 643h-261l-113 -643h-102l113 643h-260l15 85h623zM292 -35h101l-145 -287h-85z" />
    <glyph glyph-name="uni0163" unicode="&#x163;" horiz-adv-x="391" 
d="M125 514h71l29 165h100l-29 -165h141l-15 -86h-141l-42 -239q-16 -94 54 -103q11 -2 32 -1t46 4l-15 -87q-25 -3 -46.5 -5t-39.5 0q-35 2 -63 13t-46.5 33t-25 55.5t1.5 80.5l44 249h-71zM167 -35h101l-145 -287h-85z" />
    <glyph glyph-name="Tcaron" unicode="&#x164;" horiz-adv-x="695" 
d="M772 643h-261l-113 -643h-102l113 643h-260l15 85h623zM515 758h-72l-156 233h110l99 -139q35 33 75.5 70t72.5 69h110z" />
    <glyph glyph-name="tcaron" unicode="&#x165;" horiz-adv-x="654" 
d="M125 514h71l29 165h100l-29 -165h141l-15 -86h-141l-42 -239q-16 -94 54 -103q11 -2 32 -1t46 4l-15 -87q-25 -3 -46.5 -5t-39.5 0q-35 2 -63 13t-46.5 33t-25 55.5t1.5 80.5l44 249h-71zM640 712h104l-162 -334h-90z" />
    <glyph glyph-name="Tbar" unicode="&#x166;" horiz-adv-x="695" 
d="M459 349l-61 -349h-102l61 349h-159l15 84h159l37 210h-260l15 85h623l-15 -85h-261l-37 -210h158l-15 -84h-158z" />
    <glyph glyph-name="tbar" unicode="&#x167;" horiz-adv-x="391" 
d="M304 560l-8 -46h141l-15 -86h-141l-42 -239q-16 -94 54 -103q11 -2 32 -1t46 4l-15 -87q-25 -3 -46.5 -5t-39.5 0q-35 2 -63 13t-46.5 33t-25 55.5t1.5 80.5l44 249h-71l15 86h71l8 46h-83l15 84h83l6 35h100l-6 -35h152l-15 -84h-152z" />
    <glyph glyph-name="Utilde" unicode="&#x168;" 
d="M683 271q-25 -143 -117 -217t-234 -74t-208 74t-41 217l81 457h102l-81 -457q-17 -99 25.5 -152t136.5 -53t155 52t78 153l81 457h103zM708 970q3 -16 3 -38.5t-4 -45.5q-10 -56 -47 -90t-88 -34q-39 0 -63.5 19.5t-43 43t-35.5 43t-41 19.5q-37 0 -43 -42q-2 -12 1 -33
t9 -50h-87q-7 48 -1 86q11 57 48 89.5t88 32.5q39 0 64 -19.5t44 -43t35.5 -43t39.5 -19.5q14 0 23 11t14 31q3 14 2.5 35.5t-4.5 47.5h86z" />
    <glyph glyph-name="utilde" unicode="&#x169;" horiz-adv-x="617" 
d="M174 229q-14 -75 23.5 -113.5t114.5 -38.5q51 0 98.5 7t89.5 21l72 409h100l-78 -442q-26 -20 -60 -36.5t-73 -29t-81.5 -19.5t-84.5 -7q-60 0 -105.5 16.5t-74.5 48.5t-40 78t0 106l50 285h99zM644 760q3 -16 3 -38.5t-4 -45.5q-10 -56 -47 -90t-88 -34
q-39 0 -63.5 19.5t-43 43t-35.5 43t-41 19.5q-37 0 -43 -42q-2 -12 1 -33t9 -50h-87q-7 48 -1 86q11 57 48 89.5t88 32.5q39 0 64 -19.5t44 -43t35.5 -43t39.5 -19.5q14 0 23 11t14 31q3 14 2.5 35.5t-4.5 47.5h86z" />
    <glyph glyph-name="Umacron" unicode="&#x16a;" 
d="M683 271q-25 -143 -117 -217t-234 -74t-208 74t-41 217l81 457h102l-81 -457q-17 -99 25.5 -152t136.5 -53t155 52t78 153l81 457h103zM267 807l15 84h419l-15 -84h-419z" />
    <glyph glyph-name="umacron" unicode="&#x16b;" horiz-adv-x="617" 
d="M174 229q-14 -75 23.5 -113.5t114.5 -38.5q51 0 98.5 7t89.5 21l72 409h100l-78 -442q-26 -20 -60 -36.5t-73 -29t-81.5 -19.5t-84.5 -7q-60 0 -105.5 16.5t-74.5 48.5t-40 78t0 106l50 285h99zM203 597l15 84h419l-15 -84h-419z" />
    <glyph glyph-name="Ubreve" unicode="&#x16c;" 
d="M683 271q-25 -143 -117 -217t-234 -74t-208 74t-41 217l81 457h102l-81 -457q-17 -99 25.5 -152t136.5 -53t155 52t78 153l81 457h103zM725 986q5 -19 4 -40t-6 -40q-15 -71 -78.5 -109.5t-178.5 -38.5q-109 0 -159.5 38t-40.5 107q2 17 9.5 38t18.5 45h95
q-11 -25 -17 -43.5t-7 -29.5q-5 -69 116 -69q66 0 101 18t46 53q7 22 4 71h93z" />
    <glyph glyph-name="ubreve" unicode="&#x16d;" horiz-adv-x="617" 
d="M174 229q-14 -75 23.5 -113.5t114.5 -38.5q51 0 98.5 7t89.5 21l72 409h100l-78 -442q-26 -20 -60 -36.5t-73 -29t-81.5 -19.5t-84.5 -7q-60 0 -105.5 16.5t-74.5 48.5t-40 78t0 106l50 285h99zM660 776q5 -19 4 -40t-6 -40q-15 -71 -78.5 -109.5t-178.5 -38.5
q-109 0 -160 38t-40 107q2 17 9.5 38t18.5 45h95q-11 -25 -17 -43.5t-7 -29.5q-5 -69 116 -69q66 0 101 18t46 53q7 22 4 71h93z" />
    <glyph glyph-name="Uring" unicode="&#x16e;" 
d="M683 271q-25 -143 -117 -217t-234 -74t-208 74t-41 217l81 457h102l-81 -457q-17 -99 25.5 -152t136.5 -53t155 52t78 153l81 457h103zM518 1041q34 0 61.5 -12.5t45.5 -34.5t26 -50.5t2 -61.5t-23.5 -62t-43.5 -50t-58 -33.5t-66 -12.5q-33 0 -60.5 12.5t-46 33.5
t-26.5 50t-2 62t24 61.5t44 50.5t58 34.5t65 12.5zM476 804q16 0 31.5 6.5t28 17t21.5 24.5t12 30q5 31 -14 54.5t-51 23.5q-16 0 -31.5 -6.5t-28 -17t-21.5 -25t-12 -29.5q-5 -32 14 -55t51 -23z" />
    <glyph glyph-name="uring" unicode="&#x16f;" horiz-adv-x="617" 
d="M174 229q-14 -75 23.5 -113.5t114.5 -38.5q51 0 98.5 7t89.5 21l72 409h100l-78 -442q-26 -20 -60 -36.5t-73 -29t-81.5 -19.5t-84.5 -7q-60 0 -105.5 16.5t-74.5 48.5t-40 78t0 106l50 285h99zM458 855q34 0 61.5 -12.5t46 -34.5t26 -50.5t1.5 -61.5t-23.5 -62
t-43.5 -50t-58 -33.5t-66 -12.5q-33 0 -60.5 12.5t-46 33.5t-26.5 50t-2 62t24 61.5t44 50.5t58 34.5t65 12.5zM416 618q16 0 31.5 6.5t28 17t21.5 24.5t12 30q5 31 -14 54.5t-51 23.5q-16 0 -31.5 -6.5t-28 -17t-21.5 -25t-12 -29.5q-5 -32 14 -55t51 -23z" />
    <glyph glyph-name="Uhungarumlaut" unicode="&#x170;" 
d="M683 271q-25 -143 -117 -217t-234 -74t-208 74t-41 217l81 457h102l-81 -457q-17 -99 25.5 -152t136.5 -53t155 52t78 153l81 457h103zM629 1004l-316 -232l-39 60l298 243zM882 1004l-316 -232l-40 60l298 243z" />
    <glyph glyph-name="uhungarumlaut" unicode="&#x171;" horiz-adv-x="617" 
d="M174 229q-14 -75 23.5 -113.5t114.5 -38.5q51 0 98.5 7t89.5 21l72 409h100l-78 -442q-26 -20 -60 -36.5t-73 -29t-81.5 -19.5t-84.5 -7q-60 0 -105.5 16.5t-74.5 48.5t-40 78t0 106l50 285h99zM529 794l-316 -232l-39 60l298 243zM782 794l-316 -232l-40 60l298 243z
" />
    <glyph glyph-name="Uogonek" unicode="&#x172;" 
d="M248 -146q-4 -20 12.5 -33t47.5 -18q27 -6 69.5 -1t99.5 24l-14 -80q-51 -16 -92.5 -23t-74.5 -6q-78 2 -118.5 36t-30.5 93q5 28 18 48t31.5 35.5t42.5 28t50 24.5q-121 11 -175 84t-31 205l81 457h102l-81 -457q-17 -99 25.5 -152t136.5 -53t155 52t78 153l81 457h103
l-81 -457q-17 -101 -69 -167t-131 -98q-45 -33 -85.5 -53t-72.5 -35t-52.5 -29t-24.5 -35z" />
    <glyph glyph-name="uogonek" unicode="&#x173;" horiz-adv-x="617" 
d="M314 -118q-4 -20 12.5 -33t47.5 -18q27 -6 69.5 -1t99.5 24l-14 -80q-51 -16 -92.5 -23t-74.5 -6q-78 2 -118.5 36t-30.5 93q7 38 29 63t53 43q-60 0 -105.5 16.5t-74.5 48.5t-40 78t0 106l50 285h99l-50 -285q-14 -75 23.5 -113.5t114.5 -38.5q51 0 98.5 7t89.5 21
l72 409h100l-78 -442l-7 -5q-50 -45 -97.5 -71t-85 -43.5t-62 -32.5t-28.5 -38z" />
    <glyph glyph-name="Wcircumflex" unicode="&#x174;" horiz-adv-x="1012" 
d="M159 728h110l43 -560l283 560h86l83 -553q59 138 119 279t117 274h109l-321 -728h-98l-81 553l-279 -553h-96zM646 1005h73l156 -232h-110l-100 139q-35 -34 -75 -71t-72 -68h-110z" />
    <glyph glyph-name="wcircumflex" unicode="&#x175;" horiz-adv-x="786" 
d="M164 171q-8 -47 10.5 -70.5t68.5 -23.5q30 0 63 9t56 26l71 402h99l-71 -402q17 -16 47.5 -25.5t60.5 -9.5q96 0 113 94l60 343h99l-60 -343q-16 -89 -75.5 -140t-153.5 -51q-38 0 -79.5 15.5t-73.5 41.5q-42 -26 -89 -41.5t-84 -15.5q-94 0 -135.5 51t-25.5 140l60 343
h99zM496 795h73l156 -232h-110l-100 139q-35 -34 -75 -71t-72 -68h-110z" />
    <glyph glyph-name="Ycircumflex" unicode="&#x176;" horiz-adv-x="726" 
d="M311 0l50 288l-209 440h123l156 -342l276 342h123l-367 -441l-50 -287h-102zM503 1005h73l156 -232h-110l-100 139q-35 -34 -75 -71t-72 -68h-110z" />
    <glyph glyph-name="ycircumflex" unicode="&#x177;" horiz-adv-x="602" 
d="M474 37q-41 -17 -87 -27t-98 -10q-122 0 -177 64t-34 184l47 266h99l-47 -266q-13 -75 19.5 -113.5t108.5 -38.5q55 0 99.5 9t86.5 29l67 380h100l-86 -489q-10 -57 -38.5 -99.5t-69 -71.5t-91.5 -43.5t-106 -14.5q-80 0 -145 22.5t-103 63.5l17 99q59 -49 121 -69
t126 -20q33 0 64.5 7.5t57 23t43 39t22.5 55.5zM404 795h73l156 -232h-110l-100 139q-35 -34 -75 -71t-72 -68h-110z" />
    <glyph glyph-name="Ydieresis" unicode="&#x178;" horiz-adv-x="726" 
d="M311 0l50 288l-209 440h123l156 -342l276 342h123l-367 -441l-50 -287h-102zM455 866q-2 -13 -9.5 -25.5t-19 -22t-25.5 -15.5t-29 -6q-29 0 -45.5 21.5t-11.5 47.5q2 13 9.5 25t18.5 21.5t24.5 15.5t28.5 6q31 0 47.5 -21t11.5 -47zM713 866q-2 -13 -9.5 -25.5
t-18.5 -22t-25 -15.5t-29 -6q-30 0 -46.5 21.5t-11.5 47.5q2 13 9.5 25t18.5 21.5t25 15.5t29 6q30 0 46.5 -21t11.5 -47z" />
    <glyph glyph-name="Zacute" unicode="&#x179;" 
d="M636 0h-600l10 62l556 581h-423l15 85h560l-11 -63l-554 -580h461zM668 974l-316 -232l-38 60l298 243z" />
    <glyph glyph-name="zacute" unicode="&#x17a;" horiz-adv-x="605" 
d="M140 514h507l-11 -63q-9 -52 -30.5 -86.5t-55.5 -59t-80 -43t-103 -38.5q-88 -31 -139 -59t-71 -69h429l-16 -96h-535l11 64q9 51 31 86.5t58.5 62.5t88 49t119.5 46q69 24 114.5 48t65.5 62h-400zM598 764l-316 -232l-38 60l298 243z" />
    <glyph glyph-name="Zdotaccent" unicode="&#x17b;" 
d="M636 0h-600l10 62l556 581h-423l15 85h560l-11 -63l-554 -580h461zM563 891q-2 -13 -10 -25t-19 -21.5t-25 -15.5t-29 -6q-29 0 -46 21t-12 47q2 13 9.5 25.5t19 22t25 15t28.5 5.5q30 0 46.5 -21t12.5 -47z" />
    <glyph glyph-name="zdotaccent" unicode="&#x17c;" horiz-adv-x="605" 
d="M140 514h507l-11 -63q-9 -52 -30.5 -86.5t-55.5 -59t-80 -43t-103 -38.5q-88 -31 -139 -59t-71 -69h429l-16 -96h-535l11 64q9 51 31 86.5t58.5 62.5t88 49t119.5 46q69 24 114.5 48t65.5 62h-400zM495 701q-2 -13 -10 -25t-19 -21.5t-25 -15.5t-29 -6q-29 0 -46 21
t-12 47q2 13 9.5 25.5t19 22t25 15t28.5 5.5q30 0 46.5 -21t12.5 -47z" />
    <glyph glyph-name="Zcaron" unicode="&#x17d;" 
d="M636 0h-600l10 62l556 581h-423l15 85h560l-11 -63l-554 -580h461zM501 743h-72l-156 233h110l98 -139q35 33 75.5 70t73.5 69h110z" />
    <glyph glyph-name="zcaron" unicode="&#x17e;" horiz-adv-x="605" 
d="M140 514h507l-11 -63q-9 -52 -30.5 -86.5t-55.5 -59t-80 -43t-103 -38.5q-88 -31 -139 -59t-71 -69h429l-16 -96h-535l11 64q9 51 31 86.5t58.5 62.5t88 49t119.5 46q69 24 114.5 48t65.5 62h-400zM433 548h-72l-156 233h110l99 -139q35 33 75.5 70t72.5 69h110z" />
    <glyph glyph-name="florin" unicode="&#x192;" horiz-adv-x="441" 
d="M68 -132q60 0 89.5 37.5t42.5 97.5q11 46 15 102.5t7 118.5l5 103h-131l15 85h123l4 30t5 30q9 62 27.5 116.5t51.5 95t83 63.5t122 23l-15 -86q-39 0 -66.5 -13t-47 -36.5t-31.5 -56t-19 -70.5q-4 -23 -7 -46.5t-5 -49.5h137l-15 -85h-129q-5 -71 -9 -142.5t-15 -139.5
q-9 -56 -26.5 -104t-46.5 -83.5t-73 -55.5t-106 -20z" />
    <glyph glyph-name="circumflex" unicode="&#x2c6;" horiz-adv-x="513" 
d="M360 795h73l156 -232h-110l-100 139q-35 -34 -75 -71t-72 -68h-110z" />
    <glyph glyph-name="caron" unicode="&#x2c7;" horiz-adv-x="513" 
d="M388 548h-72l-156 233h110l99 -139q35 33 75.5 70t72.5 69h110z" />
    <glyph glyph-name="breve" unicode="&#x2d8;" horiz-adv-x="539" 
d="M621 776q5 -19 4 -40t-6 -40q-15 -71 -78.5 -109.5t-178.5 -38.5q-109 0 -160 38t-40 107q2 17 9.5 38t18.5 45h95q-11 -25 -17 -43.5t-7 -29.5q-5 -69 116 -69q66 0 101 18t46 53q7 22 4 71h93v0z" />
    <glyph glyph-name="dotaccent" unicode="&#x2d9;" horiz-adv-x="220" 
d="M303 701q-2 -13 -10 -25t-19 -21.5t-25 -15.5t-29 -6q-29 0 -46 21t-12 47q2 13 9.5 25.5t19 22t25 15t28.5 5.5q30 0 46.5 -21t12.5 -47z" />
    <glyph glyph-name="ring" unicode="&#x2da;" horiz-adv-x="405" 
d="M352 855q34 0 61.5 -12.5t46 -34.5t26 -50.5t1.5 -61.5t-23.5 -62t-43.5 -50t-58 -33.5t-66 -12.5q-33 0 -60.5 12.5t-46 33.5t-26.5 50t-2 62t24 61.5t44 50.5t58 34.5t65 12.5zM310 618q16 0 31.5 6.5t28 17t21.5 24.5t12 30q5 31 -14 54.5t-51 23.5q-16 0 -31.5 -6.5
t-28 -17t-21.5 -25t-12 -29.5q-5 -32 14 -55t51 -23z" />
    <glyph glyph-name="ogonek" unicode="&#x2db;" horiz-adv-x="416" 
d="M115 -129q-4 -20 12.5 -33t47.5 -18q27 -6 69.5 -1t99.5 24l-14 -80q-51 -16 -92.5 -23t-74.5 -6q-78 2 -118.5 36t-30.5 93q6 32 22.5 54t39.5 38.5t52.5 30t61.5 27.5t65 31.5t65 41.5l74 -25q-51 -47 -99 -74t-87 -45t-64 -32.5t-29 -38.5z" />
    <glyph glyph-name="tilde" unicode="&#x2dc;" horiz-adv-x="514" 
d="M593 760q3 -16 3 -38.5t-4 -45.5q-10 -56 -47 -90t-88 -34q-39 0 -63.5 19.5t-43 43t-35.5 43t-41 19.5q-37 0 -43 -42q-2 -12 1 -33t9 -50h-87q-7 48 -1 86q11 57 48 89.5t88 32.5q39 0 64 -19.5t44 -43t35.5 -43t39.5 -19.5q14 0 23 11t14 31q3 14 2.5 35.5t-4.5 47.5
h86v0z" />
    <glyph glyph-name="hungarumlaut" unicode="&#x2dd;" horiz-adv-x="646" 
d="M525 794l-316 -232l-39 60l298 243zM778 794l-316 -232l-40 60l298 243z" />
    <glyph glyph-name="uni1E02" unicode="&#x1e02;" horiz-adv-x="645" 
d="M673 530q-9 -49 -41 -89.5t-82 -59.5q56 -18 81.5 -62.5t13.5 -113.5q-8 -44 -30.5 -81.5t-57 -65t-80.5 -43t-100 -15.5h-341l128 728h300q65 0 108.5 -14.5t68.5 -40.5t32.5 -62.5t-0.5 -80.5zM376 85q70 0 114 35t53 88q10 55 -22.5 89t-104.5 34h-220l-44 -246h224z
M211 416h213q54 0 95 28t50 80q21 119 -128 119h-190zM540 889q-2 -13 -10 -25t-19 -21.5t-25 -15.5t-29 -6q-29 0 -46 21t-12 47q2 13 9.5 25.5t19 22t25 15t28.5 5.5q30 0 46.5 -21t12.5 -47z" />
    <glyph glyph-name="uni1E03" unicode="&#x1e03;" horiz-adv-x="637" 
d="M648 266q-10 -58 -41.5 -110t-79.5 -91t-110 -62t-133 -23q-90 0 -146.5 24t-90.5 68l121 685h99l-47 -265q42 20 87.5 31t93.5 11q60 0 110.5 -20t84 -56t48 -85t4.5 -107zM548 266q7 37 -3.5 68t-33 54t-55.5 36t-72 13q-49 0 -95.5 -12.5t-86.5 -33.5l-49 -283
q34 -15 68 -23t80 -8q51 0 93.5 15.5t74.5 42t52.5 60.5t26.5 71zM511 701q-2 -13 -10 -25t-19 -21.5t-25 -15.5t-29 -6q-29 0 -46 21t-12 47q2 13 9.5 25.5t19 22t25 15t28.5 5.5q30 0 46.5 -21t12.5 -47z" />
    <glyph glyph-name="uni1E0A" unicode="&#x1e0a;" horiz-adv-x="683" 
d="M439 728q79 0 137 -25t93 -72t46 -114.5t-4 -152.5t-50.5 -152.5t-87.5 -114.5t-117.5 -72t-140.5 -25h-279l128 728h275zM330 85q51 0 96.5 18.5t82.5 54t63 87.5t38 119q12 71 4.5 123.5t-32 87t-65 51.5t-93.5 17h-173l-99 -558h178zM564 888q-2 -13 -10 -25
t-19 -21.5t-25 -15.5t-29 -6q-29 0 -46 21t-12 47q2 13 9.5 25.5t19 22t25 15t28.5 5.5q30 0 46.5 -21t12.5 -47z" />
    <glyph glyph-name="uni1E0B" unicode="&#x1e0b;" horiz-adv-x="646" 
d="M624 72q-50 -44 -120 -68t-160 -24q-64 0 -117 21t-89 59t-52 90.5t-5 115.5q10 58 44 107t82 85t107 56t119 20q48 0 89 -11t76 -31l47 265h100zM180 266q-7 -41 3.5 -76t34.5 -60t61 -39t82 -14q46 0 87.5 8t82.5 23l49 283q-32 21 -73 33.5t-91 12.5q-39 0 -78 -13
t-72 -36t-56 -54t-30 -68zM516 701q-2 -13 -10 -25t-19 -21.5t-25 -15.5t-29 -6q-29 0 -46 21t-12 47q2 13 9.5 25.5t19 22t25 15t28.5 5.5q30 0 46.5 -21t12.5 -47z" />
    <glyph glyph-name="uni1E1E" unicode="&#x1e1e;" horiz-adv-x="587" 
d="M562 293h-373l-51 -293h-102l128 728h515l-15 -85h-413l-47 -266h373zM518 886q-2 -13 -10 -25t-19 -21.5t-25 -15.5t-29 -6q-29 0 -46 21t-12 47q2 13 9.5 25.5t19 22t25 15t28.5 5.5q30 0 46.5 -21t12.5 -47z" />
    <glyph glyph-name="uni1E1F" unicode="&#x1e1f;" horiz-adv-x="277" 
d="M75 514h72l4 24q10 57 32 97t53 63.5t70 32t84 3.5l-9 -87q-45 8 -81.5 -15.5t-47.5 -85.5l-6 -32h141l-15 -86h-141l-75 -428h-99l75 428h-72zM370 828q-2 -13 -9.5 -25t-18.5 -21.5t-25 -15.5t-29 -6q-29 0 -46 21t-13 47q3 13 10.5 25.5t18.5 22t24.5 15t28.5 5.5
q30 0 47 -21t12 -47z" />
    <glyph glyph-name="uni1E40" unicode="&#x1e40;" horiz-adv-x="818" 
d="M453 220l351 508h107l-128 -728h-97l97 552l-316 -466h-78l-159 466l-97 -552h-97l128 728h108zM627 841q-2 -13 -10 -25t-19 -21.5t-25 -15.5t-29 -6q-29 0 -46 21t-12 47q2 13 9.5 25.5t19 22t25 15t28.5 5.5q30 0 46.5 -21t12.5 -47z" />
    <glyph glyph-name="uni1E41" unicode="&#x1e41;" horiz-adv-x="786" 
d="M712 344q8 46 -13 69.5t-66 23.5q-30 0 -64 -9t-57 -26l-70 -402h-99l62 353q8 46 -13.5 65t-67.5 19q-30 0 -64.5 -9.5t-55.5 -25.5l-70 -402h-99l75 431q23 23 52.5 42t61 32.5t62 21t55.5 7.5q98 0 139 -56q42 25 88 40.5t82 15.5q44 0 77.5 -13t54.5 -38t29 -60
t0 -79l-60 -344h-99zM584 688q-2 -13 -10 -25t-19 -21.5t-25 -15.5t-29 -6q-29 0 -46 21t-12 47q2 13 9.5 25.5t19 22t25 15t28.5 5.5q30 0 46.5 -21t12.5 -47z" />
    <glyph glyph-name="uni1E56" unicode="&#x1e56;" horiz-adv-x="641" 
d="M473 728q63 0 108 -18t73 -49t37.5 -72.5t1.5 -88.5t-31.5 -88.5t-61 -72t-89.5 -48.5t-118 -18h-207l-48 -273h-102l128 728h309zM251 643l-50 -285h201q78 0 127.5 39t60.5 103q11 62 -25 102.5t-113 40.5h-201zM546 886q-2 -13 -10 -25t-19 -21.5t-25 -15.5t-29 -6
q-29 0 -46 21t-12 47q2 13 9.5 25.5t19 22t25 15t28.5 5.5q30 0 46.5 -21t12.5 -47z" />
    <glyph glyph-name="uni1E57" unicode="&#x1e57;" horiz-adv-x="637" 
d="M109 423q63 50 137 80.5t155 30.5q71 0 122.5 -21.5t82 -59t41 -88.5t0.5 -109q-11 -58 -39 -108.5t-72 -87.5t-103 -58.5t-130 -21.5q-48 0 -89.5 11t-76.5 31l-46 -265h-98zM547 256q6 37 -0.5 70t-26.5 57.5t-54 39t-82 14.5q-49 0 -95.5 -12.5t-86.5 -33.5l-47 -268
q32 -21 74 -33.5t91 -12.5q48 0 87 14t68 38.5t47 57t25 69.5zM510 692q-2 -13 -10 -25t-19 -21.5t-25 -15.5t-29 -6q-29 0 -46 21t-12 47q2 13 9.5 25.5t19 22t25 15t28.5 5.5q30 0 46.5 -21t12.5 -47z" />
    <glyph glyph-name="uni1E60" unicode="&#x1e60;" horiz-adv-x="641" 
d="M263 541q-5 -30 10 -50t43.5 -34.5t66 -26t76 -24t75 -28.5t63.5 -39.5t39.5 -57t4.5 -81.5q-8 -42 -33.5 -81.5t-67 -70t-98.5 -49.5t-126 -19q-72 0 -121 21t-78.5 54t-40 72.5t-5.5 77.5h95q1 -61 45 -100t120 -39q45 0 81.5 12.5t63 32t42.5 43t20 46.5q6 32 -9 54
t-43 38t-65 28.5t-76 25.5t-75.5 28t-63 37.5t-40 53.5t-5.5 75q7 41 31.5 79t63 66.5t90.5 45.5t115 17q60 0 103 -16t70 -44t39 -64.5t11 -78.5h-96q-5 51 -39.5 84t-102.5 33q-37 0 -69 -10t-56 -27t-39 -39t-19 -45zM548 893q-2 -13 -10 -25t-19 -21.5t-25 -15.5t-29 -6
q-29 0 -46 21t-12 47q2 13 9.5 25.5t19 22t25 15t28.5 5.5q30 0 46.5 -21t12.5 -47z" />
    <glyph glyph-name="uni1E61" unicode="&#x1e61;" horiz-adv-x="617" 
d="M509 156q4 25 -12 39t-45 22t-67 12.5t-78 10t-77.5 13t-65 22.5t-42 39.5t-7.5 62.5q7 39 32 68t62.5 49t85 30t98.5 10q42 0 80 -6t70.5 -15.5t58 -21.5t42.5 -23l-18 -100q-50 34 -115.5 51.5t-134.5 17.5q-68 0 -112.5 -16t-48.5 -39q-3 -18 14 -28t46.5 -15.5
t68 -8.5t78 -8.5t77 -15.5t64.5 -28.5t40.5 -47.5t5.5 -74q-7 -40 -33 -72.5t-66 -55.5t-90.5 -35.5t-106.5 -12.5q-36 0 -73.5 5t-72.5 15.5t-66 26t-56 35.5l20 109q66 -54 135.5 -74t129.5 -20q34 0 65 5.5t55.5 16t40 25t18.5 32.5zM504 684q-2 -13 -10 -25t-19 -21.5
t-25 -15.5t-29 -6q-29 0 -46 21t-12 47q2 13 9.5 25.5t19 22t25 15t28.5 5.5q30 0 46.5 -21t12.5 -47z" />
    <glyph glyph-name="uni1E6A" unicode="&#x1e6a;" horiz-adv-x="695" 
d="M772 643h-261l-113 -643h-102l113 643h-260l15 85h623zM575 891q-2 -13 -10 -25t-19 -21.5t-25 -15.5t-29 -6q-29 0 -46 21t-12 47q2 13 9.5 25.5t19 22t25 15t28.5 5.5q30 0 46.5 -21t12.5 -47z" />
    <glyph glyph-name="uni1E6B" unicode="&#x1e6b;" horiz-adv-x="391" 
d="M125 514h71l29 165h100l-29 -165h141l-15 -86h-141l-42 -239q-16 -94 54 -103q11 -2 32 -1t46 4l-15 -87q-25 -3 -46.5 -5t-39.5 0q-35 2 -63 13t-46.5 33t-25 55.5t1.5 80.5l44 249h-71zM361 782q-2 -13 -10 -25t-19 -21.5t-25 -15.5t-29 -6q-29 0 -46 21t-12 47
q3 13 10.5 25.5t18.5 22t24.5 15t28.5 5.5q30 0 47 -21t12 -47z" />
    <glyph glyph-name="Wgrave" unicode="&#x1e80;" horiz-adv-x="1012" 
d="M159 728h110l43 -560l283 560h86l83 -553q59 138 119 279t117 274h109l-321 -728h-98l-81 553l-279 -553h-96zM604 1008l187 -226l-61 -60l-208 215z" />
    <glyph glyph-name="wgrave" unicode="&#x1e81;" horiz-adv-x="786" 
d="M164 171q-8 -47 10.5 -70.5t68.5 -23.5q30 0 63 9t56 26l71 402h99l-71 -402q17 -16 47.5 -25.5t60.5 -9.5q96 0 113 94l60 343h99l-60 -343q-16 -89 -75.5 -140t-153.5 -51q-38 0 -79.5 15.5t-73.5 41.5q-42 -26 -89 -41.5t-84 -15.5q-94 0 -135.5 51t-25.5 140l60 343
h99zM454 798l187 -226l-61 -60l-208 215z" />
    <glyph glyph-name="Wacute" unicode="&#x1e82;" horiz-adv-x="1012" 
d="M159 728h110l43 -560l283 560h86l83 -553q59 138 119 279t117 274h109l-321 -728h-98l-81 553l-279 -553h-96zM838 974l-316 -232l-38 60l298 243z" />
    <glyph glyph-name="wacute" unicode="&#x1e83;" horiz-adv-x="786" 
d="M164 171q-8 -47 10.5 -70.5t68.5 -23.5q30 0 63 9t56 26l71 402h99l-71 -402q17 -16 47.5 -25.5t60.5 -9.5q96 0 113 94l60 343h99l-60 -343q-16 -89 -75.5 -140t-153.5 -51q-38 0 -79.5 15.5t-73.5 41.5q-42 -26 -89 -41.5t-84 -15.5q-94 0 -135.5 51t-25.5 140l60 343
h99zM689 764l-316 -232l-38 60l298 243z" />
    <glyph glyph-name="Wdieresis" unicode="&#x1e84;" horiz-adv-x="1012" 
d="M159 728h110l43 -560l283 560h86l83 -553q59 138 119 279t117 274h109l-321 -728h-98l-81 553l-279 -553h-96zM856 866q-2 -13 -9.5 -25.5t-18.5 -22t-25 -15.5t-29 -6q-30 0 -46.5 21.5t-11.5 47.5q2 13 9.5 25t18.5 21.5t25 15.5t29 6q30 0 46.5 -21t11.5 -47zM598 866
q-2 -13 -9.5 -25.5t-19 -22t-25.5 -15.5t-29 -6q-29 0 -45.5 21.5t-11.5 47.5q2 13 9.5 25t18.5 21.5t24.5 15.5t28.5 6q31 0 47.5 -21t11.5 -47z" />
    <glyph glyph-name="wdieresis" unicode="&#x1e85;" horiz-adv-x="786" 
d="M164 171q-8 -47 10.5 -70.5t68.5 -23.5q30 0 63 9t56 26l71 402h99l-71 -402q17 -16 47.5 -25.5t60.5 -9.5q96 0 113 94l60 343h99l-60 -343q-16 -89 -75.5 -140t-153.5 -51q-38 0 -79.5 15.5t-73.5 41.5q-42 -26 -89 -41.5t-84 -15.5q-94 0 -135.5 51t-25.5 140l60 343
h99zM448 656q-2 -13 -9.5 -25.5t-19 -22t-25.5 -15.5t-29 -6q-29 0 -45.5 21.5t-11.5 47.5q2 13 9.5 25t18.5 21.5t24.5 15.5t28.5 6q31 0 47.5 -21t11.5 -47zM706 656q-2 -13 -9.5 -25.5t-18.5 -22t-25 -15.5t-29 -6q-30 0 -46.5 21.5t-11.5 47.5q2 13 9.5 25t18.5 21.5
t25 15.5t29 6q30 0 46.5 -21t11.5 -47z" />
    <glyph glyph-name="Ygrave" unicode="&#x1ef2;" horiz-adv-x="726" 
d="M311 0l50 288l-209 440h123l156 -342l276 342h123l-367 -441l-50 -287h-102zM461 1008l187 -226l-61 -60l-208 215z" />
    <glyph glyph-name="ygrave" unicode="&#x1ef3;" horiz-adv-x="602" 
d="M474 37q-41 -17 -87 -27t-98 -10q-122 0 -177 64t-34 184l47 266h99l-47 -266q-13 -75 19.5 -113.5t108.5 -38.5q55 0 99.5 9t86.5 29l67 380h100l-86 -489q-10 -57 -38.5 -99.5t-69 -71.5t-91.5 -43.5t-106 -14.5q-80 0 -145 22.5t-103 63.5l17 99q59 -49 121 -69
t126 -20q33 0 64.5 7.5t57 23t43 39t22.5 55.5zM362 798l187 -226l-61 -60l-208 215z" />
    <glyph glyph-name="endash" unicode="&#x2013;" horiz-adv-x="777" 
d="M79 250l16 93h707l-16 -93h-707z" />
    <glyph glyph-name="emdash" unicode="&#x2014;" horiz-adv-x="1004" 
d="M79 250l16 93h933l-16 -93h-933z" />
    <glyph glyph-name="quoteleft" unicode="&#x2018;" horiz-adv-x="263" 
d="M195 378h-105l161 334h91z" />
    <glyph glyph-name="quoteright" unicode="&#x2019;" horiz-adv-x="263" 
d="M249 712h104l-162 -334h-90z" />
    <glyph glyph-name="quotesinglbase" unicode="&#x201a;" horiz-adv-x="263" 
d="M163 226h104l-162 -334h-90z" />
    <glyph glyph-name="quotedblleft" unicode="&#x201c;" horiz-adv-x="459" 
d="M205 378h-105l161 334h91zM400 378h-104l162 334h90z" />
    <glyph glyph-name="quotedblright" unicode="&#x201d;" horiz-adv-x="459" 
d="M249 712h104l-162 -334h-90zM444 712h104l-161 -334h-91z" />
    <glyph glyph-name="quotedblbase" unicode="&#x201e;" horiz-adv-x="465" 
d="M158 226h104l-161 -334h-91zM371 226h104l-162 -334h-90z" />
    <glyph glyph-name="dagger" unicode="&#x2020;" horiz-adv-x="568" 
d="M410 485l-118 -669h-89l118 669h-197l15 87h197l33 184h89l-33 -184h203l-15 -87h-203z" />
    <glyph glyph-name="daggerdbl" unicode="&#x2021;" horiz-adv-x="568" 
d="M327 14l-35 -198h-89l35 198h-197l15 87h197l68 384h-197l15 87h197l33 184h89l-33 -184h203l-15 -87h-203l-68 -384h203l-15 -87h-203z" />
    <glyph glyph-name="bullet" unicode="&#x2022;" horiz-adv-x="333" 
d="M357 368q-10 -58 -51 -92t-98 -34q-25 0 -46.5 9t-36 25.5t-21 39.5t-1.5 52t19.5 51.5t35 38t45 23.5t49.5 8q57 0 86.5 -31t18.5 -90z" />
    <glyph glyph-name="ellipsis" unicode="&#x2026;" horiz-adv-x="677" 
d="M661 68q-2 -13 -9.5 -25t-18.5 -21.5t-24.5 -15.5t-28.5 -6q-30 0 -47 21t-12 47q3 13 10.5 25.5t18.5 22t24.5 15t28.5 5.5q30 0 46.5 -21t11.5 -47zM190 68q-2 -13 -9.5 -25t-18.5 -21.5t-24.5 -15.5t-28.5 -6q-29 0 -46.5 21t-12.5 47q3 13 10.5 25.5t18.5 22t24.5 15
t28.5 5.5q30 0 46.5 -21t11.5 -47zM426 68q-2 -13 -9.5 -25t-18.5 -21.5t-25 -15.5t-29 -6q-29 0 -46 21t-12 47q3 13 10.5 25.5t18 22t24 15t28.5 5.5q30 0 47 -21t12 -47z" />
    <glyph glyph-name="perthousand" unicode="&#x2030;" horiz-adv-x="1140" 
d="M1159 208q-8 -48 -29.5 -86.5t-52 -65.5t-68.5 -41.5t-80 -14.5q-53 0 -85.5 17.5t-49.5 52.5q-32 -34 -72 -52t-85 -18q-48 0 -80 16.5t-49.5 45t-22 66t3.5 79.5q7 39 24 76t44.5 66.5t65.5 47t86 17.5q45 0 79 -18t54 -52q29 32 69 52t91 20q42 0 75 -14.5t54 -41.5
t29 -65.5t-1 -86.5zM504 501q-8 -47 -29.5 -85t-51.5 -65t-68 -41.5t-79 -14.5q-47 0 -79 16.5t-50 45t-22.5 65.5t3.5 79q7 39 24.5 76.5t45.5 66.5t66 47t85 18q41 0 73.5 -15t53.5 -42t28.5 -65.5t-0.5 -85.5zM420 501q4 24 2.5 47t-11 42t-28 30.5t-48.5 11.5
q-27 0 -48 -11.5t-36.5 -30.5t-25.5 -42t-14 -47q-4 -23 -2.5 -46t10.5 -41.5t26 -30t44 -11.5q30 0 52.5 11.5t38.5 30t26 41.5t14 46zM777 208q2 7 3 14t3 14q1 19 -3.5 37.5t-14.5 32.5t-27 22.5t-42 8.5q-27 0 -48.5 -11.5t-37 -30t-25.5 -41.5t-14 -47t-2.5 -47
t10.5 -41.5t26.5 -30t44.5 -11.5q25 0 45 8.5t35.5 23t26 32.5t16.5 38q0 6 1 13.5t3 15.5zM1069 208q4 22 2.5 44.5t-10.5 40.5t-27 29t-47 11q-26 0 -46.5 -11t-35 -29t-23.5 -40.5t-13 -44.5q-4 -23 -2.5 -45.5t9.5 -40.5t24.5 -29t42.5 -11q29 0 51 11t37.5 29
t24.5 40.5t13 45.5zM811 709h114l-748 -709h-114z" />
    <glyph glyph-name="guilsinglleft" unicode="&#x2039;" horiz-adv-x="463" 
d="M527 545l-292 -196l222 -192l-67 -63l-300 254l388 253z" />
    <glyph glyph-name="guilsinglright" unicode="&#x203a;" horiz-adv-x="463" 
d="M55 149l292 197l-223 192l67 63l301 -254l-389 -253z" />
    <glyph glyph-name="fraction" unicode="&#x2044;" horiz-adv-x="659" 
d="M639 709h115l-634 -845h-115z" />
    <glyph glyph-name="Euro" unicode="&#x20ac;" horiz-adv-x="643" 
d="M623 81q-45 -36 -99.5 -58.5t-114.5 -22.5q-59 0 -106 20t-79 56t-49.5 85.5t-17.5 109.5h-71l12 69h63q0 3 1 6.5t2 7.5l2 9h-63l11 68h69q21 62 56 113.5t80.5 88t100 56.5t114.5 20t107 -22.5t78 -59.5l-68 -61q-24 26 -56 41t-73 15q-39 0 -75 -14t-66.5 -39.5
t-55.5 -60.5t-41 -77h236l-11 -68h-244l-4 -21l-15 -2h258l-12 -69h-234q4 -82 48 -133.5t122 -51.5q42 0 79 15t69 41z" />
    <glyph glyph-name="trademark" unicode="&#x2122;" horiz-adv-x="1281" 
d="M1189 211l69 395l-248 -293h-50l-139 290l-69 -392h-89l96 545h91l160 -324l274 324h91l-96 -545h-90zM461 669l-80 -458h-96l80 458h-209l16 87h520l-16 -87h-215z" />
    <glyph glyph-name="minus" unicode="&#x2212;" horiz-adv-x="634" 
d="M93 307l15 88h556l-15 -88h-556z" />
    </font>
</defs>
</svg>
